<?xml version="1.0" encoding="utf-8" standalone="no"?>
<!DOCTYPE svg PUBLIC "-//W3C//DTD SVG 1.1//EN"
  "http://www.w3.org/Graphics/SVG/1.1/DTD/svg11.dtd">
<svg xmlns:xlink="http://www.w3.org/1999/xlink" width="559.025625pt" height="238.510423pt" viewBox="0 0 559.025625 238.510423" xmlns="http://www.w3.org/2000/svg" version="1.1">
 <metadata>
  <rdf:RDF xmlns:dc="http://purl.org/dc/elements/1.1/" xmlns:cc="http://creativecommons.org/ns#" xmlns:rdf="http://www.w3.org/1999/02/22-rdf-syntax-ns#">
   <cc:Work>
    <dc:type rdf:resource="http://purl.org/dc/dcmitype/StillImage"/>
    <dc:date>2024-05-22T21:37:58.690697</dc:date>
    <dc:format>image/svg+xml</dc:format>
    <dc:creator>
     <cc:Agent>
      <dc:title>Matplotlib v3.8.3, https://matplotlib.org/</dc:title>
     </cc:Agent>
    </dc:creator>
   </cc:Work>
  </rdf:RDF>
 </metadata>
 <defs>
  <style type="text/css">*{stroke-linejoin: round; stroke-linecap: butt}</style>
 </defs>
 <g id="figure_1">
  <g id="patch_1">
   <path d="M 0 238.510423 
L 559.025625 238.510423 
L 559.025625 0 
L 0 0 
z
" style="fill: #ffffff"/>
  </g>
  <g id="axes_1">
   <g id="patch_2">
    <path d="M 59.827773 200.932298 
L 499.197852 200.932298 
L 499.197852 26.318125 
L 59.827773 26.318125 
z
" style="fill: #ffffff"/>
   </g>
   <g id="matplotlib.axis_1">
    <g id="xtick_1">
     <g id="line2d_1">
      <defs>
       <path id="m3b11012633" d="M 0 0 
L 0 3.5 
" style="stroke: #000000; stroke-width: 0.8"/>
      </defs>
      <g>
       <use xlink:href="#m3b11012633" x="78.146366" y="200.932298" style="stroke: #000000; stroke-width: 0.8"/>
      </g>
     </g>
     <g id="text_1">
      <!-- 4 -->
      <g transform="translate(74.965116 215.530736) scale(0.1 -0.1)">
       <defs>
        <path id="DejaVuSans-34" d="M 2419 4116 
L 825 1625 
L 2419 1625 
L 2419 4116 
z
M 2253 4666 
L 3047 4666 
L 3047 1625 
L 3713 1625 
L 3713 1100 
L 3047 1100 
L 3047 0 
L 2419 0 
L 2419 1100 
L 313 1100 
L 313 1709 
L 2253 4666 
z
" transform="scale(0.015625)"/>
       </defs>
       <use xlink:href="#DejaVuSans-34"/>
      </g>
     </g>
    </g>
    <g id="xtick_2">
     <g id="line2d_2">
      <g>
       <use xlink:href="#m3b11012633" x="106.913002" y="200.932298" style="stroke: #000000; stroke-width: 0.8"/>
      </g>
     </g>
     <g id="text_2">
      <!-- 5 -->
      <g transform="translate(103.731752 215.530736) scale(0.1 -0.1)">
       <defs>
        <path id="DejaVuSans-35" d="M 691 4666 
L 3169 4666 
L 3169 4134 
L 1269 4134 
L 1269 2991 
Q 1406 3038 1543 3061 
Q 1681 3084 1819 3084 
Q 2600 3084 3056 2656 
Q 3513 2228 3513 1497 
Q 3513 744 3044 326 
Q 2575 -91 1722 -91 
Q 1428 -91 1123 -41 
Q 819 9 494 109 
L 494 744 
Q 775 591 1075 516 
Q 1375 441 1709 441 
Q 2250 441 2565 725 
Q 2881 1009 2881 1497 
Q 2881 1984 2565 2268 
Q 2250 2553 1709 2553 
Q 1456 2553 1204 2497 
Q 953 2441 691 2322 
L 691 4666 
z
" transform="scale(0.015625)"/>
       </defs>
       <use xlink:href="#DejaVuSans-35"/>
      </g>
     </g>
    </g>
    <g id="xtick_3">
     <g id="line2d_3">
      <g>
       <use xlink:href="#m3b11012633" x="135.679637" y="200.932298" style="stroke: #000000; stroke-width: 0.8"/>
      </g>
     </g>
     <g id="text_3">
      <!-- 6 -->
      <g transform="translate(132.498387 215.530736) scale(0.1 -0.1)">
       <defs>
        <path id="DejaVuSans-36" d="M 2113 2584 
Q 1688 2584 1439 2293 
Q 1191 2003 1191 1497 
Q 1191 994 1439 701 
Q 1688 409 2113 409 
Q 2538 409 2786 701 
Q 3034 994 3034 1497 
Q 3034 2003 2786 2293 
Q 2538 2584 2113 2584 
z
M 3366 4563 
L 3366 3988 
Q 3128 4100 2886 4159 
Q 2644 4219 2406 4219 
Q 1781 4219 1451 3797 
Q 1122 3375 1075 2522 
Q 1259 2794 1537 2939 
Q 1816 3084 2150 3084 
Q 2853 3084 3261 2657 
Q 3669 2231 3669 1497 
Q 3669 778 3244 343 
Q 2819 -91 2113 -91 
Q 1303 -91 875 529 
Q 447 1150 447 2328 
Q 447 3434 972 4092 
Q 1497 4750 2381 4750 
Q 2619 4750 2861 4703 
Q 3103 4656 3366 4563 
z
" transform="scale(0.015625)"/>
       </defs>
       <use xlink:href="#DejaVuSans-36"/>
      </g>
     </g>
    </g>
    <g id="xtick_4">
     <g id="line2d_4">
      <g>
       <use xlink:href="#m3b11012633" x="164.446272" y="200.932298" style="stroke: #000000; stroke-width: 0.8"/>
      </g>
     </g>
     <g id="text_4">
      <!-- 7 -->
      <g transform="translate(161.265022 215.530736) scale(0.1 -0.1)">
       <defs>
        <path id="DejaVuSans-37" d="M 525 4666 
L 3525 4666 
L 3525 4397 
L 1831 0 
L 1172 0 
L 2766 4134 
L 525 4134 
L 525 4666 
z
" transform="scale(0.015625)"/>
       </defs>
       <use xlink:href="#DejaVuSans-37"/>
      </g>
     </g>
    </g>
    <g id="xtick_5">
     <g id="line2d_5">
      <g>
       <use xlink:href="#m3b11012633" x="193.212907" y="200.932298" style="stroke: #000000; stroke-width: 0.8"/>
      </g>
     </g>
     <g id="text_5">
      <!-- 8 -->
      <g transform="translate(190.031657 215.530736) scale(0.1 -0.1)">
       <defs>
        <path id="DejaVuSans-38" d="M 2034 2216 
Q 1584 2216 1326 1975 
Q 1069 1734 1069 1313 
Q 1069 891 1326 650 
Q 1584 409 2034 409 
Q 2484 409 2743 651 
Q 3003 894 3003 1313 
Q 3003 1734 2745 1975 
Q 2488 2216 2034 2216 
z
M 1403 2484 
Q 997 2584 770 2862 
Q 544 3141 544 3541 
Q 544 4100 942 4425 
Q 1341 4750 2034 4750 
Q 2731 4750 3128 4425 
Q 3525 4100 3525 3541 
Q 3525 3141 3298 2862 
Q 3072 2584 2669 2484 
Q 3125 2378 3379 2068 
Q 3634 1759 3634 1313 
Q 3634 634 3220 271 
Q 2806 -91 2034 -91 
Q 1263 -91 848 271 
Q 434 634 434 1313 
Q 434 1759 690 2068 
Q 947 2378 1403 2484 
z
M 1172 3481 
Q 1172 3119 1398 2916 
Q 1625 2713 2034 2713 
Q 2441 2713 2670 2916 
Q 2900 3119 2900 3481 
Q 2900 3844 2670 4047 
Q 2441 4250 2034 4250 
Q 1625 4250 1398 4047 
Q 1172 3844 1172 3481 
z
" transform="scale(0.015625)"/>
       </defs>
       <use xlink:href="#DejaVuSans-38"/>
      </g>
     </g>
    </g>
    <g id="xtick_6">
     <g id="line2d_6">
      <g>
       <use xlink:href="#m3b11012633" x="221.979542" y="200.932298" style="stroke: #000000; stroke-width: 0.8"/>
      </g>
     </g>
     <g id="text_6">
      <!-- 9 -->
      <g transform="translate(218.798292 215.530736) scale(0.1 -0.1)">
       <defs>
        <path id="DejaVuSans-39" d="M 703 97 
L 703 672 
Q 941 559 1184 500 
Q 1428 441 1663 441 
Q 2288 441 2617 861 
Q 2947 1281 2994 2138 
Q 2813 1869 2534 1725 
Q 2256 1581 1919 1581 
Q 1219 1581 811 2004 
Q 403 2428 403 3163 
Q 403 3881 828 4315 
Q 1253 4750 1959 4750 
Q 2769 4750 3195 4129 
Q 3622 3509 3622 2328 
Q 3622 1225 3098 567 
Q 2575 -91 1691 -91 
Q 1453 -91 1209 -44 
Q 966 3 703 97 
z
M 1959 2075 
Q 2384 2075 2632 2365 
Q 2881 2656 2881 3163 
Q 2881 3666 2632 3958 
Q 2384 4250 1959 4250 
Q 1534 4250 1286 3958 
Q 1038 3666 1038 3163 
Q 1038 2656 1286 2365 
Q 1534 2075 1959 2075 
z
" transform="scale(0.015625)"/>
       </defs>
       <use xlink:href="#DejaVuSans-39"/>
      </g>
     </g>
    </g>
    <g id="xtick_7">
     <g id="line2d_7">
      <g>
       <use xlink:href="#m3b11012633" x="250.746177" y="200.932298" style="stroke: #000000; stroke-width: 0.8"/>
      </g>
     </g>
     <g id="text_7">
      <!-- 10 -->
      <g transform="translate(244.383677 215.530736) scale(0.1 -0.1)">
       <defs>
        <path id="DejaVuSans-31" d="M 794 531 
L 1825 531 
L 1825 4091 
L 703 3866 
L 703 4441 
L 1819 4666 
L 2450 4666 
L 2450 531 
L 3481 531 
L 3481 0 
L 794 0 
L 794 531 
z
" transform="scale(0.015625)"/>
        <path id="DejaVuSans-30" d="M 2034 4250 
Q 1547 4250 1301 3770 
Q 1056 3291 1056 2328 
Q 1056 1369 1301 889 
Q 1547 409 2034 409 
Q 2525 409 2770 889 
Q 3016 1369 3016 2328 
Q 3016 3291 2770 3770 
Q 2525 4250 2034 4250 
z
M 2034 4750 
Q 2819 4750 3233 4129 
Q 3647 3509 3647 2328 
Q 3647 1150 3233 529 
Q 2819 -91 2034 -91 
Q 1250 -91 836 529 
Q 422 1150 422 2328 
Q 422 3509 836 4129 
Q 1250 4750 2034 4750 
z
" transform="scale(0.015625)"/>
       </defs>
       <use xlink:href="#DejaVuSans-31"/>
       <use xlink:href="#DejaVuSans-30" x="63.623047"/>
      </g>
     </g>
    </g>
    <g id="xtick_8">
     <g id="line2d_8">
      <g>
       <use xlink:href="#m3b11012633" x="279.512812" y="200.932298" style="stroke: #000000; stroke-width: 0.8"/>
      </g>
     </g>
     <g id="text_8">
      <!-- 11 -->
      <g transform="translate(273.150312 215.530736) scale(0.1 -0.1)">
       <use xlink:href="#DejaVuSans-31"/>
       <use xlink:href="#DejaVuSans-31" x="63.623047"/>
      </g>
     </g>
    </g>
    <g id="xtick_9">
     <g id="line2d_9">
      <g>
       <use xlink:href="#m3b11012633" x="308.279448" y="200.932298" style="stroke: #000000; stroke-width: 0.8"/>
      </g>
     </g>
     <g id="text_9">
      <!-- 12 -->
      <g transform="translate(301.916948 215.530736) scale(0.1 -0.1)">
       <defs>
        <path id="DejaVuSans-32" d="M 1228 531 
L 3431 531 
L 3431 0 
L 469 0 
L 469 531 
Q 828 903 1448 1529 
Q 2069 2156 2228 2338 
Q 2531 2678 2651 2914 
Q 2772 3150 2772 3378 
Q 2772 3750 2511 3984 
Q 2250 4219 1831 4219 
Q 1534 4219 1204 4116 
Q 875 4013 500 3803 
L 500 4441 
Q 881 4594 1212 4672 
Q 1544 4750 1819 4750 
Q 2544 4750 2975 4387 
Q 3406 4025 3406 3419 
Q 3406 3131 3298 2873 
Q 3191 2616 2906 2266 
Q 2828 2175 2409 1742 
Q 1991 1309 1228 531 
z
" transform="scale(0.015625)"/>
       </defs>
       <use xlink:href="#DejaVuSans-31"/>
       <use xlink:href="#DejaVuSans-32" x="63.623047"/>
      </g>
     </g>
    </g>
    <g id="xtick_10">
     <g id="line2d_10">
      <g>
       <use xlink:href="#m3b11012633" x="337.046083" y="200.932298" style="stroke: #000000; stroke-width: 0.8"/>
      </g>
     </g>
     <g id="text_10">
      <!-- 13 -->
      <g transform="translate(330.683583 215.530736) scale(0.1 -0.1)">
       <defs>
        <path id="DejaVuSans-33" d="M 2597 2516 
Q 3050 2419 3304 2112 
Q 3559 1806 3559 1356 
Q 3559 666 3084 287 
Q 2609 -91 1734 -91 
Q 1441 -91 1130 -33 
Q 819 25 488 141 
L 488 750 
Q 750 597 1062 519 
Q 1375 441 1716 441 
Q 2309 441 2620 675 
Q 2931 909 2931 1356 
Q 2931 1769 2642 2001 
Q 2353 2234 1838 2234 
L 1294 2234 
L 1294 2753 
L 1863 2753 
Q 2328 2753 2575 2939 
Q 2822 3125 2822 3475 
Q 2822 3834 2567 4026 
Q 2313 4219 1838 4219 
Q 1578 4219 1281 4162 
Q 984 4106 628 3988 
L 628 4550 
Q 988 4650 1302 4700 
Q 1616 4750 1894 4750 
Q 2613 4750 3031 4423 
Q 3450 4097 3450 3541 
Q 3450 3153 3228 2886 
Q 3006 2619 2597 2516 
z
" transform="scale(0.015625)"/>
       </defs>
       <use xlink:href="#DejaVuSans-31"/>
       <use xlink:href="#DejaVuSans-33" x="63.623047"/>
      </g>
     </g>
    </g>
    <g id="xtick_11">
     <g id="line2d_11">
      <g>
       <use xlink:href="#m3b11012633" x="365.812718" y="200.932298" style="stroke: #000000; stroke-width: 0.8"/>
      </g>
     </g>
     <g id="text_11">
      <!-- 14 -->
      <g transform="translate(359.450218 215.530736) scale(0.1 -0.1)">
       <use xlink:href="#DejaVuSans-31"/>
       <use xlink:href="#DejaVuSans-34" x="63.623047"/>
      </g>
     </g>
    </g>
    <g id="xtick_12">
     <g id="line2d_12">
      <g>
       <use xlink:href="#m3b11012633" x="394.579353" y="200.932298" style="stroke: #000000; stroke-width: 0.8"/>
      </g>
     </g>
     <g id="text_12">
      <!-- 15 -->
      <g transform="translate(388.216853 215.530736) scale(0.1 -0.1)">
       <use xlink:href="#DejaVuSans-31"/>
       <use xlink:href="#DejaVuSans-35" x="63.623047"/>
      </g>
     </g>
    </g>
    <g id="xtick_13">
     <g id="line2d_13">
      <g>
       <use xlink:href="#m3b11012633" x="423.345988" y="200.932298" style="stroke: #000000; stroke-width: 0.8"/>
      </g>
     </g>
     <g id="text_13">
      <!-- 16 -->
      <g transform="translate(416.983488 215.530736) scale(0.1 -0.1)">
       <use xlink:href="#DejaVuSans-31"/>
       <use xlink:href="#DejaVuSans-36" x="63.623047"/>
      </g>
     </g>
    </g>
    <g id="xtick_14">
     <g id="line2d_14">
      <g>
       <use xlink:href="#m3b11012633" x="452.112623" y="200.932298" style="stroke: #000000; stroke-width: 0.8"/>
      </g>
     </g>
     <g id="text_14">
      <!-- 17 -->
      <g transform="translate(445.750123 215.530736) scale(0.1 -0.1)">
       <use xlink:href="#DejaVuSans-31"/>
       <use xlink:href="#DejaVuSans-37" x="63.623047"/>
      </g>
     </g>
    </g>
    <g id="xtick_15">
     <g id="line2d_15">
      <g>
       <use xlink:href="#m3b11012633" x="480.879259" y="200.932298" style="stroke: #000000; stroke-width: 0.8"/>
      </g>
     </g>
     <g id="text_15">
      <!-- 18 -->
      <g transform="translate(474.516759 215.530736) scale(0.1 -0.1)">
       <use xlink:href="#DejaVuSans-31"/>
       <use xlink:href="#DejaVuSans-38" x="63.623047"/>
      </g>
     </g>
    </g>
    <g id="text_16">
     <!-- Block Size (log$_2$(B)) -->
     <g transform="translate(231.262812 229.210423) scale(0.1 -0.1)">
      <defs>
       <path id="DejaVuSans-42" d="M 1259 2228 
L 1259 519 
L 2272 519 
Q 2781 519 3026 730 
Q 3272 941 3272 1375 
Q 3272 1813 3026 2020 
Q 2781 2228 2272 2228 
L 1259 2228 
z
M 1259 4147 
L 1259 2741 
L 2194 2741 
Q 2656 2741 2882 2914 
Q 3109 3088 3109 3444 
Q 3109 3797 2882 3972 
Q 2656 4147 2194 4147 
L 1259 4147 
z
M 628 4666 
L 2241 4666 
Q 2963 4666 3353 4366 
Q 3744 4066 3744 3513 
Q 3744 3084 3544 2831 
Q 3344 2578 2956 2516 
Q 3422 2416 3680 2098 
Q 3938 1781 3938 1306 
Q 3938 681 3513 340 
Q 3088 0 2303 0 
L 628 0 
L 628 4666 
z
" transform="scale(0.015625)"/>
       <path id="DejaVuSans-6c" d="M 603 4863 
L 1178 4863 
L 1178 0 
L 603 0 
L 603 4863 
z
" transform="scale(0.015625)"/>
       <path id="DejaVuSans-6f" d="M 1959 3097 
Q 1497 3097 1228 2736 
Q 959 2375 959 1747 
Q 959 1119 1226 758 
Q 1494 397 1959 397 
Q 2419 397 2687 759 
Q 2956 1122 2956 1747 
Q 2956 2369 2687 2733 
Q 2419 3097 1959 3097 
z
M 1959 3584 
Q 2709 3584 3137 3096 
Q 3566 2609 3566 1747 
Q 3566 888 3137 398 
Q 2709 -91 1959 -91 
Q 1206 -91 779 398 
Q 353 888 353 1747 
Q 353 2609 779 3096 
Q 1206 3584 1959 3584 
z
" transform="scale(0.015625)"/>
       <path id="DejaVuSans-63" d="M 3122 3366 
L 3122 2828 
Q 2878 2963 2633 3030 
Q 2388 3097 2138 3097 
Q 1578 3097 1268 2742 
Q 959 2388 959 1747 
Q 959 1106 1268 751 
Q 1578 397 2138 397 
Q 2388 397 2633 464 
Q 2878 531 3122 666 
L 3122 134 
Q 2881 22 2623 -34 
Q 2366 -91 2075 -91 
Q 1284 -91 818 406 
Q 353 903 353 1747 
Q 353 2603 823 3093 
Q 1294 3584 2113 3584 
Q 2378 3584 2631 3529 
Q 2884 3475 3122 3366 
z
" transform="scale(0.015625)"/>
       <path id="DejaVuSans-6b" d="M 581 4863 
L 1159 4863 
L 1159 1991 
L 2875 3500 
L 3609 3500 
L 1753 1863 
L 3688 0 
L 2938 0 
L 1159 1709 
L 1159 0 
L 581 0 
L 581 4863 
z
" transform="scale(0.015625)"/>
       <path id="DejaVuSans-20" transform="scale(0.015625)"/>
       <path id="DejaVuSans-53" d="M 3425 4513 
L 3425 3897 
Q 3066 4069 2747 4153 
Q 2428 4238 2131 4238 
Q 1616 4238 1336 4038 
Q 1056 3838 1056 3469 
Q 1056 3159 1242 3001 
Q 1428 2844 1947 2747 
L 2328 2669 
Q 3034 2534 3370 2195 
Q 3706 1856 3706 1288 
Q 3706 609 3251 259 
Q 2797 -91 1919 -91 
Q 1588 -91 1214 -16 
Q 841 59 441 206 
L 441 856 
Q 825 641 1194 531 
Q 1563 422 1919 422 
Q 2459 422 2753 634 
Q 3047 847 3047 1241 
Q 3047 1584 2836 1778 
Q 2625 1972 2144 2069 
L 1759 2144 
Q 1053 2284 737 2584 
Q 422 2884 422 3419 
Q 422 4038 858 4394 
Q 1294 4750 2059 4750 
Q 2388 4750 2728 4690 
Q 3069 4631 3425 4513 
z
" transform="scale(0.015625)"/>
       <path id="DejaVuSans-69" d="M 603 3500 
L 1178 3500 
L 1178 0 
L 603 0 
L 603 3500 
z
M 603 4863 
L 1178 4863 
L 1178 4134 
L 603 4134 
L 603 4863 
z
" transform="scale(0.015625)"/>
       <path id="DejaVuSans-7a" d="M 353 3500 
L 3084 3500 
L 3084 2975 
L 922 459 
L 3084 459 
L 3084 0 
L 275 0 
L 275 525 
L 2438 3041 
L 353 3041 
L 353 3500 
z
" transform="scale(0.015625)"/>
       <path id="DejaVuSans-65" d="M 3597 1894 
L 3597 1613 
L 953 1613 
Q 991 1019 1311 708 
Q 1631 397 2203 397 
Q 2534 397 2845 478 
Q 3156 559 3463 722 
L 3463 178 
Q 3153 47 2828 -22 
Q 2503 -91 2169 -91 
Q 1331 -91 842 396 
Q 353 884 353 1716 
Q 353 2575 817 3079 
Q 1281 3584 2069 3584 
Q 2775 3584 3186 3129 
Q 3597 2675 3597 1894 
z
M 3022 2063 
Q 3016 2534 2758 2815 
Q 2500 3097 2075 3097 
Q 1594 3097 1305 2825 
Q 1016 2553 972 2059 
L 3022 2063 
z
" transform="scale(0.015625)"/>
       <path id="DejaVuSans-28" d="M 1984 4856 
Q 1566 4138 1362 3434 
Q 1159 2731 1159 2009 
Q 1159 1288 1364 580 
Q 1569 -128 1984 -844 
L 1484 -844 
Q 1016 -109 783 600 
Q 550 1309 550 2009 
Q 550 2706 781 3412 
Q 1013 4119 1484 4856 
L 1984 4856 
z
" transform="scale(0.015625)"/>
       <path id="DejaVuSans-67" d="M 2906 1791 
Q 2906 2416 2648 2759 
Q 2391 3103 1925 3103 
Q 1463 3103 1205 2759 
Q 947 2416 947 1791 
Q 947 1169 1205 825 
Q 1463 481 1925 481 
Q 2391 481 2648 825 
Q 2906 1169 2906 1791 
z
M 3481 434 
Q 3481 -459 3084 -895 
Q 2688 -1331 1869 -1331 
Q 1566 -1331 1297 -1286 
Q 1028 -1241 775 -1147 
L 775 -588 
Q 1028 -725 1275 -790 
Q 1522 -856 1778 -856 
Q 2344 -856 2625 -561 
Q 2906 -266 2906 331 
L 2906 616 
Q 2728 306 2450 153 
Q 2172 0 1784 0 
Q 1141 0 747 490 
Q 353 981 353 1791 
Q 353 2603 747 3093 
Q 1141 3584 1784 3584 
Q 2172 3584 2450 3431 
Q 2728 3278 2906 2969 
L 2906 3500 
L 3481 3500 
L 3481 434 
z
" transform="scale(0.015625)"/>
       <path id="DejaVuSans-29" d="M 513 4856 
L 1013 4856 
Q 1481 4119 1714 3412 
Q 1947 2706 1947 2009 
Q 1947 1309 1714 600 
Q 1481 -109 1013 -844 
L 513 -844 
Q 928 -128 1133 580 
Q 1338 1288 1338 2009 
Q 1338 2731 1133 3434 
Q 928 4138 513 4856 
z
" transform="scale(0.015625)"/>
      </defs>
      <use xlink:href="#DejaVuSans-42" transform="translate(0 0.015625)"/>
      <use xlink:href="#DejaVuSans-6c" transform="translate(68.603516 0.015625)"/>
      <use xlink:href="#DejaVuSans-6f" transform="translate(96.386719 0.015625)"/>
      <use xlink:href="#DejaVuSans-63" transform="translate(157.568359 0.015625)"/>
      <use xlink:href="#DejaVuSans-6b" transform="translate(212.548828 0.015625)"/>
      <use xlink:href="#DejaVuSans-20" transform="translate(270.458984 0.015625)"/>
      <use xlink:href="#DejaVuSans-53" transform="translate(302.246094 0.015625)"/>
      <use xlink:href="#DejaVuSans-69" transform="translate(365.722656 0.015625)"/>
      <use xlink:href="#DejaVuSans-7a" transform="translate(393.505859 0.015625)"/>
      <use xlink:href="#DejaVuSans-65" transform="translate(445.996094 0.015625)"/>
      <use xlink:href="#DejaVuSans-20" transform="translate(507.519531 0.015625)"/>
      <use xlink:href="#DejaVuSans-28" transform="translate(539.306641 0.015625)"/>
      <use xlink:href="#DejaVuSans-6c" transform="translate(578.320312 0.015625)"/>
      <use xlink:href="#DejaVuSans-6f" transform="translate(606.103516 0.015625)"/>
      <use xlink:href="#DejaVuSans-67" transform="translate(667.285156 0.015625)"/>
      <use xlink:href="#DejaVuSans-32" transform="translate(731.71875 -16.390625) scale(0.7)"/>
      <use xlink:href="#DejaVuSans-28" transform="translate(778.989258 0.015625)"/>
      <use xlink:href="#DejaVuSans-42" transform="translate(818.00293 0.015625)"/>
      <use xlink:href="#DejaVuSans-29" transform="translate(886.606445 0.015625)"/>
      <use xlink:href="#DejaVuSans-29" transform="translate(925.620117 0.015625)"/>
     </g>
    </g>
   </g>
   <g id="matplotlib.axis_2">
    <g id="ytick_1">
     <g id="line2d_16">
      <path d="M 59.827773 172.900783 
L 499.197852 172.900783 
" clip-path="url(#p50293458b5)" style="fill: none; stroke-dasharray: 1.85,0.8; stroke-dashoffset: 0; stroke: #b0b0b0; stroke-width: 0.5"/>
     </g>
     <g id="line2d_17">
      <defs>
       <path id="m900d490201" d="M 0 0 
L -3.5 0 
" style="stroke: #000000; stroke-width: 0.8"/>
      </defs>
      <g>
       <use xlink:href="#m900d490201" x="59.827773" y="172.900783" style="stroke: #000000; stroke-width: 0.8"/>
      </g>
     </g>
     <g id="text_17">
      <!-- $\mathdefault{10^{2}}$ -->
      <g transform="translate(35.227773 176.700002) scale(0.1 -0.1)">
       <use xlink:href="#DejaVuSans-31" transform="translate(0 0.765625)"/>
       <use xlink:href="#DejaVuSans-30" transform="translate(63.623047 0.765625)"/>
       <use xlink:href="#DejaVuSans-32" transform="translate(128.203125 39.046875) scale(0.7)"/>
      </g>
     </g>
    </g>
    <g id="ytick_2">
     <g id="line2d_18">
      <path d="M 59.827773 136.255119 
L 499.197852 136.255119 
" clip-path="url(#p50293458b5)" style="fill: none; stroke-dasharray: 1.85,0.8; stroke-dashoffset: 0; stroke: #b0b0b0; stroke-width: 0.5"/>
     </g>
     <g id="line2d_19">
      <g>
       <use xlink:href="#m900d490201" x="59.827773" y="136.255119" style="stroke: #000000; stroke-width: 0.8"/>
      </g>
     </g>
     <g id="text_18">
      <!-- $\mathdefault{10^{3}}$ -->
      <g transform="translate(35.227773 140.054337) scale(0.1 -0.1)">
       <use xlink:href="#DejaVuSans-31" transform="translate(0 0.765625)"/>
       <use xlink:href="#DejaVuSans-30" transform="translate(63.623047 0.765625)"/>
       <use xlink:href="#DejaVuSans-33" transform="translate(128.203125 39.046875) scale(0.7)"/>
      </g>
     </g>
    </g>
    <g id="ytick_3">
     <g id="line2d_20">
      <path d="M 59.827773 99.609454 
L 499.197852 99.609454 
" clip-path="url(#p50293458b5)" style="fill: none; stroke-dasharray: 1.85,0.8; stroke-dashoffset: 0; stroke: #b0b0b0; stroke-width: 0.5"/>
     </g>
     <g id="line2d_21">
      <g>
       <use xlink:href="#m900d490201" x="59.827773" y="99.609454" style="stroke: #000000; stroke-width: 0.8"/>
      </g>
     </g>
     <g id="text_19">
      <!-- $\mathdefault{10^{4}}$ -->
      <g transform="translate(35.227773 103.408673) scale(0.1 -0.1)">
       <use xlink:href="#DejaVuSans-31" transform="translate(0 0.684375)"/>
       <use xlink:href="#DejaVuSans-30" transform="translate(63.623047 0.684375)"/>
       <use xlink:href="#DejaVuSans-34" transform="translate(128.203125 38.965625) scale(0.7)"/>
      </g>
     </g>
    </g>
    <g id="ytick_4">
     <g id="line2d_22">
      <path d="M 59.827773 62.96379 
L 499.197852 62.96379 
" clip-path="url(#p50293458b5)" style="fill: none; stroke-dasharray: 1.85,0.8; stroke-dashoffset: 0; stroke: #b0b0b0; stroke-width: 0.5"/>
     </g>
     <g id="line2d_23">
      <g>
       <use xlink:href="#m900d490201" x="59.827773" y="62.96379" style="stroke: #000000; stroke-width: 0.8"/>
      </g>
     </g>
     <g id="text_20">
      <!-- $\mathdefault{10^{5}}$ -->
      <g transform="translate(35.227773 66.763008) scale(0.1 -0.1)">
       <use xlink:href="#DejaVuSans-31" transform="translate(0 0.684375)"/>
       <use xlink:href="#DejaVuSans-30" transform="translate(63.623047 0.684375)"/>
       <use xlink:href="#DejaVuSans-35" transform="translate(128.203125 38.965625) scale(0.7)"/>
      </g>
     </g>
    </g>
    <g id="ytick_5">
     <g id="line2d_24">
      <path d="M 59.827773 26.318125 
L 499.197852 26.318125 
" clip-path="url(#p50293458b5)" style="fill: none; stroke-dasharray: 1.85,0.8; stroke-dashoffset: 0; stroke: #b0b0b0; stroke-width: 0.5"/>
     </g>
     <g id="line2d_25">
      <g>
       <use xlink:href="#m900d490201" x="59.827773" y="26.318125" style="stroke: #000000; stroke-width: 0.8"/>
      </g>
     </g>
     <g id="text_21">
      <!-- $\mathdefault{10^{6}}$ -->
      <g transform="translate(35.227773 30.117344) scale(0.1 -0.1)">
       <use xlink:href="#DejaVuSans-31" transform="translate(0 0.765625)"/>
       <use xlink:href="#DejaVuSans-30" transform="translate(63.623047 0.765625)"/>
       <use xlink:href="#DejaVuSans-36" transform="translate(128.203125 39.046875) scale(0.7)"/>
      </g>
     </g>
    </g>
    <g id="ytick_6">
     <g id="line2d_26">
      <path d="M 59.827773 198.515004 
L 499.197852 198.515004 
" clip-path="url(#p50293458b5)" style="fill: none; stroke-dasharray: 1.85,0.8; stroke-dashoffset: 0; stroke: #b0b0b0; stroke-width: 0.5"/>
     </g>
     <g id="line2d_27">
      <defs>
       <path id="ma57fa77712" d="M 0 0 
L -2 0 
" style="stroke: #000000; stroke-width: 0.6"/>
      </defs>
      <g>
       <use xlink:href="#ma57fa77712" x="59.827773" y="198.515004" style="stroke: #000000; stroke-width: 0.6"/>
      </g>
     </g>
    </g>
    <g id="ytick_7">
     <g id="line2d_28">
      <path d="M 59.827773 192.062022 
L 499.197852 192.062022 
" clip-path="url(#p50293458b5)" style="fill: none; stroke-dasharray: 1.85,0.8; stroke-dashoffset: 0; stroke: #b0b0b0; stroke-width: 0.5"/>
     </g>
     <g id="line2d_29">
      <g>
       <use xlink:href="#ma57fa77712" x="59.827773" y="192.062022" style="stroke: #000000; stroke-width: 0.6"/>
      </g>
     </g>
    </g>
    <g id="ytick_8">
     <g id="line2d_30">
      <path d="M 59.827773 187.483559 
L 499.197852 187.483559 
" clip-path="url(#p50293458b5)" style="fill: none; stroke-dasharray: 1.85,0.8; stroke-dashoffset: 0; stroke: #b0b0b0; stroke-width: 0.5"/>
     </g>
     <g id="line2d_31">
      <g>
       <use xlink:href="#ma57fa77712" x="59.827773" y="187.483559" style="stroke: #000000; stroke-width: 0.6"/>
      </g>
     </g>
    </g>
    <g id="ytick_9">
     <g id="line2d_32">
      <path d="M 59.827773 183.932227 
L 499.197852 183.932227 
" clip-path="url(#p50293458b5)" style="fill: none; stroke-dasharray: 1.85,0.8; stroke-dashoffset: 0; stroke: #b0b0b0; stroke-width: 0.5"/>
     </g>
     <g id="line2d_33">
      <g>
       <use xlink:href="#ma57fa77712" x="59.827773" y="183.932227" style="stroke: #000000; stroke-width: 0.6"/>
      </g>
     </g>
    </g>
    <g id="ytick_10">
     <g id="line2d_34">
      <path d="M 59.827773 181.030578 
L 499.197852 181.030578 
" clip-path="url(#p50293458b5)" style="fill: none; stroke-dasharray: 1.85,0.8; stroke-dashoffset: 0; stroke: #b0b0b0; stroke-width: 0.5"/>
     </g>
     <g id="line2d_35">
      <g>
       <use xlink:href="#ma57fa77712" x="59.827773" y="181.030578" style="stroke: #000000; stroke-width: 0.6"/>
      </g>
     </g>
    </g>
    <g id="ytick_11">
     <g id="line2d_36">
      <path d="M 59.827773 178.577268 
L 499.197852 178.577268 
" clip-path="url(#p50293458b5)" style="fill: none; stroke-dasharray: 1.85,0.8; stroke-dashoffset: 0; stroke: #b0b0b0; stroke-width: 0.5"/>
     </g>
     <g id="line2d_37">
      <g>
       <use xlink:href="#ma57fa77712" x="59.827773" y="178.577268" style="stroke: #000000; stroke-width: 0.6"/>
      </g>
     </g>
    </g>
    <g id="ytick_12">
     <g id="line2d_38">
      <path d="M 59.827773 176.452115 
L 499.197852 176.452115 
" clip-path="url(#p50293458b5)" style="fill: none; stroke-dasharray: 1.85,0.8; stroke-dashoffset: 0; stroke: #b0b0b0; stroke-width: 0.5"/>
     </g>
     <g id="line2d_39">
      <g>
       <use xlink:href="#ma57fa77712" x="59.827773" y="176.452115" style="stroke: #000000; stroke-width: 0.6"/>
      </g>
     </g>
    </g>
    <g id="ytick_13">
     <g id="line2d_40">
      <path d="M 59.827773 174.577597 
L 499.197852 174.577597 
" clip-path="url(#p50293458b5)" style="fill: none; stroke-dasharray: 1.85,0.8; stroke-dashoffset: 0; stroke: #b0b0b0; stroke-width: 0.5"/>
     </g>
     <g id="line2d_41">
      <g>
       <use xlink:href="#ma57fa77712" x="59.827773" y="174.577597" style="stroke: #000000; stroke-width: 0.6"/>
      </g>
     </g>
    </g>
    <g id="ytick_14">
     <g id="line2d_42">
      <path d="M 59.827773 161.869339 
L 499.197852 161.869339 
" clip-path="url(#p50293458b5)" style="fill: none; stroke-dasharray: 1.85,0.8; stroke-dashoffset: 0; stroke: #b0b0b0; stroke-width: 0.5"/>
     </g>
     <g id="line2d_43">
      <g>
       <use xlink:href="#ma57fa77712" x="59.827773" y="161.869339" style="stroke: #000000; stroke-width: 0.6"/>
      </g>
     </g>
    </g>
    <g id="ytick_15">
     <g id="line2d_44">
      <path d="M 59.827773 155.416358 
L 499.197852 155.416358 
" clip-path="url(#p50293458b5)" style="fill: none; stroke-dasharray: 1.85,0.8; stroke-dashoffset: 0; stroke: #b0b0b0; stroke-width: 0.5"/>
     </g>
     <g id="line2d_45">
      <g>
       <use xlink:href="#ma57fa77712" x="59.827773" y="155.416358" style="stroke: #000000; stroke-width: 0.6"/>
      </g>
     </g>
    </g>
    <g id="ytick_16">
     <g id="line2d_46">
      <path d="M 59.827773 150.837895 
L 499.197852 150.837895 
" clip-path="url(#p50293458b5)" style="fill: none; stroke-dasharray: 1.85,0.8; stroke-dashoffset: 0; stroke: #b0b0b0; stroke-width: 0.5"/>
     </g>
     <g id="line2d_47">
      <g>
       <use xlink:href="#ma57fa77712" x="59.827773" y="150.837895" style="stroke: #000000; stroke-width: 0.6"/>
      </g>
     </g>
    </g>
    <g id="ytick_17">
     <g id="line2d_48">
      <path d="M 59.827773 147.286563 
L 499.197852 147.286563 
" clip-path="url(#p50293458b5)" style="fill: none; stroke-dasharray: 1.85,0.8; stroke-dashoffset: 0; stroke: #b0b0b0; stroke-width: 0.5"/>
     </g>
     <g id="line2d_49">
      <g>
       <use xlink:href="#ma57fa77712" x="59.827773" y="147.286563" style="stroke: #000000; stroke-width: 0.6"/>
      </g>
     </g>
    </g>
    <g id="ytick_18">
     <g id="line2d_50">
      <path d="M 59.827773 144.384914 
L 499.197852 144.384914 
" clip-path="url(#p50293458b5)" style="fill: none; stroke-dasharray: 1.85,0.8; stroke-dashoffset: 0; stroke: #b0b0b0; stroke-width: 0.5"/>
     </g>
     <g id="line2d_51">
      <g>
       <use xlink:href="#ma57fa77712" x="59.827773" y="144.384914" style="stroke: #000000; stroke-width: 0.6"/>
      </g>
     </g>
    </g>
    <g id="ytick_19">
     <g id="line2d_52">
      <path d="M 59.827773 141.931604 
L 499.197852 141.931604 
" clip-path="url(#p50293458b5)" style="fill: none; stroke-dasharray: 1.85,0.8; stroke-dashoffset: 0; stroke: #b0b0b0; stroke-width: 0.5"/>
     </g>
     <g id="line2d_53">
      <g>
       <use xlink:href="#ma57fa77712" x="59.827773" y="141.931604" style="stroke: #000000; stroke-width: 0.6"/>
      </g>
     </g>
    </g>
    <g id="ytick_20">
     <g id="line2d_54">
      <path d="M 59.827773 139.80645 
L 499.197852 139.80645 
" clip-path="url(#p50293458b5)" style="fill: none; stroke-dasharray: 1.85,0.8; stroke-dashoffset: 0; stroke: #b0b0b0; stroke-width: 0.5"/>
     </g>
     <g id="line2d_55">
      <g>
       <use xlink:href="#ma57fa77712" x="59.827773" y="139.80645" style="stroke: #000000; stroke-width: 0.6"/>
      </g>
     </g>
    </g>
    <g id="ytick_21">
     <g id="line2d_56">
      <path d="M 59.827773 137.931932 
L 499.197852 137.931932 
" clip-path="url(#p50293458b5)" style="fill: none; stroke-dasharray: 1.85,0.8; stroke-dashoffset: 0; stroke: #b0b0b0; stroke-width: 0.5"/>
     </g>
     <g id="line2d_57">
      <g>
       <use xlink:href="#ma57fa77712" x="59.827773" y="137.931932" style="stroke: #000000; stroke-width: 0.6"/>
      </g>
     </g>
    </g>
    <g id="ytick_22">
     <g id="line2d_58">
      <path d="M 59.827773 125.223674 
L 499.197852 125.223674 
" clip-path="url(#p50293458b5)" style="fill: none; stroke-dasharray: 1.85,0.8; stroke-dashoffset: 0; stroke: #b0b0b0; stroke-width: 0.5"/>
     </g>
     <g id="line2d_59">
      <g>
       <use xlink:href="#ma57fa77712" x="59.827773" y="125.223674" style="stroke: #000000; stroke-width: 0.6"/>
      </g>
     </g>
    </g>
    <g id="ytick_23">
     <g id="line2d_60">
      <path d="M 59.827773 118.770693 
L 499.197852 118.770693 
" clip-path="url(#p50293458b5)" style="fill: none; stroke-dasharray: 1.85,0.8; stroke-dashoffset: 0; stroke: #b0b0b0; stroke-width: 0.5"/>
     </g>
     <g id="line2d_61">
      <g>
       <use xlink:href="#ma57fa77712" x="59.827773" y="118.770693" style="stroke: #000000; stroke-width: 0.6"/>
      </g>
     </g>
    </g>
    <g id="ytick_24">
     <g id="line2d_62">
      <path d="M 59.827773 114.19223 
L 499.197852 114.19223 
" clip-path="url(#p50293458b5)" style="fill: none; stroke-dasharray: 1.85,0.8; stroke-dashoffset: 0; stroke: #b0b0b0; stroke-width: 0.5"/>
     </g>
     <g id="line2d_63">
      <g>
       <use xlink:href="#ma57fa77712" x="59.827773" y="114.19223" style="stroke: #000000; stroke-width: 0.6"/>
      </g>
     </g>
    </g>
    <g id="ytick_25">
     <g id="line2d_64">
      <path d="M 59.827773 110.640898 
L 499.197852 110.640898 
" clip-path="url(#p50293458b5)" style="fill: none; stroke-dasharray: 1.85,0.8; stroke-dashoffset: 0; stroke: #b0b0b0; stroke-width: 0.5"/>
     </g>
     <g id="line2d_65">
      <g>
       <use xlink:href="#ma57fa77712" x="59.827773" y="110.640898" style="stroke: #000000; stroke-width: 0.6"/>
      </g>
     </g>
    </g>
    <g id="ytick_26">
     <g id="line2d_66">
      <path d="M 59.827773 107.739249 
L 499.197852 107.739249 
" clip-path="url(#p50293458b5)" style="fill: none; stroke-dasharray: 1.85,0.8; stroke-dashoffset: 0; stroke: #b0b0b0; stroke-width: 0.5"/>
     </g>
     <g id="line2d_67">
      <g>
       <use xlink:href="#ma57fa77712" x="59.827773" y="107.739249" style="stroke: #000000; stroke-width: 0.6"/>
      </g>
     </g>
    </g>
    <g id="ytick_27">
     <g id="line2d_68">
      <path d="M 59.827773 105.285939 
L 499.197852 105.285939 
" clip-path="url(#p50293458b5)" style="fill: none; stroke-dasharray: 1.85,0.8; stroke-dashoffset: 0; stroke: #b0b0b0; stroke-width: 0.5"/>
     </g>
     <g id="line2d_69">
      <g>
       <use xlink:href="#ma57fa77712" x="59.827773" y="105.285939" style="stroke: #000000; stroke-width: 0.6"/>
      </g>
     </g>
    </g>
    <g id="ytick_28">
     <g id="line2d_70">
      <path d="M 59.827773 103.160786 
L 499.197852 103.160786 
" clip-path="url(#p50293458b5)" style="fill: none; stroke-dasharray: 1.85,0.8; stroke-dashoffset: 0; stroke: #b0b0b0; stroke-width: 0.5"/>
     </g>
     <g id="line2d_71">
      <g>
       <use xlink:href="#ma57fa77712" x="59.827773" y="103.160786" style="stroke: #000000; stroke-width: 0.6"/>
      </g>
     </g>
    </g>
    <g id="ytick_29">
     <g id="line2d_72">
      <path d="M 59.827773 101.286268 
L 499.197852 101.286268 
" clip-path="url(#p50293458b5)" style="fill: none; stroke-dasharray: 1.85,0.8; stroke-dashoffset: 0; stroke: #b0b0b0; stroke-width: 0.5"/>
     </g>
     <g id="line2d_73">
      <g>
       <use xlink:href="#ma57fa77712" x="59.827773" y="101.286268" style="stroke: #000000; stroke-width: 0.6"/>
      </g>
     </g>
    </g>
    <g id="ytick_30">
     <g id="line2d_74">
      <path d="M 59.827773 88.57801 
L 499.197852 88.57801 
" clip-path="url(#p50293458b5)" style="fill: none; stroke-dasharray: 1.85,0.8; stroke-dashoffset: 0; stroke: #b0b0b0; stroke-width: 0.5"/>
     </g>
     <g id="line2d_75">
      <g>
       <use xlink:href="#ma57fa77712" x="59.827773" y="88.57801" style="stroke: #000000; stroke-width: 0.6"/>
      </g>
     </g>
    </g>
    <g id="ytick_31">
     <g id="line2d_76">
      <path d="M 59.827773 82.125029 
L 499.197852 82.125029 
" clip-path="url(#p50293458b5)" style="fill: none; stroke-dasharray: 1.85,0.8; stroke-dashoffset: 0; stroke: #b0b0b0; stroke-width: 0.5"/>
     </g>
     <g id="line2d_77">
      <g>
       <use xlink:href="#ma57fa77712" x="59.827773" y="82.125029" style="stroke: #000000; stroke-width: 0.6"/>
      </g>
     </g>
    </g>
    <g id="ytick_32">
     <g id="line2d_78">
      <path d="M 59.827773 77.546566 
L 499.197852 77.546566 
" clip-path="url(#p50293458b5)" style="fill: none; stroke-dasharray: 1.85,0.8; stroke-dashoffset: 0; stroke: #b0b0b0; stroke-width: 0.5"/>
     </g>
     <g id="line2d_79">
      <g>
       <use xlink:href="#ma57fa77712" x="59.827773" y="77.546566" style="stroke: #000000; stroke-width: 0.6"/>
      </g>
     </g>
    </g>
    <g id="ytick_33">
     <g id="line2d_80">
      <path d="M 59.827773 73.995234 
L 499.197852 73.995234 
" clip-path="url(#p50293458b5)" style="fill: none; stroke-dasharray: 1.85,0.8; stroke-dashoffset: 0; stroke: #b0b0b0; stroke-width: 0.5"/>
     </g>
     <g id="line2d_81">
      <g>
       <use xlink:href="#ma57fa77712" x="59.827773" y="73.995234" style="stroke: #000000; stroke-width: 0.6"/>
      </g>
     </g>
    </g>
    <g id="ytick_34">
     <g id="line2d_82">
      <path d="M 59.827773 71.093584 
L 499.197852 71.093584 
" clip-path="url(#p50293458b5)" style="fill: none; stroke-dasharray: 1.85,0.8; stroke-dashoffset: 0; stroke: #b0b0b0; stroke-width: 0.5"/>
     </g>
     <g id="line2d_83">
      <g>
       <use xlink:href="#ma57fa77712" x="59.827773" y="71.093584" style="stroke: #000000; stroke-width: 0.6"/>
      </g>
     </g>
    </g>
    <g id="ytick_35">
     <g id="line2d_84">
      <path d="M 59.827773 68.640275 
L 499.197852 68.640275 
" clip-path="url(#p50293458b5)" style="fill: none; stroke-dasharray: 1.85,0.8; stroke-dashoffset: 0; stroke: #b0b0b0; stroke-width: 0.5"/>
     </g>
     <g id="line2d_85">
      <g>
       <use xlink:href="#ma57fa77712" x="59.827773" y="68.640275" style="stroke: #000000; stroke-width: 0.6"/>
      </g>
     </g>
    </g>
    <g id="ytick_36">
     <g id="line2d_86">
      <path d="M 59.827773 66.515121 
L 499.197852 66.515121 
" clip-path="url(#p50293458b5)" style="fill: none; stroke-dasharray: 1.85,0.8; stroke-dashoffset: 0; stroke: #b0b0b0; stroke-width: 0.5"/>
     </g>
     <g id="line2d_87">
      <g>
       <use xlink:href="#ma57fa77712" x="59.827773" y="66.515121" style="stroke: #000000; stroke-width: 0.6"/>
      </g>
     </g>
    </g>
    <g id="ytick_37">
     <g id="line2d_88">
      <path d="M 59.827773 64.640603 
L 499.197852 64.640603 
" clip-path="url(#p50293458b5)" style="fill: none; stroke-dasharray: 1.85,0.8; stroke-dashoffset: 0; stroke: #b0b0b0; stroke-width: 0.5"/>
     </g>
     <g id="line2d_89">
      <g>
       <use xlink:href="#ma57fa77712" x="59.827773" y="64.640603" style="stroke: #000000; stroke-width: 0.6"/>
      </g>
     </g>
    </g>
    <g id="ytick_38">
     <g id="line2d_90">
      <path d="M 59.827773 51.932345 
L 499.197852 51.932345 
" clip-path="url(#p50293458b5)" style="fill: none; stroke-dasharray: 1.85,0.8; stroke-dashoffset: 0; stroke: #b0b0b0; stroke-width: 0.5"/>
     </g>
     <g id="line2d_91">
      <g>
       <use xlink:href="#ma57fa77712" x="59.827773" y="51.932345" style="stroke: #000000; stroke-width: 0.6"/>
      </g>
     </g>
    </g>
    <g id="ytick_39">
     <g id="line2d_92">
      <path d="M 59.827773 45.479364 
L 499.197852 45.479364 
" clip-path="url(#p50293458b5)" style="fill: none; stroke-dasharray: 1.85,0.8; stroke-dashoffset: 0; stroke: #b0b0b0; stroke-width: 0.5"/>
     </g>
     <g id="line2d_93">
      <g>
       <use xlink:href="#ma57fa77712" x="59.827773" y="45.479364" style="stroke: #000000; stroke-width: 0.6"/>
      </g>
     </g>
    </g>
    <g id="ytick_40">
     <g id="line2d_94">
      <path d="M 59.827773 40.900901 
L 499.197852 40.900901 
" clip-path="url(#p50293458b5)" style="fill: none; stroke-dasharray: 1.85,0.8; stroke-dashoffset: 0; stroke: #b0b0b0; stroke-width: 0.5"/>
     </g>
     <g id="line2d_95">
      <g>
       <use xlink:href="#ma57fa77712" x="59.827773" y="40.900901" style="stroke: #000000; stroke-width: 0.6"/>
      </g>
     </g>
    </g>
    <g id="ytick_41">
     <g id="line2d_96">
      <path d="M 59.827773 37.349569 
L 499.197852 37.349569 
" clip-path="url(#p50293458b5)" style="fill: none; stroke-dasharray: 1.85,0.8; stroke-dashoffset: 0; stroke: #b0b0b0; stroke-width: 0.5"/>
     </g>
     <g id="line2d_97">
      <g>
       <use xlink:href="#ma57fa77712" x="59.827773" y="37.349569" style="stroke: #000000; stroke-width: 0.6"/>
      </g>
     </g>
    </g>
    <g id="ytick_42">
     <g id="line2d_98">
      <path d="M 59.827773 34.44792 
L 499.197852 34.44792 
" clip-path="url(#p50293458b5)" style="fill: none; stroke-dasharray: 1.85,0.8; stroke-dashoffset: 0; stroke: #b0b0b0; stroke-width: 0.5"/>
     </g>
     <g id="line2d_99">
      <g>
       <use xlink:href="#ma57fa77712" x="59.827773" y="34.44792" style="stroke: #000000; stroke-width: 0.6"/>
      </g>
     </g>
    </g>
    <g id="ytick_43">
     <g id="line2d_100">
      <path d="M 59.827773 31.99461 
L 499.197852 31.99461 
" clip-path="url(#p50293458b5)" style="fill: none; stroke-dasharray: 1.85,0.8; stroke-dashoffset: 0; stroke: #b0b0b0; stroke-width: 0.5"/>
     </g>
     <g id="line2d_101">
      <g>
       <use xlink:href="#ma57fa77712" x="59.827773" y="31.99461" style="stroke: #000000; stroke-width: 0.6"/>
      </g>
     </g>
    </g>
    <g id="ytick_44">
     <g id="line2d_102">
      <path d="M 59.827773 29.869457 
L 499.197852 29.869457 
" clip-path="url(#p50293458b5)" style="fill: none; stroke-dasharray: 1.85,0.8; stroke-dashoffset: 0; stroke: #b0b0b0; stroke-width: 0.5"/>
     </g>
     <g id="line2d_103">
      <g>
       <use xlink:href="#ma57fa77712" x="59.827773" y="29.869457" style="stroke: #000000; stroke-width: 0.6"/>
      </g>
     </g>
    </g>
    <g id="ytick_45">
     <g id="line2d_104">
      <path d="M 59.827773 27.994939 
L 499.197852 27.994939 
" clip-path="url(#p50293458b5)" style="fill: none; stroke-dasharray: 1.85,0.8; stroke-dashoffset: 0; stroke: #b0b0b0; stroke-width: 0.5"/>
     </g>
     <g id="line2d_105">
      <g>
       <use xlink:href="#ma57fa77712" x="59.827773" y="27.994939" style="stroke: #000000; stroke-width: 0.6"/>
      </g>
     </g>
    </g>
    <g id="text_22">
     <!-- Time (ns) -->
     <g transform="translate(29.148086 137.122868) rotate(-90) scale(0.1 -0.1)">
      <defs>
       <path id="DejaVuSans-54" d="M -19 4666 
L 3928 4666 
L 3928 4134 
L 2272 4134 
L 2272 0 
L 1638 0 
L 1638 4134 
L -19 4134 
L -19 4666 
z
" transform="scale(0.015625)"/>
       <path id="DejaVuSans-6d" d="M 3328 2828 
Q 3544 3216 3844 3400 
Q 4144 3584 4550 3584 
Q 5097 3584 5394 3201 
Q 5691 2819 5691 2113 
L 5691 0 
L 5113 0 
L 5113 2094 
Q 5113 2597 4934 2840 
Q 4756 3084 4391 3084 
Q 3944 3084 3684 2787 
Q 3425 2491 3425 1978 
L 3425 0 
L 2847 0 
L 2847 2094 
Q 2847 2600 2669 2842 
Q 2491 3084 2119 3084 
Q 1678 3084 1418 2786 
Q 1159 2488 1159 1978 
L 1159 0 
L 581 0 
L 581 3500 
L 1159 3500 
L 1159 2956 
Q 1356 3278 1631 3431 
Q 1906 3584 2284 3584 
Q 2666 3584 2933 3390 
Q 3200 3197 3328 2828 
z
" transform="scale(0.015625)"/>
       <path id="DejaVuSans-6e" d="M 3513 2113 
L 3513 0 
L 2938 0 
L 2938 2094 
Q 2938 2591 2744 2837 
Q 2550 3084 2163 3084 
Q 1697 3084 1428 2787 
Q 1159 2491 1159 1978 
L 1159 0 
L 581 0 
L 581 3500 
L 1159 3500 
L 1159 2956 
Q 1366 3272 1645 3428 
Q 1925 3584 2291 3584 
Q 2894 3584 3203 3211 
Q 3513 2838 3513 2113 
z
" transform="scale(0.015625)"/>
       <path id="DejaVuSans-73" d="M 2834 3397 
L 2834 2853 
Q 2591 2978 2328 3040 
Q 2066 3103 1784 3103 
Q 1356 3103 1142 2972 
Q 928 2841 928 2578 
Q 928 2378 1081 2264 
Q 1234 2150 1697 2047 
L 1894 2003 
Q 2506 1872 2764 1633 
Q 3022 1394 3022 966 
Q 3022 478 2636 193 
Q 2250 -91 1575 -91 
Q 1294 -91 989 -36 
Q 684 19 347 128 
L 347 722 
Q 666 556 975 473 
Q 1284 391 1588 391 
Q 1994 391 2212 530 
Q 2431 669 2431 922 
Q 2431 1156 2273 1281 
Q 2116 1406 1581 1522 
L 1381 1569 
Q 847 1681 609 1914 
Q 372 2147 372 2553 
Q 372 3047 722 3315 
Q 1072 3584 1716 3584 
Q 2034 3584 2315 3537 
Q 2597 3491 2834 3397 
z
" transform="scale(0.015625)"/>
      </defs>
      <use xlink:href="#DejaVuSans-54"/>
      <use xlink:href="#DejaVuSans-69" x="57.958984"/>
      <use xlink:href="#DejaVuSans-6d" x="85.742188"/>
      <use xlink:href="#DejaVuSans-65" x="183.154297"/>
      <use xlink:href="#DejaVuSans-20" x="244.677734"/>
      <use xlink:href="#DejaVuSans-28" x="276.464844"/>
      <use xlink:href="#DejaVuSans-6e" x="315.478516"/>
      <use xlink:href="#DejaVuSans-73" x="378.857422"/>
      <use xlink:href="#DejaVuSans-29" x="430.957031"/>
     </g>
    </g>
   </g>
   <g id="patch_3">
    <path d="M 59.827773 200.932298 
L 59.827773 26.318125 
" style="fill: none; stroke: #000000; stroke-width: 0.8; stroke-linejoin: miter; stroke-linecap: square"/>
   </g>
   <g id="patch_4">
    <path d="M 499.197852 200.932298 
L 499.197852 26.318125 
" style="fill: none; stroke: #000000; stroke-width: 0.8; stroke-linejoin: miter; stroke-linecap: square"/>
   </g>
   <g id="patch_5">
    <path d="M 59.827773 200.932298 
L 499.197852 200.932298 
" style="fill: none; stroke: #000000; stroke-width: 0.8; stroke-linejoin: miter; stroke-linecap: square"/>
   </g>
   <g id="patch_6">
    <path d="M 59.827773 26.318125 
L 499.197852 26.318125 
" style="fill: none; stroke: #000000; stroke-width: 0.8; stroke-linejoin: miter; stroke-linecap: square"/>
   </g>
   <g id="patch_7">
    <path d="M 66.639712 36891.856663 
L 72.393039 36891.856663 
L 72.393039 147.07251 
L 66.639712 147.07251 
z
" clip-path="url(#p50293458b5)" style="fill: #85c0f9"/>
   </g>
   <g id="patch_8">
    <path d="M 95.406347 36891.856663 
L 101.159675 36891.856663 
L 101.159675 152.187371 
L 95.406347 152.187371 
z
" clip-path="url(#p50293458b5)" style="fill: #85c0f9"/>
   </g>
   <g id="patch_9">
    <path d="M 124.172983 36891.856663 
L 129.92631 36891.856663 
L 129.92631 152.945515 
L 124.172983 152.945515 
z
" clip-path="url(#p50293458b5)" style="fill: #85c0f9"/>
   </g>
   <g id="patch_10">
    <path d="M 152.939618 36891.856663 
L 158.692945 36891.856663 
L 158.692945 154.134532 
L 152.939618 154.134532 
z
" clip-path="url(#p50293458b5)" style="fill: #85c0f9"/>
   </g>
   <g id="patch_11">
    <path d="M 181.706253 36891.856663 
L 187.45958 36891.856663 
L 187.45958 157.538335 
L 181.706253 157.538335 
z
" clip-path="url(#p50293458b5)" style="fill: #85c0f9"/>
   </g>
   <g id="patch_12">
    <path d="M 210.472888 36891.856663 
L 216.226215 36891.856663 
L 216.226215 159.276473 
L 210.472888 159.276473 
z
" clip-path="url(#p50293458b5)" style="fill: #85c0f9"/>
   </g>
   <g id="patch_13">
    <path d="M 239.239523 36891.856663 
L 244.99285 36891.856663 
L 244.99285 161.18439 
L 239.239523 161.18439 
z
" clip-path="url(#p50293458b5)" style="fill: #85c0f9"/>
   </g>
   <g id="patch_14">
    <path d="M 268.006158 36891.856663 
L 273.759485 36891.856663 
L 273.759485 162.826463 
L 268.006158 162.826463 
z
" clip-path="url(#p50293458b5)" style="fill: #85c0f9"/>
   </g>
   <g id="patch_15">
    <path d="M 296.772794 36891.856663 
L 302.526121 36891.856663 
L 302.526121 165.058908 
L 296.772794 165.058908 
z
" clip-path="url(#p50293458b5)" style="fill: #85c0f9"/>
   </g>
   <g id="patch_16">
    <path d="M 325.539429 36891.856663 
L 331.292756 36891.856663 
L 331.292756 165.272261 
L 325.539429 165.272261 
z
" clip-path="url(#p50293458b5)" style="fill: #85c0f9"/>
   </g>
   <g id="patch_17">
    <path d="M 354.306064 36891.856663 
L 360.059391 36891.856663 
L 360.059391 170.534425 
L 354.306064 170.534425 
z
" clip-path="url(#p50293458b5)" style="fill: #85c0f9"/>
   </g>
   <g id="patch_18">
    <path d="M 383.072699 36891.856663 
L 388.826026 36891.856663 
L 388.826026 174.638526 
L 383.072699 174.638526 
z
" clip-path="url(#p50293458b5)" style="fill: #85c0f9"/>
   </g>
   <g id="patch_19">
    <path d="M 411.839334 36891.856663 
L 417.592661 36891.856663 
L 417.592661 178.987805 
L 411.839334 178.987805 
z
" clip-path="url(#p50293458b5)" style="fill: #85c0f9"/>
   </g>
   <g id="patch_20">
    <path d="M 440.605969 36891.856663 
L 446.359296 36891.856663 
L 446.359296 182.963372 
L 440.605969 182.963372 
z
" clip-path="url(#p50293458b5)" style="fill: #85c0f9"/>
   </g>
   <g id="patch_21">
    <path d="M 469.372605 36891.856663 
L 475.125932 36891.856663 
L 475.125932 184.794798 
L 469.372605 184.794798 
z
" clip-path="url(#p50293458b5)" style="fill: #85c0f9"/>
   </g>
   <g id="patch_22">
    <path d="M 72.393039 36891.856663 
L 78.146366 36891.856663 
L 78.146366 164.666424 
L 72.393039 164.666424 
z
" clip-path="url(#p50293458b5)" style="fill: #0f2080"/>
   </g>
   <g id="patch_23">
    <path d="M 101.159675 36891.856663 
L 106.913002 36891.856663 
L 106.913002 165.648778 
L 101.159675 165.648778 
z
" clip-path="url(#p50293458b5)" style="fill: #0f2080"/>
   </g>
   <g id="patch_24">
    <path d="M 129.92631 36891.856663 
L 135.679637 36891.856663 
L 135.679637 167.666759 
L 129.92631 167.666759 
z
" clip-path="url(#p50293458b5)" style="fill: #0f2080"/>
   </g>
   <g id="patch_25">
    <path d="M 158.692945 36891.856663 
L 164.446272 36891.856663 
L 164.446272 170.867471 
L 158.692945 170.867471 
z
" clip-path="url(#p50293458b5)" style="fill: #0f2080"/>
   </g>
   <g id="patch_26">
    <path d="M 187.45958 36891.856663 
L 193.212907 36891.856663 
L 193.212907 171.789956 
L 187.45958 171.789956 
z
" clip-path="url(#p50293458b5)" style="fill: #0f2080"/>
   </g>
   <g id="patch_27">
    <path d="M 216.226215 36891.856663 
L 221.979542 36891.856663 
L 221.979542 172.010937 
L 216.226215 172.010937 
z
" clip-path="url(#p50293458b5)" style="fill: #0f2080"/>
   </g>
   <g id="patch_28">
    <path d="M 244.99285 36891.856663 
L 250.746177 36891.856663 
L 250.746177 172.683772 
L 244.99285 172.683772 
z
" clip-path="url(#p50293458b5)" style="fill: #0f2080"/>
   </g>
   <g id="patch_29">
    <path d="M 273.759485 36891.856663 
L 279.512812 36891.856663 
L 279.512812 174.052684 
L 273.759485 174.052684 
z
" clip-path="url(#p50293458b5)" style="fill: #0f2080"/>
   </g>
   <g id="patch_30">
    <path d="M 302.526121 36891.856663 
L 308.279448 36891.856663 
L 308.279448 175.486263 
L 302.526121 175.486263 
z
" clip-path="url(#p50293458b5)" style="fill: #0f2080"/>
   </g>
   <g id="patch_31">
    <path d="M 331.292756 36891.856663 
L 337.046083 36891.856663 
L 337.046083 175.296764 
L 331.292756 175.296764 
z
" clip-path="url(#p50293458b5)" style="fill: #0f2080"/>
   </g>
   <g id="patch_32">
    <path d="M 360.059391 36891.856663 
L 365.812718 36891.856663 
L 365.812718 177.712672 
L 360.059391 177.712672 
z
" clip-path="url(#p50293458b5)" style="fill: #0f2080"/>
   </g>
   <g id="patch_33">
    <path d="M 388.826026 36891.856663 
L 394.579353 36891.856663 
L 394.579353 177.200265 
L 388.826026 177.200265 
z
" clip-path="url(#p50293458b5)" style="fill: #0f2080"/>
   </g>
   <g id="patch_34">
    <path d="M 417.592661 36891.856663 
L 423.345988 36891.856663 
L 423.345988 178.482335 
L 417.592661 178.482335 
z
" clip-path="url(#p50293458b5)" style="fill: #0f2080"/>
   </g>
   <g id="patch_35">
    <path d="M 446.359296 36891.856663 
L 452.112623 36891.856663 
L 452.112623 180.572825 
L 446.359296 180.572825 
z
" clip-path="url(#p50293458b5)" style="fill: #0f2080"/>
   </g>
   <g id="patch_36">
    <path d="M 475.125932 36891.856663 
L 480.879259 36891.856663 
L 480.879259 181.846856 
L 475.125932 181.846856 
z
" clip-path="url(#p50293458b5)" style="fill: #0f2080"/>
   </g>
   <g id="patch_37">
    <path d="M 78.146366 36891.856663 
L 83.899693 36891.856663 
L 83.899693 169.094972 
L 78.146366 169.094972 
z
" clip-path="url(#p50293458b5)" style="fill: #a95aa1"/>
   </g>
   <g id="patch_38">
    <path d="M 106.913002 36891.856663 
L 112.666329 36891.856663 
L 112.666329 165.817566 
L 106.913002 165.817566 
z
" clip-path="url(#p50293458b5)" style="fill: #a95aa1"/>
   </g>
   <g id="patch_39">
    <path d="M 135.679637 36891.856663 
L 141.432964 36891.856663 
L 141.432964 163.690125 
L 135.679637 163.690125 
z
" clip-path="url(#p50293458b5)" style="fill: #a95aa1"/>
   </g>
   <g id="patch_40">
    <path d="M 164.446272 36891.856663 
L 170.199599 36891.856663 
L 170.199599 160.544334 
L 164.446272 160.544334 
z
" clip-path="url(#p50293458b5)" style="fill: #a95aa1"/>
   </g>
   <g id="patch_41">
    <path d="M 193.212907 36891.856663 
L 198.966234 36891.856663 
L 198.966234 154.853003 
L 193.212907 154.853003 
z
" clip-path="url(#p50293458b5)" style="fill: #a95aa1"/>
   </g>
   <g id="patch_42">
    <path d="M 221.979542 36891.856663 
L 227.732869 36891.856663 
L 227.732869 148.064341 
L 221.979542 148.064341 
z
" clip-path="url(#p50293458b5)" style="fill: #a95aa1"/>
   </g>
   <g id="patch_43">
    <path d="M 250.746177 36891.856663 
L 256.499504 36891.856663 
L 256.499504 141.190101 
L 250.746177 141.190101 
z
" clip-path="url(#p50293458b5)" style="fill: #a95aa1"/>
   </g>
   <g id="patch_44">
    <path d="M 279.512812 36891.856663 
L 285.26614 36891.856663 
L 285.26614 133.429024 
L 279.512812 133.429024 
z
" clip-path="url(#p50293458b5)" style="fill: #a95aa1"/>
   </g>
   <g id="patch_45">
    <path d="M 308.279448 36891.856663 
L 314.032775 36891.856663 
L 314.032775 123.490006 
L 308.279448 123.490006 
z
" clip-path="url(#p50293458b5)" style="fill: #a95aa1"/>
   </g>
   <g id="patch_46">
    <path d="M 337.046083 36891.856663 
L 342.79941 36891.856663 
L 342.79941 114.645167 
L 337.046083 114.645167 
z
" clip-path="url(#p50293458b5)" style="fill: #a95aa1"/>
   </g>
   <g id="patch_47">
    <path d="M 365.812718 36891.856663 
L 371.566045 36891.856663 
L 371.566045 104.194161 
L 365.812718 104.194161 
z
" clip-path="url(#p50293458b5)" style="fill: #a95aa1"/>
   </g>
   <g id="patch_48">
    <path d="M 394.579353 36891.856663 
L 400.33268 36891.856663 
L 400.33268 93.193372 
L 394.579353 93.193372 
z
" clip-path="url(#p50293458b5)" style="fill: #a95aa1"/>
   </g>
   <g id="patch_49">
    <path d="M 423.345988 36891.856663 
L 429.099315 36891.856663 
L 429.099315 82.27681 
L 423.345988 82.27681 
z
" clip-path="url(#p50293458b5)" style="fill: #a95aa1"/>
   </g>
   <g id="patch_50">
    <path d="M 452.112623 36891.856663 
L 457.86595 36891.856663 
L 457.86595 71.285313 
L 452.112623 71.285313 
z
" clip-path="url(#p50293458b5)" style="fill: #a95aa1"/>
   </g>
   <g id="patch_51">
    <path d="M 480.879259 36891.856663 
L 486.632586 36891.856663 
L 486.632586 60.046969 
L 480.879259 60.046969 
z
" clip-path="url(#p50293458b5)" style="fill: #a95aa1"/>
   </g>
   <g id="patch_52">
    <path d="M 83.899693 36891.856663 
L 89.65302 36891.856663 
L 89.65302 193.244961 
L 83.899693 193.244961 
z
" clip-path="url(#p50293458b5)" style="fill: #f5793a"/>
   </g>
   <g id="patch_53">
    <path d="M 112.666329 36891.856663 
L 118.419656 36891.856663 
L 118.419656 193.375381 
L 112.666329 193.375381 
z
" clip-path="url(#p50293458b5)" style="fill: #f5793a"/>
   </g>
   <g id="patch_54">
    <path d="M 141.432964 36891.856663 
L 147.186291 36891.856663 
L 147.186291 194.223473 
L 141.432964 194.223473 
z
" clip-path="url(#p50293458b5)" style="fill: #f5793a"/>
   </g>
   <g id="patch_55">
    <path d="M 170.199599 36891.856663 
L 175.952926 36891.856663 
L 175.952926 193.365935 
L 170.199599 193.365935 
z
" clip-path="url(#p50293458b5)" style="fill: #f5793a"/>
   </g>
   <g id="patch_56">
    <path d="M 198.966234 36891.856663 
L 204.719561 36891.856663 
L 204.719561 175.654035 
L 198.966234 175.654035 
z
" clip-path="url(#p50293458b5)" style="fill: #f5793a"/>
   </g>
   <g id="patch_57">
    <path d="M 227.732869 36891.856663 
L 233.486196 36891.856663 
L 233.486196 176.143667 
L 227.732869 176.143667 
z
" clip-path="url(#p50293458b5)" style="fill: #f5793a"/>
   </g>
   <g id="patch_58">
    <path d="M 256.499504 36891.856663 
L 262.252831 36891.856663 
L 262.252831 177.097384 
L 256.499504 177.097384 
z
" clip-path="url(#p50293458b5)" style="fill: #f5793a"/>
   </g>
   <g id="patch_59">
    <path d="M 285.26614 36891.856663 
L 291.019467 36891.856663 
L 291.019467 177.353612 
L 285.26614 177.353612 
z
" clip-path="url(#p50293458b5)" style="fill: #f5793a"/>
   </g>
   <g id="patch_60">
    <path d="M 314.032775 36891.856663 
L 319.786102 36891.856663 
L 319.786102 178.108981 
L 314.032775 178.108981 
z
" clip-path="url(#p50293458b5)" style="fill: #f5793a"/>
   </g>
   <g id="patch_61">
    <path d="M 342.79941 36891.856663 
L 348.552737 36891.856663 
L 348.552737 179.022511 
L 342.79941 179.022511 
z
" clip-path="url(#p50293458b5)" style="fill: #f5793a"/>
   </g>
   <g id="patch_62">
    <path d="M 371.566045 36891.856663 
L 377.319372 36891.856663 
L 377.319372 180.31148 
L 371.566045 180.31148 
z
" clip-path="url(#p50293458b5)" style="fill: #f5793a"/>
   </g>
   <g id="patch_63">
    <path d="M 400.33268 36891.856663 
L 406.086007 36891.856663 
L 406.086007 181.84331 
L 400.33268 181.84331 
z
" clip-path="url(#p50293458b5)" style="fill: #f5793a"/>
   </g>
   <g id="patch_64">
    <path d="M 429.099315 36891.856663 
L 434.852642 36891.856663 
L 434.852642 181.020263 
L 429.099315 181.020263 
z
" clip-path="url(#p50293458b5)" style="fill: #f5793a"/>
   </g>
   <g id="patch_65">
    <path d="M 457.86595 36891.856663 
L 463.619278 36891.856663 
L 463.619278 183.40664 
L 457.86595 183.40664 
z
" clip-path="url(#p50293458b5)" style="fill: #f5793a"/>
   </g>
   <g id="patch_66">
    <path d="M 486.632586 36891.856663 
L 492.385913 36891.856663 
L 492.385913 184.8795 
L 486.632586 184.8795 
z
" clip-path="url(#p50293458b5)" style="fill: #f5793a"/>
   </g>
   <g id="text_23">
    <!-- Average Allocation Time for Different Buddy Allocators and Block Sizes (100000 iterations) -->
    <g transform="translate(7.2 16.318125) scale(0.12 -0.12)">
     <defs>
      <path id="DejaVuSans-41" d="M 2188 4044 
L 1331 1722 
L 3047 1722 
L 2188 4044 
z
M 1831 4666 
L 2547 4666 
L 4325 0 
L 3669 0 
L 3244 1197 
L 1141 1197 
L 716 0 
L 50 0 
L 1831 4666 
z
" transform="scale(0.015625)"/>
      <path id="DejaVuSans-76" d="M 191 3500 
L 800 3500 
L 1894 563 
L 2988 3500 
L 3597 3500 
L 2284 0 
L 1503 0 
L 191 3500 
z
" transform="scale(0.015625)"/>
      <path id="DejaVuSans-72" d="M 2631 2963 
Q 2534 3019 2420 3045 
Q 2306 3072 2169 3072 
Q 1681 3072 1420 2755 
Q 1159 2438 1159 1844 
L 1159 0 
L 581 0 
L 581 3500 
L 1159 3500 
L 1159 2956 
Q 1341 3275 1631 3429 
Q 1922 3584 2338 3584 
Q 2397 3584 2469 3576 
Q 2541 3569 2628 3553 
L 2631 2963 
z
" transform="scale(0.015625)"/>
      <path id="DejaVuSans-61" d="M 2194 1759 
Q 1497 1759 1228 1600 
Q 959 1441 959 1056 
Q 959 750 1161 570 
Q 1363 391 1709 391 
Q 2188 391 2477 730 
Q 2766 1069 2766 1631 
L 2766 1759 
L 2194 1759 
z
M 3341 1997 
L 3341 0 
L 2766 0 
L 2766 531 
Q 2569 213 2275 61 
Q 1981 -91 1556 -91 
Q 1019 -91 701 211 
Q 384 513 384 1019 
Q 384 1609 779 1909 
Q 1175 2209 1959 2209 
L 2766 2209 
L 2766 2266 
Q 2766 2663 2505 2880 
Q 2244 3097 1772 3097 
Q 1472 3097 1187 3025 
Q 903 2953 641 2809 
L 641 3341 
Q 956 3463 1253 3523 
Q 1550 3584 1831 3584 
Q 2591 3584 2966 3190 
Q 3341 2797 3341 1997 
z
" transform="scale(0.015625)"/>
      <path id="DejaVuSans-74" d="M 1172 4494 
L 1172 3500 
L 2356 3500 
L 2356 3053 
L 1172 3053 
L 1172 1153 
Q 1172 725 1289 603 
Q 1406 481 1766 481 
L 2356 481 
L 2356 0 
L 1766 0 
Q 1100 0 847 248 
Q 594 497 594 1153 
L 594 3053 
L 172 3053 
L 172 3500 
L 594 3500 
L 594 4494 
L 1172 4494 
z
" transform="scale(0.015625)"/>
      <path id="DejaVuSans-66" d="M 2375 4863 
L 2375 4384 
L 1825 4384 
Q 1516 4384 1395 4259 
Q 1275 4134 1275 3809 
L 1275 3500 
L 2222 3500 
L 2222 3053 
L 1275 3053 
L 1275 0 
L 697 0 
L 697 3053 
L 147 3053 
L 147 3500 
L 697 3500 
L 697 3744 
Q 697 4328 969 4595 
Q 1241 4863 1831 4863 
L 2375 4863 
z
" transform="scale(0.015625)"/>
      <path id="DejaVuSans-44" d="M 1259 4147 
L 1259 519 
L 2022 519 
Q 2988 519 3436 956 
Q 3884 1394 3884 2338 
Q 3884 3275 3436 3711 
Q 2988 4147 2022 4147 
L 1259 4147 
z
M 628 4666 
L 1925 4666 
Q 3281 4666 3915 4102 
Q 4550 3538 4550 2338 
Q 4550 1131 3912 565 
Q 3275 0 1925 0 
L 628 0 
L 628 4666 
z
" transform="scale(0.015625)"/>
      <path id="DejaVuSans-75" d="M 544 1381 
L 544 3500 
L 1119 3500 
L 1119 1403 
Q 1119 906 1312 657 
Q 1506 409 1894 409 
Q 2359 409 2629 706 
Q 2900 1003 2900 1516 
L 2900 3500 
L 3475 3500 
L 3475 0 
L 2900 0 
L 2900 538 
Q 2691 219 2414 64 
Q 2138 -91 1772 -91 
Q 1169 -91 856 284 
Q 544 659 544 1381 
z
M 1991 3584 
L 1991 3584 
z
" transform="scale(0.015625)"/>
      <path id="DejaVuSans-64" d="M 2906 2969 
L 2906 4863 
L 3481 4863 
L 3481 0 
L 2906 0 
L 2906 525 
Q 2725 213 2448 61 
Q 2172 -91 1784 -91 
Q 1150 -91 751 415 
Q 353 922 353 1747 
Q 353 2572 751 3078 
Q 1150 3584 1784 3584 
Q 2172 3584 2448 3432 
Q 2725 3281 2906 2969 
z
M 947 1747 
Q 947 1113 1208 752 
Q 1469 391 1925 391 
Q 2381 391 2643 752 
Q 2906 1113 2906 1747 
Q 2906 2381 2643 2742 
Q 2381 3103 1925 3103 
Q 1469 3103 1208 2742 
Q 947 2381 947 1747 
z
" transform="scale(0.015625)"/>
      <path id="DejaVuSans-79" d="M 2059 -325 
Q 1816 -950 1584 -1140 
Q 1353 -1331 966 -1331 
L 506 -1331 
L 506 -850 
L 844 -850 
Q 1081 -850 1212 -737 
Q 1344 -625 1503 -206 
L 1606 56 
L 191 3500 
L 800 3500 
L 1894 763 
L 2988 3500 
L 3597 3500 
L 2059 -325 
z
" transform="scale(0.015625)"/>
     </defs>
     <use xlink:href="#DejaVuSans-41"/>
     <use xlink:href="#DejaVuSans-76" x="62.533203"/>
     <use xlink:href="#DejaVuSans-65" x="121.712891"/>
     <use xlink:href="#DejaVuSans-72" x="183.236328"/>
     <use xlink:href="#DejaVuSans-61" x="224.349609"/>
     <use xlink:href="#DejaVuSans-67" x="285.628906"/>
     <use xlink:href="#DejaVuSans-65" x="349.105469"/>
     <use xlink:href="#DejaVuSans-20" x="410.628906"/>
     <use xlink:href="#DejaVuSans-41" x="442.416016"/>
     <use xlink:href="#DejaVuSans-6c" x="510.824219"/>
     <use xlink:href="#DejaVuSans-6c" x="538.607422"/>
     <use xlink:href="#DejaVuSans-6f" x="566.390625"/>
     <use xlink:href="#DejaVuSans-63" x="627.572266"/>
     <use xlink:href="#DejaVuSans-61" x="682.552734"/>
     <use xlink:href="#DejaVuSans-74" x="743.832031"/>
     <use xlink:href="#DejaVuSans-69" x="783.041016"/>
     <use xlink:href="#DejaVuSans-6f" x="810.824219"/>
     <use xlink:href="#DejaVuSans-6e" x="872.005859"/>
     <use xlink:href="#DejaVuSans-20" x="935.384766"/>
     <use xlink:href="#DejaVuSans-54" x="967.171875"/>
     <use xlink:href="#DejaVuSans-69" x="1025.130859"/>
     <use xlink:href="#DejaVuSans-6d" x="1052.914062"/>
     <use xlink:href="#DejaVuSans-65" x="1150.326172"/>
     <use xlink:href="#DejaVuSans-20" x="1211.849609"/>
     <use xlink:href="#DejaVuSans-66" x="1243.636719"/>
     <use xlink:href="#DejaVuSans-6f" x="1278.841797"/>
     <use xlink:href="#DejaVuSans-72" x="1340.023438"/>
     <use xlink:href="#DejaVuSans-20" x="1381.136719"/>
     <use xlink:href="#DejaVuSans-44" x="1412.923828"/>
     <use xlink:href="#DejaVuSans-69" x="1489.925781"/>
     <use xlink:href="#DejaVuSans-66" x="1517.708984"/>
     <use xlink:href="#DejaVuSans-66" x="1552.914062"/>
     <use xlink:href="#DejaVuSans-65" x="1588.119141"/>
     <use xlink:href="#DejaVuSans-72" x="1649.642578"/>
     <use xlink:href="#DejaVuSans-65" x="1688.505859"/>
     <use xlink:href="#DejaVuSans-6e" x="1750.029297"/>
     <use xlink:href="#DejaVuSans-74" x="1813.408203"/>
     <use xlink:href="#DejaVuSans-20" x="1852.617188"/>
     <use xlink:href="#DejaVuSans-42" x="1884.404297"/>
     <use xlink:href="#DejaVuSans-75" x="1953.007812"/>
     <use xlink:href="#DejaVuSans-64" x="2016.386719"/>
     <use xlink:href="#DejaVuSans-64" x="2079.863281"/>
     <use xlink:href="#DejaVuSans-79" x="2143.339844"/>
     <use xlink:href="#DejaVuSans-20" x="2202.519531"/>
     <use xlink:href="#DejaVuSans-41" x="2234.306641"/>
     <use xlink:href="#DejaVuSans-6c" x="2302.714844"/>
     <use xlink:href="#DejaVuSans-6c" x="2330.498047"/>
     <use xlink:href="#DejaVuSans-6f" x="2358.28125"/>
     <use xlink:href="#DejaVuSans-63" x="2419.462891"/>
     <use xlink:href="#DejaVuSans-61" x="2474.443359"/>
     <use xlink:href="#DejaVuSans-74" x="2535.722656"/>
     <use xlink:href="#DejaVuSans-6f" x="2574.931641"/>
     <use xlink:href="#DejaVuSans-72" x="2636.113281"/>
     <use xlink:href="#DejaVuSans-73" x="2677.226562"/>
     <use xlink:href="#DejaVuSans-20" x="2729.326172"/>
     <use xlink:href="#DejaVuSans-61" x="2761.113281"/>
     <use xlink:href="#DejaVuSans-6e" x="2822.392578"/>
     <use xlink:href="#DejaVuSans-64" x="2885.771484"/>
     <use xlink:href="#DejaVuSans-20" x="2949.248047"/>
     <use xlink:href="#DejaVuSans-42" x="2981.035156"/>
     <use xlink:href="#DejaVuSans-6c" x="3049.638672"/>
     <use xlink:href="#DejaVuSans-6f" x="3077.421875"/>
     <use xlink:href="#DejaVuSans-63" x="3138.603516"/>
     <use xlink:href="#DejaVuSans-6b" x="3193.583984"/>
     <use xlink:href="#DejaVuSans-20" x="3251.494141"/>
     <use xlink:href="#DejaVuSans-53" x="3283.28125"/>
     <use xlink:href="#DejaVuSans-69" x="3346.757812"/>
     <use xlink:href="#DejaVuSans-7a" x="3374.541016"/>
     <use xlink:href="#DejaVuSans-65" x="3427.03125"/>
     <use xlink:href="#DejaVuSans-73" x="3488.554688"/>
     <use xlink:href="#DejaVuSans-20" x="3540.654297"/>
     <use xlink:href="#DejaVuSans-28" x="3572.441406"/>
     <use xlink:href="#DejaVuSans-31" x="3611.455078"/>
     <use xlink:href="#DejaVuSans-30" x="3675.078125"/>
     <use xlink:href="#DejaVuSans-30" x="3738.701172"/>
     <use xlink:href="#DejaVuSans-30" x="3802.324219"/>
     <use xlink:href="#DejaVuSans-30" x="3865.947266"/>
     <use xlink:href="#DejaVuSans-30" x="3929.570312"/>
     <use xlink:href="#DejaVuSans-20" x="3993.193359"/>
     <use xlink:href="#DejaVuSans-69" x="4024.980469"/>
     <use xlink:href="#DejaVuSans-74" x="4052.763672"/>
     <use xlink:href="#DejaVuSans-65" x="4091.972656"/>
     <use xlink:href="#DejaVuSans-72" x="4153.496094"/>
     <use xlink:href="#DejaVuSans-61" x="4194.609375"/>
     <use xlink:href="#DejaVuSans-74" x="4255.888672"/>
     <use xlink:href="#DejaVuSans-69" x="4295.097656"/>
     <use xlink:href="#DejaVuSans-6f" x="4322.880859"/>
     <use xlink:href="#DejaVuSans-6e" x="4384.0625"/>
     <use xlink:href="#DejaVuSans-73" x="4447.441406"/>
     <use xlink:href="#DejaVuSans-29" x="4499.541016"/>
    </g>
   </g>
   <g id="legend_1">
    <g id="patch_67">
     <path d="M 66.827773 93.030625 
L 165.954336 93.030625 
Q 167.954336 93.030625 167.954336 91.030625 
L 167.954336 33.318125 
Q 167.954336 31.318125 165.954336 31.318125 
L 66.827773 31.318125 
Q 64.827773 31.318125 64.827773 33.318125 
L 64.827773 91.030625 
Q 64.827773 93.030625 66.827773 93.030625 
z
" style="fill: #ffffff; opacity: 0.8; stroke: #cccccc; stroke-linejoin: miter"/>
    </g>
    <g id="patch_68">
     <path d="M 68.827773 42.916562 
L 88.827773 42.916562 
L 88.827773 35.916562 
L 68.827773 35.916562 
z
" style="fill: #85c0f9"/>
    </g>
    <g id="text_24">
     <!-- Binary Buddy -->
     <g transform="translate(96.827773 42.916562) scale(0.1 -0.1)">
      <use xlink:href="#DejaVuSans-42"/>
      <use xlink:href="#DejaVuSans-69" x="68.603516"/>
      <use xlink:href="#DejaVuSans-6e" x="96.386719"/>
      <use xlink:href="#DejaVuSans-61" x="159.765625"/>
      <use xlink:href="#DejaVuSans-72" x="221.044922"/>
      <use xlink:href="#DejaVuSans-79" x="262.158203"/>
      <use xlink:href="#DejaVuSans-20" x="321.337891"/>
      <use xlink:href="#DejaVuSans-42" x="353.125"/>
      <use xlink:href="#DejaVuSans-75" x="421.728516"/>
      <use xlink:href="#DejaVuSans-64" x="485.107422"/>
      <use xlink:href="#DejaVuSans-64" x="548.583984"/>
      <use xlink:href="#DejaVuSans-79" x="612.060547"/>
     </g>
    </g>
    <g id="patch_69">
     <path d="M 68.827773 57.594687 
L 88.827773 57.594687 
L 88.827773 50.594687 
L 68.827773 50.594687 
z
" style="fill: #0f2080"/>
    </g>
    <g id="text_25">
     <!-- Binary Tree -->
     <g transform="translate(96.827773 57.594687) scale(0.1 -0.1)">
      <use xlink:href="#DejaVuSans-42"/>
      <use xlink:href="#DejaVuSans-69" x="68.603516"/>
      <use xlink:href="#DejaVuSans-6e" x="96.386719"/>
      <use xlink:href="#DejaVuSans-61" x="159.765625"/>
      <use xlink:href="#DejaVuSans-72" x="221.044922"/>
      <use xlink:href="#DejaVuSans-79" x="262.158203"/>
      <use xlink:href="#DejaVuSans-20" x="321.337891"/>
      <use xlink:href="#DejaVuSans-54" x="353.125"/>
      <use xlink:href="#DejaVuSans-72" x="399.458984"/>
      <use xlink:href="#DejaVuSans-65" x="438.322266"/>
      <use xlink:href="#DejaVuSans-65" x="499.845703"/>
     </g>
    </g>
    <g id="patch_70">
     <path d="M 68.827773 72.272812 
L 88.827773 72.272812 
L 88.827773 65.272812 
L 68.827773 65.272812 
z
" style="fill: #a95aa1"/>
    </g>
    <g id="text_26">
     <!-- iBuddy -->
     <g transform="translate(96.827773 72.272812) scale(0.1 -0.1)">
      <use xlink:href="#DejaVuSans-69"/>
      <use xlink:href="#DejaVuSans-42" x="27.783203"/>
      <use xlink:href="#DejaVuSans-75" x="96.386719"/>
      <use xlink:href="#DejaVuSans-64" x="159.765625"/>
      <use xlink:href="#DejaVuSans-64" x="223.242188"/>
      <use xlink:href="#DejaVuSans-79" x="286.71875"/>
     </g>
    </g>
    <g id="patch_71">
     <path d="M 68.827773 86.950938 
L 88.827773 86.950938 
L 88.827773 79.950938 
L 68.827773 79.950938 
z
" style="fill: #f5793a"/>
    </g>
    <g id="text_27">
     <!-- Lazy Layer -->
     <g transform="translate(96.827773 86.950938) scale(0.1 -0.1)">
      <defs>
       <path id="DejaVuSans-4c" d="M 628 4666 
L 1259 4666 
L 1259 531 
L 3531 531 
L 3531 0 
L 628 0 
L 628 4666 
z
" transform="scale(0.015625)"/>
      </defs>
      <use xlink:href="#DejaVuSans-4c"/>
      <use xlink:href="#DejaVuSans-61" x="55.712891"/>
      <use xlink:href="#DejaVuSans-7a" x="116.992188"/>
      <use xlink:href="#DejaVuSans-79" x="169.482422"/>
      <use xlink:href="#DejaVuSans-20" x="228.662109"/>
      <use xlink:href="#DejaVuSans-4c" x="260.449219"/>
      <use xlink:href="#DejaVuSans-61" x="316.162109"/>
      <use xlink:href="#DejaVuSans-79" x="377.441406"/>
      <use xlink:href="#DejaVuSans-65" x="436.621094"/>
      <use xlink:href="#DejaVuSans-72" x="498.144531"/>
     </g>
    </g>
   </g>
  </g>
 </g>
 <defs>
  <clipPath id="p50293458b5">
   <rect x="59.827773" y="26.318125" width="439.370079" height="174.614173"/>
  </clipPath>
 </defs>
</svg>
