<svg xmlns="http://www.w3.org/2000/svg" xmlns:xlink="http://www.w3.org/1999/xlink" xmlns:lucid="lucid" width="765.74" height="443.46"><g transform="translate(988.21655454222 20.157480314960594)" lucid:page-tab-id="0_0"><path d="M-342.68-20.16h120.2v40h-120.2z" stroke="#000" stroke-opacity="0" fill="#fff" fill-opacity="0"/><use xlink:href="#a" transform="matrix(1,0,0,1,-337.67718446347965,-15.157480314960594) translate(4.537037037037045 23.208333333333332)"/><use xlink:href="#b" transform="matrix(1,0,0,1,-337.67718446347965,-15.157480314960594) translate(66.61111111111111 23.208333333333332)"/><path d="M-342.55 59.84h60.07v40h-60.07z" stroke="#000" stroke-opacity="0" fill="#fff" fill-opacity="0"/><use xlink:href="#c" transform="matrix(1,0,0,1,-337.5501201740673,64.8425196850394) translate(20.135802469135804 19.65277777777778)"/><path d="M-342.28 101.42h60.07v40h-60.08z" stroke="#000" stroke-opacity="0" fill="#fff" fill-opacity="0"/><use xlink:href="#d" transform="matrix(1,0,0,1,-337.2798863603281,106.41732283464557) translate(20.135802469135804 19.65277777777778)"/><path d="M-342.55 141.42h60.07v40h-60.07z" stroke="#000" stroke-opacity="0" fill="#fff" fill-opacity="0"/><use xlink:href="#e" transform="matrix(1,0,0,1,-337.5501201740673,146.41732283464557) translate(20.135802469135804 19.65277777777778)"/><path d="M-282.48 69.84h20v20h-20z" stroke="#3a414a" fill="#b8f5ed"/><path d="M-282.48 110.63h20v20h-20z" stroke="#3a414a" fill="#c3f7c8"/><path d="M-282.2 151.42h20v20h-20z" stroke="#3a414a" fill="#fff7a1"/><path d="M-342.55 19.84h60.07v40h-60.07z" stroke="#000" stroke-opacity="0" fill="#fff" fill-opacity="0"/><use xlink:href="#f" transform="matrix(1,0,0,1,-337.5501201740673,24.842519685039406) translate(7.79012345679012 19.65277777777778)"/><path d="M-986.96 322.2h80.63v80.95h-80.63z" stroke="#3a414a" fill="#dfe3e8"/><use xlink:href="#g" transform="matrix(1,0,0,1,-974.959397968349,334.2047244094485) translate(6.277777777777779 35.5625)"/><path d="M-906.33 322.2h80v80.95h-80z" stroke="#3a414a" fill="#fff7a1"/><use xlink:href="#h" transform="matrix(1,0,0,1,-894.3294767085064,334.2047244094487) translate(5.777777777777779 35.5625)"/><path d="M-987.72 19.84h645.04v80h-645.04z" stroke="#3a414a" fill="#f4d9ff"/><use xlink:href="#i" transform="matrix(1,0,0,1,-975.71655454222,31.842519685039406) translate(277.6666666666667 35.5)"/><path d="M-826.33 221.42h161.26v80.94h-161.26z" stroke="#3a414a" fill="#c3f7c8"/><use xlink:href="#j" transform="matrix(1,0,0,1,-814.3294767085064,233.41732283464557) translate(46.77777777777778 35.5625)"/><path d="M-665.07 120.63h322.4v80.94h-322.4z" stroke="#3a414a" fill="#b8f5ed"/><use xlink:href="#k" transform="matrix(1,0,0,1,-653.0696341888214,132.62992125984246) translate(127.27777777777777 35.5625)"/><path d="M-987.72 120.63h322.4v80.94h-322.4z" stroke="#3a414a" fill="#b8f5ed"/><use xlink:href="#k" transform="matrix(1,0,0,1,-975.7163835176042,132.6299212598424) translate(127.27777777777777 35.5625)"/><path d="M-664.67 221.42h322.4v80.94h-322.4z" stroke="#3a414a" fill="#b8f5ed"/><use xlink:href="#k" transform="matrix(1,0,0,1,-652.6723360856689,233.41732283464557) translate(127.27777777777777 35.5625)"/><path d="M-664.67 322.2h322.4v80.95h-322.4z" stroke="#3a414a" fill="#b8f5ed"/><use xlink:href="#k" transform="matrix(1,0,0,1,-652.6723360856689,334.20472440944866) translate(127.27777777777777 35.5625)"/><path d="M-825.93 322.2h161.26v80.95h-161.26z" stroke="#3a414a" fill="#c3f7c8"/><use xlink:href="#j" transform="matrix(1,0,0,1,-813.9321786053541,334.20472440944866) translate(46.77777777777778 35.5625)"/><path d="M-987.2 221.42h161.27v80.94H-987.2z" stroke="#3a414a" fill="#c3f7c8"/><use xlink:href="#j" transform="matrix(1,0,0,1,-975.1920211250393,233.41732283464543) translate(46.77777777777778 35.5625)"/><path d="M-825.33 119.63v-18.8" stroke="#3a414a" fill="none"/><path d="M-824.86 120.13h-.95v-.5h.94zM-824.86 100.86h-.95v-.52h.94z" stroke="#3a414a" stroke-width=".05" fill="#3a414a"/><path d="M-503.87 119.63v-18.8" stroke="#3a414a" fill="none"/><path d="M-503.4 120.13h-.95v-.5h.95zM-503.4 100.86h-.95v-.52h.95z" stroke="#3a414a" stroke-width=".05" fill="#3a414a"/><path d="M-503.87 202.57v17.85" stroke="#3a414a" fill="none"/><path d="M-503.4 202.6h-.95v-.53h.95zM-503.4 220.92h-.95v-.52h.95z" stroke="#3a414a" stroke-width=".05" fill="#3a414a"/><path d="M-503.48 303.36v17.84" stroke="#3a414a" fill="none"/><path d="M-503 303.38h-.95v-.52h.95zM-503 321.7h-.95v-.5h.95z" stroke="#3a414a" stroke-width=".05" fill="#3a414a"/><path d="M-745.7 220.42v-17.85" stroke="#3a414a" fill="none"/><path d="M-745.23 220.92h-.94v-.5h.94zM-745.24 202.6h-.95v-.53h.96z" stroke="#3a414a" stroke-width=".05" fill="#3a414a"/><path d="M-906.56 220.42v-17.85" stroke="#3a414a" fill="none"/><path d="M-906.1 220.92h-.94v-.5h.95zM-906.08 202.6h-.95v-.53h.95z" stroke="#3a414a" stroke-width=".05" fill="#3a414a"/><path d="M-745.7 303.36v17.84" stroke="#3a414a" fill="none"/><path d="M-745.23 303.38h-.94v-.52h.94zM-745.22 321.7h-.95v-.5h.95z" stroke="#3a414a" stroke-width=".05" fill="#3a414a"/><path d="M-866.33 321.2v-8.9-8.94" stroke="#3a414a" fill="none"/><path d="M-865.85 321.7h-.95v-.5h.95zM-865.86 303.38h-.95v-.52h.94z" stroke="#3a414a" stroke-width=".05" fill="#3a414a"/><path d="M-946.64 321.2v-8.9-8.94" stroke="#3a414a" fill="none"/><path d="M-946.17 321.7h-.95v-.5h.95zM-946.16 303.38h-.95v-.52h.94z" stroke="#3a414a" stroke-width=".05" fill="#3a414a"/><path d="M-987.72-.16h645.04M-987.22-15.16v30M-343.18 14.84v-30" stroke="#3a414a" fill="none"/><use xlink:href="#l" transform="matrix(1,0,0,1,-706.6289587137073,-25.49081364829393) translate(0 14.222222222222223)"/><use xlink:href="#m" transform="matrix(1,0,0,1,-706.6289587137073,-25.49081364829393) translate(34.567901234567906 14.222222222222223)"/><path d="M-907.1 423.3h563.67M-906.6 408.3v30M-343.93 438.3v-30" stroke="#3a414a" fill="none"/><use xlink:href="#n" transform="matrix(1,0,0,1,-674.0752733109553,427.3070866141732) translate(0 14.222222222222223)"/><use xlink:href="#o" transform="matrix(1,0,0,1,-674.0752733109553,427.3070866141732) translate(41.43209876543211 14.222222222222223)"/><path d="M-987.72 423.3h80.13M-987.22 408.3v30M-907.6 423.3h.5" stroke="#3a414a" fill="none"/><g><use xlink:href="#p" transform="matrix(1,0,0,1,-986.2904636920384,427.3070866141732) translate(0 14.222222222222223)"/></g><defs><path fill="#3a414a" d="M63-220v92h138v28H63V0H30v-248h175v28H63" id="q"/><path fill="#3a414a" d="M114-163C36-179 61-72 57 0H25l-1-190h30c1 12-1 29 2 39 6-27 23-49 58-41v29" id="r"/><path fill="#3a414a" d="M100-194c63 0 86 42 84 106H49c0 40 14 67 53 68 26 1 43-12 49-29l28 8c-11 28-37 45-77 45C44 4 14-33 15-96c1-61 26-98 85-98zm52 81c6-60-76-77-97-28-3 7-6 17-6 28h103" id="s"/><g id="a"><use transform="matrix(0.07407407407407407,0,0,0.07407407407407407,0,0)" xlink:href="#q"/><use transform="matrix(0.07407407407407407,0,0,0.07407407407407407,16.22222222222222,0)" xlink:href="#r"/><use transform="matrix(0.07407407407407407,0,0,0.07407407407407407,25.037037037037038,0)" xlink:href="#s"/><use transform="matrix(0.07407407407407407,0,0,0.07407407407407407,39.85185185185185,0)" xlink:href="#s"/></g><path fill="#3a414a" d="M24 0v-261h32V0H24" id="t"/><path fill="#3a414a" d="M24-231v-30h32v30H24zM24 0v-190h32V0H24" id="u"/><path fill="#3a414a" d="M135-143c-3-34-86-38-87 0 15 53 115 12 119 90S17 21 10-45l28-5c4 36 97 45 98 0-10-56-113-15-118-90-4-57 82-63 122-42 12 7 21 19 24 35" id="v"/><path fill="#3a414a" d="M59-47c-2 24 18 29 38 22v24C64 9 27 4 27-40v-127H5v-23h24l9-43h21v43h35v23H59v120" id="w"/><path fill="#3a414a" d="M33-154v-36h34v36H33zM33 0v-36h34V0H33" id="x"/><g id="b"><use transform="matrix(0.07407407407407407,0,0,0.07407407407407407,0,0)" xlink:href="#t"/><use transform="matrix(0.07407407407407407,0,0,0.07407407407407407,5.851851851851851,0)" xlink:href="#u"/><use transform="matrix(0.07407407407407407,0,0,0.07407407407407407,11.703703703703702,0)" xlink:href="#v"/><use transform="matrix(0.07407407407407407,0,0,0.07407407407407407,25.037037037037035,0)" xlink:href="#w"/><use transform="matrix(0.07407407407407407,0,0,0.07407407407407407,32.44444444444444,0)" xlink:href="#x"/></g><path fill="#3a414a" d="M110-160c48 1 74 30 74 79 0 53-28 85-80 85-65 0-83-55-86-122-5-90 50-162 133-122 14 7 22 21 27 39l-31 6c-5-40-67-38-82-6-9 19-15 44-15 74 11-20 30-34 60-33zm-7 138c34 0 49-23 49-58s-16-56-50-56c-29 0-50 16-49 49 1 36 15 65 50 65" id="y"/><path fill="#3a414a" d="M155-56V0h-30v-56H8v-25l114-167h33v167h35v25h-35zm-30-156c-27 46-58 90-88 131h88v-131" id="z"/><g id="c"><use transform="matrix(0.06172839506172839,0,0,0.06172839506172839,0,0)" xlink:href="#y"/><use transform="matrix(0.06172839506172839,0,0,0.06172839506172839,12.345679012345679,0)" xlink:href="#z"/><use transform="matrix(0.06172839506172839,0,0,0.06172839506172839,24.691358024691358,0)" xlink:href="#x"/></g><path fill="#3a414a" d="M126-127c33 6 58 20 58 59 0 88-139 92-164 29-3-8-5-16-6-25l32-3c6 27 21 44 54 44 32 0 52-15 52-46 0-38-36-46-79-43v-28c39 1 72-4 72-42 0-27-17-43-46-43-28 0-47 15-49 41l-32-3c6-42 35-63 81-64 48-1 79 21 79 65 0 36-21 52-52 59" id="A"/><path fill="#3a414a" d="M101-251c82-7 93 87 43 132L82-64C71-53 59-42 53-27h129V0H18c2-99 128-94 128-182 0-28-16-43-45-43s-46 15-49 41l-32-3c6-41 34-60 81-64" id="B"/><g id="d"><use transform="matrix(0.06172839506172839,0,0,0.06172839506172839,0,0)" xlink:href="#A"/><use transform="matrix(0.06172839506172839,0,0,0.06172839506172839,12.345679012345679,0)" xlink:href="#B"/><use transform="matrix(0.06172839506172839,0,0,0.06172839506172839,24.691358024691358,0)" xlink:href="#x"/></g><path fill="#3a414a" d="M27 0v-27h64v-190l-56 39v-29l58-41h29v221h61V0H27" id="C"/><g id="e"><use transform="matrix(0.06172839506172839,0,0,0.06172839506172839,0,0)" xlink:href="#C"/><use transform="matrix(0.06172839506172839,0,0,0.06172839506172839,12.345679012345679,0)" xlink:href="#y"/><use transform="matrix(0.06172839506172839,0,0,0.06172839506172839,24.691358024691358,0)" xlink:href="#x"/></g><path fill="#3a414a" d="M134-131c28 9 52 24 51 62-1 50-34 73-85 73S17-19 16-69c0-36 21-54 49-61-75-25-45-126 34-121 46 3 78 18 79 63 0 33-17 51-44 57zm-34-11c31 1 46-15 46-44 0-28-17-43-47-42-29 0-46 13-45 42 1 28 16 44 46 44zm1 122c35 0 51-18 51-52 0-30-18-46-53-46-33 0-51 17-51 47 0 34 19 51 53 51" id="D"/><g id="f"><use transform="matrix(0.06172839506172839,0,0,0.06172839506172839,0,0)" xlink:href="#C"/><use transform="matrix(0.06172839506172839,0,0,0.06172839506172839,12.345679012345679,0)" xlink:href="#B"/><use transform="matrix(0.06172839506172839,0,0,0.06172839506172839,24.691358024691358,0)" xlink:href="#D"/><use transform="matrix(0.06172839506172839,0,0,0.06172839506172839,37.03703703703704,0)" xlink:href="#x"/></g><g id="g"><use transform="matrix(0.1111111111111111,0,0,0.1111111111111111,0,0)" xlink:href="#C"/><use transform="matrix(0.1111111111111111,0,0,0.1111111111111111,22.22222222222222,0)" xlink:href="#y"/></g><g id="h"><use transform="matrix(0.1111111111111111,0,0,0.1111111111111111,0,0)" xlink:href="#C"/><use transform="matrix(0.1111111111111111,0,0,0.1111111111111111,22.22222222222222,0)" xlink:href="#y"/></g><g id="i"><use transform="matrix(0.1111111111111111,0,0,0.1111111111111111,0,0)" xlink:href="#C"/><use transform="matrix(0.1111111111111111,0,0,0.1111111111111111,22.22222222222222,0)" xlink:href="#B"/><use transform="matrix(0.1111111111111111,0,0,0.1111111111111111,44.44444444444444,0)" xlink:href="#D"/></g><g id="j"><use transform="matrix(0.1111111111111111,0,0,0.1111111111111111,0,0)" xlink:href="#A"/><use transform="matrix(0.1111111111111111,0,0,0.1111111111111111,22.22222222222222,0)" xlink:href="#B"/></g><g id="k"><use transform="matrix(0.1111111111111111,0,0,0.1111111111111111,0,0)" xlink:href="#y"/><use transform="matrix(0.1111111111111111,0,0,0.1111111111111111,22.22222222222222,0)" xlink:href="#z"/></g><path fill="#333" d="M23 0v-37h61v-169l-59 37v-38l62-41h46v211h57V0H23" id="E"/><path fill="#333" d="M182-182c0 78-84 86-111 141h115V0H12c-6-101 99-100 120-180 1-22-12-31-33-32-23 0-32 14-35 34l-49-3c5-45 32-70 84-70 51 0 83 22 83 69" id="F"/><path fill="#333" d="M138-131c27 9 52 24 51 61 0 53-36 74-89 74S11-19 11-69c0-35 22-54 51-61-78-25-46-121 38-121 51 0 83 19 83 66 0 30-18 49-45 54zm-38-16c24 0 32-13 32-36 1-23-11-34-32-34-22 0-33 12-32 34 0 22 9 36 32 36zm1 116c27 0 37-17 37-43 0-25-13-39-39-39-24 0-37 15-37 40 0 27 11 42 39 42" id="G"/><g id="l"><use transform="matrix(0.04938271604938272,0,0,0.04938271604938272,0,0)" xlink:href="#E"/><use transform="matrix(0.04938271604938272,0,0,0.04938271604938272,9.876543209876544,0)" xlink:href="#F"/><use transform="matrix(0.04938271604938272,0,0,0.04938271604938272,19.75308641975309,0)" xlink:href="#G"/></g><path fill="#333" d="M182-130c37 4 62 22 62 59C244 23 116-4 24 0v-248c84 5 203-23 205 63 0 31-19 50-47 55zM76-148c40-3 101 13 101-30 0-44-60-28-101-31v61zm0 110c48-3 116 14 116-37 0-48-69-32-116-35v72" id="H"/><path fill="#333" d="M123 10C108 53 80 86 19 72V37c35 8 53-11 59-39L3-190h52l48 148c12-52 28-100 44-148h51" id="I"/><path fill="#333" d="M115-3C79 11 28 4 28-45v-112H4v-33h27l15-45h31v45h36v33H77v99c-1 23 16 31 38 25v30" id="J"/><path fill="#333" d="M185-48c-13 30-37 53-82 52C43 2 14-33 14-96s30-98 90-98c62 0 83 45 84 108H66c0 31 8 55 39 56 18 0 30-7 34-22zm-45-69c5-46-57-63-70-21-2 6-4 13-4 21h74" id="K"/><path fill="#333" d="M137-138c1-29-70-34-71-4 15 46 118 7 119 86 1 83-164 76-172 9l43-7c4 19 20 25 44 25 33 8 57-30 24-41C81-84 22-81 20-136c-2-80 154-74 161-7" id="L"/><g id="m"><use transform="matrix(0.04938271604938272,0,0,0.04938271604938272,0,0)" xlink:href="#H"/><use transform="matrix(0.04938271604938272,0,0,0.04938271604938272,12.790123456790125,0)" xlink:href="#I"/><use transform="matrix(0.04938271604938272,0,0,0.04938271604938272,22.66666666666667,0)" xlink:href="#J"/><use transform="matrix(0.04938271604938272,0,0,0.04938271604938272,28.54320987654322,0)" xlink:href="#K"/><use transform="matrix(0.04938271604938272,0,0,0.04938271604938272,38.41975308641976,0)" xlink:href="#L"/></g><path fill="#333" d="M175 0L67-191c6 58 2 128 3 191H24v-248h59L193-55c-6-58-2-129-3-193h46V0h-61" id="M"/><path fill="#333" d="M231 0h-52l-39-155L100 0H48L-1-190h46L77-45c9-52 24-97 36-145h53l37 145 32-145h46" id="N"/><g id="n"><use transform="matrix(0.04938271604938272,0,0,0.04938271604938272,0,0)" xlink:href="#M"/><use transform="matrix(0.04938271604938272,0,0,0.04938271604938272,12.790123456790125,0)" xlink:href="#K"/><use transform="matrix(0.04938271604938272,0,0,0.04938271604938272,22.66666666666667,0)" xlink:href="#N"/></g><path fill="#333" d="M135-194c52 0 70 43 70 98 0 56-19 99-73 100-30 1-46-15-58-35L72 0H24l1-261h50v104c11-23 29-37 60-37zM114-30c31 0 40-27 40-66 0-37-7-63-39-63s-41 28-41 65c0 36 8 64 40 64" id="O"/><path fill="#333" d="M25 0v-261h50V0H25" id="P"/><path fill="#333" d="M110-194c64 0 96 36 96 99 0 64-35 99-97 99-61 0-95-36-95-99 0-62 34-99 96-99zm-1 164c35 0 45-28 45-65 0-40-10-65-43-65-34 0-45 26-45 65 0 36 10 65 43 65" id="Q"/><path fill="#333" d="M190-63c-7 42-38 67-86 67-59 0-84-38-90-98-12-110 154-137 174-36l-49 2c-2-19-15-32-35-32-30 0-35 28-38 64-6 74 65 87 74 30" id="R"/><path fill="#333" d="M147 0L96-86 75-71V0H25v-261h50v150l67-79h53l-66 74L201 0h-54" id="S"/><g id="o"><use transform="matrix(0.04938271604938272,0,0,0.04938271604938272,0,0)" xlink:href="#O"/><use transform="matrix(0.04938271604938272,0,0,0.04938271604938272,10.814814814814815,0)" xlink:href="#P"/><use transform="matrix(0.04938271604938272,0,0,0.04938271604938272,15.753086419753087,0)" xlink:href="#Q"/><use transform="matrix(0.04938271604938272,0,0,0.04938271604938272,26.567901234567902,0)" xlink:href="#R"/><use transform="matrix(0.04938271604938272,0,0,0.04938271604938272,36.44444444444444,0)" xlink:href="#S"/><use transform="matrix(0.04938271604938272,0,0,0.04938271604938272,46.32098765432099,0)" xlink:href="#L"/></g><path fill="#333" d="M240-174c0 40-23 61-54 70L253 0h-59l-57-94H76V0H24v-248c93 4 217-23 216 74zM76-134c48-2 112 12 112-38 0-48-66-32-112-35v73" id="T"/><path fill="#333" d="M85 4C-2 5 27-109 22-190h50c7 57-23 150 33 157 60-5 35-97 40-157h50l1 190h-47c-2-12 1-28-3-38-12 25-28 42-61 42" id="U"/><path fill="#333" d="M135-150c-39-12-60 13-60 57V0H25l-1-190h47c2 13-1 29 3 40 6-28 27-53 61-41v41" id="V"/><path fill="#333" d="M135-194c87-1 58 113 63 194h-50c-7-57 23-157-34-157-59 0-34 97-39 157H25l-1-190h47c2 12-1 28 3 38 12-26 28-41 61-42" id="W"/><path fill="#333" d="M88-194c31-1 46 15 58 34l-1-101h50l1 261h-48c-2-10 0-23-3-31C134-8 116 4 84 4 32 4 16-41 15-95c0-56 19-97 73-99zm17 164c33 0 40-30 41-66 1-37-9-64-41-64s-38 30-39 65c0 43 13 65 39 65" id="X"/><g id="p"><use transform="matrix(0.04938271604938272,0,0,0.04938271604938272,0,0)" xlink:href="#T"/><use transform="matrix(0.04938271604938272,0,0,0.04938271604938272,12.790123456790125,0)" xlink:href="#K"/><use transform="matrix(0.04938271604938272,0,0,0.04938271604938272,22.66666666666667,0)" xlink:href="#J"/><use transform="matrix(0.04938271604938272,0,0,0.04938271604938272,28.54320987654322,0)" xlink:href="#U"/><use transform="matrix(0.04938271604938272,0,0,0.04938271604938272,39.35802469135803,0)" xlink:href="#V"/><use transform="matrix(0.04938271604938272,0,0,0.04938271604938272,46.271604938271615,0)" xlink:href="#W"/><use transform="matrix(0.04938271604938272,0,0,0.04938271604938272,57.08641975308644,0)" xlink:href="#K"/><use transform="matrix(0.04938271604938272,0,0,0.04938271604938272,66.96296296296298,0)" xlink:href="#X"/></g></defs></g></svg>