<svg xmlns="http://www.w3.org/2000/svg" xmlns:xlink="http://www.w3.org/1999/xlink" xmlns:lucid="lucid" width="646.91" height="403.46"><g transform="translate(988.328197695182 -544.251968503937)" lucid:page-tab-id="0_0"><path d="M-986.96 564.4h645.04v80h-645.04z" stroke="#3a414a" fill="#fff"/><use xlink:href="#a" transform="matrix(1,0,0,1,-974.9590559191168,576.4094488188978) translate(298.037037037037 40.833333333333336)"/><path d="M-986.45 544.25h643.77M-983.45 529.25v30M-345.68 559.25v-30" stroke="#3a414a" stroke-width="6" fill="none"/><use xlink:href="#b" transform="matrix(1,0,0,1,-788.8599267503888,476.25196850393695) translate(0 42.66666666666667)"/><use xlink:href="#c" transform="matrix(1,0,0,1,-788.8599267503888,476.25196850393695) translate(103.70370370370372 42.66666666666667)"/><path d="M-987.83 866.14h80.9v81.07h-80.9z" stroke="#3a414a" fill="#fff"/><use xlink:href="#d" transform="matrix(1,0,0,1,-975.8280266705657,878.1417322834644) translate(15.537037037037035 40.958333333333336)"/><path d="M-907 866.14h80.9v81.07H-907z" stroke="#3a414a" fill="#fff"/><use xlink:href="#e" transform="matrix(1,0,0,1,-894.9983183859928,878.1417322834644) translate(15.537037037037035 40.958333333333336)"/><path d="M-826.44 866.14h80.9v81.07h-80.9z" stroke="#3a414a" fill="#fff"/><use xlink:href="#f" transform="matrix(1,0,0,1,-814.4411198614682,878.1417322834644) translate(15.537037037037035 40.958333333333336)"/><path d="M-745.8 866.14h80.88v81.07h-80.9z" stroke="#3a414a" fill="#fff"/><use xlink:href="#g" transform="matrix(1,0,0,1,-733.8111986016257,878.1417322834644) translate(2.574074074074069 40.958333333333336)"/><path d="M-665.6 866.14h80.9v81.07h-80.9z" stroke="#3a414a" fill="#fff"/><use xlink:href="#h" transform="matrix(1,0,0,1,-653.5858753553142,878.1417322834643) translate(3.8703703703703667 40.958333333333336)"/><path d="M-584.7 866.14h80.9v81.07h-80.9z" stroke="#3a414a" fill="#fff"/><use xlink:href="#i" transform="matrix(1,0,0,1,-572.6900374316921,878.1417322834643) translate(2.574074074074069 40.958333333333336)"/><path d="M-504.1 866.14h80.88v81.07h-80.9z" stroke="#3a414a" fill="#fff"/><use xlink:href="#j" transform="matrix(1,0,0,1,-492.1144577259445,878.1417322834643) translate(2.574074074074069 40.958333333333336)"/><path d="M-423.22 866.14h80.9v81.07h-80.9z" stroke="#3a414a" fill="#fff"/><use xlink:href="#k" transform="matrix(1,0,0,1,-411.21861980232234,878.1417322834643) translate(2.574074074074069 40.958333333333336)"/><path d="M-987.7 765.35h161.26v81.07H-987.7z" stroke="#3a414a" fill="#fff"/><use xlink:href="#l" transform="matrix(1,0,0,1,-975.7007913565374,777.3543307086613) translate(56.03703703703704 40.958333333333336)"/><path d="M-826.7 765.35h161.27v81.07H-826.7z" stroke="#3a414a" fill="#fff"/><use xlink:href="#m" transform="matrix(1,0,0,1,-814.6950774156777,777.3543307086613) translate(56.03703703703704 40.958333333333336)"/><path d="M-665.32 765.35h161.26v81.07h-161.26z" stroke="#3a414a" fill="#fff"/><use xlink:href="#n" transform="matrix(1,0,0,1,-653.323762767647,777.3543307086613) translate(56.03703703703704 40.958333333333336)"/><path d="M-504.05 765.35h161.26v81.07h-161.25z" stroke="#3a414a" fill="#fff"/><use xlink:href="#o" transform="matrix(1,0,0,1,-492.04832808689514,777.3543307086613) translate(56.03703703703704 40.958333333333336)"/><path d="M-987.83 665.08h322.5v81.06h-322.5z" stroke="#3a414a" fill="#fff"/><use xlink:href="#p" transform="matrix(1,0,0,1,-975.828197695182,677.0761154855645) translate(136.53703703703704 40.958333333333336)"/><path d="M-665.58 665.08h322.5v81.06h-322.5z" stroke="#3a414a" fill="#fff"/><use xlink:href="#q" transform="matrix(1,0,0,1,-653.584373380106,677.0761154855645) translate(136.53703703703704 40.958333333333336)"/><path d="M-826.88 664.08v-18.54" stroke="#3a414a" fill="none"/><path d="M-826.4 664.58h-.96v-.52h.96z" stroke="#3a414a" stroke-width=".05" fill="#3a414a"/><path d="M-826.88 645.55v-.5M-504.67 664.08V645.4" stroke="#3a414a" fill="none"/><path d="M-504.2 664.58h-.94v-.52h.94zM-504.2 645.42h-.94v-.5h.94z" stroke="#3a414a" stroke-width=".05" fill="#3a414a"/><path d="M-584.7 764.35v-17.2" stroke="#3a414a" fill="none"/><path d="M-584.22 764.85h-.95v-.5h.95zM-584.22 747.15h-.95v-.5h.95z" stroke="#3a414a" stroke-width=".05" fill="#3a414a"/><path d="M-423.42 764.35v-18.02" stroke="#3a414a" fill="none"/><path d="M-422.94 764.85h-.95v-.5h.96z" stroke="#3a414a" stroke-width=".05" fill="#3a414a"/><path d="M-423.42 746.34v-.5M-382.77 865.14v-17.72" stroke="#3a414a" fill="none"/><path d="M-382.3 865.64h-.94v-.5h.95zM-382.3 847.43h-.94v-.5h.95z" stroke="#3a414a" stroke-width=".05" fill="#3a414a"/><path d="M-463.67 865.14v-17.72" stroke="#3a414a" fill="none"/><path d="M-463.2 865.64h-.94v-.5h.95zM-463.2 847.43h-.94v-.5h.95z" stroke="#3a414a" stroke-width=".05" fill="#3a414a"/><path d="M-544.24 865.14V847.1" stroke="#3a414a" fill="none"/><path d="M-543.77 865.64h-.95v-.5h.95z" stroke="#3a414a" stroke-width=".05" fill="#3a414a"/><path d="M-544.24 847.13v-.52M-625.14 865.14v-8.88a.13.13 0 0 1 .13-.13.13.13 0 0 0 .12-.13v-8.9" stroke="#3a414a" fill="none"/><path d="M-624.66 865.64h-.95v-.5h.94z" stroke="#3a414a" stroke-width=".05" fill="#3a414a"/><path d="M-624.88 847.13v-.52M-705.5 865.14v-9-9.02" stroke="#3a414a" fill="none"/><path d="M-705.02 865.64h-.95v-.5h.95z" stroke="#3a414a" stroke-width=".05" fill="#3a414a"/><path d="M-705.5 847.13v-.52M-786.18 865.14V847.1" stroke="#3a414a" fill="none"/><path d="M-785.7 865.64h-.96v-.5h.95z" stroke="#3a414a" stroke-width=".05" fill="#3a414a"/><path d="M-786.18 847.13v-.52M-866.55 865.14v-8.9a.1.1 0 0 0-.1-.1.1.1 0 0 1-.12-.12v-8.9" stroke="#3a414a" fill="none"/><path d="M-866.08 865.64h-.94v-.5h.94z" stroke="#3a414a" stroke-width=".05" fill="#3a414a"/><path d="M-866.77 847.13v-.52M-947.38 865.14v-9l-.02-.02v-9" stroke="#3a414a" fill="none"/><path d="M-946.9 865.64h-.96v-.5h.96z" stroke="#3a414a" stroke-width=".05" fill="#3a414a"/><path d="M-947.4 847.13v-.52M-907.07 764.35v-9l-.02-.02v-9" stroke="#3a414a" fill="none"/><path d="M-906.6 764.85h-.95v-.5h.95z" stroke="#3a414a" stroke-width=".05" fill="#3a414a"/><path d="M-907.1 746.34v-.5M-746.07 764.35v-8.9a.12.12 0 0 1 .12-.1.12.12 0 0 0 .12-.13v-8.9" stroke="#3a414a" fill="none"/><path d="M-745.6 764.85h-.94v-.5h.95z" stroke="#3a414a" stroke-width=".05" fill="#3a414a"/><path d="M-745.83 746.34v-.5" stroke="#3a414a" fill="none"/><defs><path fill="#3a414a" d="M101-251c68 0 84 54 84 127C185-50 166 4 99 4S15-52 14-124c-1-75 17-127 87-127zm-1 216c37-5 36-46 36-89s4-89-36-89c-39 0-36 45-36 89 0 43-3 85 36 89" id="r"/><use transform="matrix(0.12962962962962965,0,0,0.12962962962962965,0,0)" xlink:href="#r" id="a"/><path fill="#333" d="M23 0v-37h61v-169l-59 37v-38l62-41h46v211h57V0H23" id="s"/><path fill="#333" d="M182-182c0 78-84 86-111 141h115V0H12c-6-101 99-100 120-180 1-22-12-31-33-32-23 0-32 14-35 34l-49-3c5-45 32-70 84-70 51 0 83 22 83 69" id="t"/><path fill="#333" d="M138-131c27 9 52 24 51 61 0 53-36 74-89 74S11-19 11-69c0-35 22-54 51-61-78-25-46-121 38-121 51 0 83 19 83 66 0 30-18 49-45 54zm-38-16c24 0 32-13 32-36 1-23-11-34-32-34-22 0-33 12-32 34 0 22 9 36 32 36zm1 116c27 0 37-17 37-43 0-25-13-39-39-39-24 0-37 15-37 40 0 27 11 42 39 42" id="u"/><g id="b"><use transform="matrix(0.14814814814814817,0,0,0.14814814814814817,0,0)" xlink:href="#s"/><use transform="matrix(0.14814814814814817,0,0,0.14814814814814817,29.629629629629633,0)" xlink:href="#t"/><use transform="matrix(0.14814814814814817,0,0,0.14814814814814817,59.25925925925927,0)" xlink:href="#u"/></g><path fill="#333" d="M182-130c37 4 62 22 62 59C244 23 116-4 24 0v-248c84 5 203-23 205 63 0 31-19 50-47 55zM76-148c40-3 101 13 101-30 0-44-60-28-101-31v61zm0 110c48-3 116 14 116-37 0-48-69-32-116-35v72" id="v"/><path fill="#333" d="M123 10C108 53 80 86 19 72V37c35 8 53-11 59-39L3-190h52l48 148c12-52 28-100 44-148h51" id="w"/><path fill="#333" d="M115-3C79 11 28 4 28-45v-112H4v-33h27l15-45h31v45h36v33H77v99c-1 23 16 31 38 25v30" id="x"/><path fill="#333" d="M185-48c-13 30-37 53-82 52C43 2 14-33 14-96s30-98 90-98c62 0 83 45 84 108H66c0 31 8 55 39 56 18 0 30-7 34-22zm-45-69c5-46-57-63-70-21-2 6-4 13-4 21h74" id="y"/><path fill="#333" d="M137-138c1-29-70-34-71-4 15 46 118 7 119 86 1 83-164 76-172 9l43-7c4 19 20 25 44 25 33 8 57-30 24-41C81-84 22-81 20-136c-2-80 154-74 161-7" id="z"/><g id="c"><use transform="matrix(0.14814814814814817,0,0,0.14814814814814817,0,0)" xlink:href="#v"/><use transform="matrix(0.14814814814814817,0,0,0.14814814814814817,38.370370370370374,0)" xlink:href="#w"/><use transform="matrix(0.14814814814814817,0,0,0.14814814814814817,68,0)" xlink:href="#x"/><use transform="matrix(0.14814814814814817,0,0,0.14814814814814817,85.62962962962965,0)" xlink:href="#y"/><use transform="matrix(0.14814814814814817,0,0,0.14814814814814817,115.25925925925928,0)" xlink:href="#z"/></g><path fill="#3a414a" d="M52 0c1-96 47-148 87-207H15v-41h169v40c-36 62-79 113-81 208H52" id="A"/><use transform="matrix(0.12962962962962965,0,0,0.12962962962962965,0,0)" xlink:href="#A" id="d"/><path fill="#3a414a" d="M138-131c27 9 52 24 51 61 0 53-36 74-89 74S11-19 11-69c0-35 22-54 51-61-78-25-46-121 38-121 51 0 83 19 83 66 0 30-18 49-45 54zm-38-16c24 0 32-13 32-36 1-23-11-34-32-34-22 0-33 12-32 34 0 22 9 36 32 36zm1 116c27 0 37-17 37-43 0-25-13-39-39-39-24 0-37 15-37 40 0 27 11 42 39 42" id="B"/><use transform="matrix(0.12962962962962965,0,0,0.12962962962962965,0,0)" xlink:href="#B" id="e"/><path fill="#3a414a" d="M99-251c69 0 84 53 88 123 5 99-61 162-144 118-15-8-21-25-26-45l46-6c4 31 50 33 63 7 7-15 12-36 12-60-9 18-29 28-54 28-48 0-72-32-72-82 0-55 31-83 87-83zm-1 128c24 0 37-16 37-39 0-27-10-51-37-51-25 0-35 19-35 45 0 25 10 45 35 45" id="C"/><use transform="matrix(0.12962962962962965,0,0,0.12962962962962965,0,0)" xlink:href="#C" id="f"/><path fill="#3a414a" d="M23 0v-37h61v-169l-59 37v-38l62-41h46v211h57V0H23" id="D"/><g id="g"><use transform="matrix(0.12962962962962965,0,0,0.12962962962962965,0,0)" xlink:href="#D"/><use transform="matrix(0.12962962962962965,0,0,0.12962962962962965,25.92592592592593,0)" xlink:href="#r"/></g><g id="h"><use transform="matrix(0.12962962962962965,0,0,0.12962962962962965,0,0)" xlink:href="#D"/><use transform="matrix(0.12962962962962965,0,0,0.12962962962962965,23.33333333333334,0)" xlink:href="#D"/></g><path fill="#3a414a" d="M182-182c0 78-84 86-111 141h115V0H12c-6-101 99-100 120-180 1-22-12-31-33-32-23 0-32 14-35 34l-49-3c5-45 32-70 84-70 51 0 83 22 83 69" id="E"/><g id="i"><use transform="matrix(0.12962962962962965,0,0,0.12962962962962965,0,0)" xlink:href="#D"/><use transform="matrix(0.12962962962962965,0,0,0.12962962962962965,25.92592592592593,0)" xlink:href="#E"/></g><path fill="#3a414a" d="M128-127c34 4 56 21 59 58 7 91-148 94-172 28-4-9-6-17-7-26l51-5c1 24 16 35 40 36 23 0 39-12 38-36-1-31-31-36-65-34v-40c32 2 59-3 59-33 0-20-13-33-34-33s-33 13-35 32l-50-3c6-44 37-68 86-68 50 0 83 20 83 66 0 35-22 52-53 58" id="F"/><g id="j"><use transform="matrix(0.12962962962962965,0,0,0.12962962962962965,0,0)" xlink:href="#D"/><use transform="matrix(0.12962962962962965,0,0,0.12962962962962965,25.92592592592593,0)" xlink:href="#F"/></g><path fill="#3a414a" d="M165-50V0h-47v-50H5v-38l105-160h55v161h33v37h-33zm-47-37l2-116L46-87h72" id="G"/><g id="k"><use transform="matrix(0.12962962962962965,0,0,0.12962962962962965,0,0)" xlink:href="#D"/><use transform="matrix(0.12962962962962965,0,0,0.12962962962962965,25.92592592592593,0)" xlink:href="#G"/></g><use transform="matrix(0.12962962962962965,0,0,0.12962962962962965,0,0)" xlink:href="#F" id="l"/><use transform="matrix(0.12962962962962965,0,0,0.12962962962962965,0,0)" xlink:href="#G" id="m"/><path fill="#3a414a" d="M139-81c0-46-55-55-73-27H18l9-140h149v37H72l-4 63c44-38 133-4 122 66C201 21 21 35 11-62l49-4c5 18 15 30 39 30 26 0 40-18 40-45" id="H"/><use transform="matrix(0.12962962962962965,0,0,0.12962962962962965,0,0)" xlink:href="#H" id="n"/><path fill="#3a414a" d="M115-159c48 0 72 30 72 78 0 54-30 85-83 85-64 0-91-50-91-122 0-98 58-163 141-120 15 8 21 24 27 44l-47 6c-5-31-48-31-61-4-7 14-11 33-11 60 9-17 28-27 53-27zM102-35c24 0 36-20 36-45s-11-43-37-43c-23 0-36 14-36 38 0 27 11 50 37 50" id="I"/><use transform="matrix(0.12962962962962965,0,0,0.12962962962962965,0,0)" xlink:href="#I" id="o"/><use transform="matrix(0.12962962962962965,0,0,0.12962962962962965,0,0)" xlink:href="#D" id="p"/><use transform="matrix(0.12962962962962965,0,0,0.12962962962962965,0,0)" xlink:href="#E" id="q"/></defs></g></svg>