<svg xmlns="http://www.w3.org/2000/svg" xmlns:xlink="http://www.w3.org/1999/xlink" xmlns:lucid="lucid" width="771.54" height="483.93"><g transform="translate(993.6188556543839 -1027.5590551181103)" lucid:page-tab-id="0_0"><path d="M-988.23 1370.08h80.63v80.94h-80.63z" stroke="#3a414a" fill="#dfe3e8"/><use xlink:href="#a" transform="matrix(1,0,0,1,-976.2254957983336,1382.0787401574798) translate(17.38888888888889 35.5625)"/><path d="M-907.37 1370.08h80v80.94h-80z" stroke="#3a414a" fill="#fff7a1"/><use xlink:href="#b" transform="matrix(1,0,0,1,-895.3687493169709,1382.0787401574798) translate(16.88888888888889 35.5625)"/><path d="M-988.23 1067.72h645.04v80H-988.2z" stroke="#3a414a" fill="#fff"/><use xlink:href="#c" transform="matrix(1,0,0,1,-976.2254957983334,1079.716535433071) translate(299.8888888888889 35.5)"/><path d="M-665.58 1168.5h322.4v80.95h-322.4z" stroke="#3a414a" fill="#b8f5ed"/><use xlink:href="#d" transform="matrix(1,0,0,1,-653.5785754449347,1180.503937007874) translate(138.38888888888889 35.5625)"/><path d="M-988.23 1168.5h322.4v80.95h-322.4z" stroke="#3a414a" fill="#fff"/><use xlink:href="#e" transform="matrix(1,0,0,1,-976.2253247737174,1180.503937007874) translate(138.38888888888889 35.5625)"/><path d="M-988.23 1269.5h161.26v80.93h-161.25z" stroke="#3a414a" fill="#fff"/><use xlink:href="#f" transform="matrix(1,0,0,1,-976.2254957983334,1281.4855643044623) translate(57.888888888888886 35.5625)"/><path d="M-825.84 1167.5v-18.78" stroke="#3a414a" fill="none"/><path d="M-825.37 1168h-.95v-.5h.95zM-825.37 1148.73h-.95v-.5h.95z" stroke="#3a414a" stroke-width=".05" fill="#3a414a"/><path d="M-504.38 1167.5v-18.78" stroke="#3a414a" fill="none"/><path d="M-503.9 1168h-.96v-.5h.95zM-503.9 1148.73h-.96v-.5h.95z" stroke="#3a414a" stroke-width=".05" fill="#3a414a"/><path d="M-907.6 1268.5V1250.44" stroke="#3a414a" fill="none"/><path d="M-907.12 1269h-.95v-.53h.95zM-907.12 1250.46h-.95v-.5h.95z" stroke="#3a414a" stroke-width=".05" fill="#3a414a"/><path d="M-867.37 1369.08v-17.65" stroke="#3a414a" fill="none"/><path d="M-866.9 1369.58h-.94v-.5h.95zM-866.9 1351.44h-.94v-.5h.95z" stroke="#3a414a" stroke-width=".05" fill="#3a414a"/><path d="M-947.9 1369.08v-17.65" stroke="#3a414a" fill="none"/><path d="M-947.44 1369.58h-.95v-.5h.96zM-947.44 1351.44h-.95v-.5h.96z" stroke="#3a414a" stroke-width=".05" fill="#3a414a"/><path d="M-987.72 1047.56h645.44M-987.22 1032.56v30M-342.78 1062.56v-30" stroke="#3a414a" fill="none"/><use xlink:href="#g" transform="matrix(1,0,0,1,-706.4302241498234,1022.225721784777) translate(0 14.222222222222223)"/><use xlink:href="#h" transform="matrix(1,0,0,1,-706.4302241498234,1022.225721784777) translate(34.567901234567906 14.222222222222223)"/><path d="M-826.84 1370.08h80.63v80.94h-80.64z" stroke="#3a414a" fill="#fff"/><use xlink:href="#i" transform="matrix(1,0,0,1,-814.8384179646199,1382.0787401574798) translate(17.38888888888889 35.5625)"/><path d="M-745.98 1370.08h80v80.94h-80z" stroke="#3a414a" fill="#fff"/><use xlink:href="#j" transform="matrix(1,0,0,1,-733.9816714832575,1382.0787401574798) translate(5.777777777777779 35.5625)"/><path d="M-826.84 1269.5h161.26v80.93h-161.26z" stroke="#3a414a" fill="#c3f7c8"/><use xlink:href="#k" transform="matrix(1,0,0,1,-814.8384179646198,1281.4855643044623) translate(57.888888888888886 35.5625)"/><path d="M-746.2 1268.5v-18.05" stroke="#3a414a" fill="none"/><path d="M-745.73 1269h-.95v-.53h.95z" stroke="#3a414a" stroke-width=".05" fill="#3a414a"/><path d="M-746.2 1250.46v-.5M-705.98 1369.08v-17.65" stroke="#3a414a" fill="none"/><path d="M-705.5 1369.58h-.96v-.5h.95zM-705.5 1351.44h-.96v-.5h.95z" stroke="#3a414a" stroke-width=".05" fill="#3a414a"/><path d="M-786.52 1369.08v-17.65" stroke="#3a414a" fill="none"/><path d="M-786.05 1369.58h-.95v-.5h.95zM-786.05 1351.44h-.95v-.5h.95z" stroke="#3a414a" stroke-width=".05" fill="#3a414a"/><path d="M-665.45 1370.08h80.63v80.94h-80.63z" stroke="#3a414a" fill="#fff"/><use xlink:href="#l" transform="matrix(1,0,0,1,-653.4513401309065,1382.0787401574796) translate(7.777777777777779 35.5625)"/><path d="M-584.6 1370.08h80v80.94h-80z" stroke="#3a414a" fill="#fff"/><use xlink:href="#m" transform="matrix(1,0,0,1,-572.5945936495441,1382.0787401574796) translate(5.777777777777779 35.5625)"/><path d="M-665.45 1269.5h161.26v80.93h-161.25z" stroke="#3a414a" fill="#fff"/><use xlink:href="#n" transform="matrix(1,0,0,1,-653.4513401309066,1281.485564304462) translate(57.888888888888886 35.5625)"/><path d="M-584.82 1268.5V1250.44" stroke="#3a414a" fill="none"/><path d="M-584.35 1269h-.95v-.53h.95z" stroke="#3a414a" stroke-width=".05" fill="#3a414a"/><path d="M-584.82 1250.46v-.5M-544.6 1369.08v-17.65" stroke="#3a414a" fill="none"/><path d="M-544.12 1369.58h-.95v-.5h.95zM-544.12 1351.44h-.95v-.5h.95z" stroke="#3a414a" stroke-width=".05" fill="#3a414a"/><path d="M-625.14 1369.08v-17.65" stroke="#3a414a" fill="none"/><path d="M-624.66 1369.58h-.95v-.5h.94zM-624.66 1351.44h-.95v-.5h.94z" stroke="#3a414a" stroke-width=".05" fill="#3a414a"/><path d="M-503.94 1370.08h80.63v80.94h-80.64z" stroke="#3a414a" fill="#fff"/><use xlink:href="#o" transform="matrix(1,0,0,1,-491.93702698316486,1382.0787401574798) translate(6.277777777777779 35.5625)"/><path d="M-423.08 1370.08h80v80.94h-80z" stroke="#3a414a" fill="#fff"/><use xlink:href="#p" transform="matrix(1,0,0,1,-411.08028050180246,1382.0787401574798) translate(5.777777777777779 35.5625)"/><path d="M-503.94 1269.5h161.26v80.93h-161.26z" stroke="#3a414a" fill="#fff"/><use xlink:href="#q" transform="matrix(1,0,0,1,-491.93702698316486,1281.4855643044623) translate(57.888888888888886 35.5625)"/><path d="M-423.3 1268.5v-18.05" stroke="#3a414a" fill="none"/><path d="M-422.83 1269h-.95v-.53h.95z" stroke="#3a414a" stroke-width=".05" fill="#3a414a"/><path d="M-423.3 1250.46v-.5M-383.08 1369.08v-17.65" stroke="#3a414a" fill="none"/><path d="M-382.6 1369.58h-.95v-.5h.94zM-382.6 1351.44h-.95v-.5h.94z" stroke="#3a414a" stroke-width=".05" fill="#3a414a"/><path d="M-463.62 1369.08v-17.65" stroke="#3a414a" fill="none"/><path d="M-463.15 1369.58h-.95v-.5h.95zM-463.15 1351.44h-.95v-.5h.95z" stroke="#3a414a" stroke-width=".05" fill="#3a414a"/><path d="M-342.28 1027.56h120.2v40h-120.2z" stroke="#000" stroke-opacity="0" fill="#fff" fill-opacity="0"/><use xlink:href="#r" transform="matrix(1,0,0,1,-337.2797153357118,1032.5590551181103) translate(4.537037037037045 23.208333333333332)"/><use xlink:href="#s" transform="matrix(1,0,0,1,-337.2797153357118,1032.5590551181103) translate(66.61111111111111 23.208333333333332)"/><path d="M-342.15 1107.56h60.07v40h-60.07z" stroke="#000" stroke-opacity="0" fill="#fff" fill-opacity="0"/><use xlink:href="#t" transform="matrix(1,0,0,1,-337.1526510462994,1112.5590551181103) translate(20.135802469135804 19.65277777777778)"/><path d="M-341.88 1149.13h60.07v40h-60.08z" stroke="#000" stroke-opacity="0" fill="#fff" fill-opacity="0"/><use xlink:href="#u" transform="matrix(1,0,0,1,-336.8824172325602,1154.1338582677165) translate(20.135802469135804 19.65277777777778)"/><path d="M-342.15 1189.13h60.07v40h-60.07z" stroke="#000" stroke-opacity="0" fill="#fff" fill-opacity="0"/><use xlink:href="#v" transform="matrix(1,0,0,1,-337.1526510462994,1194.1338582677165) translate(20.135802469135804 19.65277777777778)"/><path d="M-282.08 1117.56h20v20h-20z" stroke="#3a414a" fill="#b8f5ed"/><path d="M-282.08 1158.35h20v20h-20z" stroke="#3a414a" fill="#c3f7c8"/><path d="M-281.8 1199.13h20v20h-20z" stroke="#3a414a" fill="#fff7a1"/><path d="M-342.15 1067.56h60.07v40h-60.07z" stroke="#000" stroke-opacity="0" fill="#fff" fill-opacity="0"/><use xlink:href="#w" transform="matrix(1,0,0,1,-337.1526510462994,1072.5590551181103) translate(7.79012345679012 19.65277777777778)"/><path d="M-945.2 1470.67h40.3V1511h-40.3zM-904.9 1470.67h40.32V1511h-40.32z" stroke="#3a414a" fill="#f2f3f5"/><path d="M-865 1470.67h40.33V1511H-865z" stroke="#3a414a" fill="#b8f5ed"/><path d="M-824.67 1470.67h40.3V1511h-40.3z" stroke="#3a414a" fill="#f2f3f5"/><path d="M-784.76 1470.67h40.3V1511h-40.3z" stroke="#3a414a" fill="#c3f7c8"/><path d="M-744.45 1470.67h40.32V1511h-40.32z" stroke="#3a414a" fill="#f2f3f5"/><path d="M-704.53 1470.67h40.3V1511h-40.3zM-664.22 1470.67h40.32V1511h-40.32z" stroke="#3a414a" fill="#f2f3f5"/><path d="M-624.3 1470.67h40.3V1511h-40.3z" stroke="#3a414a" fill="#fff7a1"/><path d="M-584 1470.67h40.32V1511h-40.3z" stroke="#3a414a" fill="#f2f3f5"/><path d="M-544.08 1470.67h40.32V1511h-40.32zM-503.76 1470.67h40.3V1511h-40.3z" stroke="#3a414a" fill="#f2f3f5"/><path d="M-463.85 1470.67h40.3V1511h-40.3zM-423.54 1470.67h40.32V1511h-40.32z" stroke="#3a414a" fill="#f2f3f5"/><path d="M-383.63 1470.67h40.32V1511h-40.33z" stroke="#3a414a" fill="#f2f3f5"/><path d="M-993.62 1470.83h45.7V1511h-45.7z" stroke="#000" stroke-opacity="0" fill="#fff" fill-opacity="0"/><g><use xlink:href="#x" transform="matrix(1,0,0,1,-988.6188556543839,1475.8293963254594) translate(-5.666666666666664 21.333333333333332)"/></g><defs><path fill="#3a414a" d="M64 0c3-98 48-159 88-221H18v-27h164v26C143-157 98-101 97 0H64" id="y"/><use transform="matrix(0.1111111111111111,0,0,0.1111111111111111,0,0)" xlink:href="#y" id="a"/><path fill="#3a414a" d="M134-131c28 9 52 24 51 62-1 50-34 73-85 73S17-19 16-69c0-36 21-54 49-61-75-25-45-126 34-121 46 3 78 18 79 63 0 33-17 51-44 57zm-34-11c31 1 46-15 46-44 0-28-17-43-47-42-29 0-46 13-45 42 1 28 16 44 46 44zm1 122c35 0 51-18 51-52 0-30-18-46-53-46-33 0-51 17-51 47 0 34 19 51 53 51" id="z"/><use transform="matrix(0.1111111111111111,0,0,0.1111111111111111,0,0)" xlink:href="#z" id="b"/><path fill="#3a414a" d="M101-251c68 0 85 55 85 127S166 4 100 4C33 4 14-52 14-124c0-73 17-127 87-127zm-1 229c47 0 54-49 54-102s-4-102-53-102c-51 0-55 48-55 102 0 53 5 102 54 102" id="A"/><use transform="matrix(0.1111111111111111,0,0,0.1111111111111111,0,0)" xlink:href="#A" id="c"/><path fill="#3a414a" d="M101-251c82-7 93 87 43 132L82-64C71-53 59-42 53-27h129V0H18c2-99 128-94 128-182 0-28-16-43-45-43s-46 15-49 41l-32-3c6-41 34-60 81-64" id="B"/><use transform="matrix(0.1111111111111111,0,0,0.1111111111111111,0,0)" xlink:href="#B" id="d"/><path fill="#3a414a" d="M27 0v-27h64v-190l-56 39v-29l58-41h29v221h61V0H27" id="C"/><use transform="matrix(0.1111111111111111,0,0,0.1111111111111111,0,0)" xlink:href="#C" id="e"/><path fill="#3a414a" d="M126-127c33 6 58 20 58 59 0 88-139 92-164 29-3-8-5-16-6-25l32-3c6 27 21 44 54 44 32 0 52-15 52-46 0-38-36-46-79-43v-28c39 1 72-4 72-42 0-27-17-43-46-43-28 0-47 15-49 41l-32-3c6-42 35-63 81-64 48-1 79 21 79 65 0 36-21 52-52 59" id="D"/><use transform="matrix(0.1111111111111111,0,0,0.1111111111111111,0,0)" xlink:href="#D" id="f"/><path fill="#333" d="M23 0v-37h61v-169l-59 37v-38l62-41h46v211h57V0H23" id="E"/><path fill="#333" d="M182-182c0 78-84 86-111 141h115V0H12c-6-101 99-100 120-180 1-22-12-31-33-32-23 0-32 14-35 34l-49-3c5-45 32-70 84-70 51 0 83 22 83 69" id="F"/><path fill="#333" d="M138-131c27 9 52 24 51 61 0 53-36 74-89 74S11-19 11-69c0-35 22-54 51-61-78-25-46-121 38-121 51 0 83 19 83 66 0 30-18 49-45 54zm-38-16c24 0 32-13 32-36 1-23-11-34-32-34-22 0-33 12-32 34 0 22 9 36 32 36zm1 116c27 0 37-17 37-43 0-25-13-39-39-39-24 0-37 15-37 40 0 27 11 42 39 42" id="G"/><g id="g"><use transform="matrix(0.04938271604938272,0,0,0.04938271604938272,0,0)" xlink:href="#E"/><use transform="matrix(0.04938271604938272,0,0,0.04938271604938272,9.876543209876544,0)" xlink:href="#F"/><use transform="matrix(0.04938271604938272,0,0,0.04938271604938272,19.75308641975309,0)" xlink:href="#G"/></g><path fill="#333" d="M182-130c37 4 62 22 62 59C244 23 116-4 24 0v-248c84 5 203-23 205 63 0 31-19 50-47 55zM76-148c40-3 101 13 101-30 0-44-60-28-101-31v61zm0 110c48-3 116 14 116-37 0-48-69-32-116-35v72" id="H"/><path fill="#333" d="M123 10C108 53 80 86 19 72V37c35 8 53-11 59-39L3-190h52l48 148c12-52 28-100 44-148h51" id="I"/><path fill="#333" d="M115-3C79 11 28 4 28-45v-112H4v-33h27l15-45h31v45h36v33H77v99c-1 23 16 31 38 25v30" id="J"/><path fill="#333" d="M185-48c-13 30-37 53-82 52C43 2 14-33 14-96s30-98 90-98c62 0 83 45 84 108H66c0 31 8 55 39 56 18 0 30-7 34-22zm-45-69c5-46-57-63-70-21-2 6-4 13-4 21h74" id="K"/><path fill="#333" d="M137-138c1-29-70-34-71-4 15 46 118 7 119 86 1 83-164 76-172 9l43-7c4 19 20 25 44 25 33 8 57-30 24-41C81-84 22-81 20-136c-2-80 154-74 161-7" id="L"/><g id="h"><use transform="matrix(0.04938271604938272,0,0,0.04938271604938272,0,0)" xlink:href="#H"/><use transform="matrix(0.04938271604938272,0,0,0.04938271604938272,12.790123456790125,0)" xlink:href="#I"/><use transform="matrix(0.04938271604938272,0,0,0.04938271604938272,22.66666666666667,0)" xlink:href="#J"/><use transform="matrix(0.04938271604938272,0,0,0.04938271604938272,28.54320987654322,0)" xlink:href="#K"/><use transform="matrix(0.04938271604938272,0,0,0.04938271604938272,38.41975308641976,0)" xlink:href="#L"/></g><path fill="#3a414a" d="M99-251c64 0 84 50 84 122C183-37 130 33 47-8c-14-7-20-23-25-40l30-5c6 39 69 39 84 7 9-19 16-44 16-74-10 22-31 35-62 35-49 0-73-33-73-83 0-54 28-83 82-83zm-1 141c31-1 51-18 51-49 0-36-14-67-51-67-34 0-49 23-49 58 0 34 15 58 49 58" id="M"/><use transform="matrix(0.1111111111111111,0,0,0.1111111111111111,0,0)" xlink:href="#M" id="i"/><g id="j"><use transform="matrix(0.1111111111111111,0,0,0.1111111111111111,0,0)" xlink:href="#C"/><use transform="matrix(0.1111111111111111,0,0,0.1111111111111111,22.22222222222222,0)" xlink:href="#A"/></g><path fill="#3a414a" d="M155-56V0h-30v-56H8v-25l114-167h33v167h35v25h-35zm-30-156c-27 46-58 90-88 131h88v-131" id="N"/><use transform="matrix(0.1111111111111111,0,0,0.1111111111111111,0,0)" xlink:href="#N" id="k"/><g id="l"><use transform="matrix(0.1111111111111111,0,0,0.1111111111111111,0,0)" xlink:href="#C"/><use transform="matrix(0.1111111111111111,0,0,0.1111111111111111,19.22222222222222,0)" xlink:href="#C"/></g><g id="m"><use transform="matrix(0.1111111111111111,0,0,0.1111111111111111,0,0)" xlink:href="#C"/><use transform="matrix(0.1111111111111111,0,0,0.1111111111111111,22.22222222222222,0)" xlink:href="#B"/></g><path fill="#3a414a" d="M54-142c48-35 137-8 131 61C196 18 31 33 14-55l32-4c7 23 22 37 52 37 35-1 51-22 54-58 4-55-73-65-99-34H22l8-134h141v27H59" id="O"/><use transform="matrix(0.1111111111111111,0,0,0.1111111111111111,0,0)" xlink:href="#O" id="n"/><g id="o"><use transform="matrix(0.1111111111111111,0,0,0.1111111111111111,0,0)" xlink:href="#C"/><use transform="matrix(0.1111111111111111,0,0,0.1111111111111111,22.22222222222222,0)" xlink:href="#D"/></g><g id="p"><use transform="matrix(0.1111111111111111,0,0,0.1111111111111111,0,0)" xlink:href="#C"/><use transform="matrix(0.1111111111111111,0,0,0.1111111111111111,22.22222222222222,0)" xlink:href="#N"/></g><path fill="#3a414a" d="M110-160c48 1 74 30 74 79 0 53-28 85-80 85-65 0-83-55-86-122-5-90 50-162 133-122 14 7 22 21 27 39l-31 6c-5-40-67-38-82-6-9 19-15 44-15 74 11-20 30-34 60-33zm-7 138c34 0 49-23 49-58s-16-56-50-56c-29 0-50 16-49 49 1 36 15 65 50 65" id="P"/><use transform="matrix(0.1111111111111111,0,0,0.1111111111111111,0,0)" xlink:href="#P" id="q"/><path fill="#3a414a" d="M63-220v92h138v28H63V0H30v-248h175v28H63" id="Q"/><path fill="#3a414a" d="M114-163C36-179 61-72 57 0H25l-1-190h30c1 12-1 29 2 39 6-27 23-49 58-41v29" id="R"/><path fill="#3a414a" d="M100-194c63 0 86 42 84 106H49c0 40 14 67 53 68 26 1 43-12 49-29l28 8c-11 28-37 45-77 45C44 4 14-33 15-96c1-61 26-98 85-98zm52 81c6-60-76-77-97-28-3 7-6 17-6 28h103" id="S"/><g id="r"><use transform="matrix(0.07407407407407407,0,0,0.07407407407407407,0,0)" xlink:href="#Q"/><use transform="matrix(0.07407407407407407,0,0,0.07407407407407407,16.22222222222222,0)" xlink:href="#R"/><use transform="matrix(0.07407407407407407,0,0,0.07407407407407407,25.037037037037038,0)" xlink:href="#S"/><use transform="matrix(0.07407407407407407,0,0,0.07407407407407407,39.85185185185185,0)" xlink:href="#S"/></g><path fill="#3a414a" d="M24 0v-261h32V0H24" id="T"/><path fill="#3a414a" d="M24-231v-30h32v30H24zM24 0v-190h32V0H24" id="U"/><path fill="#3a414a" d="M135-143c-3-34-86-38-87 0 15 53 115 12 119 90S17 21 10-45l28-5c4 36 97 45 98 0-10-56-113-15-118-90-4-57 82-63 122-42 12 7 21 19 24 35" id="V"/><path fill="#3a414a" d="M59-47c-2 24 18 29 38 22v24C64 9 27 4 27-40v-127H5v-23h24l9-43h21v43h35v23H59v120" id="W"/><path fill="#3a414a" d="M33-154v-36h34v36H33zM33 0v-36h34V0H33" id="X"/><g id="s"><use transform="matrix(0.07407407407407407,0,0,0.07407407407407407,0,0)" xlink:href="#T"/><use transform="matrix(0.07407407407407407,0,0,0.07407407407407407,5.851851851851851,0)" xlink:href="#U"/><use transform="matrix(0.07407407407407407,0,0,0.07407407407407407,11.703703703703702,0)" xlink:href="#V"/><use transform="matrix(0.07407407407407407,0,0,0.07407407407407407,25.037037037037035,0)" xlink:href="#W"/><use transform="matrix(0.07407407407407407,0,0,0.07407407407407407,32.44444444444444,0)" xlink:href="#X"/></g><g id="t"><use transform="matrix(0.06172839506172839,0,0,0.06172839506172839,0,0)" xlink:href="#P"/><use transform="matrix(0.06172839506172839,0,0,0.06172839506172839,12.345679012345679,0)" xlink:href="#N"/><use transform="matrix(0.06172839506172839,0,0,0.06172839506172839,24.691358024691358,0)" xlink:href="#X"/></g><g id="u"><use transform="matrix(0.06172839506172839,0,0,0.06172839506172839,0,0)" xlink:href="#D"/><use transform="matrix(0.06172839506172839,0,0,0.06172839506172839,12.345679012345679,0)" xlink:href="#B"/><use transform="matrix(0.06172839506172839,0,0,0.06172839506172839,24.691358024691358,0)" xlink:href="#X"/></g><g id="v"><use transform="matrix(0.06172839506172839,0,0,0.06172839506172839,0,0)" xlink:href="#C"/><use transform="matrix(0.06172839506172839,0,0,0.06172839506172839,12.345679012345679,0)" xlink:href="#P"/><use transform="matrix(0.06172839506172839,0,0,0.06172839506172839,24.691358024691358,0)" xlink:href="#X"/></g><g id="w"><use transform="matrix(0.06172839506172839,0,0,0.06172839506172839,0,0)" xlink:href="#C"/><use transform="matrix(0.06172839506172839,0,0,0.06172839506172839,12.345679012345679,0)" xlink:href="#B"/><use transform="matrix(0.06172839506172839,0,0,0.06172839506172839,24.691358024691358,0)" xlink:href="#z"/><use transform="matrix(0.06172839506172839,0,0,0.06172839506172839,37.03703703703704,0)" xlink:href="#X"/></g><path fill="#3a414a" d="M160-131c35 5 61 23 61 61C221 17 115-2 30 0v-248c76 3 177-17 177 60 0 33-19 50-47 57zm-97-11c50-1 110 9 110-42 0-47-63-36-110-37v79zm0 115c55-2 124 14 124-45 0-56-70-42-124-44v89" id="Y"/><path fill="#3a414a" d="M240 0l2-218c-23 76-54 145-80 218h-23L58-218 59 0H30v-248h44l77 211c21-75 51-140 76-211h43V0h-30" id="Z"/><g id="x"><use transform="matrix(0.07407407407407407,0,0,0.07407407407407407,0,0)" xlink:href="#Y"/><use transform="matrix(0.07407407407407407,0,0,0.07407407407407407,17.77777777777778,0)" xlink:href="#Z"/><use transform="matrix(0.07407407407407407,0,0,0.07407407407407407,39.925925925925924,0)" xlink:href="#X"/></g></defs></g></svg>