<svg xmlns="http://www.w3.org/2000/svg" xmlns:xlink="http://www.w3.org/1999/xlink" xmlns:lucid="lucid" width="1070.03" height="483.78"><g transform="translate(987.7165354330708 221.7322834645671)" lucid:page-tab-id="0_0"><path d="M-986.73 161.5h80.63v80.94h-80.63z" stroke="#3a414a" fill="#979ea8"/><use xlink:href="#a" transform="matrix(1,0,0,1,-974.732230697597,173.4908136482939) translate(2.574074074074069 40.895833333333336)"/><path d="M-906.1 161.5h80v80.94h-80z" stroke="#3a414a" fill="#fff7a1"/><use xlink:href="#a" transform="matrix(1,0,0,1,-894.1024804623705,173.4908136482939) translate(2.074074074074069 40.895833333333336)"/><path d="M-986.96-141.26h645.04v80h-645.04z" stroke="#3a414a" fill="#f4d9ff"/><use xlink:href="#b" transform="matrix(1,0,0,1,-974.959226943733,-129.2598425196851) translate(272.1111111111111 40.833333333333336)"/><path d="M-664.7-40.85h322.38V40.1h-322.4z" stroke="#3a414a" fill="#b8f5ed"/><use xlink:href="#c" transform="matrix(1,0,0,1,-652.7154026286573,-28.847769028871625) translate(123.57407407407408 40.895833333333336)"/><path d="M-986.96-40.85h322.4V40.1h-322.4z" stroke="#3a414a" fill="#b8f5ed"/><use xlink:href="#c" transform="matrix(1,0,0,1,-974.959055919117,-28.84776902887137) translate(123.57407407407408 40.895833333333336)"/><path d="M-986.96 60.5h161.26v80.95h-161.26z" stroke="#3a414a" fill="#c3f7c8"/><use xlink:href="#d" transform="matrix(1,0,0,1,-974.959226943733,72.50918635170578) translate(43.07407407407407 40.895833333333336)"/><path d="M-824.58-57.73v-2.53" stroke="#3a414a" fill="none"/><path d="M-824.58-42.97l-4.63-14.26h9.26z" stroke="#3a414a" fill="#3a414a"/><path d="M-824.1-60.25h-.95v-.5h.95z" stroke="#3a414a" stroke-width=".05" fill="#3a414a"/><path d="M-503.52-57.73v-2.53" stroke="#3a414a" fill="none"/><path d="M-503.52-42.97l-4.63-14.26h9.27z" stroke="#3a414a" fill="#3a414a"/><path d="M-503.04-60.25h-.95v-.5h.96z" stroke="#3a414a" stroke-width=".05" fill="#3a414a"/><path d="M-906.33 43.63V41.1" stroke="#3a414a" fill="none"/><path d="M-906.33 58.4l-4.63-14.27h9.27z" stroke="#3a414a" fill="#3a414a"/><path d="M-905.85 41.1h-.95v-.5h.95z" stroke="#3a414a" stroke-width=".05" fill="#3a414a"/><path d="M-866.1 144.6v-2.14" stroke="#3a414a" fill="none"/><path d="M-866.1 159.37l-4.64-14.26h9.27z" stroke="#3a414a" fill="#3a414a"/><path d="M-865.63 142.47h-.95v-.52h.95z" stroke="#3a414a" stroke-width=".05" fill="#3a414a"/><path d="M-946.64 144.6v-2.15" stroke="#3a414a" fill="none"/><path d="M-946.64 159.37l-4.64-14.26h9.27z" stroke="#3a414a" fill="#3a414a"/><path d="M-946.17 142.47h-.95v-.52h.95z" stroke="#3a414a" stroke-width=".05" fill="#3a414a"/><path d="M-986.45-161.42h643.77M-983.45-176.42v30M-345.68-146.42v-30" stroke="#3a414a" stroke-width="6" fill="none"/><use xlink:href="#e" transform="matrix(1,0,0,1,-788.8600122626967,-229.41732283464592) translate(0 42.66666666666667)"/><use xlink:href="#f" transform="matrix(1,0,0,1,-788.8600122626967,-229.41732283464592) translate(103.70370370370372 42.66666666666667)"/><path d="M-825.57 60.5h161.26v80.95h-161.27z" stroke="#3a414a" fill="#c3f7c8"/><use xlink:href="#d" transform="matrix(1,0,0,1,-813.5721491100194,72.50918635170578) translate(43.07407407407407 40.895833333333336)"/><path d="M-744.94 43.63V41.1" stroke="#3a414a" fill="none"/><path d="M-744.94 58.4l-4.64-14.27h9.27z" stroke="#3a414a" fill="#3a414a"/><path d="M-744.47 41.1h-.95v-.5h.95z" stroke="#3a414a" stroke-width=".05" fill="#3a414a"/><path d="M-302.12-221.73H82.3v61.14H-302.1z" stroke="#000" stroke-opacity="0" fill="#fff" fill-opacity="0"/><use xlink:href="#g" transform="matrix(1,0,0,1,-297.12223502075165,-216.7322834645671) translate(0 42.66666666666667)"/><use xlink:href="#h" transform="matrix(1,0,0,1,-297.12223502075165,-216.7322834645671) translate(127.25925925925927 42.66666666666667)"/><path d="M-263.5 161.1h81.77v80.87h-81.78z" stroke="#000" stroke-opacity="0" fill="#fff" fill-opacity="0"/><use xlink:href="#i" transform="matrix(1,0,0,1,-258.50468946408165,166.1023622047215) translate(-2.074074074074076 46.16666666666667)"/><path d="M-181.73-40.47h79.9v81.4l-79.9.02z" stroke="#3a414a" fill="#b8f5ed"/><path d="M-181.73 60.6h79.9v80.85h-79.9z" stroke="#3a414a" fill="#c3f7c8"/><path d="M-180.7 161.1h79.9v80.95h-79.9z" stroke="#3a414a" fill="#fff7a1"/><path d="M-263.5 60.5h81.77v80.88h-81.78z" stroke="#000" stroke-opacity="0" fill="#fff" fill-opacity="0"/><use xlink:href="#j" transform="matrix(1,0,0,1,-258.50468946408165,65.50918635170599) translate(-2.074074074074076 46.16666666666667)"/><path d="M-263.5-40.47h81.77V40.4h-81.78z" stroke="#000" stroke-opacity="0" fill="#fff" fill-opacity="0"/><use xlink:href="#k" transform="matrix(1,0,0,1,-258.50468946408165,-35.472440944882166) translate(-2.074074074074076 46.16666666666667)"/><path d="M-263.5-140.7h81.77v80.86h-81.78z" stroke="#000" stroke-opacity="0" fill="#fff" fill-opacity="0"/><use xlink:href="#l" transform="matrix(1,0,0,1,-258.50468946408165,-135.70866141732353) translate(-31.703703703703724 46.16666666666667)"/><path d="M-664.3 60.6h322.38v80.93h-322.4z" stroke="#3a414a" fill="#b8f5ed"/><use xlink:href="#c" transform="matrix(1,0,0,1,-652.312135565718,72.58792650918629) translate(123.57407407407408 40.895833333333336)"/><path d="M-665.32 161.5h322.4v80.94h-322.4z" stroke="#3a414a" fill="#b8f5ed"/><use xlink:href="#c" transform="matrix(1,0,0,1,-653.323762767647,173.4908136482941) translate(123.57407407407408 40.895833333333336)"/><path d="M-503.52 41.1v2.6" stroke="#3a414a" fill="none"/><path d="M-503.04 41.1h-.95v-.5h.96z" stroke="#3a414a" stroke-width=".05" fill="#3a414a"/><path d="M-503.52 58.47l-4.63-14.27h9.27z" stroke="#3a414a" fill="#3a414a"/><path d="M-503.12 142.53v2.08" stroke="#3a414a" fill="none"/><path d="M-502.64 142.55h-.95v-.52h.96z" stroke="#3a414a" stroke-width=".05" fill="#3a414a"/><path d="M-503.12 159.37l-4.63-14.26h9.27z" stroke="#3a414a" fill="#3a414a"/><path d="M-826.58 161.5h161.26v80.94h-161.26z" stroke="#3a414a" fill="#c3f7c8"/><use xlink:href="#d" transform="matrix(1,0,0,1,-814.5836052873323,173.4908136482939) translate(43.07407407407407 40.895833333333336)"/><path d="M-908.9 262.05h566.22M-905.9 247.05v30M-345.68 277.05v-30" stroke="#3a414a" stroke-width="6" fill="none"/><use xlink:href="#m" transform="matrix(1,0,0,1,-738.198056158466,266.0472440944882) translate(0 35.55555555555556)"/><use xlink:href="#n" transform="matrix(1,0,0,1,-738.198056158466,266.0472440944882) translate(205.55555555555554 35.55555555555556)"/><path d="M-987.72 262.05h77.63M-984.72 247.05v30M-910.16 262.05h3.07" stroke="#3a414a" stroke-width="6" fill="none"/><use xlink:href="#o" transform="matrix(1,0,0,1,-1004.3088363954505,266.0472440944882) translate(0 35.55555555555556)"/><path d="M-744.94 142.45v2.16" stroke="#3a414a" fill="none"/><path d="M-744.47 142.47h-.95v-.52h.95z" stroke="#3a414a" stroke-width=".05" fill="#3a414a"/><path d="M-744.94 159.37l-4.64-14.26h9.27z" stroke="#3a414a" fill="#3a414a"/><defs><path fill="#3a414a" d="M23 0v-37h61v-169l-59 37v-38l62-41h46v211h57V0H23" id="p"/><path fill="#3a414a" d="M115-159c48 0 72 30 72 78 0 54-30 85-83 85-64 0-91-50-91-122 0-98 58-163 141-120 15 8 21 24 27 44l-47 6c-5-31-48-31-61-4-7 14-11 33-11 60 9-17 28-27 53-27zM102-35c24 0 36-20 36-45s-11-43-37-43c-23 0-36 14-36 38 0 27 11 50 37 50" id="q"/><g id="a"><use transform="matrix(0.12962962962962965,0,0,0.12962962962962965,0,0)" xlink:href="#p"/><use transform="matrix(0.12962962962962965,0,0,0.12962962962962965,25.92592592592593,0)" xlink:href="#q"/></g><path fill="#3a414a" d="M182-182c0 78-84 86-111 141h115V0H12c-6-101 99-100 120-180 1-22-12-31-33-32-23 0-32 14-35 34l-49-3c5-45 32-70 84-70 51 0 83 22 83 69" id="r"/><path fill="#3a414a" d="M138-131c27 9 52 24 51 61 0 53-36 74-89 74S11-19 11-69c0-35 22-54 51-61-78-25-46-121 38-121 51 0 83 19 83 66 0 30-18 49-45 54zm-38-16c24 0 32-13 32-36 1-23-11-34-32-34-22 0-33 12-32 34 0 22 9 36 32 36zm1 116c27 0 37-17 37-43 0-25-13-39-39-39-24 0-37 15-37 40 0 27 11 42 39 42" id="s"/><g id="b"><use transform="matrix(0.12962962962962965,0,0,0.12962962962962965,0,0)" xlink:href="#p"/><use transform="matrix(0.12962962962962965,0,0,0.12962962962962965,25.92592592592593,0)" xlink:href="#r"/><use transform="matrix(0.12962962962962965,0,0,0.12962962962962965,51.85185185185186,0)" xlink:href="#s"/></g><path fill="#3a414a" d="M165-50V0h-47v-50H5v-38l105-160h55v161h33v37h-33zm-47-37l2-116L46-87h72" id="t"/><g id="c"><use transform="matrix(0.12962962962962965,0,0,0.12962962962962965,0,0)" xlink:href="#q"/><use transform="matrix(0.12962962962962965,0,0,0.12962962962962965,25.92592592592593,0)" xlink:href="#t"/></g><path fill="#3a414a" d="M128-127c34 4 56 21 59 58 7 91-148 94-172 28-4-9-6-17-7-26l51-5c1 24 16 35 40 36 23 0 39-12 38-36-1-31-31-36-65-34v-40c32 2 59-3 59-33 0-20-13-33-34-33s-33 13-35 32l-50-3c6-44 37-68 86-68 50 0 83 20 83 66 0 35-22 52-53 58" id="u"/><g id="d"><use transform="matrix(0.12962962962962965,0,0,0.12962962962962965,0,0)" xlink:href="#u"/><use transform="matrix(0.12962962962962965,0,0,0.12962962962962965,25.92592592592593,0)" xlink:href="#r"/></g><path fill="#333" d="M23 0v-37h61v-169l-59 37v-38l62-41h46v211h57V0H23" id="v"/><path fill="#333" d="M182-182c0 78-84 86-111 141h115V0H12c-6-101 99-100 120-180 1-22-12-31-33-32-23 0-32 14-35 34l-49-3c5-45 32-70 84-70 51 0 83 22 83 69" id="w"/><path fill="#333" d="M138-131c27 9 52 24 51 61 0 53-36 74-89 74S11-19 11-69c0-35 22-54 51-61-78-25-46-121 38-121 51 0 83 19 83 66 0 30-18 49-45 54zm-38-16c24 0 32-13 32-36 1-23-11-34-32-34-22 0-33 12-32 34 0 22 9 36 32 36zm1 116c27 0 37-17 37-43 0-25-13-39-39-39-24 0-37 15-37 40 0 27 11 42 39 42" id="x"/><g id="e"><use transform="matrix(0.14814814814814817,0,0,0.14814814814814817,0,0)" xlink:href="#v"/><use transform="matrix(0.14814814814814817,0,0,0.14814814814814817,29.629629629629633,0)" xlink:href="#w"/><use transform="matrix(0.14814814814814817,0,0,0.14814814814814817,59.25925925925927,0)" xlink:href="#x"/></g><path fill="#333" d="M182-130c37 4 62 22 62 59C244 23 116-4 24 0v-248c84 5 203-23 205 63 0 31-19 50-47 55zM76-148c40-3 101 13 101-30 0-44-60-28-101-31v61zm0 110c48-3 116 14 116-37 0-48-69-32-116-35v72" id="y"/><path fill="#333" d="M123 10C108 53 80 86 19 72V37c35 8 53-11 59-39L3-190h52l48 148c12-52 28-100 44-148h51" id="z"/><path fill="#333" d="M115-3C79 11 28 4 28-45v-112H4v-33h27l15-45h31v45h36v33H77v99c-1 23 16 31 38 25v30" id="A"/><path fill="#333" d="M185-48c-13 30-37 53-82 52C43 2 14-33 14-96s30-98 90-98c62 0 83 45 84 108H66c0 31 8 55 39 56 18 0 30-7 34-22zm-45-69c5-46-57-63-70-21-2 6-4 13-4 21h74" id="B"/><path fill="#333" d="M137-138c1-29-70-34-71-4 15 46 118 7 119 86 1 83-164 76-172 9l43-7c4 19 20 25 44 25 33 8 57-30 24-41C81-84 22-81 20-136c-2-80 154-74 161-7" id="C"/><g id="f"><use transform="matrix(0.14814814814814817,0,0,0.14814814814814817,0,0)" xlink:href="#y"/><use transform="matrix(0.14814814814814817,0,0,0.14814814814814817,38.370370370370374,0)" xlink:href="#z"/><use transform="matrix(0.14814814814814817,0,0,0.14814814814814817,68,0)" xlink:href="#A"/><use transform="matrix(0.14814814814814817,0,0,0.14814814814814817,85.62962962962965,0)" xlink:href="#B"/><use transform="matrix(0.14814814814814817,0,0,0.14814814814814817,115.25925925925928,0)" xlink:href="#C"/></g><path fill="#3a414a" d="M76-208v77h127v40H76V0H24v-248h183v40H76" id="D"/><path fill="#3a414a" d="M135-150c-39-12-60 13-60 57V0H25l-1-190h47c2 13-1 29 3 40 6-28 27-53 61-41v41" id="E"/><path fill="#3a414a" d="M185-48c-13 30-37 53-82 52C43 2 14-33 14-96s30-98 90-98c62 0 83 45 84 108H66c0 31 8 55 39 56 18 0 30-7 34-22zm-45-69c5-46-57-63-70-21-2 6-4 13-4 21h74" id="F"/><g id="g"><use transform="matrix(0.14814814814814817,0,0,0.14814814814814817,0,0)" xlink:href="#D"/><use transform="matrix(0.14814814814814817,0,0,0.14814814814814817,32.44444444444445,0)" xlink:href="#E"/><use transform="matrix(0.14814814814814817,0,0,0.14814814814814817,53.18518518518519,0)" xlink:href="#F"/><use transform="matrix(0.14814814814814817,0,0,0.14814814814814817,82.81481481481482,0)" xlink:href="#F"/></g><path fill="#3a414a" d="M25 0v-261h50V0H25" id="G"/><path fill="#3a414a" d="M25-224v-37h50v37H25zM25 0v-190h50V0H25" id="H"/><path fill="#3a414a" d="M137-138c1-29-70-34-71-4 15 46 118 7 119 86 1 83-164 76-172 9l43-7c4 19 20 25 44 25 33 8 57-30 24-41C81-84 22-81 20-136c-2-80 154-74 161-7" id="I"/><path fill="#3a414a" d="M115-3C79 11 28 4 28-45v-112H4v-33h27l15-45h31v45h36v33H77v99c-1 23 16 31 38 25v30" id="J"/><path fill="#3a414a" d="M35-132v-50h50v50H35zM35 0v-49h50V0H35" id="K"/><g id="h"><use transform="matrix(0.14814814814814817,0,0,0.14814814814814817,0,0)" xlink:href="#G"/><use transform="matrix(0.14814814814814817,0,0,0.14814814814814817,14.814814814814817,0)" xlink:href="#H"/><use transform="matrix(0.14814814814814817,0,0,0.14814814814814817,29.629629629629633,0)" xlink:href="#I"/><use transform="matrix(0.14814814814814817,0,0,0.14814814814814817,59.25925925925927,0)" xlink:href="#J"/><use transform="matrix(0.14814814814814817,0,0,0.14814814814814817,76.8888888888889,0)" xlink:href="#K"/></g><path fill="#3a414a" d="M27 0v-27h64v-190l-56 39v-29l58-41h29v221h61V0H27" id="L"/><path fill="#3a414a" d="M110-160c48 1 74 30 74 79 0 53-28 85-80 85-65 0-83-55-86-122-5-90 50-162 133-122 14 7 22 21 27 39l-31 6c-5-40-67-38-82-6-9 19-15 44-15 74 11-20 30-34 60-33zm-7 138c34 0 49-23 49-58s-16-56-50-56c-29 0-50 16-49 49 1 36 15 65 50 65" id="M"/><path fill="#3a414a" d="M33-154v-36h34v36H33zM33 0v-36h34V0H33" id="N"/><g id="i"><use transform="matrix(0.14814814814814817,0,0,0.14814814814814817,0,0)" xlink:href="#L"/><use transform="matrix(0.14814814814814817,0,0,0.14814814814814817,29.629629629629633,0)" xlink:href="#M"/><use transform="matrix(0.14814814814814817,0,0,0.14814814814814817,59.25925925925927,0)" xlink:href="#N"/></g><path fill="#3a414a" d="M126-127c33 6 58 20 58 59 0 88-139 92-164 29-3-8-5-16-6-25l32-3c6 27 21 44 54 44 32 0 52-15 52-46 0-38-36-46-79-43v-28c39 1 72-4 72-42 0-27-17-43-46-43-28 0-47 15-49 41l-32-3c6-42 35-63 81-64 48-1 79 21 79 65 0 36-21 52-52 59" id="O"/><path fill="#3a414a" d="M101-251c82-7 93 87 43 132L82-64C71-53 59-42 53-27h129V0H18c2-99 128-94 128-182 0-28-16-43-45-43s-46 15-49 41l-32-3c6-41 34-60 81-64" id="P"/><g id="j"><use transform="matrix(0.14814814814814817,0,0,0.14814814814814817,0,0)" xlink:href="#O"/><use transform="matrix(0.14814814814814817,0,0,0.14814814814814817,29.629629629629633,0)" xlink:href="#P"/><use transform="matrix(0.14814814814814817,0,0,0.14814814814814817,59.25925925925927,0)" xlink:href="#N"/></g><path fill="#3a414a" d="M155-56V0h-30v-56H8v-25l114-167h33v167h35v25h-35zm-30-156c-27 46-58 90-88 131h88v-131" id="Q"/><g id="k"><use transform="matrix(0.14814814814814817,0,0,0.14814814814814817,0,0)" xlink:href="#M"/><use transform="matrix(0.14814814814814817,0,0,0.14814814814814817,29.629629629629633,0)" xlink:href="#Q"/><use transform="matrix(0.14814814814814817,0,0,0.14814814814814817,59.25925925925927,0)" xlink:href="#N"/></g><path fill="#3a414a" d="M134-131c28 9 52 24 51 62-1 50-34 73-85 73S17-19 16-69c0-36 21-54 49-61-75-25-45-126 34-121 46 3 78 18 79 63 0 33-17 51-44 57zm-34-11c31 1 46-15 46-44 0-28-17-43-47-42-29 0-46 13-45 42 1 28 16 44 46 44zm1 122c35 0 51-18 51-52 0-30-18-46-53-46-33 0-51 17-51 47 0 34 19 51 53 51" id="R"/><g id="l"><use transform="matrix(0.14814814814814817,0,0,0.14814814814814817,0,0)" xlink:href="#L"/><use transform="matrix(0.14814814814814817,0,0,0.14814814814814817,29.629629629629633,0)" xlink:href="#P"/><use transform="matrix(0.14814814814814817,0,0,0.14814814814814817,59.25925925925927,0)" xlink:href="#R"/><use transform="matrix(0.14814814814814817,0,0,0.14814814814814817,88.8888888888889,0)" xlink:href="#N"/></g><path fill="#333" d="M199 0l-22-63H83L61 0H9l90-248h61L250 0h-51zm-33-102l-36-108c-10 38-24 72-36 108h72" id="S"/><path fill="#333" d="M128 0H69L1-190h53L99-40l48-150h52" id="T"/><path fill="#333" d="M133-34C117-15 103 5 69 4 32 3 11-16 11-54c-1-60 55-63 116-61 1-26-3-47-28-47-18 1-26 9-28 27l-52-2c7-38 36-58 82-57s74 22 75 68l1 82c-1 14 12 18 25 15v27c-30 8-71 5-69-32zm-48 3c29 0 43-24 42-57-32 0-66-3-65 30 0 17 8 27 23 27" id="U"/><path fill="#333" d="M25-224v-37h50v37H25zM25 0v-190h50V0H25" id="V"/><path fill="#333" d="M25 0v-261h50V0H25" id="W"/><path fill="#333" d="M135-194c52 0 70 43 70 98 0 56-19 99-73 100-30 1-46-15-58-35L72 0H24l1-261h50v104c11-23 29-37 60-37zM114-30c31 0 40-27 40-66 0-37-7-63-39-63s-41 28-41 65c0 36 8 64 40 64" id="X"/><g id="m"><use transform="matrix(0.12345679012345678,0,0,0.12345679012345678,0,0)" xlink:href="#S"/><use transform="matrix(0.12345679012345678,0,0,0.12345679012345678,30.370370370370367,0)" xlink:href="#T"/><use transform="matrix(0.12345679012345678,0,0,0.12345679012345678,55.06172839506172,0)" xlink:href="#U"/><use transform="matrix(0.12345679012345678,0,0,0.12345679012345678,79.75308641975307,0)" xlink:href="#V"/><use transform="matrix(0.12345679012345678,0,0,0.12345679012345678,92.09876543209876,0)" xlink:href="#W"/><use transform="matrix(0.12345679012345678,0,0,0.12345679012345678,104.44444444444444,0)" xlink:href="#U"/><use transform="matrix(0.12345679012345678,0,0,0.12345679012345678,129.1358024691358,0)" xlink:href="#X"/><use transform="matrix(0.12345679012345678,0,0,0.12345679012345678,156.17283950617283,0)" xlink:href="#W"/><use transform="matrix(0.12345679012345678,0,0,0.12345679012345678,168.5185185185185,0)" xlink:href="#B"/></g><path fill="#333" d="M110-194c64 0 96 36 96 99 0 64-35 99-97 99-61 0-95-36-95-99 0-62 34-99 96-99zm-1 164c35 0 45-28 45-65 0-40-10-65-43-65-34 0-45 26-45 65 0 36 10 65 43 65" id="Y"/><path fill="#333" d="M190-63c-7 42-38 67-86 67-59 0-84-38-90-98-12-110 154-137 174-36l-49 2c-2-19-15-32-35-32-30 0-35 28-38 64-6 74 65 87 74 30" id="Z"/><path fill="#333" d="M147 0L96-86 75-71V0H25v-261h50v150l67-79h53l-66 74L201 0h-54" id="aa"/><g id="n"><use transform="matrix(0.12345679012345678,0,0,0.12345679012345678,0,0)" xlink:href="#y"/><use transform="matrix(0.12345679012345678,0,0,0.12345679012345678,31.975308641975307,0)" xlink:href="#W"/><use transform="matrix(0.12345679012345678,0,0,0.12345679012345678,44.32098765432099,0)" xlink:href="#Y"/><use transform="matrix(0.12345679012345678,0,0,0.12345679012345678,71.35802469135803,0)" xlink:href="#Z"/><use transform="matrix(0.12345679012345678,0,0,0.12345679012345678,96.04938271604938,0)" xlink:href="#aa"/><use transform="matrix(0.12345679012345678,0,0,0.12345679012345678,120.74074074074073,0)" xlink:href="#C"/></g><path fill="#333" d="M240-174c0 40-23 61-54 70L253 0h-59l-57-94H76V0H24v-248c93 4 217-23 216 74zM76-134c48-2 112 12 112-38 0-48-66-32-112-35v73" id="ab"/><path fill="#333" d="M85 4C-2 5 27-109 22-190h50c7 57-23 150 33 157 60-5 35-97 40-157h50l1 190h-47c-2-12 1-28-3-38-12 25-28 42-61 42" id="ac"/><path fill="#333" d="M135-150c-39-12-60 13-60 57V0H25l-1-190h47c2 13-1 29 3 40 6-28 27-53 61-41v41" id="ad"/><path fill="#333" d="M135-194c87-1 58 113 63 194h-50c-7-57 23-157-34-157-59 0-34 97-39 157H25l-1-190h47c2 12-1 28 3 38 12-26 28-41 61-42" id="ae"/><path fill="#333" d="M88-194c31-1 46 15 58 34l-1-101h50l1 261h-48c-2-10 0-23-3-31C134-8 116 4 84 4 32 4 16-41 15-95c0-56 19-97 73-99zm17 164c33 0 40-30 41-66 1-37-9-64-41-64s-38 30-39 65c0 43 13 65 39 65" id="af"/><g id="o"><use transform="matrix(0.12345679012345678,0,0,0.12345679012345678,0,0)" xlink:href="#ab"/><use transform="matrix(0.12345679012345678,0,0,0.12345679012345678,31.975308641975307,0)" xlink:href="#B"/><use transform="matrix(0.12345679012345678,0,0,0.12345679012345678,56.666666666666664,0)" xlink:href="#A"/><use transform="matrix(0.12345679012345678,0,0,0.12345679012345678,71.35802469135803,0)" xlink:href="#ac"/><use transform="matrix(0.12345679012345678,0,0,0.12345679012345678,98.39506172839506,0)" xlink:href="#ad"/><use transform="matrix(0.12345679012345678,0,0,0.12345679012345678,115.67901234567901,0)" xlink:href="#ae"/><use transform="matrix(0.12345679012345678,0,0,0.12345679012345678,142.71604938271605,0)" xlink:href="#B"/><use transform="matrix(0.12345679012345678,0,0,0.12345679012345678,167.40740740740742,0)" xlink:href="#af"/></g></defs></g></svg>