<svg xmlns="http://www.w3.org/2000/svg" xmlns:xlink="http://www.w3.org/1999/xlink" xmlns:lucid="lucid" width="750.62" height="303.99"><g transform="translate(-4796.980314920462 766.4842520090325)" lucid:page-tab-id="0_0"><path d="M4837.8-598.72a6 6 0 0 1 6-6h48.47a6 6 0 0 1 6 6v46.82a6 6 0 0 1-6 6h-48.48a6 6 0 0 1-6-6z" stroke="#3a414a" fill="#c3f7c8"/><use xlink:href="#a" transform="matrix(1,0,0,1,4849.795275590551,-592.7244094488188) translate(11.709876543209877 21.743055555555557)"/><path d="M4797.48-517.9a6 6 0 0 1 6-6h48.47a6 6 0 0 1 6 6v48.9a6 6 0 0 1-6 6h-48.47a6 6 0 0 1-6-6z" stroke="#3a414a" fill="#fff7a1"/><use xlink:href="#b" transform="matrix(1,0,0,1,4809.48031496063,-511.9002624671916) translate(11.709876543209877 24.180555555555557)"/><path d="M4878.1-517.9a6 6 0 0 1 6-6h48.48a6 6 0 0 1 6 6v48.9a6 6 0 0 1-6 6h-48.47a6 6 0 0 1-6-6z" stroke="#3a414a" fill="#fff7a1"/><use xlink:href="#b" transform="matrix(1,0,0,1,4890.110236220472,-511.9002624671915) translate(11.709876543209877 24.180555555555557)"/><path d="M4958.74-517.9a6 6 0 0 1 6-6h48.47a6 6 0 0 1 6 6v48.9a6 6 0 0 1-6 6h-48.46a6 6 0 0 1-6-6z" stroke="#3a414a" fill="#fff7a1"/><use xlink:href="#b" transform="matrix(1,0,0,1,4970.740157480314,-511.90026246719174) translate(11.709876543209877 24.180555555555557)"/><path d="M5039.37-517.9a6 6 0 0 1 6-6h48.47a6 6 0 0 1 6 6v48.9a6 6 0 0 1-6 6h-48.47a6 6 0 0 1-6-6z" stroke="#3a414a" fill="#fff7a1"/><use xlink:href="#b" transform="matrix(1,0,0,1,5051.370078740157,-511.9002624671916) translate(11.709876543209877 24.180555555555557)"/><path d="M5120-519.48a6 6 0 0 1 6-6h48.47a6 6 0 0 1 6 6v48.9a6 6 0 0 1-6 6H5126a6 6 0 0 1-6-6z" stroke="#3a414a" fill="#fff7a1"/><use xlink:href="#b" transform="matrix(1,0,0,1,5131.999999999999,-513.4750656167979) translate(11.709876543209877 24.180555555555557)"/><path d="M5200.63-519.48a6 6 0 0 1 6-6h48.47a6 6 0 0 1 6 6v48.9a6 6 0 0 1-6 6h-48.47a6 6 0 0 1-6-6z" stroke="#3a414a" fill="#fff7a1"/><use xlink:href="#b" transform="matrix(1,0,0,1,5212.6299212598415,-513.4750656167978) translate(11.709876543209877 24.180555555555557)"/><path d="M5281.26-519.48a6 6 0 0 1 6-6h48.47a6 6 0 0 1 6 6v48.9a6 6 0 0 1-6 6h-48.47a6 6 0 0 1-6-6z" stroke="#3a414a" fill="#fff7a1"/><use xlink:href="#b" transform="matrix(1,0,0,1,5293.259842519684,-513.475065616798) translate(11.709876543209877 24.180555555555557)"/><path d="M5361.9-519.48a6 6 0 0 1 6-6h48.46a6 6 0 0 1 6 6v48.9a6 6 0 0 1-6 6h-48.47a6 6 0 0 1-6-6z" stroke="#3a414a" fill="#fff7a1"/><use xlink:href="#b" transform="matrix(1,0,0,1,5373.889763779526,-513.4750656167979) translate(11.709876543209877 24.180555555555557)"/><path d="M4999.06-598.72a6 6 0 0 1 6-6h48.47a6 6 0 0 1 6 6v46.82a6 6 0 0 1-6 6h-48.47a6 6 0 0 1-6-6z" stroke="#3a414a" fill="#c3f7c8"/><use xlink:href="#a" transform="matrix(1,0,0,1,5011.055118110236,-592.7244094488188) translate(11.709876543209877 21.743055555555557)"/><path d="M5160.3-597.4a6 6 0 0 1 6-6h48.5a6 6 0 0 1 6 6v46.83a6 6 0 0 1-6 6h-48.5a6 6 0 0 1-6-6z" stroke="#3a414a" fill="#c3f7c8"/><use xlink:href="#a" transform="matrix(1,0,0,1,5172.314960629919,-591.3910761154856) translate(11.709876543209877 21.743055555555557)"/><path d="M5321.57-598.72a6 6 0 0 1 6-6h48.48a6 6 0 0 1 6 6v46.82a6 6 0 0 1-6 6h-48.48a6 6 0 0 1-6-6z" stroke="#3a414a" fill="#c3f7c8"/><use xlink:href="#a" transform="matrix(1,0,0,1,5333.574803149606,-592.7244094488188) translate(11.709876543209877 21.743055555555557)"/><path d="M4918.43-679.35a6 6 0 0 1 6-6h48.47a6 6 0 0 1 6 6v46.82a6 6 0 0 1-6 6h-48.47a6 6 0 0 1-6-6z" stroke="#3a414a" fill="#d7faf5"/><use xlink:href="#c" transform="matrix(1,0,0,1,4930.425196850394,-673.3543307086615) translate(11.709876543209877 21.743055555555557)"/><path d="M5240.94-679.35a6 6 0 0 1 6-6h48.48a6 6 0 0 1 6 6v46.82a6 6 0 0 1-6 6h-48.48a6 6 0 0 1-6-6z" stroke="#3a414a" fill="#d7faf5"/><use xlink:href="#c" transform="matrix(1,0,0,1,5252.944881889764,-673.3543307086615) translate(11.709876543209877 21.743055555555557)"/><path d="M5077.1-759.98a6 6 0 0 1 6-6h48.46a6 6 0 0 1 6 6v46.82a6 6 0 0 1-6 6h-48.47a6 6 0 0 1-6-6z" stroke="#3a414a" fill="#f4d9ff"/><use xlink:href="#d" transform="matrix(1,0,0,1,5089.090211488979,-753.9842519685039) translate(11.709876543209877 21.743055555555557)"/><path d="M4867.6-545.17l-39.44 20.54" stroke="#3a414a" fill="none"/><path d="M4867.8-544.74l-.35-.66h1.6zM4828.3-524.4h-1.6l1.25-.66z" stroke="#3a414a" stroke-width=".05" fill="#3a414a"/><path d="M4868.48-545.17l39.42 20.54" stroke="#3a414a" fill="none"/><path d="M4868.27-544.74l-1.27-.66h1.6zM4909.38-524.4h-1.6l.33-.66z" stroke="#3a414a" stroke-width=".05" fill="#3a414a"/><path d="M5028.85-545.17l-39.43 20.54" stroke="#3a414a" fill="none"/><path d="M5029.06-544.74l-.35-.66h1.62zM4989.56-524.4h-1.6l1.25-.66z" stroke="#3a414a" stroke-width=".05" fill="#3a414a"/><path d="M5029.73-545.17l39.43 20.54" stroke="#3a414a" fill="none"/><path d="M5029.53-544.74l-1.27-.66h1.6zM5070.63-524.4h-1.6l.34-.66z" stroke="#3a414a" stroke-width=".05" fill="#3a414a"/><path d="M5190.1-543.86l-39.4 17.68" stroke="#3a414a" fill="none"/><path d="M5190.28-543.42l-.3-.65h1.73zM5150.8-525.98h-1.72l1.43-.64z" stroke="#3a414a" stroke-width=".05" fill="#3a414a"/><path d="M5191-543.86l39.4 17.68" stroke="#3a414a" fill="none"/><path d="M5190.82-543.42l-1.43-.65h1.7zM5232.03-525.98h-1.73l.3-.64z" stroke="#3a414a" stroke-width=".05" fill="#3a414a"/><path d="M5351.36-545.18l-39.4 19" stroke="#3a414a" fill="none"/><path d="M5351.56-544.75l-.32-.65h1.66zM5312.06-525.98h-1.66l1.35-.65z" stroke="#3a414a" stroke-width=".05" fill="#3a414a"/><path d="M5352.26-545.18l39.42 19" stroke="#3a414a" fill="none"/><path d="M5352.07-544.75l-1.35-.65h1.66zM5393.22-525.98h-1.66l.3-.65z" stroke="#3a414a" stroke-width=".05" fill="#3a414a"/><path d="M4948.18-625.9l-79.66 20.55" stroke="#3a414a" fill="none"/><path d="M4948.28-625.44l-.15-.6h2.43zM4868.56-605.22h-2.43l2.28-.6z" stroke="#3a414a" stroke-width=".05" fill="#3a414a"/><path d="M4949.15-625.9l79.66 20.55" stroke="#3a414a" fill="none"/><path d="M4949.04-625.44l-2.28-.6h2.43zM5031.2-605.22h-2.44l.15-.6z" stroke="#3a414a" stroke-width=".05" fill="#3a414a"/><path d="M5270.7-625.9l-79.67 21.88" stroke="#3a414a" fill="none"/><path d="M5270.8-625.44l-.15-.6h2.33zM5191.08-603.9h-2.32l2.16-.6z" stroke="#3a414a" stroke-width=".05" fill="#3a414a"/><path d="M5271.66-625.9l79.67 20.55" stroke="#3a414a" fill="none"/><path d="M5271.56-625.44l-2.28-.6h2.43zM5353.7-605.22h-2.42l.15-.6z" stroke="#3a414a" stroke-width=".05" fill="#3a414a"/><path d="M5106.83-706.6l-157.67 20.68" stroke="#3a414a" fill="none"/><path d="M5110.36-706.58l-3.48.46-.07-.54h3.55zM4949.18-685.85h-3.54l-.02-.08 3.5-.46z" stroke="#3a414a" stroke-width=".05" fill="#3a414a"/><path d="M5107.82-706.6l162.87 20.68" stroke="#3a414a" fill="none"/><path d="M5107.77-706.12l-3.48-.45v-.1h3.54zM5274.22-685.95l-.02.1h-3.54l.07-.54z" stroke="#3a414a" stroke-width=".05" fill="#3a414a"/><path d="M5427.4-759.98a6 6 0 0 1 6-6h108.2a6 6 0 0 1 6 6v28a6 6 0 0 1-6 6h-108.2a6 6 0 0 1-6-6z" stroke="#000" stroke-opacity="0" fill="#fff" fill-opacity="0"/><use xlink:href="#e" transform="matrix(1,0,0,1,5432.40157480315,-760.9842519685039) translate(4.537037037037045 23.208333333333332)"/><use xlink:href="#f" transform="matrix(1,0,0,1,5432.40157480315,-760.9842519685039) translate(66.61111111111111 23.208333333333332)"/><path d="M5427.53-679.98a6 6 0 0 1 6-6h48.07a6 6 0 0 1 6 6v28a6 6 0 0 1-6 6h-48.07a6 6 0 0 1-6-6z" stroke="#000" stroke-opacity="0" fill="#fff" fill-opacity="0"/><use xlink:href="#g" transform="matrix(1,0,0,1,5432.528639092562,-680.9842519685039) translate(20.135802469135804 19.65277777777778)"/><path d="M5427.8-638.4a6 6 0 0 1 6-6h48.07a6 6 0 0 1 6 6v28a6 6 0 0 1-6 6h-48.07a6 6 0 0 1-6-6z" stroke="#000" stroke-opacity="0" fill="#fff" fill-opacity="0"/><use xlink:href="#h" transform="matrix(1,0,0,1,5432.798872906302,-639.4094488188978) translate(20.135802469135804 19.65277777777778)"/><path d="M5427.53-598.4a6 6 0 0 1 6-6h48.07a6 6 0 0 1 6 6v28a6 6 0 0 1-6 6h-48.07a6 6 0 0 1-6-6z" stroke="#000" stroke-opacity="0" fill="#fff" fill-opacity="0"/><use xlink:href="#i" transform="matrix(1,0,0,1,5432.528639092562,-599.4094488188978) translate(20.135802469135804 19.65277777777778)"/><path d="M5487.6-709.98a6 6 0 0 1 6-6h8a6 6 0 0 1 6 6v8a6 6 0 0 1-6 6h-8a6 6 0 0 1-6-6z" stroke="#3a414a" fill="#f4d9ff"/><path d="M5427.53-719.98a6 6 0 0 1 6-6h48.07a6 6 0 0 1 6 6v28a6 6 0 0 1-6 6h-48.07a6 6 0 0 1-6-6z" stroke="#000" stroke-opacity="0" fill="#fff" fill-opacity="0"/><use xlink:href="#j" transform="matrix(1,0,0,1,5432.528639092562,-720.9842519685039) translate(7.79012345679012 19.65277777777778)"/><defs><path fill="#3a414a" d="M101-251c82-7 93 87 43 132L82-64C71-53 59-42 53-27h129V0H18c2-99 128-94 128-182 0-28-16-43-45-43s-46 15-49 41l-32-3c6-41 34-60 81-64" id="k"/><use transform="matrix(0.06790123456790123,0,0,0.06790123456790123,0,0)" xlink:href="#k" id="a"/><path fill="#3a414a" d="M27 0v-27h64v-190l-56 39v-29l58-41h29v221h61V0H27" id="l"/><use transform="matrix(0.06790123456790123,0,0,0.06790123456790123,0,0)" xlink:href="#l" id="b"/><path fill="#3a414a" d="M126-127c33 6 58 20 58 59 0 88-139 92-164 29-3-8-5-16-6-25l32-3c6 27 21 44 54 44 32 0 52-15 52-46 0-38-36-46-79-43v-28c39 1 72-4 72-42 0-27-17-43-46-43-28 0-47 15-49 41l-32-3c6-42 35-63 81-64 48-1 79 21 79 65 0 36-21 52-52 59" id="m"/><use transform="matrix(0.06790123456790123,0,0,0.06790123456790123,0,0)" xlink:href="#m" id="c"/><path fill="#3a414a" d="M155-56V0h-30v-56H8v-25l114-167h33v167h35v25h-35zm-30-156c-27 46-58 90-88 131h88v-131" id="n"/><use transform="matrix(0.06790123456790123,0,0,0.06790123456790123,0,0)" xlink:href="#n" id="d"/><path fill="#3a414a" d="M63-220v92h138v28H63V0H30v-248h175v28H63" id="o"/><path fill="#3a414a" d="M114-163C36-179 61-72 57 0H25l-1-190h30c1 12-1 29 2 39 6-27 23-49 58-41v29" id="p"/><path fill="#3a414a" d="M100-194c63 0 86 42 84 106H49c0 40 14 67 53 68 26 1 43-12 49-29l28 8c-11 28-37 45-77 45C44 4 14-33 15-96c1-61 26-98 85-98zm52 81c6-60-76-77-97-28-3 7-6 17-6 28h103" id="q"/><g id="e"><use transform="matrix(0.07407407407407407,0,0,0.07407407407407407,0,0)" xlink:href="#o"/><use transform="matrix(0.07407407407407407,0,0,0.07407407407407407,16.22222222222222,0)" xlink:href="#p"/><use transform="matrix(0.07407407407407407,0,0,0.07407407407407407,25.037037037037038,0)" xlink:href="#q"/><use transform="matrix(0.07407407407407407,0,0,0.07407407407407407,39.85185185185185,0)" xlink:href="#q"/></g><path fill="#3a414a" d="M24 0v-261h32V0H24" id="r"/><path fill="#3a414a" d="M24-231v-30h32v30H24zM24 0v-190h32V0H24" id="s"/><path fill="#3a414a" d="M135-143c-3-34-86-38-87 0 15 53 115 12 119 90S17 21 10-45l28-5c4 36 97 45 98 0-10-56-113-15-118-90-4-57 82-63 122-42 12 7 21 19 24 35" id="t"/><path fill="#3a414a" d="M59-47c-2 24 18 29 38 22v24C64 9 27 4 27-40v-127H5v-23h24l9-43h21v43h35v23H59v120" id="u"/><path fill="#3a414a" d="M33-154v-36h34v36H33zM33 0v-36h34V0H33" id="v"/><g id="f"><use transform="matrix(0.07407407407407407,0,0,0.07407407407407407,0,0)" xlink:href="#r"/><use transform="matrix(0.07407407407407407,0,0,0.07407407407407407,5.851851851851851,0)" xlink:href="#s"/><use transform="matrix(0.07407407407407407,0,0,0.07407407407407407,11.703703703703702,0)" xlink:href="#t"/><use transform="matrix(0.07407407407407407,0,0,0.07407407407407407,25.037037037037035,0)" xlink:href="#u"/><use transform="matrix(0.07407407407407407,0,0,0.07407407407407407,32.44444444444444,0)" xlink:href="#v"/></g><path fill="#3a414a" d="M110-160c48 1 74 30 74 79 0 53-28 85-80 85-65 0-83-55-86-122-5-90 50-162 133-122 14 7 22 21 27 39l-31 6c-5-40-67-38-82-6-9 19-15 44-15 74 11-20 30-34 60-33zm-7 138c34 0 49-23 49-58s-16-56-50-56c-29 0-50 16-49 49 1 36 15 65 50 65" id="w"/><g id="g"><use transform="matrix(0.06172839506172839,0,0,0.06172839506172839,0,0)" xlink:href="#w"/><use transform="matrix(0.06172839506172839,0,0,0.06172839506172839,12.345679012345679,0)" xlink:href="#n"/><use transform="matrix(0.06172839506172839,0,0,0.06172839506172839,24.691358024691358,0)" xlink:href="#v"/></g><g id="h"><use transform="matrix(0.06172839506172839,0,0,0.06172839506172839,0,0)" xlink:href="#m"/><use transform="matrix(0.06172839506172839,0,0,0.06172839506172839,12.345679012345679,0)" xlink:href="#k"/><use transform="matrix(0.06172839506172839,0,0,0.06172839506172839,24.691358024691358,0)" xlink:href="#v"/></g><g id="i"><use transform="matrix(0.06172839506172839,0,0,0.06172839506172839,0,0)" xlink:href="#l"/><use transform="matrix(0.06172839506172839,0,0,0.06172839506172839,12.345679012345679,0)" xlink:href="#w"/><use transform="matrix(0.06172839506172839,0,0,0.06172839506172839,24.691358024691358,0)" xlink:href="#v"/></g><path fill="#3a414a" d="M134-131c28 9 52 24 51 62-1 50-34 73-85 73S17-19 16-69c0-36 21-54 49-61-75-25-45-126 34-121 46 3 78 18 79 63 0 33-17 51-44 57zm-34-11c31 1 46-15 46-44 0-28-17-43-47-42-29 0-46 13-45 42 1 28 16 44 46 44zm1 122c35 0 51-18 51-52 0-30-18-46-53-46-33 0-51 17-51 47 0 34 19 51 53 51" id="x"/><g id="j"><use transform="matrix(0.06172839506172839,0,0,0.06172839506172839,0,0)" xlink:href="#l"/><use transform="matrix(0.06172839506172839,0,0,0.06172839506172839,12.345679012345679,0)" xlink:href="#k"/><use transform="matrix(0.06172839506172839,0,0,0.06172839506172839,24.691358024691358,0)" xlink:href="#x"/><use transform="matrix(0.06172839506172839,0,0,0.06172839506172839,37.03703703703704,0)" xlink:href="#v"/></g></defs></g></svg>