<svg xmlns="http://www.w3.org/2000/svg" xmlns:xlink="http://www.w3.org/1999/xlink" xmlns:lucid="lucid" width="1211.25" height="463.7"><g transform="translate(3487.6111361563007 -604.7244094488187)" lucid:page-tab-id="0_0"><path d="M-3487.1 986.46h80.88v81.07h-80.9z" stroke="#3a414a" fill="#fff7a1"/><use xlink:href="#a" transform="matrix(1,0,0,1,-3475.1111361563007,998.4619420551211) translate(15.537037037037035 40.958333333333336)"/><path d="M-3386.32 986.46h80.9v81.07h-80.9z" stroke="#3a414a" fill="#fff7a1"/><use xlink:href="#a" transform="matrix(1,0,0,1,-3374.323734581497,998.4619420551211) translate(15.537037037037035 40.958333333333336)"/><path d="M-3285.54 986.46h80.9v81.07h-80.9z" stroke="#3a414a" fill="#fff7a1"/><use xlink:href="#a" transform="matrix(1,0,0,1,-3273.536333006693,998.4619420551211) translate(15.537037037037035 40.958333333333336)"/><path d="M-3184.75 986.46h80.9v81.07h-80.9z" stroke="#3a414a" fill="#fff7a1"/><use xlink:href="#a" transform="matrix(1,0,0,1,-3172.748931431889,998.4619420551211) translate(15.537037037037035 40.958333333333336)"/><path d="M-3083.96 986.46h80.9v81.07h-80.9z" stroke="#3a414a" fill="#fff7a1"/><use xlink:href="#a" transform="matrix(1,0,0,1,-3071.961529857085,998.4619420551211) translate(15.537037037037035 40.958333333333336)"/><path d="M-2983.17 986.46h80.9v81.07h-80.9z" stroke="#3a414a" fill="#fff7a1"/><use xlink:href="#a" transform="matrix(1,0,0,1,-2971.1741282822813,998.4619420551211) translate(15.537037037037035 40.958333333333336)"/><path d="M-2882.4 986.46h80.9v81.07h-80.9z" stroke="#3a414a" fill="#fff7a1"/><use xlink:href="#a" transform="matrix(1,0,0,1,-2870.3867267074775,998.4619420551211) translate(15.537037037037035 40.958333333333336)"/><path d="M-2781.6 986.46h80.9v81.07h-80.9z" stroke="#3a414a" fill="#fff7a1"/><use xlink:href="#a" transform="matrix(1,0,0,1,-2769.5993251326736,998.4619420551211) translate(15.537037037037035 40.958333333333336)"/><path d="M-3437.82 865.32h80.9v81.07h-80.9z" stroke="#3a414a" fill="#c3f7c8"/><use xlink:href="#b" transform="matrix(1,0,0,1,-3425.8184960569506,877.3228344435712) translate(15.537037037037035 40.958333333333336)"/><path d="M-3445.88 985.34l47.73-37.83" stroke="#3a414a" stroke-width="2" fill="none"/><path d="M-3445.35 985.96h-2.88l1.76-1.4zM-3397.57 948.3l-1.1-1.4h2.87z" stroke="#3a414a" stroke-width=".05" fill="#3a414a"/><path d="M-3346.67 985.36l-49.9-37.87" stroke="#3a414a" stroke-width="2" fill="none"/><path d="M-3344.26 985.96h-2.9l1.06-1.4zM-3397.14 948.3l-1.84-1.4h2.9z" stroke="#3a414a" stroke-width=".05" fill="#3a414a"/><path d="M-3033.57 865.32h80.9v81.07h-80.9z" stroke="#3a414a" fill="#c3f7c8"/><use xlink:href="#b" transform="matrix(1,0,0,1,-3021.567829069684,877.3228344435712) translate(15.537037037037035 40.958333333333336)"/><path d="M-3235 865.32h80.9v81.07h-80.9z" stroke="#3a414a" fill="#c3f7c8"/><use xlink:href="#b" transform="matrix(1,0,0,1,-3223.0096738874026,877.3228344435712) translate(15.537037037037035 40.958333333333336)"/><path d="M-2832.13 865.32h80.9v81.07h-80.9z" stroke="#3a414a" fill="#c3f7c8"/><use xlink:href="#b" transform="matrix(1,0,0,1,-2820.1259842519657,877.3228344435712) translate(15.537037037037035 40.958333333333336)"/><path d="M-3244.3 985.35l48.95-37.85" stroke="#3a414a" stroke-width="2" fill="none"/><path d="M-3243.8 985.96h-2.88l1.8-1.4zM-3194.78 948.3l-1.08-1.4h2.9z" stroke="#3a414a" stroke-width=".05" fill="#3a414a"/><path d="M-3145.1 985.35l-48.67-37.85" stroke="#3a414a" stroke-width="2" fill="none"/><path d="M-3142.7 985.96h-2.9l1.1-1.4zM-3194.35 948.3l-1.8-1.4h2.9z" stroke="#3a414a" stroke-width=".05" fill="#3a414a"/><path d="M-3042.72 985.35l48.8-37.85" stroke="#3a414a" stroke-width="2" fill="none"/><path d="M-3042.22 985.96h-2.9l1.82-1.4zM-2993.33 948.3l-1.1-1.4h2.9z" stroke="#3a414a" stroke-width=".05" fill="#3a414a"/><path d="M-2943.52 985.35l-48.8-37.85" stroke="#3a414a" stroke-width="2" fill="none"/><path d="M-2941.14 985.96h-2.88l1.08-1.4zM-2992.9 948.3l-1.8-1.4h2.88z" stroke="#3a414a" stroke-width=".05" fill="#3a414a"/><path d="M-2841.43 985.35l48.96-37.85" stroke="#3a414a" stroke-width="2" fill="none"/><path d="M-2840.93 985.96h-2.9l1.82-1.4zM-2791.9 948.3l-1.07-1.4h2.9z" stroke="#3a414a" stroke-width=".05" fill="#3a414a"/><path d="M-2741.94 985.35l-48.95-37.85" stroke="#3a414a" stroke-width="2" fill="none"/><path d="M-2739.56 985.96h-2.9l1.1-1.4zM-2791.46 948.3l-1.8-1.4h2.88z" stroke="#3a414a" stroke-width=".05" fill="#3a414a"/><path d="M-3336.4 744.76h80.88v81.06h-80.9z" stroke="#3a414a" fill="#b8f5ed"/><use xlink:href="#c" transform="matrix(1,0,0,1,-3324.414084972177,756.7572176456716) translate(15.537037037037035 40.958333333333336)"/><path d="M-2932.65 744.76h80.9v81.06h-80.9z" stroke="#3a414a" fill="#b8f5ed"/><use xlink:href="#c" transform="matrix(1,0,0,1,-2920.647469162991,756.7572176456716) translate(15.537037037037035 40.958333333333336)"/><path d="M-3134.36 624.45h80.9v81.06h-80.9z" stroke="#3a414a" fill="#f4d9ff"/><use xlink:href="#d" transform="matrix(1,0,0,1,-3122.355230644487,636.4461942257219) translate(15.537037037037035 40.958333333333336)"/><path d="M-3396.74 864.47l99.84-37.8" stroke="#3a414a" stroke-width="2" fill="none"/><path d="M-3396.58 864.82h-3.86l3.37-1.27zM-3296.58 827.6l-.48-1.28h3.85z" stroke="#3a414a" stroke-width=".05" fill="#3a414a"/><path d="M-3195.5 864.47l-99.53-37.8" stroke="#3a414a" stroke-width="2" fill="none"/><path d="M-3191.8 864.82h-3.86l.48-1.27zM-3295.35 827.6l-3.36-1.28h3.83z" stroke="#3a414a" stroke-width=".05" fill="#3a414a"/><path d="M-2992.2 864.47l99.07-37.8" stroke="#3a414a" stroke-width="2" fill="none"/><path d="M-2992.02 864.82h-3.84l3.35-1.27zM-2892.8 827.6l-.5-1.28h3.84z" stroke="#3a414a" stroke-width=".05" fill="#3a414a"/><path d="M-2792.6 864.47l-98.67-37.8" stroke="#3a414a" stroke-width="2" fill="none"/><path d="M-2788.95 864.82h-3.83l.5-1.28zM-2891.6 827.6l-3.33-1.28h3.83z" stroke="#3a414a" stroke-width=".05" fill="#3a414a"/><path d="M-2892.86 744.07l-200.07-37.87" stroke="#3a414a" stroke-width="2" fill="none"/><path d="M-2888.75 743.86l-.08.4h-4.1l.22-1.15zM-3093.08 707.16l-3.96-.75.08-.4h4.1z" stroke="#3a414a" stroke-width=".05" fill="#3a414a"/><path d="M-3294.6 744.07l199.7-37.87" stroke="#3a414a" stroke-width="2" fill="none"/><path d="M-3294.54 744.26h-4.1l-.07-.4 3.94-.75zM-3090.78 706.4l-3.95.76-.22-1.15h4.1z" stroke="#3a414a" stroke-width=".05" fill="#3a414a"/><path d="M-2660.8 604.72h384.44v61.14h-384.43z" stroke="#000" stroke-opacity="0" fill="#fff" fill-opacity="0"/><use xlink:href="#e" transform="matrix(1,0,0,1,-2655.787401574803,609.7244094488187) translate(0 42.66666666666667)"/><use xlink:href="#f" transform="matrix(1,0,0,1,-2655.787401574803,609.7244094488187) translate(127.25925925925927 42.66666666666667)"/><path d="M-2622.17 987.56h81.77v80.87h-81.77z" stroke="#000" stroke-opacity="0" fill="#fff" fill-opacity="0"/><use xlink:href="#g" transform="matrix(1,0,0,1,-2617.169856018133,992.5590551181074) translate(-2.074074074074076 46.16666666666667)"/><path d="M-2540.4 685.75h79.92v81.4h-79.92z" stroke="#3a414a" fill="#f4d9ff"/><path d="M-2622.17 886.97h81.77v80.86h-81.77z" stroke="#000" stroke-opacity="0" fill="#fff" fill-opacity="0"/><use xlink:href="#h" transform="matrix(1,0,0,1,-2617.169856018133,891.965879265092) translate(-2.074074074074076 46.16666666666667)"/><path d="M-2622.17 785.98h81.77v80.87h-81.77z" stroke="#000" stroke-opacity="0" fill="#fff" fill-opacity="0"/><use xlink:href="#i" transform="matrix(1,0,0,1,-2617.169856018133,790.9842519685038) translate(-2.074074074074076 46.16666666666667)"/><path d="M-2622.17 685.75h81.77v80.86h-81.77z" stroke="#000" stroke-opacity="0" fill="#fff" fill-opacity="0"/><use xlink:href="#j" transform="matrix(1,0,0,1,-2617.169856018133,690.7480314960625) translate(-31.703703703703724 46.16666666666667)"/><defs><path fill="#3a414a" d="M23 0v-37h61v-169l-59 37v-38l62-41h46v211h57V0H23" id="k"/><use transform="matrix(0.12962962962962965,0,0,0.12962962962962965,0,0)" xlink:href="#k" id="a"/><path fill="#3a414a" d="M182-182c0 78-84 86-111 141h115V0H12c-6-101 99-100 120-180 1-22-12-31-33-32-23 0-32 14-35 34l-49-3c5-45 32-70 84-70 51 0 83 22 83 69" id="l"/><use transform="matrix(0.12962962962962965,0,0,0.12962962962962965,0,0)" xlink:href="#l" id="b"/><path fill="#3a414a" d="M128-127c34 4 56 21 59 58 7 91-148 94-172 28-4-9-6-17-7-26l51-5c1 24 16 35 40 36 23 0 39-12 38-36-1-31-31-36-65-34v-40c32 2 59-3 59-33 0-20-13-33-34-33s-33 13-35 32l-50-3c6-44 37-68 86-68 50 0 83 20 83 66 0 35-22 52-53 58" id="m"/><use transform="matrix(0.12962962962962965,0,0,0.12962962962962965,0,0)" xlink:href="#m" id="c"/><path fill="#3a414a" d="M165-50V0h-47v-50H5v-38l105-160h55v161h33v37h-33zm-47-37l2-116L46-87h72" id="n"/><use transform="matrix(0.12962962962962965,0,0,0.12962962962962965,0,0)" xlink:href="#n" id="d"/><path fill="#3a414a" d="M76-208v77h127v40H76V0H24v-248h183v40H76" id="o"/><path fill="#3a414a" d="M135-150c-39-12-60 13-60 57V0H25l-1-190h47c2 13-1 29 3 40 6-28 27-53 61-41v41" id="p"/><path fill="#3a414a" d="M185-48c-13 30-37 53-82 52C43 2 14-33 14-96s30-98 90-98c62 0 83 45 84 108H66c0 31 8 55 39 56 18 0 30-7 34-22zm-45-69c5-46-57-63-70-21-2 6-4 13-4 21h74" id="q"/><g id="e"><use transform="matrix(0.14814814814814817,0,0,0.14814814814814817,0,0)" xlink:href="#o"/><use transform="matrix(0.14814814814814817,0,0,0.14814814814814817,32.44444444444445,0)" xlink:href="#p"/><use transform="matrix(0.14814814814814817,0,0,0.14814814814814817,53.18518518518519,0)" xlink:href="#q"/><use transform="matrix(0.14814814814814817,0,0,0.14814814814814817,82.81481481481482,0)" xlink:href="#q"/></g><path fill="#3a414a" d="M25 0v-261h50V0H25" id="r"/><path fill="#3a414a" d="M25-224v-37h50v37H25zM25 0v-190h50V0H25" id="s"/><path fill="#3a414a" d="M137-138c1-29-70-34-71-4 15 46 118 7 119 86 1 83-164 76-172 9l43-7c4 19 20 25 44 25 33 8 57-30 24-41C81-84 22-81 20-136c-2-80 154-74 161-7" id="t"/><path fill="#3a414a" d="M115-3C79 11 28 4 28-45v-112H4v-33h27l15-45h31v45h36v33H77v99c-1 23 16 31 38 25v30" id="u"/><path fill="#3a414a" d="M35-132v-50h50v50H35zM35 0v-49h50V0H35" id="v"/><g id="f"><use transform="matrix(0.14814814814814817,0,0,0.14814814814814817,0,0)" xlink:href="#r"/><use transform="matrix(0.14814814814814817,0,0,0.14814814814814817,14.814814814814817,0)" xlink:href="#s"/><use transform="matrix(0.14814814814814817,0,0,0.14814814814814817,29.629629629629633,0)" xlink:href="#t"/><use transform="matrix(0.14814814814814817,0,0,0.14814814814814817,59.25925925925927,0)" xlink:href="#u"/><use transform="matrix(0.14814814814814817,0,0,0.14814814814814817,76.8888888888889,0)" xlink:href="#v"/></g><path fill="#3a414a" d="M27 0v-27h64v-190l-56 39v-29l58-41h29v221h61V0H27" id="w"/><path fill="#3a414a" d="M110-160c48 1 74 30 74 79 0 53-28 85-80 85-65 0-83-55-86-122-5-90 50-162 133-122 14 7 22 21 27 39l-31 6c-5-40-67-38-82-6-9 19-15 44-15 74 11-20 30-34 60-33zm-7 138c34 0 49-23 49-58s-16-56-50-56c-29 0-50 16-49 49 1 36 15 65 50 65" id="x"/><path fill="#3a414a" d="M33-154v-36h34v36H33zM33 0v-36h34V0H33" id="y"/><g id="g"><use transform="matrix(0.14814814814814817,0,0,0.14814814814814817,0,0)" xlink:href="#w"/><use transform="matrix(0.14814814814814817,0,0,0.14814814814814817,29.629629629629633,0)" xlink:href="#x"/><use transform="matrix(0.14814814814814817,0,0,0.14814814814814817,59.25925925925927,0)" xlink:href="#y"/></g><path fill="#3a414a" d="M126-127c33 6 58 20 58 59 0 88-139 92-164 29-3-8-5-16-6-25l32-3c6 27 21 44 54 44 32 0 52-15 52-46 0-38-36-46-79-43v-28c39 1 72-4 72-42 0-27-17-43-46-43-28 0-47 15-49 41l-32-3c6-42 35-63 81-64 48-1 79 21 79 65 0 36-21 52-52 59" id="z"/><path fill="#3a414a" d="M101-251c82-7 93 87 43 132L82-64C71-53 59-42 53-27h129V0H18c2-99 128-94 128-182 0-28-16-43-45-43s-46 15-49 41l-32-3c6-41 34-60 81-64" id="A"/><g id="h"><use transform="matrix(0.14814814814814817,0,0,0.14814814814814817,0,0)" xlink:href="#z"/><use transform="matrix(0.14814814814814817,0,0,0.14814814814814817,29.629629629629633,0)" xlink:href="#A"/><use transform="matrix(0.14814814814814817,0,0,0.14814814814814817,59.25925925925927,0)" xlink:href="#y"/></g><path fill="#3a414a" d="M155-56V0h-30v-56H8v-25l114-167h33v167h35v25h-35zm-30-156c-27 46-58 90-88 131h88v-131" id="B"/><g id="i"><use transform="matrix(0.14814814814814817,0,0,0.14814814814814817,0,0)" xlink:href="#x"/><use transform="matrix(0.14814814814814817,0,0,0.14814814814814817,29.629629629629633,0)" xlink:href="#B"/><use transform="matrix(0.14814814814814817,0,0,0.14814814814814817,59.25925925925927,0)" xlink:href="#y"/></g><path fill="#3a414a" d="M134-131c28 9 52 24 51 62-1 50-34 73-85 73S17-19 16-69c0-36 21-54 49-61-75-25-45-126 34-121 46 3 78 18 79 63 0 33-17 51-44 57zm-34-11c31 1 46-15 46-44 0-28-17-43-47-42-29 0-46 13-45 42 1 28 16 44 46 44zm1 122c35 0 51-18 51-52 0-30-18-46-53-46-33 0-51 17-51 47 0 34 19 51 53 51" id="C"/><g id="j"><use transform="matrix(0.14814814814814817,0,0,0.14814814814814817,0,0)" xlink:href="#w"/><use transform="matrix(0.14814814814814817,0,0,0.14814814814814817,29.629629629629633,0)" xlink:href="#A"/><use transform="matrix(0.14814814814814817,0,0,0.14814814814814817,59.25925925925927,0)" xlink:href="#C"/><use transform="matrix(0.14814814814814817,0,0,0.14814814814814817,88.8888888888889,0)" xlink:href="#y"/></g></defs></g></svg>