<svg xmlns="http://www.w3.org/2000/svg" xmlns:xlink="http://www.w3.org/1999/xlink" xmlns:lucid="lucid" width="745.79" height="303.99"><g transform="translate(-4796.7781078294865 383.49212598425214)" lucid:page-tab-id="0_0"><path d="M4837.6-221.73h60.47v58.82h-60.48z" stroke="#3a414a" fill="#f2f3f5"/><use xlink:href="#a" transform="matrix(1,0,0,1,4849.593068459408,-209.7322834645671) translate(11.092592592592592 23.520833333333336)"/><path d="M4797.28-140.9h60.47V-80h-60.47z" stroke="#3a414a" fill="#fff7a1"/><use xlink:href="#b" transform="matrix(1,0,0,1,4809.2781078294865,-128.90813648293988) translate(11.092592592592592 23.645833333333336)"/><path d="M4877.9-140.9h60.48V-80h-60.47z" stroke="#3a414a" fill="#fff7a1"/><use xlink:href="#b" transform="matrix(1,0,0,1,4889.908029089329,-128.90813648293977) translate(11.092592592592592 23.645833333333336)"/><path d="M4958.54-140.9H5019V-80h-60.46z" stroke="#3a414a" fill="#f2f3f5"/><use xlink:href="#a" transform="matrix(1,0,0,1,4970.537950349171,-128.90813648294) translate(11.092592592592592 23.645833333333336)"/><path d="M5039.17-140.9h60.47V-80h-60.47z" stroke="#3a414a" fill="#fff7a1"/><use xlink:href="#b" transform="matrix(1,0,0,1,5051.167871609014,-128.90813648293988) translate(11.092592592592592 23.645833333333336)"/><path d="M5119.8-142.48h60.47v60.9h-60.47z" stroke="#3a414a" fill="#fff7a1"/><use xlink:href="#b" transform="matrix(1,0,0,1,5131.797792868856,-130.48293963254616) translate(11.092592592592592 23.645833333333336)"/><path d="M5200.43-142.48h60.47v60.9h-60.47z" stroke="#3a414a" fill="#fff7a1"/><use xlink:href="#b" transform="matrix(1,0,0,1,5212.427714128698,-130.48293963254605) translate(11.092592592592592 23.645833333333336)"/><path d="M5281.06-142.48h60.47v60.9h-60.47z" stroke="#3a414a" fill="#fff7a1"/><use xlink:href="#b" transform="matrix(1,0,0,1,5293.057635388541,-130.48293963254628) translate(11.092592592592592 23.645833333333336)"/><path d="M5361.7-142.48h60.46v60.9h-60.47z" stroke="#3a414a" fill="#fff7a1"/><use xlink:href="#b" transform="matrix(1,0,0,1,5373.687556648383,-130.48293963254616) translate(11.092592592592592 23.645833333333336)"/><path d="M4998.85-221.73h60.47v58.82h-60.47z" stroke="#3a414a" fill="#c3f7c8"/><use xlink:href="#b" transform="matrix(1,0,0,1,5010.852910979093,-209.7322834645671) translate(11.092592592592592 23.520833333333336)"/><path d="M5160.1-220.4h60.48v58.83h-60.47z" stroke="#3a414a" fill="#c3f7c8"/><use xlink:href="#c" transform="matrix(1,0,0,1,5172.112753498776,-208.39895013123382) translate(11.092592592592592 23.520833333333336)"/><path d="M5321.37-221.73h60.48v58.82h-60.48z" stroke="#3a414a" fill="#c3f7c8"/><use xlink:href="#c" transform="matrix(1,0,0,1,5333.372596018463,-209.7322834645671) translate(11.092592592592592 23.520833333333336)"/><path d="M4918.22-302.36h60.47v58.82h-60.48z" stroke="#3a414a" fill="#d7faf5"/><use xlink:href="#b" transform="matrix(1,0,0,1,4930.222989719251,-290.36220472440965) translate(11.092592592592592 23.520833333333336)"/><path d="M5240.74-302.36h60.48v58.82h-60.48z" stroke="#3a414a" fill="#d7faf5"/><use xlink:href="#d" transform="matrix(1,0,0,1,5252.7426747586205,-290.36220472440965) translate(11.092592592592592 23.520833333333336)"/><path d="M5076.9-383h60.46v58.83h-60.47z" stroke="#3a414a" fill="#f4d9ff"/><use xlink:href="#d" transform="matrix(1,0,0,1,5088.888004357836,-370.99212598425214) translate(11.092592592592592 23.520833333333336)"/><path d="M4867.4-162.18l-39.44 20.54" stroke="#3a414a" fill="none"/><path d="M4867.6-161.75l-.35-.66h1.6zM4828.1-141.4h-1.6l1.25-.67z" stroke="#3a414a" stroke-width=".05" fill="#3a414a"/><path d="M4868.27-162.18l39.43 20.54" stroke="#3a414a" fill="none"/><path d="M4868.06-161.75l-1.26-.66h1.6zM4909.17-141.4h-1.6l.34-.67z" stroke="#3a414a" stroke-width=".05" fill="#3a414a"/><path d="M5028.65-162.18l-39.43 20.54" stroke="#3a414a" fill="none"/><path d="M5028.85-161.75l-.34-.66h1.62zM4989.35-141.4h-1.6l1.26-.67z" stroke="#3a414a" stroke-width=".05" fill="#3a414a"/><path d="M5029.53-162.18l39.43 20.54" stroke="#3a414a" fill="none"/><path d="M5029.32-161.75l-1.26-.66h1.6zM5070.43-141.4h-1.6l.34-.67z" stroke="#3a414a" stroke-width=".05" fill="#3a414a"/><path d="M5189.9-160.87l-39.4 17.68" stroke="#3a414a" fill="none"/><path d="M5190.08-160.43l-.3-.64h1.73zM5150.6-142.98h-1.73l1.44-.65z" stroke="#3a414a" stroke-width=".05" fill="#3a414a"/><path d="M5190.8-160.87l39.4 17.68" stroke="#3a414a" fill="none"/><path d="M5190.62-160.43l-1.43-.64h1.7zM5231.82-142.98h-1.72l.3-.65z" stroke="#3a414a" stroke-width=".05" fill="#3a414a"/><path d="M5351.16-162.2l-39.42 19" stroke="#3a414a" fill="none"/><path d="M5351.35-161.76l-.3-.65h1.65zM5311.86-142.98h-1.66l1.35-.65z" stroke="#3a414a" stroke-width=".05" fill="#3a414a"/><path d="M5352.06-162.2l39.4 19" stroke="#3a414a" fill="none"/><path d="M5351.86-161.76l-1.34-.65h1.66zM5393.02-142.98h-1.67l.32-.65z" stroke="#3a414a" stroke-width=".05" fill="#3a414a"/><path d="M4947.98-242.9l-79.67 20.54" stroke="#3a414a" fill="none"/><path d="M4948.08-242.45l-.15-.6h2.43zM4868.36-222.23h-2.43l2.28-.6z" stroke="#3a414a" stroke-width=".05" fill="#3a414a"/><path d="M4948.94-242.9l79.66 20.54" stroke="#3a414a" fill="none"/><path d="M4948.84-242.45l-2.28-.6h2.43zM5031-222.23h-2.44l.15-.6z" stroke="#3a414a" stroke-width=".05" fill="#3a414a"/><path d="M5270.5-242.9l-79.67 21.87" stroke="#3a414a" fill="none"/><path d="M5270.6-242.44l-.15-.6h2.32zM5190.88-220.9h-2.32l2.16-.6z" stroke="#3a414a" stroke-width=".05" fill="#3a414a"/><path d="M5271.46-242.9l79.66 20.54" stroke="#3a414a" fill="none"/><path d="M5271.36-242.45l-2.28-.6h2.43zM5353.5-222.23h-2.42l.15-.6z" stroke="#3a414a" stroke-width=".05" fill="#3a414a"/><path d="M5106.63-323.6l-157.68 20.67" stroke="#3a414a" fill="none"/><path d="M5110.16-323.6l-3.48.47-.07-.54h3.55zM4948.98-302.86h-3.55v-.08l3.48-.46z" stroke="#3a414a" stroke-width=".05" fill="#3a414a"/><path d="M5107.62-323.6l162.86 20.68" stroke="#3a414a" fill="none"/><path d="M5107.57-323.13l-3.48-.44v-.1h3.54zM5274.02-302.96l-.02.1h-3.54l.07-.54z" stroke="#3a414a" stroke-width=".05" fill="#3a414a"/><path d="M5422.36-383h120.2v40h-120.2z" stroke="#000" stroke-opacity="0" fill="#fff" fill-opacity="0"/><use xlink:href="#e" transform="matrix(1,0,0,1,5427.362204724408,-377.9921259842522) translate(4.537037037037045 23.208333333333332)"/><use xlink:href="#f" transform="matrix(1,0,0,1,5427.362204724408,-377.9921259842522) translate(66.61111111111111 23.208333333333332)"/><path d="M5422.5-303h60.06v40h-60.07z" stroke="#000" stroke-opacity="0" fill="#fff" fill-opacity="0"/><use xlink:href="#g" transform="matrix(1,0,0,1,5427.48926901382,-297.99212598425214) translate(20.135802469135804 19.65277777777778)"/><path d="M5422.76-261.42h60.07v40h-60.07z" stroke="#000" stroke-opacity="0" fill="#fff" fill-opacity="0"/><use xlink:href="#h" transform="matrix(1,0,0,1,5427.75950282756,-256.41732283464603) translate(20.135802469135804 19.65277777777778)"/><path d="M5422.5-221.42h60.06v40h-60.07z" stroke="#000" stroke-opacity="0" fill="#fff" fill-opacity="0"/><use xlink:href="#i" transform="matrix(1,0,0,1,5427.48926901382,-216.41732283464603) translate(20.135802469135804 19.65277777777778)"/><path d="M5482.56-293h20v20h-20z" stroke="#3a414a" fill="#b8f5ed"/><path d="M5482.84-211.42h20v20h-20z" stroke="#3a414a" fill="#fff7a1"/><path d="M5422.5-343h60.06v40h-60.07z" stroke="#000" stroke-opacity="0" fill="#fff" fill-opacity="0"/><use xlink:href="#j" transform="matrix(1,0,0,1,5427.48926901382,-337.9921259842522) translate(7.79012345679012 19.65277777777778)"/><defs><path fill="#3a414a" d="M101-251c68 0 85 55 85 127S166 4 100 4C33 4 14-52 14-124c0-73 17-127 87-127zm-1 229c47 0 54-49 54-102s-4-102-53-102c-51 0-55 48-55 102 0 53 5 102 54 102" id="k"/><use transform="matrix(0.07407407407407408,0,0,0.07407407407407408,0,0)" xlink:href="#k" id="a"/><path fill="#3a414a" d="M27 0v-27h64v-190l-56 39v-29l58-41h29v221h61V0H27" id="l"/><use transform="matrix(0.07407407407407408,0,0,0.07407407407407408,0,0)" xlink:href="#l" id="b"/><path fill="#3a414a" d="M101-251c82-7 93 87 43 132L82-64C71-53 59-42 53-27h129V0H18c2-99 128-94 128-182 0-28-16-43-45-43s-46 15-49 41l-32-3c6-41 34-60 81-64" id="m"/><use transform="matrix(0.07407407407407408,0,0,0.07407407407407408,0,0)" xlink:href="#m" id="c"/><path fill="#3a414a" d="M126-127c33 6 58 20 58 59 0 88-139 92-164 29-3-8-5-16-6-25l32-3c6 27 21 44 54 44 32 0 52-15 52-46 0-38-36-46-79-43v-28c39 1 72-4 72-42 0-27-17-43-46-43-28 0-47 15-49 41l-32-3c6-42 35-63 81-64 48-1 79 21 79 65 0 36-21 52-52 59" id="n"/><use transform="matrix(0.07407407407407408,0,0,0.07407407407407408,0,0)" xlink:href="#n" id="d"/><path fill="#3a414a" d="M63-220v92h138v28H63V0H30v-248h175v28H63" id="o"/><path fill="#3a414a" d="M114-163C36-179 61-72 57 0H25l-1-190h30c1 12-1 29 2 39 6-27 23-49 58-41v29" id="p"/><path fill="#3a414a" d="M100-194c63 0 86 42 84 106H49c0 40 14 67 53 68 26 1 43-12 49-29l28 8c-11 28-37 45-77 45C44 4 14-33 15-96c1-61 26-98 85-98zm52 81c6-60-76-77-97-28-3 7-6 17-6 28h103" id="q"/><g id="e"><use transform="matrix(0.07407407407407407,0,0,0.07407407407407407,0,0)" xlink:href="#o"/><use transform="matrix(0.07407407407407407,0,0,0.07407407407407407,16.22222222222222,0)" xlink:href="#p"/><use transform="matrix(0.07407407407407407,0,0,0.07407407407407407,25.037037037037038,0)" xlink:href="#q"/><use transform="matrix(0.07407407407407407,0,0,0.07407407407407407,39.85185185185185,0)" xlink:href="#q"/></g><path fill="#3a414a" d="M24 0v-261h32V0H24" id="r"/><path fill="#3a414a" d="M24-231v-30h32v30H24zM24 0v-190h32V0H24" id="s"/><path fill="#3a414a" d="M135-143c-3-34-86-38-87 0 15 53 115 12 119 90S17 21 10-45l28-5c4 36 97 45 98 0-10-56-113-15-118-90-4-57 82-63 122-42 12 7 21 19 24 35" id="t"/><path fill="#3a414a" d="M59-47c-2 24 18 29 38 22v24C64 9 27 4 27-40v-127H5v-23h24l9-43h21v43h35v23H59v120" id="u"/><path fill="#3a414a" d="M33-154v-36h34v36H33zM33 0v-36h34V0H33" id="v"/><g id="f"><use transform="matrix(0.07407407407407407,0,0,0.07407407407407407,0,0)" xlink:href="#r"/><use transform="matrix(0.07407407407407407,0,0,0.07407407407407407,5.851851851851851,0)" xlink:href="#s"/><use transform="matrix(0.07407407407407407,0,0,0.07407407407407407,11.703703703703702,0)" xlink:href="#t"/><use transform="matrix(0.07407407407407407,0,0,0.07407407407407407,25.037037037037035,0)" xlink:href="#u"/><use transform="matrix(0.07407407407407407,0,0,0.07407407407407407,32.44444444444444,0)" xlink:href="#v"/></g><path fill="#3a414a" d="M110-160c48 1 74 30 74 79 0 53-28 85-80 85-65 0-83-55-86-122-5-90 50-162 133-122 14 7 22 21 27 39l-31 6c-5-40-67-38-82-6-9 19-15 44-15 74 11-20 30-34 60-33zm-7 138c34 0 49-23 49-58s-16-56-50-56c-29 0-50 16-49 49 1 36 15 65 50 65" id="w"/><path fill="#3a414a" d="M155-56V0h-30v-56H8v-25l114-167h33v167h35v25h-35zm-30-156c-27 46-58 90-88 131h88v-131" id="x"/><g id="g"><use transform="matrix(0.06172839506172839,0,0,0.06172839506172839,0,0)" xlink:href="#w"/><use transform="matrix(0.06172839506172839,0,0,0.06172839506172839,12.345679012345679,0)" xlink:href="#x"/><use transform="matrix(0.06172839506172839,0,0,0.06172839506172839,24.691358024691358,0)" xlink:href="#v"/></g><g id="h"><use transform="matrix(0.06172839506172839,0,0,0.06172839506172839,0,0)" xlink:href="#n"/><use transform="matrix(0.06172839506172839,0,0,0.06172839506172839,12.345679012345679,0)" xlink:href="#m"/><use transform="matrix(0.06172839506172839,0,0,0.06172839506172839,24.691358024691358,0)" xlink:href="#v"/></g><g id="i"><use transform="matrix(0.06172839506172839,0,0,0.06172839506172839,0,0)" xlink:href="#l"/><use transform="matrix(0.06172839506172839,0,0,0.06172839506172839,12.345679012345679,0)" xlink:href="#w"/><use transform="matrix(0.06172839506172839,0,0,0.06172839506172839,24.691358024691358,0)" xlink:href="#v"/></g><path fill="#3a414a" d="M134-131c28 9 52 24 51 62-1 50-34 73-85 73S17-19 16-69c0-36 21-54 49-61-75-25-45-126 34-121 46 3 78 18 79 63 0 33-17 51-44 57zm-34-11c31 1 46-15 46-44 0-28-17-43-47-42-29 0-46 13-45 42 1 28 16 44 46 44zm1 122c35 0 51-18 51-52 0-30-18-46-53-46-33 0-51 17-51 47 0 34 19 51 53 51" id="y"/><g id="j"><use transform="matrix(0.06172839506172839,0,0,0.06172839506172839,0,0)" xlink:href="#l"/><use transform="matrix(0.06172839506172839,0,0,0.06172839506172839,12.345679012345679,0)" xlink:href="#m"/><use transform="matrix(0.06172839506172839,0,0,0.06172839506172839,24.691358024691358,0)" xlink:href="#y"/><use transform="matrix(0.06172839506172839,0,0,0.06172839506172839,37.03703703703704,0)" xlink:href="#v"/></g></defs></g></svg>