<svg xmlns="http://www.w3.org/2000/svg" xmlns:xlink="http://www.w3.org/1999/xlink" xmlns:lucid="lucid" width="766.65" height="443.46"><g transform="translate(987.4582007960373 -3668.6614173228345)" lucid:page-tab-id="0_0"><path d="M-986.96 4011.18h80.63v80.95h-80.63z" stroke="#3a414a" fill="#fff"/><use xlink:href="#a" transform="matrix(1,0,0,1,-974.9582007960373,4023.181102362204) translate(17.38888888888889 35.5625)"/><path d="M-906.1 4011.18h80v80.95h-80z" stroke="#3a414a" fill="#fff"/><use xlink:href="#b" transform="matrix(1,0,0,1,-894.1014543146749,4023.181102362204) translate(16.88888888888889 35.5625)"/><path d="M-986.96 3708.82h645.04v80h-645.04z" stroke="#3a414a" fill="#fff"/><use xlink:href="#c" transform="matrix(1,0,0,1,-974.9582007960372,3720.818897637795) translate(299.8888888888889 35.5)"/><path d="M-664.3 3809.6h322.38v80.95h-322.4z" stroke="#3a414a" fill="#fff"/><use xlink:href="#d" transform="matrix(1,0,0,1,-652.3112804426385,3821.606299212598) translate(138.38888888888889 35.5625)"/><path d="M-986.96 3809.6h322.4v80.95h-322.4z" stroke="#3a414a" fill="#b8f5ed"/><use xlink:href="#e" transform="matrix(1,0,0,1,-974.9580297714211,3821.606299212598) translate(138.38888888888889 35.5625)"/><path d="M-986.96 3910.6h161.26v80.93h-161.26z" stroke="#3a414a" fill="#fff"/><use xlink:href="#f" transform="matrix(1,0,0,1,-974.9582007960372,3922.5879265091867) translate(57.888888888888886 35.5625)"/><path d="M-824.58 3808.6v-18.78" stroke="#3a414a" fill="none"/><path d="M-824.1 3809.1h-.95v-.5h.95zM-824.1 3789.83h-.95v-.5h.95z" stroke="#3a414a" stroke-width=".05" fill="#3a414a"/><path d="M-503.1 3808.6v-18.78" stroke="#3a414a" fill="none"/><path d="M-502.64 3809.1h-.95v-.5h.96zM-502.64 3789.83h-.95v-.5h.96z" stroke="#3a414a" stroke-width=".05" fill="#3a414a"/><path d="M-906.33 3909.6V3891.54" stroke="#3a414a" fill="none"/><path d="M-905.85 3910.1h-.95v-.53h.95zM-905.85 3891.57h-.95v-.52h.95z" stroke="#3a414a" stroke-width=".05" fill="#3a414a"/><path d="M-866.1 4010.18v-17.65" stroke="#3a414a" fill="none"/><path d="M-865.63 4010.68h-.95v-.5h.95zM-865.63 3992.55h-.95v-.52h.95z" stroke="#3a414a" stroke-width=".05" fill="#3a414a"/><path d="M-946.64 4010.18v-17.65" stroke="#3a414a" fill="none"/><path d="M-946.17 4010.68h-.95v-.5h.95zM-946.17 3992.55h-.95v-.52h.95z" stroke="#3a414a" stroke-width=".05" fill="#3a414a"/><path d="M-986.45 3688.66H-341M-985.95 3673.66v30M-341.5 3703.66v-30" stroke="#3a414a" fill="none"/><use xlink:href="#g" transform="matrix(1,0,0,1,-705.1629291475273,3663.3280839895015) translate(0 14.222222222222223)"/><use xlink:href="#h" transform="matrix(1,0,0,1,-705.1629291475273,3663.3280839895015) translate(34.567901234567906 14.222222222222223)"/><path d="M-825.57 4011.18h80.63v80.95h-80.63z" stroke="#3a414a" fill="#fff"/><use xlink:href="#i" transform="matrix(1,0,0,1,-813.5711229623237,4023.181102362204) translate(17.38888888888889 35.5625)"/><path d="M-744.7 4011.18h80v80.95h-80z" stroke="#3a414a" fill="#fff"/><use xlink:href="#j" transform="matrix(1,0,0,1,-732.7143764809613,4023.181102362204) translate(5.777777777777779 35.5625)"/><path d="M-825.57 3910.6h161.26v80.93h-161.27z" stroke="#3a414a" fill="#fff"/><use xlink:href="#k" transform="matrix(1,0,0,1,-813.5711229623236,3922.5879265091867) translate(57.888888888888886 35.5625)"/><path d="M-744.94 3909.6v-18.05" stroke="#3a414a" fill="none"/><path d="M-744.47 3910.1h-.95v-.53h.95z" stroke="#3a414a" stroke-width=".05" fill="#3a414a"/><path d="M-744.94 3891.56v-.5M-704.7 4010.18v-17.65" stroke="#3a414a" fill="none"/><path d="M-704.24 4010.68h-.95v-.5h.96zM-704.24 3992.55h-.95v-.52h.96z" stroke="#3a414a" stroke-width=".05" fill="#3a414a"/><path d="M-785.26 4010.18v-17.65" stroke="#3a414a" fill="none"/><path d="M-784.78 4010.68h-.95v-.5h.95zM-784.78 3992.55h-.95v-.52h.95z" stroke="#3a414a" stroke-width=".05" fill="#3a414a"/><path d="M-664.18 4011.18h80.63v80.95h-80.63z" stroke="#3a414a" fill="#fff"/><use xlink:href="#l" transform="matrix(1,0,0,1,-652.1840451286104,4023.1811023622035) translate(7.777777777777779 35.5625)"/><path d="M-583.33 4011.18h80v80.95h-80z" stroke="#3a414a" fill="#fff"/><use xlink:href="#m" transform="matrix(1,0,0,1,-571.327298647248,4023.1811023622035) translate(5.777777777777779 35.5625)"/><path d="M-664.18 3910.6h161.26v80.93h-161.26z" stroke="#3a414a" fill="#fff7a1"/><use xlink:href="#n" transform="matrix(1,0,0,1,-652.1840451286105,3922.587926509186) translate(57.888888888888886 35.5625)"/><path d="M-583.55 3909.6V3891.54" stroke="#3a414a" fill="none"/><path d="M-583.08 3910.1h-.95v-.53h.95z" stroke="#3a414a" stroke-width=".05" fill="#3a414a"/><path d="M-583.55 3891.57v-.52M-543.33 4010.18v-17.65" stroke="#3a414a" fill="none"/><path d="M-542.85 4010.68h-.95v-.5h.95zM-542.85 3992.55h-.95v-.52h.95z" stroke="#3a414a" stroke-width=".05" fill="#3a414a"/><path d="M-623.87 4010.18v-17.65" stroke="#3a414a" fill="none"/><path d="M-623.4 4010.68h-.94v-.5h.95zM-623.4 3992.55h-.94v-.52h.95z" stroke="#3a414a" stroke-width=".05" fill="#3a414a"/><path d="M-502.67 4011.18h80.63v80.95h-80.63z" stroke="#3a414a" fill="#c3f7c8"/><use xlink:href="#o" transform="matrix(1,0,0,1,-490.66973198086873,4023.181102362204) translate(6.277777777777779 35.5625)"/><path d="M-421.8 4011.18h80v80.95h-80z" stroke="#3a414a" fill="#dfe3e8"/><use xlink:href="#p" transform="matrix(1,0,0,1,-409.81298549950634,4023.181102362204) translate(5.777777777777779 35.5625)"/><path d="M-502.67 3910.6h161.26v80.93h-161.27z" stroke="#3a414a" fill="#fff"/><use xlink:href="#q" transform="matrix(1,0,0,1,-490.66973198086873,3922.5879265091867) translate(57.888888888888886 35.5625)"/><path d="M-422.04 3909.6V3891.54" stroke="#3a414a" fill="none"/><path d="M-421.56 3910.1h-.95v-.53h.94z" stroke="#3a414a" stroke-width=".05" fill="#3a414a"/><path d="M-422.04 3891.57v-.52M-381.8 4010.18v-17.65" stroke="#3a414a" fill="none"/><path d="M-381.34 4010.68h-.95v-.5h.96zM-381.34 3992.55h-.95v-.52h.96z" stroke="#3a414a" stroke-width=".05" fill="#3a414a"/><path d="M-462.36 4010.18v-17.65" stroke="#3a414a" fill="none"/><path d="M-461.88 4010.68h-.95v-.5h.95zM-461.88 3992.55h-.95v-.52h.95z" stroke="#3a414a" stroke-width=".05" fill="#3a414a"/><path d="M-341 3668.66h120.2v40H-341z" stroke="#000" stroke-opacity="0" fill="#fff" fill-opacity="0"/><use xlink:href="#r" transform="matrix(1,0,0,1,-336.01242033341566,3673.6614173228345) translate(4.537037037037045 23.208333333333332)"/><use xlink:href="#s" transform="matrix(1,0,0,1,-336.01242033341566,3673.6614173228345) translate(66.61111111111111 23.208333333333332)"/><path d="M-340.9 3748.66h60.1v40h-60.08z" stroke="#000" stroke-opacity="0" fill="#fff" fill-opacity="0"/><use xlink:href="#t" transform="matrix(1,0,0,1,-335.8853560440033,3753.6614173228345) translate(20.135802469135804 19.65277777777778)"/><path d="M-340.6 3790.24h60.06v40h-60.07z" stroke="#000" stroke-opacity="0" fill="#fff" fill-opacity="0"/><use xlink:href="#u" transform="matrix(1,0,0,1,-335.6151222302641,3795.236220472441) translate(20.135802469135804 19.65277777777778)"/><path d="M-340.9 3830.24h60.1v40h-60.08z" stroke="#000" stroke-opacity="0" fill="#fff" fill-opacity="0"/><use xlink:href="#v" transform="matrix(1,0,0,1,-335.8853560440033,3835.236220472441) translate(20.135802469135804 19.65277777777778)"/><path d="M-280.8 3758.66h20v20h-20z" stroke="#3a414a" fill="#b8f5ed"/><path d="M-280.8 3799.45h20v20h-20z" stroke="#3a414a" fill="#c3f7c8"/><path d="M-280.54 3840.24h20v20h-20z" stroke="#3a414a" fill="#fff7a1"/><path d="M-340.9 3708.66h60.1v40h-60.08z" stroke="#000" stroke-opacity="0" fill="#fff" fill-opacity="0"/><use xlink:href="#w" transform="matrix(1,0,0,1,-335.8853560440033,3713.6614173228345) translate(7.79012345679012 19.65277777777778)"/><path d="M-986.05 4112.13h562.74M-985.55 4097.13v30M-423.8 4127.13v-30" stroke="#3a414a" fill="none"/><use xlink:href="#x" transform="matrix(1,0,0,1,-723.420255211639,4116.1259842519685) translate(0 14.222222222222223)"/><path d="M-422.8 4112.13h80.12M-422.8 4112.13h-.5M-343.18 4127.13v-30" stroke="#3a414a" fill="none"/><g><use xlink:href="#y" transform="matrix(1,0,0,1,-423.4118790706717,4116.1259842519685) translate(0 14.222222222222223)"/></g><defs><path fill="#3a414a" d="M64 0c3-98 48-159 88-221H18v-27h164v26C143-157 98-101 97 0H64" id="z"/><use transform="matrix(0.1111111111111111,0,0,0.1111111111111111,0,0)" xlink:href="#z" id="a"/><path fill="#3a414a" d="M134-131c28 9 52 24 51 62-1 50-34 73-85 73S17-19 16-69c0-36 21-54 49-61-75-25-45-126 34-121 46 3 78 18 79 63 0 33-17 51-44 57zm-34-11c31 1 46-15 46-44 0-28-17-43-47-42-29 0-46 13-45 42 1 28 16 44 46 44zm1 122c35 0 51-18 51-52 0-30-18-46-53-46-33 0-51 17-51 47 0 34 19 51 53 51" id="A"/><use transform="matrix(0.1111111111111111,0,0,0.1111111111111111,0,0)" xlink:href="#A" id="b"/><path fill="#3a414a" d="M101-251c68 0 85 55 85 127S166 4 100 4C33 4 14-52 14-124c0-73 17-127 87-127zm-1 229c47 0 54-49 54-102s-4-102-53-102c-51 0-55 48-55 102 0 53 5 102 54 102" id="B"/><use transform="matrix(0.1111111111111111,0,0,0.1111111111111111,0,0)" xlink:href="#B" id="c"/><path fill="#3a414a" d="M101-251c82-7 93 87 43 132L82-64C71-53 59-42 53-27h129V0H18c2-99 128-94 128-182 0-28-16-43-45-43s-46 15-49 41l-32-3c6-41 34-60 81-64" id="C"/><use transform="matrix(0.1111111111111111,0,0,0.1111111111111111,0,0)" xlink:href="#C" id="d"/><path fill="#3a414a" d="M27 0v-27h64v-190l-56 39v-29l58-41h29v221h61V0H27" id="D"/><use transform="matrix(0.1111111111111111,0,0,0.1111111111111111,0,0)" xlink:href="#D" id="e"/><path fill="#3a414a" d="M126-127c33 6 58 20 58 59 0 88-139 92-164 29-3-8-5-16-6-25l32-3c6 27 21 44 54 44 32 0 52-15 52-46 0-38-36-46-79-43v-28c39 1 72-4 72-42 0-27-17-43-46-43-28 0-47 15-49 41l-32-3c6-42 35-63 81-64 48-1 79 21 79 65 0 36-21 52-52 59" id="E"/><use transform="matrix(0.1111111111111111,0,0,0.1111111111111111,0,0)" xlink:href="#E" id="f"/><path fill="#333" d="M23 0v-37h61v-169l-59 37v-38l62-41h46v211h57V0H23" id="F"/><path fill="#333" d="M182-182c0 78-84 86-111 141h115V0H12c-6-101 99-100 120-180 1-22-12-31-33-32-23 0-32 14-35 34l-49-3c5-45 32-70 84-70 51 0 83 22 83 69" id="G"/><path fill="#333" d="M138-131c27 9 52 24 51 61 0 53-36 74-89 74S11-19 11-69c0-35 22-54 51-61-78-25-46-121 38-121 51 0 83 19 83 66 0 30-18 49-45 54zm-38-16c24 0 32-13 32-36 1-23-11-34-32-34-22 0-33 12-32 34 0 22 9 36 32 36zm1 116c27 0 37-17 37-43 0-25-13-39-39-39-24 0-37 15-37 40 0 27 11 42 39 42" id="H"/><g id="g"><use transform="matrix(0.04938271604938272,0,0,0.04938271604938272,0,0)" xlink:href="#F"/><use transform="matrix(0.04938271604938272,0,0,0.04938271604938272,9.876543209876544,0)" xlink:href="#G"/><use transform="matrix(0.04938271604938272,0,0,0.04938271604938272,19.75308641975309,0)" xlink:href="#H"/></g><path fill="#333" d="M182-130c37 4 62 22 62 59C244 23 116-4 24 0v-248c84 5 203-23 205 63 0 31-19 50-47 55zM76-148c40-3 101 13 101-30 0-44-60-28-101-31v61zm0 110c48-3 116 14 116-37 0-48-69-32-116-35v72" id="I"/><path fill="#333" d="M123 10C108 53 80 86 19 72V37c35 8 53-11 59-39L3-190h52l48 148c12-52 28-100 44-148h51" id="J"/><path fill="#333" d="M115-3C79 11 28 4 28-45v-112H4v-33h27l15-45h31v45h36v33H77v99c-1 23 16 31 38 25v30" id="K"/><path fill="#333" d="M185-48c-13 30-37 53-82 52C43 2 14-33 14-96s30-98 90-98c62 0 83 45 84 108H66c0 31 8 55 39 56 18 0 30-7 34-22zm-45-69c5-46-57-63-70-21-2 6-4 13-4 21h74" id="L"/><path fill="#333" d="M137-138c1-29-70-34-71-4 15 46 118 7 119 86 1 83-164 76-172 9l43-7c4 19 20 25 44 25 33 8 57-30 24-41C81-84 22-81 20-136c-2-80 154-74 161-7" id="M"/><g id="h"><use transform="matrix(0.04938271604938272,0,0,0.04938271604938272,0,0)" xlink:href="#I"/><use transform="matrix(0.04938271604938272,0,0,0.04938271604938272,12.790123456790125,0)" xlink:href="#J"/><use transform="matrix(0.04938271604938272,0,0,0.04938271604938272,22.66666666666667,0)" xlink:href="#K"/><use transform="matrix(0.04938271604938272,0,0,0.04938271604938272,28.54320987654322,0)" xlink:href="#L"/><use transform="matrix(0.04938271604938272,0,0,0.04938271604938272,38.41975308641976,0)" xlink:href="#M"/></g><path fill="#3a414a" d="M99-251c64 0 84 50 84 122C183-37 130 33 47-8c-14-7-20-23-25-40l30-5c6 39 69 39 84 7 9-19 16-44 16-74-10 22-31 35-62 35-49 0-73-33-73-83 0-54 28-83 82-83zm-1 141c31-1 51-18 51-49 0-36-14-67-51-67-34 0-49 23-49 58 0 34 15 58 49 58" id="N"/><use transform="matrix(0.1111111111111111,0,0,0.1111111111111111,0,0)" xlink:href="#N" id="i"/><g id="j"><use transform="matrix(0.1111111111111111,0,0,0.1111111111111111,0,0)" xlink:href="#D"/><use transform="matrix(0.1111111111111111,0,0,0.1111111111111111,22.22222222222222,0)" xlink:href="#B"/></g><path fill="#3a414a" d="M155-56V0h-30v-56H8v-25l114-167h33v167h35v25h-35zm-30-156c-27 46-58 90-88 131h88v-131" id="O"/><use transform="matrix(0.1111111111111111,0,0,0.1111111111111111,0,0)" xlink:href="#O" id="k"/><g id="l"><use transform="matrix(0.1111111111111111,0,0,0.1111111111111111,0,0)" xlink:href="#D"/><use transform="matrix(0.1111111111111111,0,0,0.1111111111111111,19.22222222222222,0)" xlink:href="#D"/></g><g id="m"><use transform="matrix(0.1111111111111111,0,0,0.1111111111111111,0,0)" xlink:href="#D"/><use transform="matrix(0.1111111111111111,0,0,0.1111111111111111,22.22222222222222,0)" xlink:href="#C"/></g><path fill="#3a414a" d="M54-142c48-35 137-8 131 61C196 18 31 33 14-55l32-4c7 23 22 37 52 37 35-1 51-22 54-58 4-55-73-65-99-34H22l8-134h141v27H59" id="P"/><use transform="matrix(0.1111111111111111,0,0,0.1111111111111111,0,0)" xlink:href="#P" id="n"/><g id="o"><use transform="matrix(0.1111111111111111,0,0,0.1111111111111111,0,0)" xlink:href="#D"/><use transform="matrix(0.1111111111111111,0,0,0.1111111111111111,22.22222222222222,0)" xlink:href="#E"/></g><g id="p"><use transform="matrix(0.1111111111111111,0,0,0.1111111111111111,0,0)" xlink:href="#D"/><use transform="matrix(0.1111111111111111,0,0,0.1111111111111111,22.22222222222222,0)" xlink:href="#O"/></g><path fill="#3a414a" d="M110-160c48 1 74 30 74 79 0 53-28 85-80 85-65 0-83-55-86-122-5-90 50-162 133-122 14 7 22 21 27 39l-31 6c-5-40-67-38-82-6-9 19-15 44-15 74 11-20 30-34 60-33zm-7 138c34 0 49-23 49-58s-16-56-50-56c-29 0-50 16-49 49 1 36 15 65 50 65" id="Q"/><use transform="matrix(0.1111111111111111,0,0,0.1111111111111111,0,0)" xlink:href="#Q" id="q"/><path fill="#3a414a" d="M63-220v92h138v28H63V0H30v-248h175v28H63" id="R"/><path fill="#3a414a" d="M114-163C36-179 61-72 57 0H25l-1-190h30c1 12-1 29 2 39 6-27 23-49 58-41v29" id="S"/><path fill="#3a414a" d="M100-194c63 0 86 42 84 106H49c0 40 14 67 53 68 26 1 43-12 49-29l28 8c-11 28-37 45-77 45C44 4 14-33 15-96c1-61 26-98 85-98zm52 81c6-60-76-77-97-28-3 7-6 17-6 28h103" id="T"/><g id="r"><use transform="matrix(0.07407407407407407,0,0,0.07407407407407407,0,0)" xlink:href="#R"/><use transform="matrix(0.07407407407407407,0,0,0.07407407407407407,16.22222222222222,0)" xlink:href="#S"/><use transform="matrix(0.07407407407407407,0,0,0.07407407407407407,25.037037037037038,0)" xlink:href="#T"/><use transform="matrix(0.07407407407407407,0,0,0.07407407407407407,39.85185185185185,0)" xlink:href="#T"/></g><path fill="#3a414a" d="M24 0v-261h32V0H24" id="U"/><path fill="#3a414a" d="M24-231v-30h32v30H24zM24 0v-190h32V0H24" id="V"/><path fill="#3a414a" d="M135-143c-3-34-86-38-87 0 15 53 115 12 119 90S17 21 10-45l28-5c4 36 97 45 98 0-10-56-113-15-118-90-4-57 82-63 122-42 12 7 21 19 24 35" id="W"/><path fill="#3a414a" d="M59-47c-2 24 18 29 38 22v24C64 9 27 4 27-40v-127H5v-23h24l9-43h21v43h35v23H59v120" id="X"/><path fill="#3a414a" d="M33-154v-36h34v36H33zM33 0v-36h34V0H33" id="Y"/><g id="s"><use transform="matrix(0.07407407407407407,0,0,0.07407407407407407,0,0)" xlink:href="#U"/><use transform="matrix(0.07407407407407407,0,0,0.07407407407407407,5.851851851851851,0)" xlink:href="#V"/><use transform="matrix(0.07407407407407407,0,0,0.07407407407407407,11.703703703703702,0)" xlink:href="#W"/><use transform="matrix(0.07407407407407407,0,0,0.07407407407407407,25.037037037037035,0)" xlink:href="#X"/><use transform="matrix(0.07407407407407407,0,0,0.07407407407407407,32.44444444444444,0)" xlink:href="#Y"/></g><g id="t"><use transform="matrix(0.06172839506172839,0,0,0.06172839506172839,0,0)" xlink:href="#Q"/><use transform="matrix(0.06172839506172839,0,0,0.06172839506172839,12.345679012345679,0)" xlink:href="#O"/><use transform="matrix(0.06172839506172839,0,0,0.06172839506172839,24.691358024691358,0)" xlink:href="#Y"/></g><g id="u"><use transform="matrix(0.06172839506172839,0,0,0.06172839506172839,0,0)" xlink:href="#E"/><use transform="matrix(0.06172839506172839,0,0,0.06172839506172839,12.345679012345679,0)" xlink:href="#C"/><use transform="matrix(0.06172839506172839,0,0,0.06172839506172839,24.691358024691358,0)" xlink:href="#Y"/></g><g id="v"><use transform="matrix(0.06172839506172839,0,0,0.06172839506172839,0,0)" xlink:href="#D"/><use transform="matrix(0.06172839506172839,0,0,0.06172839506172839,12.345679012345679,0)" xlink:href="#Q"/><use transform="matrix(0.06172839506172839,0,0,0.06172839506172839,24.691358024691358,0)" xlink:href="#Y"/></g><g id="w"><use transform="matrix(0.06172839506172839,0,0,0.06172839506172839,0,0)" xlink:href="#D"/><use transform="matrix(0.06172839506172839,0,0,0.06172839506172839,12.345679012345679,0)" xlink:href="#C"/><use transform="matrix(0.06172839506172839,0,0,0.06172839506172839,24.691358024691358,0)" xlink:href="#A"/><use transform="matrix(0.06172839506172839,0,0,0.06172839506172839,37.03703703703704,0)" xlink:href="#Y"/></g><path fill="#333" d="M76-208v77h127v40H76V0H24v-248h183v40H76" id="Z"/><path fill="#333" d="M135-150c-39-12-60 13-60 57V0H25l-1-190h47c2 13-1 29 3 40 6-28 27-53 61-41v41" id="aa"/><g id="x"><use transform="matrix(0.04938271604938272,0,0,0.04938271604938272,0,0)" xlink:href="#Z"/><use transform="matrix(0.04938271604938272,0,0,0.04938271604938272,10.814814814814815,0)" xlink:href="#aa"/><use transform="matrix(0.04938271604938272,0,0,0.04938271604938272,17.728395061728396,0)" xlink:href="#L"/><use transform="matrix(0.04938271604938272,0,0,0.04938271604938272,27.60493827160494,0)" xlink:href="#L"/></g><path fill="#333" d="M140-251c80 0 125 45 125 126S219 4 139 4C58 4 15-44 15-125s44-126 125-126zm-1 214c52 0 73-35 73-88 0-50-21-86-72-86-52 0-73 35-73 86s22 88 72 88" id="ab"/><path fill="#333" d="M190-63c-7 42-38 67-86 67-59 0-84-38-90-98-12-110 154-137 174-36l-49 2c-2-19-15-32-35-32-30 0-35 28-38 64-6 74 65 87 74 30" id="ac"/><path fill="#333" d="M85 4C-2 5 27-109 22-190h50c7 57-23 150 33 157 60-5 35-97 40-157h50l1 190h-47c-2-12 1-28-3-38-12 25-28 42-61 42" id="ad"/><path fill="#333" d="M135-194c53 0 70 44 70 98 0 56-19 98-73 100-31 1-45-17-59-34 3 33 2 69 2 105H25l-1-265h48c2 10 0 23 3 31 11-24 29-35 60-35zM114-30c33 0 39-31 40-66 0-38-9-64-40-64-56 0-55 130 0 130" id="ae"/><path fill="#333" d="M25-224v-37h50v37H25zM25 0v-190h50V0H25" id="af"/><path fill="#333" d="M88-194c31-1 46 15 58 34l-1-101h50l1 261h-48c-2-10 0-23-3-31C134-8 116 4 84 4 32 4 16-41 15-95c0-56 19-97 73-99zm17 164c33 0 40-30 41-66 1-37-9-64-41-64s-38 30-39 65c0 43 13 65 39 65" id="ag"/><g id="y"><use transform="matrix(0.04938271604938272,0,0,0.04938271604938272,0,0)" xlink:href="#ab"/><use transform="matrix(0.04938271604938272,0,0,0.04938271604938272,13.827160493827162,0)" xlink:href="#ac"/><use transform="matrix(0.04938271604938272,0,0,0.04938271604938272,23.703703703703706,0)" xlink:href="#ac"/><use transform="matrix(0.04938271604938272,0,0,0.04938271604938272,33.580246913580254,0)" xlink:href="#ad"/><use transform="matrix(0.04938271604938272,0,0,0.04938271604938272,44.39506172839507,0)" xlink:href="#ae"/><use transform="matrix(0.04938271604938272,0,0,0.04938271604938272,55.209876543209894,0)" xlink:href="#af"/><use transform="matrix(0.04938271604938272,0,0,0.04938271604938272,60.14814814814817,0)" xlink:href="#L"/><use transform="matrix(0.04938271604938272,0,0,0.04938271604938272,70.02469135802471,0)" xlink:href="#ag"/></g></defs></g></svg>