<svg xmlns="http://www.w3.org/2000/svg" xmlns:xlink="http://www.w3.org/1999/xlink" xmlns:lucid="lucid" width="770.71" height="443.65"><g transform="translate(-4837.093068459408 -402.64960629921256)" lucid:page-tab-id="0_0"><path d="M4838.1 604.72h161.26v80H4838.1z" stroke="#3a414a" fill="#f2f3f5"/><use xlink:href="#a" transform="matrix(1,0,0,1,4850.097385609371,616.7244094488187) translate(0 33.55555555555556)"/><path d="M4837.97 705.5h80.63v78.68h-80.63z" stroke="#3a414a" fill="#f2f3f5"/><use xlink:href="#a" transform="matrix(1,0,0,1,4849.970321319957,717.5118110236218) translate(0 33.30555555555556)"/><path d="M4919.36 705.5h80v78.68h-80z" stroke="#3a414a" fill="#f2f3f5"/><use xlink:href="#a" transform="matrix(1,0,0,1,4931.357228129055,717.5118110236218) translate(0 33.30555555555556)"/><path d="M4837.97 503.94h322.27v80h-322.27z" stroke="#3a414a" fill="#b8f5ed"/><use xlink:href="#b" transform="matrix(1,0,0,1,4849.970321319958,515.9370078740158) translate(0 33.55555555555556)"/><path d="M4837.6 403.15h645.03v80H4837.6z" stroke="#3a414a" fill="#f2f3f5"/><use xlink:href="#a" transform="matrix(1,0,0,1,4849.593068459408,415.14960629921256) translate(0 33.55555555555556)"/><path d="M4878.4 685.72l-.1 18.8" stroke="#3a414a" fill="none"/><path d="M4878.88 685.74h-.95v-.52h.96zM4878.76 704.5v.5h-.95v-.5z" stroke="#3a414a" stroke-width=".05" fill="#3a414a"/><path d="M4959.36 685.72v18.8" stroke="#3a414a" fill="none"/><path d="M4959.83 685.74h-.95v-.52h.95zM4959.83 704.5v.5h-.95v-.5z" stroke="#3a414a" stroke-width=".05" fill="#3a414a"/><path d="M4918.73 584.94v18.78" stroke="#3a414a" fill="none"/><path d="M4919.2 584.95h-.95v-.5h.95zM4919.2 604.22h-.95v-.5h.95z" stroke="#3a414a" stroke-width=".05" fill="#3a414a"/><path d="M5080 584.94v18.78" stroke="#3a414a" fill="none"/><path d="M5080.46 584.95h-.95v-.5h.96zM5080.46 603.7v.52h-.95v-.5z" stroke="#3a414a" stroke-width=".05" fill="#3a414a"/><path d="M4999.1 484.15v18.8" stroke="#3a414a" fill="none"/><path d="M4999.58 484.16h-.95v-.5h.95zM4999.58 503.44h-.95v-.52h.95z" stroke="#3a414a" stroke-width=".05" fill="#3a414a"/><path d="M5321.45 484.15l.35 18.8" stroke="#3a414a" fill="none"/><path d="M5321.92 484.15l-.95.02v-.52h.94zM5322.3 503.44h-.96v-.5l.94-.02z" stroke="#3a414a" stroke-width=".05" fill="#3a414a"/><path d="M4999.36 604.72h161.26v80h-161.26z" stroke="#3a414a" fill="#f2f3f5"/><use xlink:href="#a" transform="matrix(1,0,0,1,5011.357228129055,616.7244094488187) translate(0 33.55555555555556)"/><path d="M5160.62 503.94h322.4v80h-322.4z" stroke="#3a414a" fill="#f2f3f5"/><use xlink:href="#a" transform="matrix(1,0,0,1,5172.61707064874,515.9370078740158) translate(0 33.55555555555556)"/><path d="M4999.36 705.5H5080v78.68h-80.64z" stroke="#3a414a" fill="#f2f3f5"/><use xlink:href="#a" transform="matrix(1,0,0,1,5011.357228129055,717.5118110236218) translate(0 33.30555555555556)"/><path d="M5080.74 705.5h80v78.68h-80z" stroke="#3a414a" fill="#f2f3f5"/><use xlink:href="#a" transform="matrix(1,0,0,1,5092.744134938153,717.5118110236218) translate(0 33.30555555555556)"/><path d="M5039.8 685.72l-.13 18.8M5039.8 685.74v-.52" stroke="#3a414a" fill="none"/><path d="M5040.15 704.5v.5h-.95v-.5z" stroke="#3a414a" stroke-width=".05" fill="#3a414a"/><path d="M5120.74 685.72v18.8M5120.74 685.74v-.52" stroke="#3a414a" fill="none"/><path d="M5121.22 705h-.95v-.5h.95z" stroke="#3a414a" stroke-width=".05" fill="#3a414a"/><path d="M5160.87 604.72h161.26v80h-161.26z" stroke="#3a414a" fill="#c3f7c8"/><use xlink:href="#b" transform="matrix(1,0,0,1,5172.871199227568,616.7244094488187) translate(0 33.55555555555556)"/><path d="M5160.74 705.5h80.63v78.68h-80.63z" stroke="#3a414a" fill="#f2f3f5"/><use xlink:href="#a" transform="matrix(1,0,0,1,5172.744134938154,717.5118110236218) translate(0 33.30555555555556)"/><path d="M5242.13 705.5h80v78.68h-80z" stroke="#3a414a" fill="#f2f3f5"/><use xlink:href="#a" transform="matrix(1,0,0,1,5254.131041747252,717.5118110236218) translate(0 33.30555555555556)"/><path d="M5201.18 685.72l-.12 18.8" stroke="#3a414a" fill="none"/><path d="M5201.66 685.74h-.95v-.52h.96zM5201.54 704.5v.5h-.96v-.5z" stroke="#3a414a" stroke-width=".05" fill="#3a414a"/><path d="M5282.13 685.72v18.8" stroke="#3a414a" fill="none"/><path d="M5282.6 685.74h-.94v-.52h.95zM5282.6 704.5v.5h-.94v-.5z" stroke="#3a414a" stroke-width=".05" fill="#3a414a"/><path d="M5241.5 584.94v18.78M5241.5 584.95v-.5" stroke="#3a414a" fill="none"/><path d="M5241.98 604.22h-.95v-.5h.95z" stroke="#3a414a" stroke-width=".05" fill="#3a414a"/><path d="M5402.76 584.94v18.78M5402.76 584.95v-.5" stroke="#3a414a" fill="none"/><path d="M5403.24 604.22h-.95v-.5h.94z" stroke="#3a414a" stroke-width=".05" fill="#3a414a"/><path d="M5322.13 604.72h161.26v80h-161.27z" stroke="#3a414a" fill="#f2f3f5"/><use xlink:href="#a" transform="matrix(1,0,0,1,5334.131041747252,616.7244094488187) translate(0 33.55555555555556)"/><path d="M5322.13 705.5h80.63v78.68h-80.63z" stroke="#3a414a" fill="#fff7a1"/><use xlink:href="#b" transform="matrix(1,0,0,1,5334.131041747252,717.5118110236218) translate(0 33.30555555555556)"/><path d="M5403.52 705.5h80v78.68h-80z" stroke="#3a414a" fill="#f2f3f5"/><use xlink:href="#a" transform="matrix(1,0,0,1,5415.51794855635,717.5118110236218) translate(0 33.30555555555556)"/><path d="M5362.57 685.72l-.12 18.8M5362.57 685.74v-.52" stroke="#3a414a" fill="none"/><path d="M5362.92 704.5v.5h-.95v-.5z" stroke="#3a414a" stroke-width=".05" fill="#3a414a"/><path d="M5443.52 685.72v18.8M5443.52 685.74v-.52" stroke="#3a414a" fill="none"/><path d="M5444 705h-.96v-.5h.95z" stroke="#3a414a" stroke-width=".05" fill="#3a414a"/><path d="M4838.33 787.64v39.65M5402.76 787.64v40.15M5483.56 787.64v39.65M4839.83 806.97h642" stroke="#3a414a" stroke-width="2" stroke-linecap="round" fill="none"/><path d="M5402.63 812.82a6 6 0 0 1 6-6h68.76a6 6 0 0 1 6 6v26.65a6 6 0 0 1-6 6h-68.77a6 6 0 0 1-6-6z" stroke="#000" stroke-opacity="0" fill="#fff" fill-opacity="0"/><use xlink:href="#c" transform="matrix(1,0,0,1,5407.633898717681,811.8175853018372) translate(-2.0061728395061635 14.222222222222218)"/><path d="M4838.83 812.82a6 6 0 0 1 6-6h550.2a6 6 0 0 1 6 6v27.48a6 6 0 0 1-6 6h-550.2a6 6 0 0 1-6-6z" stroke="#000" stroke-opacity="0" fill="#fff" fill-opacity="0"/><use xlink:href="#d" transform="matrix(1,0,0,1,4843.827151795629,811.8175853018372) translate(258.27777777777777 14.222222222222218)"/><path d="M5487.6 409.15a6 6 0 0 1 6-6h108.2a6 6 0 0 1 6 6v28a6 6 0 0 1-6 6h-108.2a6 6 0 0 1-6-6z" stroke="#000" stroke-opacity="0" fill="#fff" fill-opacity="0"/><use xlink:href="#e" transform="matrix(1,0,0,1,5492.603781934292,408.14960629921256) translate(4.537037037037045 23.208333333333332)"/><use xlink:href="#f" transform="matrix(1,0,0,1,5492.603781934292,408.14960629921256) translate(66.61111111111111 23.208333333333332)"/><path d="M5487.73 489.15a6 6 0 0 1 6-6h48.08a6 6 0 0 1 6 6v28a6 6 0 0 1-6 6h-48.07a6 6 0 0 1-6-6z" stroke="#000" stroke-opacity="0" fill="#fff" fill-opacity="0"/><use xlink:href="#g" transform="matrix(1,0,0,1,5492.730846223704,488.14960629921256) translate(20.135802469135804 19.65277777777778)"/><path d="M5488 530.72a6 6 0 0 1 6-6h48.08a6 6 0 0 1 6 6v28a6 6 0 0 1-6 6H5494a6 6 0 0 1-6-6z" stroke="#000" stroke-opacity="0" fill="#fff" fill-opacity="0"/><use xlink:href="#h" transform="matrix(1,0,0,1,5493.001080037444,529.7244094488187) translate(20.135802469135804 19.65277777777778)"/><path d="M5487.73 570.72a6 6 0 0 1 6-6h48.08a6 6 0 0 1 6 6v28a6 6 0 0 1-6 6h-48.07a6 6 0 0 1-6-6z" stroke="#000" stroke-opacity="0" fill="#fff" fill-opacity="0"/><use xlink:href="#i" transform="matrix(1,0,0,1,5492.730846223704,569.7244094488187) translate(20.135802469135804 19.65277777777778)"/><path d="M5547.8 499.15a6 6 0 0 1 6-6h8a6 6 0 0 1 6 6v8a6 6 0 0 1-6 6h-8a6 6 0 0 1-6-6z" stroke="#3a414a" fill="#b8f5ed"/><path d="M5547.8 539.94a6 6 0 0 1 6-6h8a6 6 0 0 1 6 6v8a6 6 0 0 1-6 6h-8a6 6 0 0 1-6-6z" stroke="#3a414a" fill="#c3f7c8"/><path d="M5548.08 580.72a6 6 0 0 1 6-6h8a6 6 0 0 1 6 6v8a6 6 0 0 1-6 6h-8a6 6 0 0 1-6-6z" stroke="#3a414a" fill="#fff7a1"/><path d="M5487.73 449.15a6 6 0 0 1 6-6h48.08a6 6 0 0 1 6 6v28a6 6 0 0 1-6 6h-48.07a6 6 0 0 1-6-6z" stroke="#000" stroke-opacity="0" fill="#fff" fill-opacity="0"/><use xlink:href="#j" transform="matrix(1,0,0,1,5492.730846223704,448.14960629921256) translate(7.79012345679012 19.65277777777778)"/><defs><path fill="#3a414a" d="M101-251c68 0 85 55 85 127S166 4 100 4C33 4 14-52 14-124c0-73 17-127 87-127zm-1 229c47 0 54-49 54-102s-4-102-53-102c-51 0-55 48-55 102 0 53 5 102 54 102" id="k"/><use transform="matrix(0.06790123456790123,0,0,0.06790123456790123,0,0)" xlink:href="#k" id="a"/><path fill="#3a414a" d="M27 0v-27h64v-190l-56 39v-29l58-41h29v221h61V0H27" id="l"/><use transform="matrix(0.06790123456790123,0,0,0.06790123456790123,0,0)" xlink:href="#l" id="b"/><path fill="#3a414a" d="M140-251c81 0 123 46 123 126C263-46 219 4 140 4 59 4 17-45 17-125s42-126 123-126zm0 227c63 0 89-41 89-101s-29-99-89-99c-61 0-89 39-89 99S79-25 140-24" id="m"/><path fill="#3a414a" d="M96-169c-40 0-48 33-48 73s9 75 48 75c24 0 41-14 43-38l32 2c-6 37-31 61-74 61-59 0-76-41-82-99-10-93 101-131 147-64 4 7 5 14 7 22l-32 3c-4-21-16-35-41-35" id="n"/><path fill="#3a414a" d="M84 4C-5 8 30-112 23-190h32v120c0 31 7 50 39 49 72-2 45-101 50-169h31l1 190h-30c-1-10 1-25-2-33-11 22-28 36-60 37" id="o"/><path fill="#3a414a" d="M115-194c55 1 70 41 70 98S169 2 115 4C84 4 66-9 55-30l1 105H24l-1-265h31l2 30c10-21 28-34 59-34zm-8 174c40 0 45-34 45-75s-6-73-45-74c-42 0-51 32-51 76 0 43 10 73 51 73" id="p"/><path fill="#3a414a" d="M24-231v-30h32v30H24zM24 0v-190h32V0H24" id="q"/><path fill="#3a414a" d="M100-194c63 0 86 42 84 106H49c0 40 14 67 53 68 26 1 43-12 49-29l28 8c-11 28-37 45-77 45C44 4 14-33 15-96c1-61 26-98 85-98zm52 81c6-60-76-77-97-28-3 7-6 17-6 28h103" id="r"/><path fill="#3a414a" d="M85-194c31 0 48 13 60 33l-1-100h32l1 261h-30c-2-10 0-23-3-31C134-8 116 4 85 4 32 4 16-35 15-94c0-66 23-100 70-100zm9 24c-40 0-46 34-46 75 0 40 6 74 45 74 42 0 51-32 51-76 0-42-9-74-50-73" id="s"/><g id="c"><use transform="matrix(0.0493827160493827,0,0,0.0493827160493827,0,0)" xlink:href="#m"/><use transform="matrix(0.0493827160493827,0,0,0.0493827160493827,13.827160493827156,0)" xlink:href="#n"/><use transform="matrix(0.0493827160493827,0,0,0.0493827160493827,22.716049382716044,0)" xlink:href="#n"/><use transform="matrix(0.0493827160493827,0,0,0.0493827160493827,31.60493827160493,0)" xlink:href="#o"/><use transform="matrix(0.0493827160493827,0,0,0.0493827160493827,41.48148148148147,0)" xlink:href="#p"/><use transform="matrix(0.0493827160493827,0,0,0.0493827160493827,51.358024691358004,0)" xlink:href="#q"/><use transform="matrix(0.0493827160493827,0,0,0.0493827160493827,55.25925925925924,0)" xlink:href="#r"/><use transform="matrix(0.0493827160493827,0,0,0.0493827160493827,65.13580246913578,0)" xlink:href="#s"/></g><path fill="#3a414a" d="M63-220v92h138v28H63V0H30v-248h175v28H63" id="t"/><path fill="#3a414a" d="M114-163C36-179 61-72 57 0H25l-1-190h30c1 12-1 29 2 39 6-27 23-49 58-41v29" id="u"/><g id="d"><use transform="matrix(0.0493827160493827,0,0,0.0493827160493827,0,0)" xlink:href="#t"/><use transform="matrix(0.0493827160493827,0,0,0.0493827160493827,10.814814814814811,0)" xlink:href="#u"/><use transform="matrix(0.0493827160493827,0,0,0.0493827160493827,16.691358024691354,0)" xlink:href="#r"/><use transform="matrix(0.0493827160493827,0,0,0.0493827160493827,26.56790123456789,0)" xlink:href="#r"/></g><g id="e"><use transform="matrix(0.07407407407407407,0,0,0.07407407407407407,0,0)" xlink:href="#t"/><use transform="matrix(0.07407407407407407,0,0,0.07407407407407407,16.22222222222222,0)" xlink:href="#u"/><use transform="matrix(0.07407407407407407,0,0,0.07407407407407407,25.037037037037038,0)" xlink:href="#r"/><use transform="matrix(0.07407407407407407,0,0,0.07407407407407407,39.85185185185185,0)" xlink:href="#r"/></g><path fill="#3a414a" d="M24 0v-261h32V0H24" id="v"/><path fill="#3a414a" d="M135-143c-3-34-86-38-87 0 15 53 115 12 119 90S17 21 10-45l28-5c4 36 97 45 98 0-10-56-113-15-118-90-4-57 82-63 122-42 12 7 21 19 24 35" id="w"/><path fill="#3a414a" d="M59-47c-2 24 18 29 38 22v24C64 9 27 4 27-40v-127H5v-23h24l9-43h21v43h35v23H59v120" id="x"/><path fill="#3a414a" d="M33-154v-36h34v36H33zM33 0v-36h34V0H33" id="y"/><g id="f"><use transform="matrix(0.07407407407407407,0,0,0.07407407407407407,0,0)" xlink:href="#v"/><use transform="matrix(0.07407407407407407,0,0,0.07407407407407407,5.851851851851851,0)" xlink:href="#q"/><use transform="matrix(0.07407407407407407,0,0,0.07407407407407407,11.703703703703702,0)" xlink:href="#w"/><use transform="matrix(0.07407407407407407,0,0,0.07407407407407407,25.037037037037035,0)" xlink:href="#x"/><use transform="matrix(0.07407407407407407,0,0,0.07407407407407407,32.44444444444444,0)" xlink:href="#y"/></g><path fill="#3a414a" d="M110-160c48 1 74 30 74 79 0 53-28 85-80 85-65 0-83-55-86-122-5-90 50-162 133-122 14 7 22 21 27 39l-31 6c-5-40-67-38-82-6-9 19-15 44-15 74 11-20 30-34 60-33zm-7 138c34 0 49-23 49-58s-16-56-50-56c-29 0-50 16-49 49 1 36 15 65 50 65" id="z"/><path fill="#3a414a" d="M155-56V0h-30v-56H8v-25l114-167h33v167h35v25h-35zm-30-156c-27 46-58 90-88 131h88v-131" id="A"/><g id="g"><use transform="matrix(0.06172839506172839,0,0,0.06172839506172839,0,0)" xlink:href="#z"/><use transform="matrix(0.06172839506172839,0,0,0.06172839506172839,12.345679012345679,0)" xlink:href="#A"/><use transform="matrix(0.06172839506172839,0,0,0.06172839506172839,24.691358024691358,0)" xlink:href="#y"/></g><path fill="#3a414a" d="M126-127c33 6 58 20 58 59 0 88-139 92-164 29-3-8-5-16-6-25l32-3c6 27 21 44 54 44 32 0 52-15 52-46 0-38-36-46-79-43v-28c39 1 72-4 72-42 0-27-17-43-46-43-28 0-47 15-49 41l-32-3c6-42 35-63 81-64 48-1 79 21 79 65 0 36-21 52-52 59" id="B"/><path fill="#3a414a" d="M101-251c82-7 93 87 43 132L82-64C71-53 59-42 53-27h129V0H18c2-99 128-94 128-182 0-28-16-43-45-43s-46 15-49 41l-32-3c6-41 34-60 81-64" id="C"/><g id="h"><use transform="matrix(0.06172839506172839,0,0,0.06172839506172839,0,0)" xlink:href="#B"/><use transform="matrix(0.06172839506172839,0,0,0.06172839506172839,12.345679012345679,0)" xlink:href="#C"/><use transform="matrix(0.06172839506172839,0,0,0.06172839506172839,24.691358024691358,0)" xlink:href="#y"/></g><g id="i"><use transform="matrix(0.06172839506172839,0,0,0.06172839506172839,0,0)" xlink:href="#l"/><use transform="matrix(0.06172839506172839,0,0,0.06172839506172839,12.345679012345679,0)" xlink:href="#z"/><use transform="matrix(0.06172839506172839,0,0,0.06172839506172839,24.691358024691358,0)" xlink:href="#y"/></g><path fill="#3a414a" d="M134-131c28 9 52 24 51 62-1 50-34 73-85 73S17-19 16-69c0-36 21-54 49-61-75-25-45-126 34-121 46 3 78 18 79 63 0 33-17 51-44 57zm-34-11c31 1 46-15 46-44 0-28-17-43-47-42-29 0-46 13-45 42 1 28 16 44 46 44zm1 122c35 0 51-18 51-52 0-30-18-46-53-46-33 0-51 17-51 47 0 34 19 51 53 51" id="D"/><g id="j"><use transform="matrix(0.06172839506172839,0,0,0.06172839506172839,0,0)" xlink:href="#l"/><use transform="matrix(0.06172839506172839,0,0,0.06172839506172839,12.345679012345679,0)" xlink:href="#C"/><use transform="matrix(0.06172839506172839,0,0,0.06172839506172839,24.691358024691358,0)" xlink:href="#D"/><use transform="matrix(0.06172839506172839,0,0,0.06172839506172839,37.03703703703704,0)" xlink:href="#y"/></g></defs></g></svg>