<?xml version="1.0" encoding="utf-8" standalone="no"?>
<!DOCTYPE svg PUBLIC "-//W3C//DTD SVG 1.1//EN"
  "http://www.w3.org/Graphics/SVG/1.1/DTD/svg11.dtd">
<svg height="226.08pt" version="1.1" viewBox="0 0 565.92 226.08" width="565.92pt" xmlns="http://www.w3.org/2000/svg" xmlns:xlink="http://www.w3.org/1999/xlink">
 <metadata>
  <rdf:RDF xmlns:cc="http://creativecommons.org/ns#" xmlns:dc="http://purl.org/dc/elements/1.1/" xmlns:rdf="http://www.w3.org/1999/02/22-rdf-syntax-ns#">
   <cc:Work>
    <dc:type rdf:resource="http://purl.org/dc/dcmitype/StillImage"/>
    <dc:date>2024-07-13T16:47:44.391827</dc:date>
    <dc:format>image/svg+xml</dc:format>
    <dc:creator>
     <cc:Agent>
      <dc:title>Matplotlib v3.4.3, https://matplotlib.org/</dc:title>
     </cc:Agent>
    </dc:creator>
   </cc:Work>
  </rdf:RDF>
 </metadata>
 <defs>
  <style type="text/css">*{stroke-linecap:butt;stroke-linejoin:round;}</style>
 </defs>
 <g id="figure_1">
  <g id="patch_1">
   <path d="M 0 226.08 
L 565.92 226.08 
L 565.92 0 
L 0 0 
z
" style="fill:#ffffff;"/>
  </g>
  <g id="axes_1">
   <g id="patch_2">
    <path d="M 70.74 201.2112 
L 509.328 201.2112 
L 509.328 27.1296 
L 70.74 27.1296 
z
" style="fill:#ffffff;"/>
   </g>
   <g id="matplotlib.axis_1">
    <g id="xtick_1">
     <g id="line2d_1">
      <defs>
       <path d="M 0 0 
L 0 3.5 
" id="m910e594d80" style="stroke:#000000;stroke-width:0.8;"/>
      </defs>
      <g>
       <use style="stroke:#000000;stroke-width:0.8;" x="89.025986" xlink:href="#m910e594d80" y="201.2112"/>
      </g>
     </g>
     <g id="text_1">
      <!-- 4 -->
      <g transform="translate(85.844736 215.809638)scale(0.1 -0.1)">
       <defs>
        <path d="M 2419 4116 
L 825 1625 
L 2419 1625 
L 2419 4116 
z
M 2253 4666 
L 3047 4666 
L 3047 1625 
L 3713 1625 
L 3713 1100 
L 3047 1100 
L 3047 0 
L 2419 0 
L 2419 1100 
L 313 1100 
L 313 1709 
L 2253 4666 
z
" id="DejaVuSans-34" transform="scale(0.015625)"/>
       </defs>
       <use xlink:href="#DejaVuSans-34"/>
      </g>
     </g>
    </g>
    <g id="xtick_2">
     <g id="line2d_2">
      <g>
       <use style="stroke:#000000;stroke-width:0.8;" x="117.741417" xlink:href="#m910e594d80" y="201.2112"/>
      </g>
     </g>
     <g id="text_2">
      <!-- 5 -->
      <g transform="translate(114.560167 215.809638)scale(0.1 -0.1)">
       <defs>
        <path d="M 691 4666 
L 3169 4666 
L 3169 4134 
L 1269 4134 
L 1269 2991 
Q 1406 3038 1543 3061 
Q 1681 3084 1819 3084 
Q 2600 3084 3056 2656 
Q 3513 2228 3513 1497 
Q 3513 744 3044 326 
Q 2575 -91 1722 -91 
Q 1428 -91 1123 -41 
Q 819 9 494 109 
L 494 744 
Q 775 591 1075 516 
Q 1375 441 1709 441 
Q 2250 441 2565 725 
Q 2881 1009 2881 1497 
Q 2881 1984 2565 2268 
Q 2250 2553 1709 2553 
Q 1456 2553 1204 2497 
Q 953 2441 691 2322 
L 691 4666 
z
" id="DejaVuSans-35" transform="scale(0.015625)"/>
       </defs>
       <use xlink:href="#DejaVuSans-35"/>
      </g>
     </g>
    </g>
    <g id="xtick_3">
     <g id="line2d_3">
      <g>
       <use style="stroke:#000000;stroke-width:0.8;" x="146.456847" xlink:href="#m910e594d80" y="201.2112"/>
      </g>
     </g>
     <g id="text_3">
      <!-- 6 -->
      <g transform="translate(143.275597 215.809638)scale(0.1 -0.1)">
       <defs>
        <path d="M 2113 2584 
Q 1688 2584 1439 2293 
Q 1191 2003 1191 1497 
Q 1191 994 1439 701 
Q 1688 409 2113 409 
Q 2538 409 2786 701 
Q 3034 994 3034 1497 
Q 3034 2003 2786 2293 
Q 2538 2584 2113 2584 
z
M 3366 4563 
L 3366 3988 
Q 3128 4100 2886 4159 
Q 2644 4219 2406 4219 
Q 1781 4219 1451 3797 
Q 1122 3375 1075 2522 
Q 1259 2794 1537 2939 
Q 1816 3084 2150 3084 
Q 2853 3084 3261 2657 
Q 3669 2231 3669 1497 
Q 3669 778 3244 343 
Q 2819 -91 2113 -91 
Q 1303 -91 875 529 
Q 447 1150 447 2328 
Q 447 3434 972 4092 
Q 1497 4750 2381 4750 
Q 2619 4750 2861 4703 
Q 3103 4656 3366 4563 
z
" id="DejaVuSans-36" transform="scale(0.015625)"/>
       </defs>
       <use xlink:href="#DejaVuSans-36"/>
      </g>
     </g>
    </g>
    <g id="xtick_4">
     <g id="line2d_4">
      <g>
       <use style="stroke:#000000;stroke-width:0.8;" x="175.172278" xlink:href="#m910e594d80" y="201.2112"/>
      </g>
     </g>
     <g id="text_4">
      <!-- 7 -->
      <g transform="translate(171.991028 215.809638)scale(0.1 -0.1)">
       <defs>
        <path d="M 525 4666 
L 3525 4666 
L 3525 4397 
L 1831 0 
L 1172 0 
L 2766 4134 
L 525 4134 
L 525 4666 
z
" id="DejaVuSans-37" transform="scale(0.015625)"/>
       </defs>
       <use xlink:href="#DejaVuSans-37"/>
      </g>
     </g>
    </g>
    <g id="xtick_5">
     <g id="line2d_5">
      <g>
       <use style="stroke:#000000;stroke-width:0.8;" x="203.887708" xlink:href="#m910e594d80" y="201.2112"/>
      </g>
     </g>
     <g id="text_5">
      <!-- 8 -->
      <g transform="translate(200.706458 215.809638)scale(0.1 -0.1)">
       <defs>
        <path d="M 2034 2216 
Q 1584 2216 1326 1975 
Q 1069 1734 1069 1313 
Q 1069 891 1326 650 
Q 1584 409 2034 409 
Q 2484 409 2743 651 
Q 3003 894 3003 1313 
Q 3003 1734 2745 1975 
Q 2488 2216 2034 2216 
z
M 1403 2484 
Q 997 2584 770 2862 
Q 544 3141 544 3541 
Q 544 4100 942 4425 
Q 1341 4750 2034 4750 
Q 2731 4750 3128 4425 
Q 3525 4100 3525 3541 
Q 3525 3141 3298 2862 
Q 3072 2584 2669 2484 
Q 3125 2378 3379 2068 
Q 3634 1759 3634 1313 
Q 3634 634 3220 271 
Q 2806 -91 2034 -91 
Q 1263 -91 848 271 
Q 434 634 434 1313 
Q 434 1759 690 2068 
Q 947 2378 1403 2484 
z
M 1172 3481 
Q 1172 3119 1398 2916 
Q 1625 2713 2034 2713 
Q 2441 2713 2670 2916 
Q 2900 3119 2900 3481 
Q 2900 3844 2670 4047 
Q 2441 4250 2034 4250 
Q 1625 4250 1398 4047 
Q 1172 3844 1172 3481 
z
" id="DejaVuSans-38" transform="scale(0.015625)"/>
       </defs>
       <use xlink:href="#DejaVuSans-38"/>
      </g>
     </g>
    </g>
    <g id="xtick_6">
     <g id="line2d_6">
      <g>
       <use style="stroke:#000000;stroke-width:0.8;" x="232.603139" xlink:href="#m910e594d80" y="201.2112"/>
      </g>
     </g>
     <g id="text_6">
      <!-- 9 -->
      <g transform="translate(229.421889 215.809638)scale(0.1 -0.1)">
       <defs>
        <path d="M 703 97 
L 703 672 
Q 941 559 1184 500 
Q 1428 441 1663 441 
Q 2288 441 2617 861 
Q 2947 1281 2994 2138 
Q 2813 1869 2534 1725 
Q 2256 1581 1919 1581 
Q 1219 1581 811 2004 
Q 403 2428 403 3163 
Q 403 3881 828 4315 
Q 1253 4750 1959 4750 
Q 2769 4750 3195 4129 
Q 3622 3509 3622 2328 
Q 3622 1225 3098 567 
Q 2575 -91 1691 -91 
Q 1453 -91 1209 -44 
Q 966 3 703 97 
z
M 1959 2075 
Q 2384 2075 2632 2365 
Q 2881 2656 2881 3163 
Q 2881 3666 2632 3958 
Q 2384 4250 1959 4250 
Q 1534 4250 1286 3958 
Q 1038 3666 1038 3163 
Q 1038 2656 1286 2365 
Q 1534 2075 1959 2075 
z
" id="DejaVuSans-39" transform="scale(0.015625)"/>
       </defs>
       <use xlink:href="#DejaVuSans-39"/>
      </g>
     </g>
    </g>
    <g id="xtick_7">
     <g id="line2d_7">
      <g>
       <use style="stroke:#000000;stroke-width:0.8;" x="261.318569" xlink:href="#m910e594d80" y="201.2112"/>
      </g>
     </g>
     <g id="text_7">
      <!-- 10 -->
      <g transform="translate(254.956069 215.809638)scale(0.1 -0.1)">
       <defs>
        <path d="M 794 531 
L 1825 531 
L 1825 4091 
L 703 3866 
L 703 4441 
L 1819 4666 
L 2450 4666 
L 2450 531 
L 3481 531 
L 3481 0 
L 794 0 
L 794 531 
z
" id="DejaVuSans-31" transform="scale(0.015625)"/>
        <path d="M 2034 4250 
Q 1547 4250 1301 3770 
Q 1056 3291 1056 2328 
Q 1056 1369 1301 889 
Q 1547 409 2034 409 
Q 2525 409 2770 889 
Q 3016 1369 3016 2328 
Q 3016 3291 2770 3770 
Q 2525 4250 2034 4250 
z
M 2034 4750 
Q 2819 4750 3233 4129 
Q 3647 3509 3647 2328 
Q 3647 1150 3233 529 
Q 2819 -91 2034 -91 
Q 1250 -91 836 529 
Q 422 1150 422 2328 
Q 422 3509 836 4129 
Q 1250 4750 2034 4750 
z
" id="DejaVuSans-30" transform="scale(0.015625)"/>
       </defs>
       <use xlink:href="#DejaVuSans-31"/>
       <use x="63.623047" xlink:href="#DejaVuSans-30"/>
      </g>
     </g>
    </g>
    <g id="xtick_8">
     <g id="line2d_8">
      <g>
       <use style="stroke:#000000;stroke-width:0.8;" x="290.034" xlink:href="#m910e594d80" y="201.2112"/>
      </g>
     </g>
     <g id="text_8">
      <!-- 11 -->
      <g transform="translate(283.6715 215.809638)scale(0.1 -0.1)">
       <use xlink:href="#DejaVuSans-31"/>
       <use x="63.623047" xlink:href="#DejaVuSans-31"/>
      </g>
     </g>
    </g>
    <g id="xtick_9">
     <g id="line2d_9">
      <g>
       <use style="stroke:#000000;stroke-width:0.8;" x="318.749431" xlink:href="#m910e594d80" y="201.2112"/>
      </g>
     </g>
     <g id="text_9">
      <!-- 12 -->
      <g transform="translate(312.386931 215.809638)scale(0.1 -0.1)">
       <defs>
        <path d="M 1228 531 
L 3431 531 
L 3431 0 
L 469 0 
L 469 531 
Q 828 903 1448 1529 
Q 2069 2156 2228 2338 
Q 2531 2678 2651 2914 
Q 2772 3150 2772 3378 
Q 2772 3750 2511 3984 
Q 2250 4219 1831 4219 
Q 1534 4219 1204 4116 
Q 875 4013 500 3803 
L 500 4441 
Q 881 4594 1212 4672 
Q 1544 4750 1819 4750 
Q 2544 4750 2975 4387 
Q 3406 4025 3406 3419 
Q 3406 3131 3298 2873 
Q 3191 2616 2906 2266 
Q 2828 2175 2409 1742 
Q 1991 1309 1228 531 
z
" id="DejaVuSans-32" transform="scale(0.015625)"/>
       </defs>
       <use xlink:href="#DejaVuSans-31"/>
       <use x="63.623047" xlink:href="#DejaVuSans-32"/>
      </g>
     </g>
    </g>
    <g id="xtick_10">
     <g id="line2d_10">
      <g>
       <use style="stroke:#000000;stroke-width:0.8;" x="347.464861" xlink:href="#m910e594d80" y="201.2112"/>
      </g>
     </g>
     <g id="text_10">
      <!-- 13 -->
      <g transform="translate(341.102361 215.809638)scale(0.1 -0.1)">
       <defs>
        <path d="M 2597 2516 
Q 3050 2419 3304 2112 
Q 3559 1806 3559 1356 
Q 3559 666 3084 287 
Q 2609 -91 1734 -91 
Q 1441 -91 1130 -33 
Q 819 25 488 141 
L 488 750 
Q 750 597 1062 519 
Q 1375 441 1716 441 
Q 2309 441 2620 675 
Q 2931 909 2931 1356 
Q 2931 1769 2642 2001 
Q 2353 2234 1838 2234 
L 1294 2234 
L 1294 2753 
L 1863 2753 
Q 2328 2753 2575 2939 
Q 2822 3125 2822 3475 
Q 2822 3834 2567 4026 
Q 2313 4219 1838 4219 
Q 1578 4219 1281 4162 
Q 984 4106 628 3988 
L 628 4550 
Q 988 4650 1302 4700 
Q 1616 4750 1894 4750 
Q 2613 4750 3031 4423 
Q 3450 4097 3450 3541 
Q 3450 3153 3228 2886 
Q 3006 2619 2597 2516 
z
" id="DejaVuSans-33" transform="scale(0.015625)"/>
       </defs>
       <use xlink:href="#DejaVuSans-31"/>
       <use x="63.623047" xlink:href="#DejaVuSans-33"/>
      </g>
     </g>
    </g>
    <g id="xtick_11">
     <g id="line2d_11">
      <g>
       <use style="stroke:#000000;stroke-width:0.8;" x="376.180292" xlink:href="#m910e594d80" y="201.2112"/>
      </g>
     </g>
     <g id="text_11">
      <!-- 14 -->
      <g transform="translate(369.817792 215.809638)scale(0.1 -0.1)">
       <use xlink:href="#DejaVuSans-31"/>
       <use x="63.623047" xlink:href="#DejaVuSans-34"/>
      </g>
     </g>
    </g>
    <g id="xtick_12">
     <g id="line2d_12">
      <g>
       <use style="stroke:#000000;stroke-width:0.8;" x="404.895722" xlink:href="#m910e594d80" y="201.2112"/>
      </g>
     </g>
     <g id="text_12">
      <!-- 15 -->
      <g transform="translate(398.533222 215.809638)scale(0.1 -0.1)">
       <use xlink:href="#DejaVuSans-31"/>
       <use x="63.623047" xlink:href="#DejaVuSans-35"/>
      </g>
     </g>
    </g>
    <g id="xtick_13">
     <g id="line2d_13">
      <g>
       <use style="stroke:#000000;stroke-width:0.8;" x="433.611153" xlink:href="#m910e594d80" y="201.2112"/>
      </g>
     </g>
     <g id="text_13">
      <!-- 16 -->
      <g transform="translate(427.248653 215.809638)scale(0.1 -0.1)">
       <use xlink:href="#DejaVuSans-31"/>
       <use x="63.623047" xlink:href="#DejaVuSans-36"/>
      </g>
     </g>
    </g>
    <g id="xtick_14">
     <g id="line2d_14">
      <g>
       <use style="stroke:#000000;stroke-width:0.8;" x="462.326583" xlink:href="#m910e594d80" y="201.2112"/>
      </g>
     </g>
     <g id="text_14">
      <!-- 17 -->
      <g transform="translate(455.964083 215.809638)scale(0.1 -0.1)">
       <use xlink:href="#DejaVuSans-31"/>
       <use x="63.623047" xlink:href="#DejaVuSans-37"/>
      </g>
     </g>
    </g>
    <g id="xtick_15">
     <g id="line2d_15">
      <g>
       <use style="stroke:#000000;stroke-width:0.8;" x="491.042014" xlink:href="#m910e594d80" y="201.2112"/>
      </g>
     </g>
     <g id="text_15">
      <!-- 18 -->
      <g transform="translate(484.679514 215.809638)scale(0.1 -0.1)">
       <use xlink:href="#DejaVuSans-31"/>
       <use x="63.623047" xlink:href="#DejaVuSans-38"/>
      </g>
     </g>
    </g>
    <g id="text_16">
     <!-- Block Size (log$_2$(B)) -->
     <g transform="translate(241.784 229.489325)scale(0.1 -0.1)">
      <defs>
       <path d="M 1259 2228 
L 1259 519 
L 2272 519 
Q 2781 519 3026 730 
Q 3272 941 3272 1375 
Q 3272 1813 3026 2020 
Q 2781 2228 2272 2228 
L 1259 2228 
z
M 1259 4147 
L 1259 2741 
L 2194 2741 
Q 2656 2741 2882 2914 
Q 3109 3088 3109 3444 
Q 3109 3797 2882 3972 
Q 2656 4147 2194 4147 
L 1259 4147 
z
M 628 4666 
L 2241 4666 
Q 2963 4666 3353 4366 
Q 3744 4066 3744 3513 
Q 3744 3084 3544 2831 
Q 3344 2578 2956 2516 
Q 3422 2416 3680 2098 
Q 3938 1781 3938 1306 
Q 3938 681 3513 340 
Q 3088 0 2303 0 
L 628 0 
L 628 4666 
z
" id="DejaVuSans-42" transform="scale(0.015625)"/>
       <path d="M 603 4863 
L 1178 4863 
L 1178 0 
L 603 0 
L 603 4863 
z
" id="DejaVuSans-6c" transform="scale(0.015625)"/>
       <path d="M 1959 3097 
Q 1497 3097 1228 2736 
Q 959 2375 959 1747 
Q 959 1119 1226 758 
Q 1494 397 1959 397 
Q 2419 397 2687 759 
Q 2956 1122 2956 1747 
Q 2956 2369 2687 2733 
Q 2419 3097 1959 3097 
z
M 1959 3584 
Q 2709 3584 3137 3096 
Q 3566 2609 3566 1747 
Q 3566 888 3137 398 
Q 2709 -91 1959 -91 
Q 1206 -91 779 398 
Q 353 888 353 1747 
Q 353 2609 779 3096 
Q 1206 3584 1959 3584 
z
" id="DejaVuSans-6f" transform="scale(0.015625)"/>
       <path d="M 3122 3366 
L 3122 2828 
Q 2878 2963 2633 3030 
Q 2388 3097 2138 3097 
Q 1578 3097 1268 2742 
Q 959 2388 959 1747 
Q 959 1106 1268 751 
Q 1578 397 2138 397 
Q 2388 397 2633 464 
Q 2878 531 3122 666 
L 3122 134 
Q 2881 22 2623 -34 
Q 2366 -91 2075 -91 
Q 1284 -91 818 406 
Q 353 903 353 1747 
Q 353 2603 823 3093 
Q 1294 3584 2113 3584 
Q 2378 3584 2631 3529 
Q 2884 3475 3122 3366 
z
" id="DejaVuSans-63" transform="scale(0.015625)"/>
       <path d="M 581 4863 
L 1159 4863 
L 1159 1991 
L 2875 3500 
L 3609 3500 
L 1753 1863 
L 3688 0 
L 2938 0 
L 1159 1709 
L 1159 0 
L 581 0 
L 581 4863 
z
" id="DejaVuSans-6b" transform="scale(0.015625)"/>
       <path id="DejaVuSans-20" transform="scale(0.015625)"/>
       <path d="M 3425 4513 
L 3425 3897 
Q 3066 4069 2747 4153 
Q 2428 4238 2131 4238 
Q 1616 4238 1336 4038 
Q 1056 3838 1056 3469 
Q 1056 3159 1242 3001 
Q 1428 2844 1947 2747 
L 2328 2669 
Q 3034 2534 3370 2195 
Q 3706 1856 3706 1288 
Q 3706 609 3251 259 
Q 2797 -91 1919 -91 
Q 1588 -91 1214 -16 
Q 841 59 441 206 
L 441 856 
Q 825 641 1194 531 
Q 1563 422 1919 422 
Q 2459 422 2753 634 
Q 3047 847 3047 1241 
Q 3047 1584 2836 1778 
Q 2625 1972 2144 2069 
L 1759 2144 
Q 1053 2284 737 2584 
Q 422 2884 422 3419 
Q 422 4038 858 4394 
Q 1294 4750 2059 4750 
Q 2388 4750 2728 4690 
Q 3069 4631 3425 4513 
z
" id="DejaVuSans-53" transform="scale(0.015625)"/>
       <path d="M 603 3500 
L 1178 3500 
L 1178 0 
L 603 0 
L 603 3500 
z
M 603 4863 
L 1178 4863 
L 1178 4134 
L 603 4134 
L 603 4863 
z
" id="DejaVuSans-69" transform="scale(0.015625)"/>
       <path d="M 353 3500 
L 3084 3500 
L 3084 2975 
L 922 459 
L 3084 459 
L 3084 0 
L 275 0 
L 275 525 
L 2438 3041 
L 353 3041 
L 353 3500 
z
" id="DejaVuSans-7a" transform="scale(0.015625)"/>
       <path d="M 3597 1894 
L 3597 1613 
L 953 1613 
Q 991 1019 1311 708 
Q 1631 397 2203 397 
Q 2534 397 2845 478 
Q 3156 559 3463 722 
L 3463 178 
Q 3153 47 2828 -22 
Q 2503 -91 2169 -91 
Q 1331 -91 842 396 
Q 353 884 353 1716 
Q 353 2575 817 3079 
Q 1281 3584 2069 3584 
Q 2775 3584 3186 3129 
Q 3597 2675 3597 1894 
z
M 3022 2063 
Q 3016 2534 2758 2815 
Q 2500 3097 2075 3097 
Q 1594 3097 1305 2825 
Q 1016 2553 972 2059 
L 3022 2063 
z
" id="DejaVuSans-65" transform="scale(0.015625)"/>
       <path d="M 1984 4856 
Q 1566 4138 1362 3434 
Q 1159 2731 1159 2009 
Q 1159 1288 1364 580 
Q 1569 -128 1984 -844 
L 1484 -844 
Q 1016 -109 783 600 
Q 550 1309 550 2009 
Q 550 2706 781 3412 
Q 1013 4119 1484 4856 
L 1984 4856 
z
" id="DejaVuSans-28" transform="scale(0.015625)"/>
       <path d="M 2906 1791 
Q 2906 2416 2648 2759 
Q 2391 3103 1925 3103 
Q 1463 3103 1205 2759 
Q 947 2416 947 1791 
Q 947 1169 1205 825 
Q 1463 481 1925 481 
Q 2391 481 2648 825 
Q 2906 1169 2906 1791 
z
M 3481 434 
Q 3481 -459 3084 -895 
Q 2688 -1331 1869 -1331 
Q 1566 -1331 1297 -1286 
Q 1028 -1241 775 -1147 
L 775 -588 
Q 1028 -725 1275 -790 
Q 1522 -856 1778 -856 
Q 2344 -856 2625 -561 
Q 2906 -266 2906 331 
L 2906 616 
Q 2728 306 2450 153 
Q 2172 0 1784 0 
Q 1141 0 747 490 
Q 353 981 353 1791 
Q 353 2603 747 3093 
Q 1141 3584 1784 3584 
Q 2172 3584 2450 3431 
Q 2728 3278 2906 2969 
L 2906 3500 
L 3481 3500 
L 3481 434 
z
" id="DejaVuSans-67" transform="scale(0.015625)"/>
       <path d="M 513 4856 
L 1013 4856 
Q 1481 4119 1714 3412 
Q 1947 2706 1947 2009 
Q 1947 1309 1714 600 
Q 1481 -109 1013 -844 
L 513 -844 
Q 928 -128 1133 580 
Q 1338 1288 1338 2009 
Q 1338 2731 1133 3434 
Q 928 4138 513 4856 
z
" id="DejaVuSans-29" transform="scale(0.015625)"/>
      </defs>
      <use transform="translate(0 0.015625)" xlink:href="#DejaVuSans-42"/>
      <use transform="translate(68.603516 0.015625)" xlink:href="#DejaVuSans-6c"/>
      <use transform="translate(96.386719 0.015625)" xlink:href="#DejaVuSans-6f"/>
      <use transform="translate(157.568359 0.015625)" xlink:href="#DejaVuSans-63"/>
      <use transform="translate(212.548828 0.015625)" xlink:href="#DejaVuSans-6b"/>
      <use transform="translate(270.458984 0.015625)" xlink:href="#DejaVuSans-20"/>
      <use transform="translate(302.246094 0.015625)" xlink:href="#DejaVuSans-53"/>
      <use transform="translate(365.722656 0.015625)" xlink:href="#DejaVuSans-69"/>
      <use transform="translate(393.505859 0.015625)" xlink:href="#DejaVuSans-7a"/>
      <use transform="translate(445.996094 0.015625)" xlink:href="#DejaVuSans-65"/>
      <use transform="translate(507.519531 0.015625)" xlink:href="#DejaVuSans-20"/>
      <use transform="translate(539.306641 0.015625)" xlink:href="#DejaVuSans-28"/>
      <use transform="translate(578.320312 0.015625)" xlink:href="#DejaVuSans-6c"/>
      <use transform="translate(606.103516 0.015625)" xlink:href="#DejaVuSans-6f"/>
      <use transform="translate(667.285156 0.015625)" xlink:href="#DejaVuSans-67"/>
      <use transform="translate(731.71875 -16.390625)scale(0.7)" xlink:href="#DejaVuSans-32"/>
      <use transform="translate(778.989258 0.015625)" xlink:href="#DejaVuSans-28"/>
      <use transform="translate(818.00293 0.015625)" xlink:href="#DejaVuSans-42"/>
      <use transform="translate(886.606445 0.015625)" xlink:href="#DejaVuSans-29"/>
      <use transform="translate(925.620117 0.015625)" xlink:href="#DejaVuSans-29"/>
     </g>
    </g>
   </g>
   <g id="matplotlib.axis_2">
    <g id="ytick_1">
     <g id="line2d_16">
      <path clip-path="url(#p457f70f2fc)" d="M 70.74 197.186126 
L 509.328 197.186126 
" style="fill:none;stroke:#b0b0b0;stroke-dasharray:1.85,0.8;stroke-dashoffset:0;stroke-width:0.5;"/>
     </g>
     <g id="line2d_17">
      <defs>
       <path d="M 0 0 
L -3.5 0 
" id="mf532ff1bef" style="stroke:#000000;stroke-width:0.8;"/>
      </defs>
      <g>
       <use style="stroke:#000000;stroke-width:0.8;" x="70.74" xlink:href="#mf532ff1bef" y="197.186126"/>
      </g>
     </g>
     <g id="text_17">
      <!-- $\mathdefault{10^{2}}$ -->
      <g transform="translate(46.14 200.985345)scale(0.1 -0.1)">
       <use transform="translate(0 0.765625)" xlink:href="#DejaVuSans-31"/>
       <use transform="translate(63.623047 0.765625)" xlink:href="#DejaVuSans-30"/>
       <use transform="translate(128.203125 39.046875)scale(0.7)" xlink:href="#DejaVuSans-32"/>
      </g>
     </g>
    </g>
    <g id="ytick_2">
     <g id="line2d_18">
      <path clip-path="url(#p457f70f2fc)" d="M 70.74 154.671994 
L 509.328 154.671994 
" style="fill:none;stroke:#b0b0b0;stroke-dasharray:1.85,0.8;stroke-dashoffset:0;stroke-width:0.5;"/>
     </g>
     <g id="line2d_19">
      <g>
       <use style="stroke:#000000;stroke-width:0.8;" x="70.74" xlink:href="#mf532ff1bef" y="154.671994"/>
      </g>
     </g>
     <g id="text_18">
      <!-- $\mathdefault{10^{3}}$ -->
      <g transform="translate(46.14 158.471213)scale(0.1 -0.1)">
       <use transform="translate(0 0.765625)" xlink:href="#DejaVuSans-31"/>
       <use transform="translate(63.623047 0.765625)" xlink:href="#DejaVuSans-30"/>
       <use transform="translate(128.203125 39.046875)scale(0.7)" xlink:href="#DejaVuSans-33"/>
      </g>
     </g>
    </g>
    <g id="ytick_3">
     <g id="line2d_20">
      <path clip-path="url(#p457f70f2fc)" d="M 70.74 112.157863 
L 509.328 112.157863 
" style="fill:none;stroke:#b0b0b0;stroke-dasharray:1.85,0.8;stroke-dashoffset:0;stroke-width:0.5;"/>
     </g>
     <g id="line2d_21">
      <g>
       <use style="stroke:#000000;stroke-width:0.8;" x="70.74" xlink:href="#mf532ff1bef" y="112.157863"/>
      </g>
     </g>
     <g id="text_19">
      <!-- $\mathdefault{10^{4}}$ -->
      <g transform="translate(46.14 115.957082)scale(0.1 -0.1)">
       <use transform="translate(0 0.684375)" xlink:href="#DejaVuSans-31"/>
       <use transform="translate(63.623047 0.684375)" xlink:href="#DejaVuSans-30"/>
       <use transform="translate(128.203125 38.965625)scale(0.7)" xlink:href="#DejaVuSans-34"/>
      </g>
     </g>
    </g>
    <g id="ytick_4">
     <g id="line2d_22">
      <path clip-path="url(#p457f70f2fc)" d="M 70.74 69.643731 
L 509.328 69.643731 
" style="fill:none;stroke:#b0b0b0;stroke-dasharray:1.85,0.8;stroke-dashoffset:0;stroke-width:0.5;"/>
     </g>
     <g id="line2d_23">
      <g>
       <use style="stroke:#000000;stroke-width:0.8;" x="70.74" xlink:href="#mf532ff1bef" y="69.643731"/>
      </g>
     </g>
     <g id="text_20">
      <!-- $\mathdefault{10^{5}}$ -->
      <g transform="translate(46.14 73.44295)scale(0.1 -0.1)">
       <use transform="translate(0 0.684375)" xlink:href="#DejaVuSans-31"/>
       <use transform="translate(63.623047 0.684375)" xlink:href="#DejaVuSans-30"/>
       <use transform="translate(128.203125 38.965625)scale(0.7)" xlink:href="#DejaVuSans-35"/>
      </g>
     </g>
    </g>
    <g id="ytick_5">
     <g id="line2d_24">
      <path clip-path="url(#p457f70f2fc)" d="M 70.74 27.1296 
L 509.328 27.1296 
" style="fill:none;stroke:#b0b0b0;stroke-dasharray:1.85,0.8;stroke-dashoffset:0;stroke-width:0.5;"/>
     </g>
     <g id="line2d_25">
      <g>
       <use style="stroke:#000000;stroke-width:0.8;" x="70.74" xlink:href="#mf532ff1bef" y="27.1296"/>
      </g>
     </g>
     <g id="text_21">
      <!-- $\mathdefault{10^{6}}$ -->
      <g transform="translate(46.14 30.928819)scale(0.1 -0.1)">
       <use transform="translate(0 0.765625)" xlink:href="#DejaVuSans-31"/>
       <use transform="translate(63.623047 0.765625)" xlink:href="#DejaVuSans-30"/>
       <use transform="translate(128.203125 39.046875)scale(0.7)" xlink:href="#DejaVuSans-36"/>
      </g>
     </g>
    </g>
    <g id="ytick_6">
     <g id="line2d_26">
      <path clip-path="url(#p457f70f2fc)" d="M 70.74 199.131466 
L 509.328 199.131466 
" style="fill:none;stroke:#b0b0b0;stroke-dasharray:1.85,0.8;stroke-dashoffset:0;stroke-width:0.5;"/>
     </g>
     <g id="line2d_27">
      <defs>
       <path d="M 0 0 
L -2 0 
" id="m0eb1ceab79" style="stroke:#000000;stroke-width:0.6;"/>
      </defs>
      <g>
       <use style="stroke:#000000;stroke-width:0.6;" x="70.74" xlink:href="#m0eb1ceab79" y="199.131466"/>
      </g>
     </g>
    </g>
    <g id="ytick_7">
     <g id="line2d_28">
      <path clip-path="url(#p457f70f2fc)" d="M 70.74 184.388097 
L 509.328 184.388097 
" style="fill:none;stroke:#b0b0b0;stroke-dasharray:1.85,0.8;stroke-dashoffset:0;stroke-width:0.5;"/>
     </g>
     <g id="line2d_29">
      <g>
       <use style="stroke:#000000;stroke-width:0.6;" x="70.74" xlink:href="#m0eb1ceab79" y="184.388097"/>
      </g>
     </g>
    </g>
    <g id="ytick_8">
     <g id="line2d_30">
      <path clip-path="url(#p457f70f2fc)" d="M 70.74 176.90173 
L 509.328 176.90173 
" style="fill:none;stroke:#b0b0b0;stroke-dasharray:1.85,0.8;stroke-dashoffset:0;stroke-width:0.5;"/>
     </g>
     <g id="line2d_31">
      <g>
       <use style="stroke:#000000;stroke-width:0.6;" x="70.74" xlink:href="#m0eb1ceab79" y="176.90173"/>
      </g>
     </g>
    </g>
    <g id="ytick_9">
     <g id="line2d_32">
      <path clip-path="url(#p457f70f2fc)" d="M 70.74 171.590068 
L 509.328 171.590068 
" style="fill:none;stroke:#b0b0b0;stroke-dasharray:1.85,0.8;stroke-dashoffset:0;stroke-width:0.5;"/>
     </g>
     <g id="line2d_33">
      <g>
       <use style="stroke:#000000;stroke-width:0.6;" x="70.74" xlink:href="#m0eb1ceab79" y="171.590068"/>
      </g>
     </g>
    </g>
    <g id="ytick_10">
     <g id="line2d_34">
      <path clip-path="url(#p457f70f2fc)" d="M 70.74 167.470023 
L 509.328 167.470023 
" style="fill:none;stroke:#b0b0b0;stroke-dasharray:1.85,0.8;stroke-dashoffset:0;stroke-width:0.5;"/>
     </g>
     <g id="line2d_35">
      <g>
       <use style="stroke:#000000;stroke-width:0.6;" x="70.74" xlink:href="#m0eb1ceab79" y="167.470023"/>
      </g>
     </g>
    </g>
    <g id="ytick_11">
     <g id="line2d_36">
      <path clip-path="url(#p457f70f2fc)" d="M 70.74 164.103701 
L 509.328 164.103701 
" style="fill:none;stroke:#b0b0b0;stroke-dasharray:1.85,0.8;stroke-dashoffset:0;stroke-width:0.5;"/>
     </g>
     <g id="line2d_37">
      <g>
       <use style="stroke:#000000;stroke-width:0.6;" x="70.74" xlink:href="#m0eb1ceab79" y="164.103701"/>
      </g>
     </g>
    </g>
    <g id="ytick_12">
     <g id="line2d_38">
      <path clip-path="url(#p457f70f2fc)" d="M 70.74 161.257517 
L 509.328 161.257517 
" style="fill:none;stroke:#b0b0b0;stroke-dasharray:1.85,0.8;stroke-dashoffset:0;stroke-width:0.5;"/>
     </g>
     <g id="line2d_39">
      <g>
       <use style="stroke:#000000;stroke-width:0.6;" x="70.74" xlink:href="#m0eb1ceab79" y="161.257517"/>
      </g>
     </g>
    </g>
    <g id="ytick_13">
     <g id="line2d_40">
      <path clip-path="url(#p457f70f2fc)" d="M 70.74 158.792039 
L 509.328 158.792039 
" style="fill:none;stroke:#b0b0b0;stroke-dasharray:1.85,0.8;stroke-dashoffset:0;stroke-width:0.5;"/>
     </g>
     <g id="line2d_41">
      <g>
       <use style="stroke:#000000;stroke-width:0.6;" x="70.74" xlink:href="#m0eb1ceab79" y="158.792039"/>
      </g>
     </g>
    </g>
    <g id="ytick_14">
     <g id="line2d_42">
      <path clip-path="url(#p457f70f2fc)" d="M 70.74 156.617334 
L 509.328 156.617334 
" style="fill:none;stroke:#b0b0b0;stroke-dasharray:1.85,0.8;stroke-dashoffset:0;stroke-width:0.5;"/>
     </g>
     <g id="line2d_43">
      <g>
       <use style="stroke:#000000;stroke-width:0.6;" x="70.74" xlink:href="#m0eb1ceab79" y="156.617334"/>
      </g>
     </g>
    </g>
    <g id="ytick_15">
     <g id="line2d_44">
      <path clip-path="url(#p457f70f2fc)" d="M 70.74 141.873966 
L 509.328 141.873966 
" style="fill:none;stroke:#b0b0b0;stroke-dasharray:1.85,0.8;stroke-dashoffset:0;stroke-width:0.5;"/>
     </g>
     <g id="line2d_45">
      <g>
       <use style="stroke:#000000;stroke-width:0.6;" x="70.74" xlink:href="#m0eb1ceab79" y="141.873966"/>
      </g>
     </g>
    </g>
    <g id="ytick_16">
     <g id="line2d_46">
      <path clip-path="url(#p457f70f2fc)" d="M 70.74 134.387599 
L 509.328 134.387599 
" style="fill:none;stroke:#b0b0b0;stroke-dasharray:1.85,0.8;stroke-dashoffset:0;stroke-width:0.5;"/>
     </g>
     <g id="line2d_47">
      <g>
       <use style="stroke:#000000;stroke-width:0.6;" x="70.74" xlink:href="#m0eb1ceab79" y="134.387599"/>
      </g>
     </g>
    </g>
    <g id="ytick_17">
     <g id="line2d_48">
      <path clip-path="url(#p457f70f2fc)" d="M 70.74 129.075937 
L 509.328 129.075937 
" style="fill:none;stroke:#b0b0b0;stroke-dasharray:1.85,0.8;stroke-dashoffset:0;stroke-width:0.5;"/>
     </g>
     <g id="line2d_49">
      <g>
       <use style="stroke:#000000;stroke-width:0.6;" x="70.74" xlink:href="#m0eb1ceab79" y="129.075937"/>
      </g>
     </g>
    </g>
    <g id="ytick_18">
     <g id="line2d_50">
      <path clip-path="url(#p457f70f2fc)" d="M 70.74 124.955892 
L 509.328 124.955892 
" style="fill:none;stroke:#b0b0b0;stroke-dasharray:1.85,0.8;stroke-dashoffset:0;stroke-width:0.5;"/>
     </g>
     <g id="line2d_51">
      <g>
       <use style="stroke:#000000;stroke-width:0.6;" x="70.74" xlink:href="#m0eb1ceab79" y="124.955892"/>
      </g>
     </g>
    </g>
    <g id="ytick_19">
     <g id="line2d_52">
      <path clip-path="url(#p457f70f2fc)" d="M 70.74 121.58957 
L 509.328 121.58957 
" style="fill:none;stroke:#b0b0b0;stroke-dasharray:1.85,0.8;stroke-dashoffset:0;stroke-width:0.5;"/>
     </g>
     <g id="line2d_53">
      <g>
       <use style="stroke:#000000;stroke-width:0.6;" x="70.74" xlink:href="#m0eb1ceab79" y="121.58957"/>
      </g>
     </g>
    </g>
    <g id="ytick_20">
     <g id="line2d_54">
      <path clip-path="url(#p457f70f2fc)" d="M 70.74 118.743385 
L 509.328 118.743385 
" style="fill:none;stroke:#b0b0b0;stroke-dasharray:1.85,0.8;stroke-dashoffset:0;stroke-width:0.5;"/>
     </g>
     <g id="line2d_55">
      <g>
       <use style="stroke:#000000;stroke-width:0.6;" x="70.74" xlink:href="#m0eb1ceab79" y="118.743385"/>
      </g>
     </g>
    </g>
    <g id="ytick_21">
     <g id="line2d_56">
      <path clip-path="url(#p457f70f2fc)" d="M 70.74 116.277908 
L 509.328 116.277908 
" style="fill:none;stroke:#b0b0b0;stroke-dasharray:1.85,0.8;stroke-dashoffset:0;stroke-width:0.5;"/>
     </g>
     <g id="line2d_57">
      <g>
       <use style="stroke:#000000;stroke-width:0.6;" x="70.74" xlink:href="#m0eb1ceab79" y="116.277908"/>
      </g>
     </g>
    </g>
    <g id="ytick_22">
     <g id="line2d_58">
      <path clip-path="url(#p457f70f2fc)" d="M 70.74 114.103203 
L 509.328 114.103203 
" style="fill:none;stroke:#b0b0b0;stroke-dasharray:1.85,0.8;stroke-dashoffset:0;stroke-width:0.5;"/>
     </g>
     <g id="line2d_59">
      <g>
       <use style="stroke:#000000;stroke-width:0.6;" x="70.74" xlink:href="#m0eb1ceab79" y="114.103203"/>
      </g>
     </g>
    </g>
    <g id="ytick_23">
     <g id="line2d_60">
      <path clip-path="url(#p457f70f2fc)" d="M 70.74 99.359834 
L 509.328 99.359834 
" style="fill:none;stroke:#b0b0b0;stroke-dasharray:1.85,0.8;stroke-dashoffset:0;stroke-width:0.5;"/>
     </g>
     <g id="line2d_61">
      <g>
       <use style="stroke:#000000;stroke-width:0.6;" x="70.74" xlink:href="#m0eb1ceab79" y="99.359834"/>
      </g>
     </g>
    </g>
    <g id="ytick_24">
     <g id="line2d_62">
      <path clip-path="url(#p457f70f2fc)" d="M 70.74 91.873467 
L 509.328 91.873467 
" style="fill:none;stroke:#b0b0b0;stroke-dasharray:1.85,0.8;stroke-dashoffset:0;stroke-width:0.5;"/>
     </g>
     <g id="line2d_63">
      <g>
       <use style="stroke:#000000;stroke-width:0.6;" x="70.74" xlink:href="#m0eb1ceab79" y="91.873467"/>
      </g>
     </g>
    </g>
    <g id="ytick_25">
     <g id="line2d_64">
      <path clip-path="url(#p457f70f2fc)" d="M 70.74 86.561805 
L 509.328 86.561805 
" style="fill:none;stroke:#b0b0b0;stroke-dasharray:1.85,0.8;stroke-dashoffset:0;stroke-width:0.5;"/>
     </g>
     <g id="line2d_65">
      <g>
       <use style="stroke:#000000;stroke-width:0.6;" x="70.74" xlink:href="#m0eb1ceab79" y="86.561805"/>
      </g>
     </g>
    </g>
    <g id="ytick_26">
     <g id="line2d_66">
      <path clip-path="url(#p457f70f2fc)" d="M 70.74 82.44176 
L 509.328 82.44176 
" style="fill:none;stroke:#b0b0b0;stroke-dasharray:1.85,0.8;stroke-dashoffset:0;stroke-width:0.5;"/>
     </g>
     <g id="line2d_67">
      <g>
       <use style="stroke:#000000;stroke-width:0.6;" x="70.74" xlink:href="#m0eb1ceab79" y="82.44176"/>
      </g>
     </g>
    </g>
    <g id="ytick_27">
     <g id="line2d_68">
      <path clip-path="url(#p457f70f2fc)" d="M 70.74 79.075438 
L 509.328 79.075438 
" style="fill:none;stroke:#b0b0b0;stroke-dasharray:1.85,0.8;stroke-dashoffset:0;stroke-width:0.5;"/>
     </g>
     <g id="line2d_69">
      <g>
       <use style="stroke:#000000;stroke-width:0.6;" x="70.74" xlink:href="#m0eb1ceab79" y="79.075438"/>
      </g>
     </g>
    </g>
    <g id="ytick_28">
     <g id="line2d_70">
      <path clip-path="url(#p457f70f2fc)" d="M 70.74 76.229254 
L 509.328 76.229254 
" style="fill:none;stroke:#b0b0b0;stroke-dasharray:1.85,0.8;stroke-dashoffset:0;stroke-width:0.5;"/>
     </g>
     <g id="line2d_71">
      <g>
       <use style="stroke:#000000;stroke-width:0.6;" x="70.74" xlink:href="#m0eb1ceab79" y="76.229254"/>
      </g>
     </g>
    </g>
    <g id="ytick_29">
     <g id="line2d_72">
      <path clip-path="url(#p457f70f2fc)" d="M 70.74 73.763777 
L 509.328 73.763777 
" style="fill:none;stroke:#b0b0b0;stroke-dasharray:1.85,0.8;stroke-dashoffset:0;stroke-width:0.5;"/>
     </g>
     <g id="line2d_73">
      <g>
       <use style="stroke:#000000;stroke-width:0.6;" x="70.74" xlink:href="#m0eb1ceab79" y="73.763777"/>
      </g>
     </g>
    </g>
    <g id="ytick_30">
     <g id="line2d_74">
      <path clip-path="url(#p457f70f2fc)" d="M 70.74 71.589071 
L 509.328 71.589071 
" style="fill:none;stroke:#b0b0b0;stroke-dasharray:1.85,0.8;stroke-dashoffset:0;stroke-width:0.5;"/>
     </g>
     <g id="line2d_75">
      <g>
       <use style="stroke:#000000;stroke-width:0.6;" x="70.74" xlink:href="#m0eb1ceab79" y="71.589071"/>
      </g>
     </g>
    </g>
    <g id="ytick_31">
     <g id="line2d_76">
      <path clip-path="url(#p457f70f2fc)" d="M 70.74 56.845703 
L 509.328 56.845703 
" style="fill:none;stroke:#b0b0b0;stroke-dasharray:1.85,0.8;stroke-dashoffset:0;stroke-width:0.5;"/>
     </g>
     <g id="line2d_77">
      <g>
       <use style="stroke:#000000;stroke-width:0.6;" x="70.74" xlink:href="#m0eb1ceab79" y="56.845703"/>
      </g>
     </g>
    </g>
    <g id="ytick_32">
     <g id="line2d_78">
      <path clip-path="url(#p457f70f2fc)" d="M 70.74 49.359336 
L 509.328 49.359336 
" style="fill:none;stroke:#b0b0b0;stroke-dasharray:1.85,0.8;stroke-dashoffset:0;stroke-width:0.5;"/>
     </g>
     <g id="line2d_79">
      <g>
       <use style="stroke:#000000;stroke-width:0.6;" x="70.74" xlink:href="#m0eb1ceab79" y="49.359336"/>
      </g>
     </g>
    </g>
    <g id="ytick_33">
     <g id="line2d_80">
      <path clip-path="url(#p457f70f2fc)" d="M 70.74 44.047674 
L 509.328 44.047674 
" style="fill:none;stroke:#b0b0b0;stroke-dasharray:1.85,0.8;stroke-dashoffset:0;stroke-width:0.5;"/>
     </g>
     <g id="line2d_81">
      <g>
       <use style="stroke:#000000;stroke-width:0.6;" x="70.74" xlink:href="#m0eb1ceab79" y="44.047674"/>
      </g>
     </g>
    </g>
    <g id="ytick_34">
     <g id="line2d_82">
      <path clip-path="url(#p457f70f2fc)" d="M 70.74 39.927629 
L 509.328 39.927629 
" style="fill:none;stroke:#b0b0b0;stroke-dasharray:1.85,0.8;stroke-dashoffset:0;stroke-width:0.5;"/>
     </g>
     <g id="line2d_83">
      <g>
       <use style="stroke:#000000;stroke-width:0.6;" x="70.74" xlink:href="#m0eb1ceab79" y="39.927629"/>
      </g>
     </g>
    </g>
    <g id="ytick_35">
     <g id="line2d_84">
      <path clip-path="url(#p457f70f2fc)" d="M 70.74 36.561307 
L 509.328 36.561307 
" style="fill:none;stroke:#b0b0b0;stroke-dasharray:1.85,0.8;stroke-dashoffset:0;stroke-width:0.5;"/>
     </g>
     <g id="line2d_85">
      <g>
       <use style="stroke:#000000;stroke-width:0.6;" x="70.74" xlink:href="#m0eb1ceab79" y="36.561307"/>
      </g>
     </g>
    </g>
    <g id="ytick_36">
     <g id="line2d_86">
      <path clip-path="url(#p457f70f2fc)" d="M 70.74 33.715122 
L 509.328 33.715122 
" style="fill:none;stroke:#b0b0b0;stroke-dasharray:1.85,0.8;stroke-dashoffset:0;stroke-width:0.5;"/>
     </g>
     <g id="line2d_87">
      <g>
       <use style="stroke:#000000;stroke-width:0.6;" x="70.74" xlink:href="#m0eb1ceab79" y="33.715122"/>
      </g>
     </g>
    </g>
    <g id="ytick_37">
     <g id="line2d_88">
      <path clip-path="url(#p457f70f2fc)" d="M 70.74 31.249645 
L 509.328 31.249645 
" style="fill:none;stroke:#b0b0b0;stroke-dasharray:1.85,0.8;stroke-dashoffset:0;stroke-width:0.5;"/>
     </g>
     <g id="line2d_89">
      <g>
       <use style="stroke:#000000;stroke-width:0.6;" x="70.74" xlink:href="#m0eb1ceab79" y="31.249645"/>
      </g>
     </g>
    </g>
    <g id="ytick_38">
     <g id="line2d_90">
      <path clip-path="url(#p457f70f2fc)" d="M 70.74 29.07494 
L 509.328 29.07494 
" style="fill:none;stroke:#b0b0b0;stroke-dasharray:1.85,0.8;stroke-dashoffset:0;stroke-width:0.5;"/>
     </g>
     <g id="line2d_91">
      <g>
       <use style="stroke:#000000;stroke-width:0.6;" x="70.74" xlink:href="#m0eb1ceab79" y="29.07494"/>
      </g>
     </g>
    </g>
    <g id="text_22">
     <!-- Time (ns) -->
     <g transform="translate(40.060313 137.668056)rotate(-90)scale(0.1 -0.1)">
      <defs>
       <path d="M -19 4666 
L 3928 4666 
L 3928 4134 
L 2272 4134 
L 2272 0 
L 1638 0 
L 1638 4134 
L -19 4134 
L -19 4666 
z
" id="DejaVuSans-54" transform="scale(0.015625)"/>
       <path d="M 3328 2828 
Q 3544 3216 3844 3400 
Q 4144 3584 4550 3584 
Q 5097 3584 5394 3201 
Q 5691 2819 5691 2113 
L 5691 0 
L 5113 0 
L 5113 2094 
Q 5113 2597 4934 2840 
Q 4756 3084 4391 3084 
Q 3944 3084 3684 2787 
Q 3425 2491 3425 1978 
L 3425 0 
L 2847 0 
L 2847 2094 
Q 2847 2600 2669 2842 
Q 2491 3084 2119 3084 
Q 1678 3084 1418 2786 
Q 1159 2488 1159 1978 
L 1159 0 
L 581 0 
L 581 3500 
L 1159 3500 
L 1159 2956 
Q 1356 3278 1631 3431 
Q 1906 3584 2284 3584 
Q 2666 3584 2933 3390 
Q 3200 3197 3328 2828 
z
" id="DejaVuSans-6d" transform="scale(0.015625)"/>
       <path d="M 3513 2113 
L 3513 0 
L 2938 0 
L 2938 2094 
Q 2938 2591 2744 2837 
Q 2550 3084 2163 3084 
Q 1697 3084 1428 2787 
Q 1159 2491 1159 1978 
L 1159 0 
L 581 0 
L 581 3500 
L 1159 3500 
L 1159 2956 
Q 1366 3272 1645 3428 
Q 1925 3584 2291 3584 
Q 2894 3584 3203 3211 
Q 3513 2838 3513 2113 
z
" id="DejaVuSans-6e" transform="scale(0.015625)"/>
       <path d="M 2834 3397 
L 2834 2853 
Q 2591 2978 2328 3040 
Q 2066 3103 1784 3103 
Q 1356 3103 1142 2972 
Q 928 2841 928 2578 
Q 928 2378 1081 2264 
Q 1234 2150 1697 2047 
L 1894 2003 
Q 2506 1872 2764 1633 
Q 3022 1394 3022 966 
Q 3022 478 2636 193 
Q 2250 -91 1575 -91 
Q 1294 -91 989 -36 
Q 684 19 347 128 
L 347 722 
Q 666 556 975 473 
Q 1284 391 1588 391 
Q 1994 391 2212 530 
Q 2431 669 2431 922 
Q 2431 1156 2273 1281 
Q 2116 1406 1581 1522 
L 1381 1569 
Q 847 1681 609 1914 
Q 372 2147 372 2553 
Q 372 3047 722 3315 
Q 1072 3584 1716 3584 
Q 2034 3584 2315 3537 
Q 2597 3491 2834 3397 
z
" id="DejaVuSans-73" transform="scale(0.015625)"/>
      </defs>
      <use xlink:href="#DejaVuSans-54"/>
      <use x="57.958984" xlink:href="#DejaVuSans-69"/>
      <use x="85.742188" xlink:href="#DejaVuSans-6d"/>
      <use x="183.154297" xlink:href="#DejaVuSans-65"/>
      <use x="244.677734" xlink:href="#DejaVuSans-20"/>
      <use x="276.464844" xlink:href="#DejaVuSans-28"/>
      <use x="315.478516" xlink:href="#DejaVuSans-6e"/>
      <use x="378.857422" xlink:href="#DejaVuSans-73"/>
      <use x="430.957031" xlink:href="#DejaVuSans-29"/>
     </g>
    </g>
   </g>
   <g id="patch_3">
    <path d="M 70.74 201.2112 
L 70.74 27.1296 
" style="fill:none;stroke:#000000;stroke-linecap:square;stroke-linejoin:miter;stroke-width:0.8;"/>
   </g>
   <g id="patch_4">
    <path d="M 509.328 201.2112 
L 509.328 27.1296 
" style="fill:none;stroke:#000000;stroke-linecap:square;stroke-linejoin:miter;stroke-width:0.8;"/>
   </g>
   <g id="patch_5">
    <path d="M 70.74 201.2112 
L 509.328 201.2112 
" style="fill:none;stroke:#000000;stroke-linecap:square;stroke-linejoin:miter;stroke-width:0.8;"/>
   </g>
   <g id="patch_6">
    <path d="M 70.74 27.1296 
L 509.328 27.1296 
" style="fill:none;stroke:#000000;stroke-linecap:square;stroke-linejoin:miter;stroke-width:0.8;"/>
   </g>
   <g id="patch_7">
    <path clip-path="url(#p457f70f2fc)" d="M 77.539814 42796.345869 
L 83.2829 42796.345869 
L 83.2829 166.450745 
L 77.539814 166.450745 
z
" style="fill:#85c0f9;"/>
   </g>
   <g id="patch_8">
    <path clip-path="url(#p457f70f2fc)" d="M 106.255245 42796.345869 
L 111.998331 42796.345869 
L 111.998331 167.429617 
L 106.255245 167.429617 
z
" style="fill:#85c0f9;"/>
   </g>
   <g id="patch_9">
    <path clip-path="url(#p457f70f2fc)" d="M 134.970675 42796.345869 
L 140.713761 42796.345869 
L 140.713761 168.461447 
L 134.970675 168.461447 
z
" style="fill:#85c0f9;"/>
   </g>
   <g id="patch_10">
    <path clip-path="url(#p457f70f2fc)" d="M 163.686106 42796.345869 
L 169.429192 42796.345869 
L 169.429192 168.930717 
L 163.686106 168.930717 
z
" style="fill:#85c0f9;"/>
   </g>
   <g id="patch_11">
    <path clip-path="url(#p457f70f2fc)" d="M 192.401536 42796.345869 
L 198.144622 42796.345869 
L 198.144622 169.591983 
L 192.401536 169.591983 
z
" style="fill:#85c0f9;"/>
   </g>
   <g id="patch_12">
    <path clip-path="url(#p457f70f2fc)" d="M 221.116967 42796.345869 
L 226.860053 42796.345869 
L 226.860053 171.116422 
L 221.116967 171.116422 
z
" style="fill:#85c0f9;"/>
   </g>
   <g id="patch_13">
    <path clip-path="url(#p457f70f2fc)" d="M 249.832397 42796.345869 
L 255.575483 42796.345869 
L 255.575483 171.64008 
L 249.832397 171.64008 
z
" style="fill:#85c0f9;"/>
   </g>
   <g id="patch_14">
    <path clip-path="url(#p457f70f2fc)" d="M 278.547828 42796.345869 
L 284.290914 42796.345869 
L 284.290914 172.76237 
L 278.547828 172.76237 
z
" style="fill:#85c0f9;"/>
   </g>
   <g id="patch_15">
    <path clip-path="url(#p457f70f2fc)" d="M 307.263258 42796.345869 
L 313.006344 42796.345869 
L 313.006344 174.44788 
L 307.263258 174.44788 
z
" style="fill:#85c0f9;"/>
   </g>
   <g id="patch_16">
    <path clip-path="url(#p457f70f2fc)" d="M 335.978689 42796.345869 
L 341.721775 42796.345869 
L 341.721775 175.719145 
L 335.978689 175.719145 
z
" style="fill:#85c0f9;"/>
   </g>
   <g id="patch_17">
    <path clip-path="url(#p457f70f2fc)" d="M 364.694119 42796.345869 
L 370.437206 42796.345869 
L 370.437206 178.126095 
L 364.694119 178.126095 
z
" style="fill:#85c0f9;"/>
   </g>
   <g id="patch_18">
    <path clip-path="url(#p457f70f2fc)" d="M 393.40955 42796.345869 
L 399.152636 42796.345869 
L 399.152636 180.914842 
L 393.40955 180.914842 
z
" style="fill:#85c0f9;"/>
   </g>
   <g id="patch_19">
    <path clip-path="url(#p457f70f2fc)" d="M 422.124981 42796.345869 
L 427.868067 42796.345869 
L 427.868067 183.40591 
L 422.124981 183.40591 
z
" style="fill:#85c0f9;"/>
   </g>
   <g id="patch_20">
    <path clip-path="url(#p457f70f2fc)" d="M 450.840411 42796.345869 
L 456.583497 42796.345869 
L 456.583497 184.405655 
L 450.840411 184.405655 
z
" style="fill:#85c0f9;"/>
   </g>
   <g id="patch_21">
    <path clip-path="url(#p457f70f2fc)" d="M 479.555842 42796.345869 
L 485.298928 42796.345869 
L 485.298928 185.885939 
L 479.555842 185.885939 
z
" style="fill:#85c0f9;"/>
   </g>
   <g id="patch_22">
    <path clip-path="url(#p457f70f2fc)" d="M 83.2829 42796.345869 
L 89.025986 42796.345869 
L 89.025986 168.942947 
L 83.2829 168.942947 
z
" style="fill:#0f2080;"/>
   </g>
   <g id="patch_23">
    <path clip-path="url(#p457f70f2fc)" d="M 111.998331 42796.345869 
L 117.741417 42796.345869 
L 117.741417 170.577077 
L 111.998331 170.577077 
z
" style="fill:#0f2080;"/>
   </g>
   <g id="patch_24">
    <path clip-path="url(#p457f70f2fc)" d="M 140.713761 42796.345869 
L 146.456847 42796.345869 
L 146.456847 172.206275 
L 140.713761 172.206275 
z
" style="fill:#0f2080;"/>
   </g>
   <g id="patch_25">
    <path clip-path="url(#p457f70f2fc)" d="M 169.429192 42796.345869 
L 175.172278 42796.345869 
L 175.172278 174.838837 
L 169.429192 174.838837 
z
" style="fill:#0f2080;"/>
   </g>
   <g id="patch_26">
    <path clip-path="url(#p457f70f2fc)" d="M 198.144622 42796.345869 
L 203.887708 42796.345869 
L 203.887708 175.311292 
L 198.144622 175.311292 
z
" style="fill:#0f2080;"/>
   </g>
   <g id="patch_27">
    <path clip-path="url(#p457f70f2fc)" d="M 226.860053 42796.345869 
L 232.603139 42796.345869 
L 232.603139 175.861249 
L 226.860053 175.861249 
z
" style="fill:#0f2080;"/>
   </g>
   <g id="patch_28">
    <path clip-path="url(#p457f70f2fc)" d="M 255.575483 42796.345869 
L 261.318569 42796.345869 
L 261.318569 177.019515 
L 255.575483 177.019515 
z
" style="fill:#0f2080;"/>
   </g>
   <g id="patch_29">
    <path clip-path="url(#p457f70f2fc)" d="M 284.290914 42796.345869 
L 290.034 42796.345869 
L 290.034 178.161919 
L 284.290914 178.161919 
z
" style="fill:#0f2080;"/>
   </g>
   <g id="patch_30">
    <path clip-path="url(#p457f70f2fc)" d="M 313.006344 42796.345869 
L 318.749431 42796.345869 
L 318.749431 179.372343 
L 313.006344 179.372343 
z
" style="fill:#0f2080;"/>
   </g>
   <g id="patch_31">
    <path clip-path="url(#p457f70f2fc)" d="M 341.721775 42796.345869 
L 347.464861 42796.345869 
L 347.464861 180.49065 
L 341.721775 180.49065 
z
" style="fill:#0f2080;"/>
   </g>
   <g id="patch_32">
    <path clip-path="url(#p457f70f2fc)" d="M 370.437206 42796.345869 
L 376.180292 42796.345869 
L 376.180292 180.524333 
L 370.437206 180.524333 
z
" style="fill:#0f2080;"/>
   </g>
   <g id="patch_33">
    <path clip-path="url(#p457f70f2fc)" d="M 399.152636 42796.345869 
L 404.895722 42796.345869 
L 404.895722 181.604018 
L 399.152636 181.604018 
z
" style="fill:#0f2080;"/>
   </g>
   <g id="patch_34">
    <path clip-path="url(#p457f70f2fc)" d="M 427.868067 42796.345869 
L 433.611153 42796.345869 
L 433.611153 182.615864 
L 427.868067 182.615864 
z
" style="fill:#0f2080;"/>
   </g>
   <g id="patch_35">
    <path clip-path="url(#p457f70f2fc)" d="M 456.583497 42796.345869 
L 462.326583 42796.345869 
L 462.326583 182.846768 
L 456.583497 182.846768 
z
" style="fill:#0f2080;"/>
   </g>
   <g id="patch_36">
    <path clip-path="url(#p457f70f2fc)" d="M 485.298928 42796.345869 
L 491.042014 42796.345869 
L 491.042014 185.5053 
L 485.298928 185.5053 
z
" style="fill:#0f2080;"/>
   </g>
   <g id="patch_37">
    <path clip-path="url(#p457f70f2fc)" d="M 89.025986 42796.345869 
L 94.769072 42796.345869 
L 94.769072 169.400643 
L 89.025986 169.400643 
z
" style="fill:#a95aa1;"/>
   </g>
   <g id="patch_38">
    <path clip-path="url(#p457f70f2fc)" d="M 117.741417 42796.345869 
L 123.484503 42796.345869 
L 123.484503 166.464577 
L 117.741417 166.464577 
z
" style="fill:#a95aa1;"/>
   </g>
   <g id="patch_39">
    <path clip-path="url(#p457f70f2fc)" d="M 146.456847 42796.345869 
L 152.199933 42796.345869 
L 152.199933 164.021867 
L 146.456847 164.021867 
z
" style="fill:#a95aa1;"/>
   </g>
   <g id="patch_40">
    <path clip-path="url(#p457f70f2fc)" d="M 175.172278 42796.345869 
L 180.915364 42796.345869 
L 180.915364 159.514617 
L 175.172278 159.514617 
z
" style="fill:#a95aa1;"/>
   </g>
   <g id="patch_41">
    <path clip-path="url(#p457f70f2fc)" d="M 203.887708 42796.345869 
L 209.630794 42796.345869 
L 209.630794 152.445989 
L 203.887708 152.445989 
z
" style="fill:#a95aa1;"/>
   </g>
   <g id="patch_42">
    <path clip-path="url(#p457f70f2fc)" d="M 232.603139 42796.345869 
L 238.346225 42796.345869 
L 238.346225 143.413881 
L 232.603139 143.413881 
z
" style="fill:#a95aa1;"/>
   </g>
   <g id="patch_43">
    <path clip-path="url(#p457f70f2fc)" d="M 261.318569 42796.345869 
L 267.061656 42796.345869 
L 267.061656 132.766448 
L 261.318569 132.766448 
z
" style="fill:#a95aa1;"/>
   </g>
   <g id="patch_44">
    <path clip-path="url(#p457f70f2fc)" d="M 290.034 42796.345869 
L 295.777086 42796.345869 
L 295.777086 121.117163 
L 290.034 121.117163 
z
" style="fill:#a95aa1;"/>
   </g>
   <g id="patch_45">
    <path clip-path="url(#p457f70f2fc)" d="M 318.749431 42796.345869 
L 324.492517 42796.345869 
L 324.492517 108.799397 
L 318.749431 108.799397 
z
" style="fill:#a95aa1;"/>
   </g>
   <g id="patch_46">
    <path clip-path="url(#p457f70f2fc)" d="M 347.464861 42796.345869 
L 353.207947 42796.345869 
L 353.207947 96.183446 
L 347.464861 96.183446 
z
" style="fill:#a95aa1;"/>
   </g>
   <g id="patch_47">
    <path clip-path="url(#p457f70f2fc)" d="M 376.180292 42796.345869 
L 381.923378 42796.345869 
L 381.923378 83.495584 
L 376.180292 83.495584 
z
" style="fill:#a95aa1;"/>
   </g>
   <g id="patch_48">
    <path clip-path="url(#p457f70f2fc)" d="M 404.895722 42796.345869 
L 410.638808 42796.345869 
L 410.638808 70.7506 
L 404.895722 70.7506 
z
" style="fill:#a95aa1;"/>
   </g>
   <g id="patch_49">
    <path clip-path="url(#p457f70f2fc)" d="M 433.611153 42796.345869 
L 439.354239 42796.345869 
L 439.354239 57.951178 
L 433.611153 57.951178 
z
" style="fill:#a95aa1;"/>
   </g>
   <g id="patch_50">
    <path clip-path="url(#p457f70f2fc)" d="M 462.326583 42796.345869 
L 468.069669 42796.345869 
L 468.069669 45.006948 
L 462.326583 45.006948 
z
" style="fill:#a95aa1;"/>
   </g>
   <g id="patch_51">
    <path clip-path="url(#p457f70f2fc)" d="M 491.042014 42796.345869 
L 496.7851 42796.345869 
L 496.7851 32.362651 
L 491.042014 32.362651 
z
" style="fill:#a95aa1;"/>
   </g>
   <g id="patch_52">
    <path clip-path="url(#p457f70f2fc)" d="M 94.769072 42796.345869 
L 100.512158 42796.345869 
L 100.512158 192.476029 
L 94.769072 192.476029 
z
" style="fill:#f5793a;"/>
   </g>
   <g id="patch_53">
    <path clip-path="url(#p457f70f2fc)" d="M 123.484503 42796.345869 
L 129.227589 42796.345869 
L 129.227589 193.170793 
L 123.484503 193.170793 
z
" style="fill:#f5793a;"/>
   </g>
   <g id="patch_54">
    <path clip-path="url(#p457f70f2fc)" d="M 152.199933 42796.345869 
L 157.943019 42796.345869 
L 157.943019 191.954377 
L 152.199933 191.954377 
z
" style="fill:#f5793a;"/>
   </g>
   <g id="patch_55">
    <path clip-path="url(#p457f70f2fc)" d="M 180.915364 42796.345869 
L 186.65845 42796.345869 
L 186.65845 193.124326 
L 180.915364 193.124326 
z
" style="fill:#f5793a;"/>
   </g>
   <g id="patch_56">
    <path clip-path="url(#p457f70f2fc)" d="M 209.630794 42796.345869 
L 215.373881 42796.345869 
L 215.373881 170.144476 
L 209.630794 170.144476 
z
" style="fill:#f5793a;"/>
   </g>
   <g id="patch_57">
    <path clip-path="url(#p457f70f2fc)" d="M 238.346225 42796.345869 
L 244.089311 42796.345869 
L 244.089311 170.862138 
L 238.346225 170.862138 
z
" style="fill:#f5793a;"/>
   </g>
   <g id="patch_58">
    <path clip-path="url(#p457f70f2fc)" d="M 267.061656 42796.345869 
L 272.804742 42796.345869 
L 272.804742 172.248063 
L 267.061656 172.248063 
z
" style="fill:#f5793a;"/>
   </g>
   <g id="patch_59">
    <path clip-path="url(#p457f70f2fc)" d="M 295.777086 42796.345869 
L 301.520172 42796.345869 
L 301.520172 173.164983 
L 295.777086 173.164983 
z
" style="fill:#f5793a;"/>
   </g>
   <g id="patch_60">
    <path clip-path="url(#p457f70f2fc)" d="M 324.492517 42796.345869 
L 330.235603 42796.345869 
L 330.235603 174.01806 
L 324.492517 174.01806 
z
" style="fill:#f5793a;"/>
   </g>
   <g id="patch_61">
    <path clip-path="url(#p457f70f2fc)" d="M 353.207947 42796.345869 
L 358.951033 42796.345869 
L 358.951033 175.569221 
L 353.207947 175.569221 
z
" style="fill:#f5793a;"/>
   </g>
   <g id="patch_62">
    <path clip-path="url(#p457f70f2fc)" d="M 381.923378 42796.345869 
L 387.666464 42796.345869 
L 387.666464 177.405129 
L 381.923378 177.405129 
z
" style="fill:#f5793a;"/>
   </g>
   <g id="patch_63">
    <path clip-path="url(#p457f70f2fc)" d="M 410.638808 42796.345869 
L 416.381894 42796.345869 
L 416.381894 179.579791 
L 410.638808 179.579791 
z
" style="fill:#f5793a;"/>
   </g>
   <g id="patch_64">
    <path clip-path="url(#p457f70f2fc)" d="M 439.354239 42796.345869 
L 445.097325 42796.345869 
L 445.097325 182.39735 
L 439.354239 182.39735 
z
" style="fill:#f5793a;"/>
   </g>
   <g id="patch_65">
    <path clip-path="url(#p457f70f2fc)" d="M 468.069669 42796.345869 
L 473.812755 42796.345869 
L 473.812755 185.72106 
L 468.069669 185.72106 
z
" style="fill:#f5793a;"/>
   </g>
   <g id="patch_66">
    <path clip-path="url(#p457f70f2fc)" d="M 496.7851 42796.345869 
L 502.528186 42796.345869 
L 502.528186 185.236806 
L 496.7851 185.236806 
z
" style="fill:#f5793a;"/>
   </g>
   <g id="text_23">
    <!-- Average Deallocation Time for Different Buddy Allocators and Block Sizes (100000 deallocations) -->
    <g transform="translate(-1.467562 17.1296)scale(0.12 -0.12)">
     <defs>
      <path d="M 2188 4044 
L 1331 1722 
L 3047 1722 
L 2188 4044 
z
M 1831 4666 
L 2547 4666 
L 4325 0 
L 3669 0 
L 3244 1197 
L 1141 1197 
L 716 0 
L 50 0 
L 1831 4666 
z
" id="DejaVuSans-41" transform="scale(0.015625)"/>
      <path d="M 191 3500 
L 800 3500 
L 1894 563 
L 2988 3500 
L 3597 3500 
L 2284 0 
L 1503 0 
L 191 3500 
z
" id="DejaVuSans-76" transform="scale(0.015625)"/>
      <path d="M 2631 2963 
Q 2534 3019 2420 3045 
Q 2306 3072 2169 3072 
Q 1681 3072 1420 2755 
Q 1159 2438 1159 1844 
L 1159 0 
L 581 0 
L 581 3500 
L 1159 3500 
L 1159 2956 
Q 1341 3275 1631 3429 
Q 1922 3584 2338 3584 
Q 2397 3584 2469 3576 
Q 2541 3569 2628 3553 
L 2631 2963 
z
" id="DejaVuSans-72" transform="scale(0.015625)"/>
      <path d="M 2194 1759 
Q 1497 1759 1228 1600 
Q 959 1441 959 1056 
Q 959 750 1161 570 
Q 1363 391 1709 391 
Q 2188 391 2477 730 
Q 2766 1069 2766 1631 
L 2766 1759 
L 2194 1759 
z
M 3341 1997 
L 3341 0 
L 2766 0 
L 2766 531 
Q 2569 213 2275 61 
Q 1981 -91 1556 -91 
Q 1019 -91 701 211 
Q 384 513 384 1019 
Q 384 1609 779 1909 
Q 1175 2209 1959 2209 
L 2766 2209 
L 2766 2266 
Q 2766 2663 2505 2880 
Q 2244 3097 1772 3097 
Q 1472 3097 1187 3025 
Q 903 2953 641 2809 
L 641 3341 
Q 956 3463 1253 3523 
Q 1550 3584 1831 3584 
Q 2591 3584 2966 3190 
Q 3341 2797 3341 1997 
z
" id="DejaVuSans-61" transform="scale(0.015625)"/>
      <path d="M 1259 4147 
L 1259 519 
L 2022 519 
Q 2988 519 3436 956 
Q 3884 1394 3884 2338 
Q 3884 3275 3436 3711 
Q 2988 4147 2022 4147 
L 1259 4147 
z
M 628 4666 
L 1925 4666 
Q 3281 4666 3915 4102 
Q 4550 3538 4550 2338 
Q 4550 1131 3912 565 
Q 3275 0 1925 0 
L 628 0 
L 628 4666 
z
" id="DejaVuSans-44" transform="scale(0.015625)"/>
      <path d="M 1172 4494 
L 1172 3500 
L 2356 3500 
L 2356 3053 
L 1172 3053 
L 1172 1153 
Q 1172 725 1289 603 
Q 1406 481 1766 481 
L 2356 481 
L 2356 0 
L 1766 0 
Q 1100 0 847 248 
Q 594 497 594 1153 
L 594 3053 
L 172 3053 
L 172 3500 
L 594 3500 
L 594 4494 
L 1172 4494 
z
" id="DejaVuSans-74" transform="scale(0.015625)"/>
      <path d="M 2375 4863 
L 2375 4384 
L 1825 4384 
Q 1516 4384 1395 4259 
Q 1275 4134 1275 3809 
L 1275 3500 
L 2222 3500 
L 2222 3053 
L 1275 3053 
L 1275 0 
L 697 0 
L 697 3053 
L 147 3053 
L 147 3500 
L 697 3500 
L 697 3744 
Q 697 4328 969 4595 
Q 1241 4863 1831 4863 
L 2375 4863 
z
" id="DejaVuSans-66" transform="scale(0.015625)"/>
      <path d="M 544 1381 
L 544 3500 
L 1119 3500 
L 1119 1403 
Q 1119 906 1312 657 
Q 1506 409 1894 409 
Q 2359 409 2629 706 
Q 2900 1003 2900 1516 
L 2900 3500 
L 3475 3500 
L 3475 0 
L 2900 0 
L 2900 538 
Q 2691 219 2414 64 
Q 2138 -91 1772 -91 
Q 1169 -91 856 284 
Q 544 659 544 1381 
z
M 1991 3584 
L 1991 3584 
z
" id="DejaVuSans-75" transform="scale(0.015625)"/>
      <path d="M 2906 2969 
L 2906 4863 
L 3481 4863 
L 3481 0 
L 2906 0 
L 2906 525 
Q 2725 213 2448 61 
Q 2172 -91 1784 -91 
Q 1150 -91 751 415 
Q 353 922 353 1747 
Q 353 2572 751 3078 
Q 1150 3584 1784 3584 
Q 2172 3584 2448 3432 
Q 2725 3281 2906 2969 
z
M 947 1747 
Q 947 1113 1208 752 
Q 1469 391 1925 391 
Q 2381 391 2643 752 
Q 2906 1113 2906 1747 
Q 2906 2381 2643 2742 
Q 2381 3103 1925 3103 
Q 1469 3103 1208 2742 
Q 947 2381 947 1747 
z
" id="DejaVuSans-64" transform="scale(0.015625)"/>
      <path d="M 2059 -325 
Q 1816 -950 1584 -1140 
Q 1353 -1331 966 -1331 
L 506 -1331 
L 506 -850 
L 844 -850 
Q 1081 -850 1212 -737 
Q 1344 -625 1503 -206 
L 1606 56 
L 191 3500 
L 800 3500 
L 1894 763 
L 2988 3500 
L 3597 3500 
L 2059 -325 
z
" id="DejaVuSans-79" transform="scale(0.015625)"/>
     </defs>
     <use xlink:href="#DejaVuSans-41"/>
     <use x="62.533203" xlink:href="#DejaVuSans-76"/>
     <use x="121.712891" xlink:href="#DejaVuSans-65"/>
     <use x="183.236328" xlink:href="#DejaVuSans-72"/>
     <use x="224.349609" xlink:href="#DejaVuSans-61"/>
     <use x="285.628906" xlink:href="#DejaVuSans-67"/>
     <use x="349.105469" xlink:href="#DejaVuSans-65"/>
     <use x="410.628906" xlink:href="#DejaVuSans-20"/>
     <use x="442.416016" xlink:href="#DejaVuSans-44"/>
     <use x="519.417969" xlink:href="#DejaVuSans-65"/>
     <use x="580.941406" xlink:href="#DejaVuSans-61"/>
     <use x="642.220703" xlink:href="#DejaVuSans-6c"/>
     <use x="670.003906" xlink:href="#DejaVuSans-6c"/>
     <use x="697.787109" xlink:href="#DejaVuSans-6f"/>
     <use x="758.96875" xlink:href="#DejaVuSans-63"/>
     <use x="813.949219" xlink:href="#DejaVuSans-61"/>
     <use x="875.228516" xlink:href="#DejaVuSans-74"/>
     <use x="914.4375" xlink:href="#DejaVuSans-69"/>
     <use x="942.220703" xlink:href="#DejaVuSans-6f"/>
     <use x="1003.402344" xlink:href="#DejaVuSans-6e"/>
     <use x="1066.78125" xlink:href="#DejaVuSans-20"/>
     <use x="1098.568359" xlink:href="#DejaVuSans-54"/>
     <use x="1156.527344" xlink:href="#DejaVuSans-69"/>
     <use x="1184.310547" xlink:href="#DejaVuSans-6d"/>
     <use x="1281.722656" xlink:href="#DejaVuSans-65"/>
     <use x="1343.246094" xlink:href="#DejaVuSans-20"/>
     <use x="1375.033203" xlink:href="#DejaVuSans-66"/>
     <use x="1410.238281" xlink:href="#DejaVuSans-6f"/>
     <use x="1471.419922" xlink:href="#DejaVuSans-72"/>
     <use x="1512.533203" xlink:href="#DejaVuSans-20"/>
     <use x="1544.320312" xlink:href="#DejaVuSans-44"/>
     <use x="1621.322266" xlink:href="#DejaVuSans-69"/>
     <use x="1649.105469" xlink:href="#DejaVuSans-66"/>
     <use x="1684.310547" xlink:href="#DejaVuSans-66"/>
     <use x="1719.515625" xlink:href="#DejaVuSans-65"/>
     <use x="1781.039062" xlink:href="#DejaVuSans-72"/>
     <use x="1819.902344" xlink:href="#DejaVuSans-65"/>
     <use x="1881.425781" xlink:href="#DejaVuSans-6e"/>
     <use x="1944.804688" xlink:href="#DejaVuSans-74"/>
     <use x="1984.013672" xlink:href="#DejaVuSans-20"/>
     <use x="2015.800781" xlink:href="#DejaVuSans-42"/>
     <use x="2084.404297" xlink:href="#DejaVuSans-75"/>
     <use x="2147.783203" xlink:href="#DejaVuSans-64"/>
     <use x="2211.259766" xlink:href="#DejaVuSans-64"/>
     <use x="2274.736328" xlink:href="#DejaVuSans-79"/>
     <use x="2333.916016" xlink:href="#DejaVuSans-20"/>
     <use x="2365.703125" xlink:href="#DejaVuSans-41"/>
     <use x="2434.111328" xlink:href="#DejaVuSans-6c"/>
     <use x="2461.894531" xlink:href="#DejaVuSans-6c"/>
     <use x="2489.677734" xlink:href="#DejaVuSans-6f"/>
     <use x="2550.859375" xlink:href="#DejaVuSans-63"/>
     <use x="2605.839844" xlink:href="#DejaVuSans-61"/>
     <use x="2667.119141" xlink:href="#DejaVuSans-74"/>
     <use x="2706.328125" xlink:href="#DejaVuSans-6f"/>
     <use x="2767.509766" xlink:href="#DejaVuSans-72"/>
     <use x="2808.623047" xlink:href="#DejaVuSans-73"/>
     <use x="2860.722656" xlink:href="#DejaVuSans-20"/>
     <use x="2892.509766" xlink:href="#DejaVuSans-61"/>
     <use x="2953.789062" xlink:href="#DejaVuSans-6e"/>
     <use x="3017.167969" xlink:href="#DejaVuSans-64"/>
     <use x="3080.644531" xlink:href="#DejaVuSans-20"/>
     <use x="3112.431641" xlink:href="#DejaVuSans-42"/>
     <use x="3181.035156" xlink:href="#DejaVuSans-6c"/>
     <use x="3208.818359" xlink:href="#DejaVuSans-6f"/>
     <use x="3270" xlink:href="#DejaVuSans-63"/>
     <use x="3324.980469" xlink:href="#DejaVuSans-6b"/>
     <use x="3382.890625" xlink:href="#DejaVuSans-20"/>
     <use x="3414.677734" xlink:href="#DejaVuSans-53"/>
     <use x="3478.154297" xlink:href="#DejaVuSans-69"/>
     <use x="3505.9375" xlink:href="#DejaVuSans-7a"/>
     <use x="3558.427734" xlink:href="#DejaVuSans-65"/>
     <use x="3619.951172" xlink:href="#DejaVuSans-73"/>
     <use x="3672.050781" xlink:href="#DejaVuSans-20"/>
     <use x="3703.837891" xlink:href="#DejaVuSans-28"/>
     <use x="3742.851562" xlink:href="#DejaVuSans-31"/>
     <use x="3806.474609" xlink:href="#DejaVuSans-30"/>
     <use x="3870.097656" xlink:href="#DejaVuSans-30"/>
     <use x="3933.720703" xlink:href="#DejaVuSans-30"/>
     <use x="3997.34375" xlink:href="#DejaVuSans-30"/>
     <use x="4060.966797" xlink:href="#DejaVuSans-30"/>
     <use x="4124.589844" xlink:href="#DejaVuSans-20"/>
     <use x="4156.376953" xlink:href="#DejaVuSans-64"/>
     <use x="4219.853516" xlink:href="#DejaVuSans-65"/>
     <use x="4281.376953" xlink:href="#DejaVuSans-61"/>
     <use x="4342.65625" xlink:href="#DejaVuSans-6c"/>
     <use x="4370.439453" xlink:href="#DejaVuSans-6c"/>
     <use x="4398.222656" xlink:href="#DejaVuSans-6f"/>
     <use x="4459.404297" xlink:href="#DejaVuSans-63"/>
     <use x="4514.384766" xlink:href="#DejaVuSans-61"/>
     <use x="4575.664062" xlink:href="#DejaVuSans-74"/>
     <use x="4614.873047" xlink:href="#DejaVuSans-69"/>
     <use x="4642.65625" xlink:href="#DejaVuSans-6f"/>
     <use x="4703.837891" xlink:href="#DejaVuSans-6e"/>
     <use x="4767.216797" xlink:href="#DejaVuSans-73"/>
     <use x="4819.316406" xlink:href="#DejaVuSans-29"/>
    </g>
   </g>
   <g id="legend_1">
    <g id="patch_67">
     <path d="M 77.74 93.8421 
L 176.866563 93.8421 
Q 178.866563 93.8421 178.866563 91.8421 
L 178.866563 34.1296 
Q 178.866563 32.1296 176.866563 32.1296 
L 77.74 32.1296 
Q 75.74 32.1296 75.74 34.1296 
L 75.74 91.8421 
Q 75.74 93.8421 77.74 93.8421 
z
" style="fill:#ffffff;opacity:0.8;stroke:#cccccc;stroke-linejoin:miter;"/>
    </g>
    <g id="patch_68">
     <path d="M 79.74 43.728037 
L 99.74 43.728037 
L 99.74 36.728037 
L 79.74 36.728037 
z
" style="fill:#85c0f9;"/>
    </g>
    <g id="text_24">
     <!-- Binary Buddy -->
     <g transform="translate(107.74 43.728037)scale(0.1 -0.1)">
      <use xlink:href="#DejaVuSans-42"/>
      <use x="68.603516" xlink:href="#DejaVuSans-69"/>
      <use x="96.386719" xlink:href="#DejaVuSans-6e"/>
      <use x="159.765625" xlink:href="#DejaVuSans-61"/>
      <use x="221.044922" xlink:href="#DejaVuSans-72"/>
      <use x="262.158203" xlink:href="#DejaVuSans-79"/>
      <use x="321.337891" xlink:href="#DejaVuSans-20"/>
      <use x="353.125" xlink:href="#DejaVuSans-42"/>
      <use x="421.728516" xlink:href="#DejaVuSans-75"/>
      <use x="485.107422" xlink:href="#DejaVuSans-64"/>
      <use x="548.583984" xlink:href="#DejaVuSans-64"/>
      <use x="612.060547" xlink:href="#DejaVuSans-79"/>
     </g>
    </g>
    <g id="patch_69">
     <path d="M 79.74 58.406162 
L 99.74 58.406162 
L 99.74 51.406162 
L 79.74 51.406162 
z
" style="fill:#0f2080;"/>
    </g>
    <g id="text_25">
     <!-- Binary Tree -->
     <g transform="translate(107.74 58.406162)scale(0.1 -0.1)">
      <use xlink:href="#DejaVuSans-42"/>
      <use x="68.603516" xlink:href="#DejaVuSans-69"/>
      <use x="96.386719" xlink:href="#DejaVuSans-6e"/>
      <use x="159.765625" xlink:href="#DejaVuSans-61"/>
      <use x="221.044922" xlink:href="#DejaVuSans-72"/>
      <use x="262.158203" xlink:href="#DejaVuSans-79"/>
      <use x="321.337891" xlink:href="#DejaVuSans-20"/>
      <use x="353.125" xlink:href="#DejaVuSans-54"/>
      <use x="399.458984" xlink:href="#DejaVuSans-72"/>
      <use x="438.322266" xlink:href="#DejaVuSans-65"/>
      <use x="499.845703" xlink:href="#DejaVuSans-65"/>
     </g>
    </g>
    <g id="patch_70">
     <path d="M 79.74 73.084287 
L 99.74 73.084287 
L 99.74 66.084287 
L 79.74 66.084287 
z
" style="fill:#a95aa1;"/>
    </g>
    <g id="text_26">
     <!-- iBuddy -->
     <g transform="translate(107.74 73.084287)scale(0.1 -0.1)">
      <use xlink:href="#DejaVuSans-69"/>
      <use x="27.783203" xlink:href="#DejaVuSans-42"/>
      <use x="96.386719" xlink:href="#DejaVuSans-75"/>
      <use x="159.765625" xlink:href="#DejaVuSans-64"/>
      <use x="223.242188" xlink:href="#DejaVuSans-64"/>
      <use x="286.71875" xlink:href="#DejaVuSans-79"/>
     </g>
    </g>
    <g id="patch_71">
     <path d="M 79.74 87.762413 
L 99.74 87.762413 
L 99.74 80.762413 
L 79.74 80.762413 
z
" style="fill:#f5793a;"/>
    </g>
    <g id="text_27">
     <!-- Lazy Layer -->
     <g transform="translate(107.74 87.762413)scale(0.1 -0.1)">
      <defs>
       <path d="M 628 4666 
L 1259 4666 
L 1259 531 
L 3531 531 
L 3531 0 
L 628 0 
L 628 4666 
z
" id="DejaVuSans-4c" transform="scale(0.015625)"/>
      </defs>
      <use xlink:href="#DejaVuSans-4c"/>
      <use x="55.712891" xlink:href="#DejaVuSans-61"/>
      <use x="116.992188" xlink:href="#DejaVuSans-7a"/>
      <use x="169.482422" xlink:href="#DejaVuSans-79"/>
      <use x="228.662109" xlink:href="#DejaVuSans-20"/>
      <use x="260.449219" xlink:href="#DejaVuSans-4c"/>
      <use x="316.162109" xlink:href="#DejaVuSans-61"/>
      <use x="377.441406" xlink:href="#DejaVuSans-79"/>
      <use x="436.621094" xlink:href="#DejaVuSans-65"/>
      <use x="498.144531" xlink:href="#DejaVuSans-72"/>
     </g>
    </g>
   </g>
  </g>
 </g>
 <defs>
  <clipPath id="p457f70f2fc">
   <rect height="174.0816" width="438.588" x="70.74" y="27.1296"/>
  </clipPath>
 </defs>
</svg>
