<svg xmlns="http://www.w3.org/2000/svg" xmlns:xlink="http://www.w3.org/1999/xlink" xmlns:lucid="lucid" width="816.83" height="484.59"><g transform="translate(990.9222612386666 -2096.3779527559054)" lucid:page-tab-id="0_0"><path d="M-987.2 2438.9h80.64v80.94h-80.63z" stroke="#3a414a" fill="#dfe3e8"/><use xlink:href="#a" transform="matrix(1,0,0,1,-975.1918501004236,2450.8976377952745) translate(17.38888888888889 35.5625)"/><path d="M-906.34 2438.9h80v80.94h-80z" stroke="#3a414a" fill="#fff7a1"/><use xlink:href="#b" transform="matrix(1,0,0,1,-894.335103619061,2450.897637795275) translate(16.88888888888889 35.5625)"/><path d="M-987.2 2136.53h645.05v80H-987.2z" stroke="#3a414a" fill="#fff"/><use xlink:href="#c" transform="matrix(1,0,0,1,-975.1918501004235,2148.535433070866) translate(299.8888888888889 35.5)"/><path d="M-664.54 2237.32h322.4v80.95h-322.4z" stroke="#3a414a" fill="#b8f5ed"/><use xlink:href="#d" transform="matrix(1,0,0,1,-652.5449297470248,2249.322834645669) translate(138.38888888888889 35.5625)"/><path d="M-987.2 2237.32h322.4v80.95h-322.4z" stroke="#3a414a" fill="#fff"/><use xlink:href="#e" transform="matrix(1,0,0,1,-975.1916790758074,2249.322834645669) translate(138.38888888888889 35.5625)"/><path d="M-987.2 2338.3h161.27v80.95H-987.2z" stroke="#3a414a" fill="#fff"/><use xlink:href="#f" transform="matrix(1,0,0,1,-975.1918501004235,2350.3044619422576) translate(57.888888888888886 35.5625)"/><path d="M-824.8 2236.32v-18.78" stroke="#3a414a" fill="none"/><path d="M-824.33 2236.82h-.95v-.5h.95zM-824.33 2217.55h-.95v-.52h.95z" stroke="#3a414a" stroke-width=".05" fill="#3a414a"/><path d="M-503.35 2236.32v-18.78" stroke="#3a414a" fill="none"/><path d="M-502.87 2236.82h-.95v-.5h.95zM-502.87 2217.55h-.95v-.52h.95z" stroke="#3a414a" stroke-width=".05" fill="#3a414a"/><path d="M-906.56 2337.3v-18.03" stroke="#3a414a" fill="none"/><path d="M-906.1 2337.8h-.94v-.5h.95zM-906.1 2319.28h-.94v-.5h.95z" stroke="#3a414a" stroke-width=".05" fill="#3a414a"/><path d="M-866.34 2437.9v-17.65" stroke="#3a414a" fill="none"/><path d="M-865.86 2438.4h-.95v-.5h.94zM-865.86 2420.26h-.95v-.5h.94z" stroke="#3a414a" stroke-width=".05" fill="#3a414a"/><path d="M-946.88 2437.9v-17.65" stroke="#3a414a" fill="none"/><path d="M-946.4 2438.4h-.95v-.5h.95zM-946.4 2420.26h-.95v-.5h.95z" stroke="#3a414a" stroke-width=".05" fill="#3a414a"/><path d="M-986.68 2116.38h645.43M-986.18 2101.38v30M-341.75 2131.38v-30" stroke="#3a414a" fill="none"/><use xlink:href="#g" transform="matrix(1,0,0,1,-705.3965784519135,2091.044619422572) translate(0 14.222222222222223)"/><use xlink:href="#h" transform="matrix(1,0,0,1,-705.3965784519135,2091.044619422572) translate(34.567901234567906 14.222222222222223)"/><path d="M-825.8 2438.9h80.63v80.94h-80.63z" stroke="#3a414a" fill="#fff"/><use xlink:href="#i" transform="matrix(1,0,0,1,-813.80477226671,2450.8976377952745) translate(17.38888888888889 35.5625)"/><path d="M-744.95 2438.9h80v80.94h-80z" stroke="#3a414a" fill="#fff7a1"/><use xlink:href="#j" transform="matrix(1,0,0,1,-732.9480257853476,2450.897637795275) translate(5.777777777777779 35.5625)"/><path d="M-825.8 2338.3h161.25v80.95H-825.8z" stroke="#3a414a" fill="#c3f7c8"/><use xlink:href="#k" transform="matrix(1,0,0,1,-813.8047722667098,2350.3044619422576) translate(57.888888888888886 35.5625)"/><path d="M-745.17 2337.3v-18.03" stroke="#3a414a" fill="none"/><path d="M-744.7 2337.8h-.95v-.5h.95z" stroke="#3a414a" stroke-width=".05" fill="#3a414a"/><path d="M-745.17 2319.28v-.5M-704.95 2437.9v-17.65" stroke="#3a414a" fill="none"/><path d="M-704.47 2438.4h-.95v-.5h.95zM-704.47 2420.26h-.95v-.5h.95z" stroke="#3a414a" stroke-width=".05" fill="#3a414a"/><path d="M-785.5 2437.9v-17.65" stroke="#3a414a" fill="none"/><path d="M-785 2438.4h-.97v-.5h.96zM-785 2420.26h-.97v-.5h.96z" stroke="#3a414a" stroke-width=".05" fill="#3a414a"/><path d="M-664.42 2438.9h80.63v80.94h-80.62z" stroke="#3a414a" fill="#fff"/><use xlink:href="#l" transform="matrix(1,0,0,1,-652.4176944329965,2450.8976377952745) translate(7.777777777777779 35.5625)"/><path d="M-583.56 2438.9h80v80.94h-80z" stroke="#3a414a" fill="#fff7a1"/><use xlink:href="#m" transform="matrix(1,0,0,1,-571.560947951634,2450.897637795275) translate(5.777777777777779 35.5625)"/><path d="M-664.42 2338.3h161.26v80.95h-161.26z" stroke="#3a414a" fill="#fff"/><use xlink:href="#n" transform="matrix(1,0,0,1,-652.4176944329967,2350.304461942257) translate(57.888888888888886 35.5625)"/><path d="M-583.8 2337.3v-18.03" stroke="#3a414a" fill="none"/><path d="M-583.3 2337.8h-.96v-.5h.95z" stroke="#3a414a" stroke-width=".05" fill="#3a414a"/><path d="M-583.8 2319.28v-.5M-543.56 2437.9v-17.65" stroke="#3a414a" fill="none"/><path d="M-543.1 2438.4h-.94v-.5h.95zM-543.1 2420.26h-.94v-.5h.95z" stroke="#3a414a" stroke-width=".05" fill="#3a414a"/><path d="M-624.1 2437.9v-17.65" stroke="#3a414a" fill="none"/><path d="M-623.63 2438.4h-.95v-.5h.95zM-623.63 2420.26h-.95v-.5h.95z" stroke="#3a414a" stroke-width=".05" fill="#3a414a"/><path d="M-502.9 2438.9h80.63v80.94h-80.63z" stroke="#3a414a" fill="#fff"/><use xlink:href="#o" transform="matrix(1,0,0,1,-490.9033812852549,2450.8976377952745) translate(6.277777777777779 35.5625)"/><path d="M-422.05 2438.9h80v80.94h-80z" stroke="#3a414a" fill="#fff7a1"/><use xlink:href="#p" transform="matrix(1,0,0,1,-410.0466348038925,2450.897637795275) translate(5.777777777777779 35.5625)"/><path d="M-502.9 2338.3h161.26v80.95H-502.9z" stroke="#3a414a" fill="#c3f7c8"/><use xlink:href="#q" transform="matrix(1,0,0,1,-490.9033812852549,2350.3044619422576) translate(57.888888888888886 35.5625)"/><path d="M-422.27 2337.3v-18.03" stroke="#3a414a" fill="none"/><path d="M-421.8 2337.8h-.95v-.5h.95z" stroke="#3a414a" stroke-width=".05" fill="#3a414a"/><path d="M-422.27 2319.28v-.5M-382.05 2437.9v-17.65" stroke="#3a414a" fill="none"/><path d="M-381.57 2438.4h-.95v-.5h.95zM-381.57 2420.26h-.95v-.5h.95z" stroke="#3a414a" stroke-width=".05" fill="#3a414a"/><path d="M-462.6 2437.9v-17.65" stroke="#3a414a" fill="none"/><path d="M-462.1 2438.4h-.96v-.5h.95zM-462.1 2420.26h-.96v-.5h.95z" stroke="#3a414a" stroke-width=".05" fill="#3a414a"/><path d="M-341.25 2096.38h120.2v40h-120.2z" stroke="#000" stroke-opacity="0" fill="#fff" fill-opacity="0"/><use xlink:href="#r" transform="matrix(1,0,0,1,-336.24606963780184,2101.3779527559054) translate(4.537037037037045 23.208333333333332)"/><use xlink:href="#s" transform="matrix(1,0,0,1,-336.24606963780184,2101.3779527559054) translate(66.61111111111111 23.208333333333332)"/><path d="M-341.12 2176.38h60.08v40h-60.08z" stroke="#000" stroke-opacity="0" fill="#fff" fill-opacity="0"/><use xlink:href="#t" transform="matrix(1,0,0,1,-336.11900534838946,2181.3779527559054) translate(20.135802469135804 19.65277777777778)"/><path d="M-340.85 2217.95h60.08v40h-60.08z" stroke="#000" stroke-opacity="0" fill="#fff" fill-opacity="0"/><use xlink:href="#u" transform="matrix(1,0,0,1,-335.84877153465027,2222.9527559055114) translate(20.135802469135804 19.65277777777778)"/><path d="M-341.12 2257.95h60.08v40h-60.08z" stroke="#000" stroke-opacity="0" fill="#fff" fill-opacity="0"/><use xlink:href="#v" transform="matrix(1,0,0,1,-336.11900534838946,2262.9527559055114) translate(20.135802469135804 19.65277777777778)"/><path d="M-281.04 2186.38h20v20h-20z" stroke="#3a414a" fill="#b8f5ed"/><path d="M-281.04 2227.16h20v20h-20z" stroke="#3a414a" fill="#c3f7c8"/><path d="M-252.5 2267.1h20v20h-20z" stroke="#3a414a" fill="#fff7a1"/><path d="M-341.12 2136.38h60.08v40h-60.08z" stroke="#000" stroke-opacity="0" fill="#fff" fill-opacity="0"/><use xlink:href="#w" transform="matrix(1,0,0,1,-336.11900534838946,2141.3779527559054) translate(7.79012345679012 19.65277777777778)"/><path d="M-942.32 2540.16H-902v40.3h-40.32zM-902 2540.16h40.3v40.3H-902z" stroke="#3a414a" fill="#f2f3f5"/><path d="M-862.1 2540.16h40.33v40.3h-40.32z" stroke="#3a414a" fill="#b8f5ed"/><path d="M-821.77 2540.16h40.3v40.3h-40.3z" stroke="#3a414a" fill="#f2f3f5"/><path d="M-781.86 2540.16h40.3v40.3h-40.3z" stroke="#3a414a" fill="#c3f7c8"/><path d="M-741.55 2540.16h40.32v40.3h-40.32z" stroke="#3a414a" fill="#f2f3f5"/><path d="M-701.63 2540.16h40.3v40.3h-40.3z" stroke="#3a414a" fill="#c3f7c8"/><path d="M-661.32 2540.16h40.3v40.3h-40.3z" stroke="#3a414a" fill="#f2f3f5"/><path d="M-621.4 2540.16h40.3v40.3h-40.3z" stroke="#3a414a" fill="#fff7a1"/><path d="M-581.1 2540.16h40.32v40.3h-40.3z" stroke="#3a414a" fill="#f2f3f5"/><path d="M-541.18 2540.16h40.3v40.3h-40.3z" stroke="#3a414a" fill="#fff7a1"/><path d="M-500.87 2540.16h40.32v40.3h-40.32z" stroke="#3a414a" fill="#f2f3f5"/><path d="M-460.95 2540.16h40.3v40.3h-40.3z" stroke="#3a414a" fill="#fff7a1"/><path d="M-420.64 2540.16h40.31v40.3h-40.3z" stroke="#3a414a" fill="#f2f3f5"/><path d="M-380.73 2540.16h40.32v40.3h-40.33z" stroke="#3a414a" fill="#fff7a1"/><path d="M-252.5 2227.16h20v20h-20z" stroke="#3a414a" fill="#c3f7c8"/><path d="M-281.53 2267.1h20v20h-20zM-223.55 2267.1h20v20h-20zM-194.6 2267.1h20v20h-20z" stroke="#3a414a" fill="#fff7a1"/><path d="M-990.92 2540.3h45.7v40.17h-45.7z" stroke="#000" stroke-opacity="0" fill="#fff" fill-opacity="0"/><g><use xlink:href="#x" transform="matrix(1,0,0,1,-985.9222612386666,2545.314960629922) translate(-5.666666666666664 21.333333333333332)"/></g><defs><path fill="#3a414a" d="M64 0c3-98 48-159 88-221H18v-27h164v26C143-157 98-101 97 0H64" id="y"/><use transform="matrix(0.1111111111111111,0,0,0.1111111111111111,0,0)" xlink:href="#y" id="a"/><path fill="#3a414a" d="M134-131c28 9 52 24 51 62-1 50-34 73-85 73S17-19 16-69c0-36 21-54 49-61-75-25-45-126 34-121 46 3 78 18 79 63 0 33-17 51-44 57zm-34-11c31 1 46-15 46-44 0-28-17-43-47-42-29 0-46 13-45 42 1 28 16 44 46 44zm1 122c35 0 51-18 51-52 0-30-18-46-53-46-33 0-51 17-51 47 0 34 19 51 53 51" id="z"/><use transform="matrix(0.1111111111111111,0,0,0.1111111111111111,0,0)" xlink:href="#z" id="b"/><path fill="#3a414a" d="M101-251c68 0 85 55 85 127S166 4 100 4C33 4 14-52 14-124c0-73 17-127 87-127zm-1 229c47 0 54-49 54-102s-4-102-53-102c-51 0-55 48-55 102 0 53 5 102 54 102" id="A"/><use transform="matrix(0.1111111111111111,0,0,0.1111111111111111,0,0)" xlink:href="#A" id="c"/><path fill="#3a414a" d="M101-251c82-7 93 87 43 132L82-64C71-53 59-42 53-27h129V0H18c2-99 128-94 128-182 0-28-16-43-45-43s-46 15-49 41l-32-3c6-41 34-60 81-64" id="B"/><use transform="matrix(0.1111111111111111,0,0,0.1111111111111111,0,0)" xlink:href="#B" id="d"/><path fill="#3a414a" d="M27 0v-27h64v-190l-56 39v-29l58-41h29v221h61V0H27" id="C"/><use transform="matrix(0.1111111111111111,0,0,0.1111111111111111,0,0)" xlink:href="#C" id="e"/><path fill="#3a414a" d="M126-127c33 6 58 20 58 59 0 88-139 92-164 29-3-8-5-16-6-25l32-3c6 27 21 44 54 44 32 0 52-15 52-46 0-38-36-46-79-43v-28c39 1 72-4 72-42 0-27-17-43-46-43-28 0-47 15-49 41l-32-3c6-42 35-63 81-64 48-1 79 21 79 65 0 36-21 52-52 59" id="D"/><use transform="matrix(0.1111111111111111,0,0,0.1111111111111111,0,0)" xlink:href="#D" id="f"/><path fill="#333" d="M23 0v-37h61v-169l-59 37v-38l62-41h46v211h57V0H23" id="E"/><path fill="#333" d="M182-182c0 78-84 86-111 141h115V0H12c-6-101 99-100 120-180 1-22-12-31-33-32-23 0-32 14-35 34l-49-3c5-45 32-70 84-70 51 0 83 22 83 69" id="F"/><path fill="#333" d="M138-131c27 9 52 24 51 61 0 53-36 74-89 74S11-19 11-69c0-35 22-54 51-61-78-25-46-121 38-121 51 0 83 19 83 66 0 30-18 49-45 54zm-38-16c24 0 32-13 32-36 1-23-11-34-32-34-22 0-33 12-32 34 0 22 9 36 32 36zm1 116c27 0 37-17 37-43 0-25-13-39-39-39-24 0-37 15-37 40 0 27 11 42 39 42" id="G"/><g id="g"><use transform="matrix(0.04938271604938272,0,0,0.04938271604938272,0,0)" xlink:href="#E"/><use transform="matrix(0.04938271604938272,0,0,0.04938271604938272,9.876543209876544,0)" xlink:href="#F"/><use transform="matrix(0.04938271604938272,0,0,0.04938271604938272,19.75308641975309,0)" xlink:href="#G"/></g><path fill="#333" d="M182-130c37 4 62 22 62 59C244 23 116-4 24 0v-248c84 5 203-23 205 63 0 31-19 50-47 55zM76-148c40-3 101 13 101-30 0-44-60-28-101-31v61zm0 110c48-3 116 14 116-37 0-48-69-32-116-35v72" id="H"/><path fill="#333" d="M123 10C108 53 80 86 19 72V37c35 8 53-11 59-39L3-190h52l48 148c12-52 28-100 44-148h51" id="I"/><path fill="#333" d="M115-3C79 11 28 4 28-45v-112H4v-33h27l15-45h31v45h36v33H77v99c-1 23 16 31 38 25v30" id="J"/><path fill="#333" d="M185-48c-13 30-37 53-82 52C43 2 14-33 14-96s30-98 90-98c62 0 83 45 84 108H66c0 31 8 55 39 56 18 0 30-7 34-22zm-45-69c5-46-57-63-70-21-2 6-4 13-4 21h74" id="K"/><path fill="#333" d="M137-138c1-29-70-34-71-4 15 46 118 7 119 86 1 83-164 76-172 9l43-7c4 19 20 25 44 25 33 8 57-30 24-41C81-84 22-81 20-136c-2-80 154-74 161-7" id="L"/><g id="h"><use transform="matrix(0.04938271604938272,0,0,0.04938271604938272,0,0)" xlink:href="#H"/><use transform="matrix(0.04938271604938272,0,0,0.04938271604938272,12.790123456790125,0)" xlink:href="#I"/><use transform="matrix(0.04938271604938272,0,0,0.04938271604938272,22.66666666666667,0)" xlink:href="#J"/><use transform="matrix(0.04938271604938272,0,0,0.04938271604938272,28.54320987654322,0)" xlink:href="#K"/><use transform="matrix(0.04938271604938272,0,0,0.04938271604938272,38.41975308641976,0)" xlink:href="#L"/></g><path fill="#3a414a" d="M99-251c64 0 84 50 84 122C183-37 130 33 47-8c-14-7-20-23-25-40l30-5c6 39 69 39 84 7 9-19 16-44 16-74-10 22-31 35-62 35-49 0-73-33-73-83 0-54 28-83 82-83zm-1 141c31-1 51-18 51-49 0-36-14-67-51-67-34 0-49 23-49 58 0 34 15 58 49 58" id="M"/><use transform="matrix(0.1111111111111111,0,0,0.1111111111111111,0,0)" xlink:href="#M" id="i"/><g id="j"><use transform="matrix(0.1111111111111111,0,0,0.1111111111111111,0,0)" xlink:href="#C"/><use transform="matrix(0.1111111111111111,0,0,0.1111111111111111,22.22222222222222,0)" xlink:href="#A"/></g><path fill="#3a414a" d="M155-56V0h-30v-56H8v-25l114-167h33v167h35v25h-35zm-30-156c-27 46-58 90-88 131h88v-131" id="N"/><use transform="matrix(0.1111111111111111,0,0,0.1111111111111111,0,0)" xlink:href="#N" id="k"/><g id="l"><use transform="matrix(0.1111111111111111,0,0,0.1111111111111111,0,0)" xlink:href="#C"/><use transform="matrix(0.1111111111111111,0,0,0.1111111111111111,19.22222222222222,0)" xlink:href="#C"/></g><g id="m"><use transform="matrix(0.1111111111111111,0,0,0.1111111111111111,0,0)" xlink:href="#C"/><use transform="matrix(0.1111111111111111,0,0,0.1111111111111111,22.22222222222222,0)" xlink:href="#B"/></g><path fill="#3a414a" d="M54-142c48-35 137-8 131 61C196 18 31 33 14-55l32-4c7 23 22 37 52 37 35-1 51-22 54-58 4-55-73-65-99-34H22l8-134h141v27H59" id="O"/><use transform="matrix(0.1111111111111111,0,0,0.1111111111111111,0,0)" xlink:href="#O" id="n"/><g id="o"><use transform="matrix(0.1111111111111111,0,0,0.1111111111111111,0,0)" xlink:href="#C"/><use transform="matrix(0.1111111111111111,0,0,0.1111111111111111,22.22222222222222,0)" xlink:href="#D"/></g><g id="p"><use transform="matrix(0.1111111111111111,0,0,0.1111111111111111,0,0)" xlink:href="#C"/><use transform="matrix(0.1111111111111111,0,0,0.1111111111111111,22.22222222222222,0)" xlink:href="#N"/></g><path fill="#3a414a" d="M110-160c48 1 74 30 74 79 0 53-28 85-80 85-65 0-83-55-86-122-5-90 50-162 133-122 14 7 22 21 27 39l-31 6c-5-40-67-38-82-6-9 19-15 44-15 74 11-20 30-34 60-33zm-7 138c34 0 49-23 49-58s-16-56-50-56c-29 0-50 16-49 49 1 36 15 65 50 65" id="P"/><use transform="matrix(0.1111111111111111,0,0,0.1111111111111111,0,0)" xlink:href="#P" id="q"/><path fill="#3a414a" d="M63-220v92h138v28H63V0H30v-248h175v28H63" id="Q"/><path fill="#3a414a" d="M114-163C36-179 61-72 57 0H25l-1-190h30c1 12-1 29 2 39 6-27 23-49 58-41v29" id="R"/><path fill="#3a414a" d="M100-194c63 0 86 42 84 106H49c0 40 14 67 53 68 26 1 43-12 49-29l28 8c-11 28-37 45-77 45C44 4 14-33 15-96c1-61 26-98 85-98zm52 81c6-60-76-77-97-28-3 7-6 17-6 28h103" id="S"/><g id="r"><use transform="matrix(0.07407407407407407,0,0,0.07407407407407407,0,0)" xlink:href="#Q"/><use transform="matrix(0.07407407407407407,0,0,0.07407407407407407,16.22222222222222,0)" xlink:href="#R"/><use transform="matrix(0.07407407407407407,0,0,0.07407407407407407,25.037037037037038,0)" xlink:href="#S"/><use transform="matrix(0.07407407407407407,0,0,0.07407407407407407,39.85185185185185,0)" xlink:href="#S"/></g><path fill="#3a414a" d="M24 0v-261h32V0H24" id="T"/><path fill="#3a414a" d="M24-231v-30h32v30H24zM24 0v-190h32V0H24" id="U"/><path fill="#3a414a" d="M135-143c-3-34-86-38-87 0 15 53 115 12 119 90S17 21 10-45l28-5c4 36 97 45 98 0-10-56-113-15-118-90-4-57 82-63 122-42 12 7 21 19 24 35" id="V"/><path fill="#3a414a" d="M59-47c-2 24 18 29 38 22v24C64 9 27 4 27-40v-127H5v-23h24l9-43h21v43h35v23H59v120" id="W"/><path fill="#3a414a" d="M33-154v-36h34v36H33zM33 0v-36h34V0H33" id="X"/><g id="s"><use transform="matrix(0.07407407407407407,0,0,0.07407407407407407,0,0)" xlink:href="#T"/><use transform="matrix(0.07407407407407407,0,0,0.07407407407407407,5.851851851851851,0)" xlink:href="#U"/><use transform="matrix(0.07407407407407407,0,0,0.07407407407407407,11.703703703703702,0)" xlink:href="#V"/><use transform="matrix(0.07407407407407407,0,0,0.07407407407407407,25.037037037037035,0)" xlink:href="#W"/><use transform="matrix(0.07407407407407407,0,0,0.07407407407407407,32.44444444444444,0)" xlink:href="#X"/></g><g id="t"><use transform="matrix(0.06172839506172839,0,0,0.06172839506172839,0,0)" xlink:href="#P"/><use transform="matrix(0.06172839506172839,0,0,0.06172839506172839,12.345679012345679,0)" xlink:href="#N"/><use transform="matrix(0.06172839506172839,0,0,0.06172839506172839,24.691358024691358,0)" xlink:href="#X"/></g><g id="u"><use transform="matrix(0.06172839506172839,0,0,0.06172839506172839,0,0)" xlink:href="#D"/><use transform="matrix(0.06172839506172839,0,0,0.06172839506172839,12.345679012345679,0)" xlink:href="#B"/><use transform="matrix(0.06172839506172839,0,0,0.06172839506172839,24.691358024691358,0)" xlink:href="#X"/></g><g id="v"><use transform="matrix(0.06172839506172839,0,0,0.06172839506172839,0,0)" xlink:href="#C"/><use transform="matrix(0.06172839506172839,0,0,0.06172839506172839,12.345679012345679,0)" xlink:href="#P"/><use transform="matrix(0.06172839506172839,0,0,0.06172839506172839,24.691358024691358,0)" xlink:href="#X"/></g><g id="w"><use transform="matrix(0.06172839506172839,0,0,0.06172839506172839,0,0)" xlink:href="#C"/><use transform="matrix(0.06172839506172839,0,0,0.06172839506172839,12.345679012345679,0)" xlink:href="#B"/><use transform="matrix(0.06172839506172839,0,0,0.06172839506172839,24.691358024691358,0)" xlink:href="#z"/><use transform="matrix(0.06172839506172839,0,0,0.06172839506172839,37.03703703703704,0)" xlink:href="#X"/></g><path fill="#3a414a" d="M160-131c35 5 61 23 61 61C221 17 115-2 30 0v-248c76 3 177-17 177 60 0 33-19 50-47 57zm-97-11c50-1 110 9 110-42 0-47-63-36-110-37v79zm0 115c55-2 124 14 124-45 0-56-70-42-124-44v89" id="Y"/><path fill="#3a414a" d="M240 0l2-218c-23 76-54 145-80 218h-23L58-218 59 0H30v-248h44l77 211c21-75 51-140 76-211h43V0h-30" id="Z"/><g id="x"><use transform="matrix(0.07407407407407407,0,0,0.07407407407407407,0,0)" xlink:href="#Y"/><use transform="matrix(0.07407407407407407,0,0,0.07407407407407407,17.77777777777778,0)" xlink:href="#Z"/><use transform="matrix(0.07407407407407407,0,0,0.07407407407407407,39.925925925925924,0)" xlink:href="#X"/></g></defs></g></svg>