<svg xmlns="http://www.w3.org/2000/svg" xmlns:xlink="http://www.w3.org/1999/xlink" xmlns:lucid="lucid" width="1230.42" height="544.17"><g transform="translate(1148.1074072013073 -2942.9921259842517)" lucid:page-tab-id="0_0"><path d="M-986.96 3325.83h80.63v80.94h-80.63z" stroke="#3a414a" fill="#979ea8"/><use xlink:href="#a" transform="matrix(1,0,0,1,-974.9592269437334,3337.8267716535424) translate(15.537037037037035 40.895833333333336)"/><path d="M-906.1 3325.83h80v80.94h-80z" stroke="#3a414a" fill="#fff7a1"/><use xlink:href="#b" transform="matrix(1,0,0,1,-894.1024804623705,3337.826771653543) translate(15.037037037037035 40.895833333333336)"/><path d="M-986.96 3023.47h645.04v80h-645.04z" stroke="#3a414a" fill="#fff"/><use xlink:href="#c" transform="matrix(1,0,0,1,-974.959226943733,3035.464566929133) translate(298.037037037037 40.833333333333336)"/><path d="M-664.3 3124.25h322.38v80.95h-322.4z" stroke="#3a414a" fill="#979ea8"/><use xlink:href="#d" transform="matrix(1,0,0,1,-652.3123065903344,3136.251968503936) translate(136.53703703703704 40.895833333333336)"/><path d="M-986.96 3124.25h322.4v80.95h-322.4z" stroke="#3a414a" fill="#fff"/><use xlink:href="#e" transform="matrix(1,0,0,1,-974.959055919117,3136.251968503936) translate(136.53703703703704 40.895833333333336)"/><path d="M-986.96 3225.23h161.26v80.95h-161.26z" stroke="#3a414a" fill="#fff"/><use xlink:href="#f" transform="matrix(1,0,0,1,-974.959226943733,3237.233595800525) translate(56.03703703703704 40.895833333333336)"/><path d="M-824.58 3123.25v-18.78" stroke="#3a414a" fill="none"/><path d="M-824.1 3123.75h-.95v-.5h.95zM-824.1 3104.48h-.95v-.5h.95z" stroke="#3a414a" stroke-width=".05" fill="#3a414a"/><path d="M-503.12 3123.25v-18.78" stroke="#3a414a" fill="none"/><path d="M-502.64 3123.75h-.95v-.5h.96zM-502.64 3104.48h-.95v-.5h.96z" stroke="#3a414a" stroke-width=".05" fill="#3a414a"/><path d="M-906.33 3224.23v-18.03" stroke="#3a414a" fill="none"/><path d="M-905.85 3224.73h-.95v-.5h.95zM-905.85 3206.2h-.95v-.5h.95z" stroke="#3a414a" stroke-width=".05" fill="#3a414a"/><path d="M-866.1 3324.83v-17.65" stroke="#3a414a" fill="none"/><path d="M-865.63 3325.33h-.95v-.52h.95zM-865.63 3307.2h-.95v-.52h.95z" stroke="#3a414a" stroke-width=".05" fill="#3a414a"/><path d="M-946.64 3324.83v-17.65" stroke="#3a414a" fill="none"/><path d="M-946.17 3325.33h-.95v-.52h.95zM-946.17 3307.2h-.95v-.52h.95z" stroke="#3a414a" stroke-width=".05" fill="#3a414a"/><path d="M-986.45 3003.3h643.77M-983.45 2988.3v30M-345.68 3018.3v-30" stroke="#3a414a" stroke-width="6" fill="none"/><use xlink:href="#g" transform="matrix(1,0,0,1,-788.860012262697,2935.307086614173) translate(0 42.66666666666667)"/><use xlink:href="#h" transform="matrix(1,0,0,1,-788.860012262697,2935.307086614173) translate(103.70370370370372 42.66666666666667)"/><path d="M-825.57 3325.83h80.63v80.94h-80.63z" stroke="#3a414a" fill="#fff"/><use xlink:href="#i" transform="matrix(1,0,0,1,-813.5721491100197,3337.8267716535424) translate(15.537037037037035 40.895833333333336)"/><path d="M-744.7 3325.83h80v80.94h-80z" stroke="#3a414a" fill="#fff7a1"/><use xlink:href="#j" transform="matrix(1,0,0,1,-732.7154026286573,3337.826771653543) translate(2.074074074074069 40.895833333333336)"/><path d="M-825.57 3225.23h161.26v80.95h-161.27z" stroke="#3a414a" fill="#c3f7c8"/><use xlink:href="#k" transform="matrix(1,0,0,1,-813.5721491100196,3237.233595800525) translate(56.03703703703704 40.895833333333336)"/><path d="M-744.94 3224.23v-18.03" stroke="#3a414a" fill="none"/><path d="M-744.47 3224.73h-.95v-.5h.95z" stroke="#3a414a" stroke-width=".05" fill="#3a414a"/><path d="M-744.94 3206.2v-.5M-704.7 3324.83v-17.65" stroke="#3a414a" fill="none"/><path d="M-704.24 3325.33h-.95v-.52h.96zM-704.24 3307.2h-.95v-.52h.96z" stroke="#3a414a" stroke-width=".05" fill="#3a414a"/><path d="M-785.26 3324.83v-17.65" stroke="#3a414a" fill="none"/><path d="M-784.78 3325.33h-.95v-.52h.95zM-784.78 3307.2h-.95v-.52h.95z" stroke="#3a414a" stroke-width=".05" fill="#3a414a"/><path d="M-664.18 3325.83h80.63v80.94h-80.63z" stroke="#3a414a" fill="#fff"/><use xlink:href="#l" transform="matrix(1,0,0,1,-652.1850712763063,3337.8267716535415) translate(3.8703703703703667 40.895833333333336)"/><path d="M-583.33 3325.83h80v80.94h-80z" stroke="#3a414a" fill="#fff"/><use xlink:href="#m" transform="matrix(1,0,0,1,-571.3283247949437,3337.826771653542) translate(2.074074074074069 40.895833333333336)"/><path d="M-664.18 3225.23h161.25v80.95h-161.25z" stroke="#3a414a" fill="#fff"/><use xlink:href="#n" transform="matrix(1,0,0,1,-652.1850712763064,3237.233595800524) translate(56.03703703703704 40.895833333333336)"/><path d="M-583.55 3224.23v-18.03" stroke="#3a414a" fill="none"/><path d="M-583.08 3224.73h-.95v-.5h.95z" stroke="#3a414a" stroke-width=".05" fill="#3a414a"/><path d="M-583.55 3206.2v-.5M-543.33 3324.83v-17.65" stroke="#3a414a" fill="none"/><path d="M-542.85 3325.33h-.95v-.52h.95zM-542.85 3307.2h-.95v-.52h.95z" stroke="#3a414a" stroke-width=".05" fill="#3a414a"/><path d="M-623.87 3324.83v-17.65" stroke="#3a414a" fill="none"/><path d="M-623.4 3325.33h-.95v-.52h.96zM-623.4 3307.2h-.95v-.52h.96z" stroke="#3a414a" stroke-width=".05" fill="#3a414a"/><path d="M-502.67 3325.83h80.63v80.94h-80.63z" stroke="#3a414a" fill="#fff"/><use xlink:href="#o" transform="matrix(1,0,0,1,-490.67075812856456,3337.8267716535424) translate(2.574074074074069 40.895833333333336)"/><path d="M-421.8 3325.83h80v80.94h-80z" stroke="#3a414a" fill="#fff"/><use xlink:href="#p" transform="matrix(1,0,0,1,-409.81401164720216,3337.826771653543) translate(2.074074074074069 40.895833333333336)"/><path d="M-502.67 3225.23h161.26v80.95h-161.27z" stroke="#3a414a" fill="#fff"/><use xlink:href="#q" transform="matrix(1,0,0,1,-490.67075812856456,3237.233595800525) translate(56.03703703703704 40.895833333333336)"/><path d="M-422.04 3224.23v-18.03" stroke="#3a414a" fill="none"/><path d="M-421.57 3224.73h-.95v-.5h.95z" stroke="#3a414a" stroke-width=".05" fill="#3a414a"/><path d="M-422.04 3206.2v-.5M-381.8 3324.83v-17.65" stroke="#3a414a" fill="none"/><path d="M-381.34 3325.33h-.95v-.52h.96zM-381.34 3307.2h-.95v-.52h.96z" stroke="#3a414a" stroke-width=".05" fill="#3a414a"/><path d="M-462.36 3324.83v-17.65" stroke="#3a414a" fill="none"/><path d="M-461.88 3325.33h-.95v-.52h.95zM-461.88 3307.2h-.95v-.52h.95z" stroke="#3a414a" stroke-width=".05" fill="#3a414a"/><path d="M-302.12 2943H82.3v61.13H-302.1z" stroke="#000" stroke-opacity="0" fill="#fff" fill-opacity="0"/><use xlink:href="#r" transform="matrix(1,0,0,1,-297.12223502075176,2947.9921259842517) translate(0 42.66666666666667)"/><use xlink:href="#s" transform="matrix(1,0,0,1,-297.12223502075176,2947.9921259842517) translate(127.25925925925927 42.66666666666667)"/><path d="M-263.5 3325.83h81.77v80.86h-81.78z" stroke="#000" stroke-opacity="0" fill="#fff" fill-opacity="0"/><use xlink:href="#t" transform="matrix(1,0,0,1,-258.5046894640819,3330.82677165354) translate(-2.074074074074076 46.16666666666667)"/><path d="M-986.96 3426.77h40.32v40.32h-40.32zM-946.64 3426.77h40.3v40.32h-40.3z" stroke="#3a414a" fill="#fff"/><path d="M-906.73 3426.77h40.3v40.32h-40.3zM-866.42 3426.77h40.32v40.32h-40.32z" stroke="#3a414a" fill="#fff"/><path d="M-826.5 3426.77h40.3v40.32h-40.3z" stroke="#3a414a" fill="#c3f7c8"/><path d="M-786.2 3426.77h40.32v40.32h-40.3z" stroke="#3a414a" fill="#fff"/><path d="M-746.28 3426.77h40.32v40.32h-40.32z" stroke="#3a414a" fill="#fff"/><path d="M-705.96 3426.77h40.3v40.32h-40.3z" stroke="#3a414a" fill="#fff"/><path d="M-666.05 3426.77h40.3v40.32h-40.3z" stroke="#3a414a" fill="#fff7a1"/><path d="M-625.74 3426.77h40.32v40.32h-40.32z" stroke="#3a414a" fill="#fff"/><path d="M-585.83 3426.77h40.32v40.32h-40.33z" stroke="#3a414a" fill="#fff7a1"/><path d="M-545.5 3426.77h40.3v40.32h-40.3z" stroke="#3a414a" fill="#fff"/><path d="M-505.6 3426.77h40.32v40.32h-40.32zM-465.28 3426.77h40.3v40.32h-40.3z" stroke="#3a414a" fill="#fff"/><path d="M-425.37 3426.77h40.3v40.32h-40.3z" stroke="#3a414a" fill="#fff"/><path d="M-181.73 3225.3h79.9v80.88h-79.9z" stroke="#3a414a" fill="#c3f7c8"/><path d="M-180.7 3325.83h79.9v80.94h-79.9zM-80.63 3325.83h79.9v80.94h-79.9z" stroke="#3a414a" fill="#fff7a1"/><path d="M-263.5 3225.23h81.77v80.87h-81.78z" stroke="#000" stroke-opacity="0" fill="#fff" fill-opacity="0"/><use xlink:href="#u" transform="matrix(1,0,0,1,-258.5046894640819,3230.233595800524) translate(-2.074074074074076 46.16666666666667)"/><path d="M-263.5 3124.25h81.77v80.87h-81.78z" stroke="#000" stroke-opacity="0" fill="#fff" fill-opacity="0"/><use xlink:href="#v" transform="matrix(1,0,0,1,-258.5046894640819,3129.251968503936) translate(-2.074074074074076 46.16666666666667)"/><path d="M-263.5 3024.02h81.77v80.86h-81.78z" stroke="#000" stroke-opacity="0" fill="#fff" fill-opacity="0"/><use xlink:href="#w" transform="matrix(1,0,0,1,-258.5046894640819,3029.0157480314956) translate(-31.703703703703724 46.16666666666667)"/><path d="M-1148.1 3406.7h161.14v80.47h-161.15z" stroke="#000" stroke-opacity="0" fill="#fff" fill-opacity="0"/><g><use xlink:href="#x" transform="matrix(1,0,0,1,-1143.1074072013073,3411.692913385824) translate(3.555555555555543 43.09375)"/></g><defs><path fill="#3a414a" d="M52 0c1-96 47-148 87-207H15v-41h169v40c-36 62-79 113-81 208H52" id="y"/><use transform="matrix(0.12962962962962965,0,0,0.12962962962962965,0,0)" xlink:href="#y" id="a"/><path fill="#3a414a" d="M138-131c27 9 52 24 51 61 0 53-36 74-89 74S11-19 11-69c0-35 22-54 51-61-78-25-46-121 38-121 51 0 83 19 83 66 0 30-18 49-45 54zm-38-16c24 0 32-13 32-36 1-23-11-34-32-34-22 0-33 12-32 34 0 22 9 36 32 36zm1 116c27 0 37-17 37-43 0-25-13-39-39-39-24 0-37 15-37 40 0 27 11 42 39 42" id="z"/><use transform="matrix(0.12962962962962965,0,0,0.12962962962962965,0,0)" xlink:href="#z" id="b"/><path fill="#3a414a" d="M101-251c68 0 84 54 84 127C185-50 166 4 99 4S15-52 14-124c-1-75 17-127 87-127zm-1 216c37-5 36-46 36-89s4-89-36-89c-39 0-36 45-36 89 0 43-3 85 36 89" id="A"/><use transform="matrix(0.12962962962962965,0,0,0.12962962962962965,0,0)" xlink:href="#A" id="c"/><path fill="#3a414a" d="M182-182c0 78-84 86-111 141h115V0H12c-6-101 99-100 120-180 1-22-12-31-33-32-23 0-32 14-35 34l-49-3c5-45 32-70 84-70 51 0 83 22 83 69" id="B"/><use transform="matrix(0.12962962962962965,0,0,0.12962962962962965,0,0)" xlink:href="#B" id="d"/><path fill="#3a414a" d="M23 0v-37h61v-169l-59 37v-38l62-41h46v211h57V0H23" id="C"/><use transform="matrix(0.12962962962962965,0,0,0.12962962962962965,0,0)" xlink:href="#C" id="e"/><path fill="#3a414a" d="M128-127c34 4 56 21 59 58 7 91-148 94-172 28-4-9-6-17-7-26l51-5c1 24 16 35 40 36 23 0 39-12 38-36-1-31-31-36-65-34v-40c32 2 59-3 59-33 0-20-13-33-34-33s-33 13-35 32l-50-3c6-44 37-68 86-68 50 0 83 20 83 66 0 35-22 52-53 58" id="D"/><use transform="matrix(0.12962962962962965,0,0,0.12962962962962965,0,0)" xlink:href="#D" id="f"/><path fill="#333" d="M23 0v-37h61v-169l-59 37v-38l62-41h46v211h57V0H23" id="E"/><path fill="#333" d="M182-182c0 78-84 86-111 141h115V0H12c-6-101 99-100 120-180 1-22-12-31-33-32-23 0-32 14-35 34l-49-3c5-45 32-70 84-70 51 0 83 22 83 69" id="F"/><path fill="#333" d="M138-131c27 9 52 24 51 61 0 53-36 74-89 74S11-19 11-69c0-35 22-54 51-61-78-25-46-121 38-121 51 0 83 19 83 66 0 30-18 49-45 54zm-38-16c24 0 32-13 32-36 1-23-11-34-32-34-22 0-33 12-32 34 0 22 9 36 32 36zm1 116c27 0 37-17 37-43 0-25-13-39-39-39-24 0-37 15-37 40 0 27 11 42 39 42" id="G"/><g id="g"><use transform="matrix(0.14814814814814817,0,0,0.14814814814814817,0,0)" xlink:href="#E"/><use transform="matrix(0.14814814814814817,0,0,0.14814814814814817,29.629629629629633,0)" xlink:href="#F"/><use transform="matrix(0.14814814814814817,0,0,0.14814814814814817,59.25925925925927,0)" xlink:href="#G"/></g><path fill="#333" d="M182-130c37 4 62 22 62 59C244 23 116-4 24 0v-248c84 5 203-23 205 63 0 31-19 50-47 55zM76-148c40-3 101 13 101-30 0-44-60-28-101-31v61zm0 110c48-3 116 14 116-37 0-48-69-32-116-35v72" id="H"/><path fill="#333" d="M123 10C108 53 80 86 19 72V37c35 8 53-11 59-39L3-190h52l48 148c12-52 28-100 44-148h51" id="I"/><path fill="#333" d="M115-3C79 11 28 4 28-45v-112H4v-33h27l15-45h31v45h36v33H77v99c-1 23 16 31 38 25v30" id="J"/><path fill="#333" d="M185-48c-13 30-37 53-82 52C43 2 14-33 14-96s30-98 90-98c62 0 83 45 84 108H66c0 31 8 55 39 56 18 0 30-7 34-22zm-45-69c5-46-57-63-70-21-2 6-4 13-4 21h74" id="K"/><path fill="#333" d="M137-138c1-29-70-34-71-4 15 46 118 7 119 86 1 83-164 76-172 9l43-7c4 19 20 25 44 25 33 8 57-30 24-41C81-84 22-81 20-136c-2-80 154-74 161-7" id="L"/><g id="h"><use transform="matrix(0.14814814814814817,0,0,0.14814814814814817,0,0)" xlink:href="#H"/><use transform="matrix(0.14814814814814817,0,0,0.14814814814814817,38.370370370370374,0)" xlink:href="#I"/><use transform="matrix(0.14814814814814817,0,0,0.14814814814814817,68,0)" xlink:href="#J"/><use transform="matrix(0.14814814814814817,0,0,0.14814814814814817,85.62962962962965,0)" xlink:href="#K"/><use transform="matrix(0.14814814814814817,0,0,0.14814814814814817,115.25925925925928,0)" xlink:href="#L"/></g><path fill="#3a414a" d="M99-251c69 0 84 53 88 123 5 99-61 162-144 118-15-8-21-25-26-45l46-6c4 31 50 33 63 7 7-15 12-36 12-60-9 18-29 28-54 28-48 0-72-32-72-82 0-55 31-83 87-83zm-1 128c24 0 37-16 37-39 0-27-10-51-37-51-25 0-35 19-35 45 0 25 10 45 35 45" id="M"/><use transform="matrix(0.12962962962962965,0,0,0.12962962962962965,0,0)" xlink:href="#M" id="i"/><g id="j"><use transform="matrix(0.12962962962962965,0,0,0.12962962962962965,0,0)" xlink:href="#C"/><use transform="matrix(0.12962962962962965,0,0,0.12962962962962965,25.92592592592593,0)" xlink:href="#A"/></g><path fill="#3a414a" d="M165-50V0h-47v-50H5v-38l105-160h55v161h33v37h-33zm-47-37l2-116L46-87h72" id="N"/><use transform="matrix(0.12962962962962965,0,0,0.12962962962962965,0,0)" xlink:href="#N" id="k"/><g id="l"><use transform="matrix(0.12962962962962965,0,0,0.12962962962962965,0,0)" xlink:href="#C"/><use transform="matrix(0.12962962962962965,0,0,0.12962962962962965,23.33333333333334,0)" xlink:href="#C"/></g><g id="m"><use transform="matrix(0.12962962962962965,0,0,0.12962962962962965,0,0)" xlink:href="#C"/><use transform="matrix(0.12962962962962965,0,0,0.12962962962962965,25.92592592592593,0)" xlink:href="#B"/></g><path fill="#3a414a" d="M139-81c0-46-55-55-73-27H18l9-140h149v37H72l-4 63c44-38 133-4 122 66C201 21 21 35 11-62l49-4c5 18 15 30 39 30 26 0 40-18 40-45" id="O"/><use transform="matrix(0.12962962962962965,0,0,0.12962962962962965,0,0)" xlink:href="#O" id="n"/><g id="o"><use transform="matrix(0.12962962962962965,0,0,0.12962962962962965,0,0)" xlink:href="#C"/><use transform="matrix(0.12962962962962965,0,0,0.12962962962962965,25.92592592592593,0)" xlink:href="#D"/></g><g id="p"><use transform="matrix(0.12962962962962965,0,0,0.12962962962962965,0,0)" xlink:href="#C"/><use transform="matrix(0.12962962962962965,0,0,0.12962962962962965,25.92592592592593,0)" xlink:href="#N"/></g><path fill="#3a414a" d="M115-159c48 0 72 30 72 78 0 54-30 85-83 85-64 0-91-50-91-122 0-98 58-163 141-120 15 8 21 24 27 44l-47 6c-5-31-48-31-61-4-7 14-11 33-11 60 9-17 28-27 53-27zM102-35c24 0 36-20 36-45s-11-43-37-43c-23 0-36 14-36 38 0 27 11 50 37 50" id="P"/><use transform="matrix(0.12962962962962965,0,0,0.12962962962962965,0,0)" xlink:href="#P" id="q"/><path fill="#3a414a" d="M76-208v77h127v40H76V0H24v-248h183v40H76" id="Q"/><path fill="#3a414a" d="M135-150c-39-12-60 13-60 57V0H25l-1-190h47c2 13-1 29 3 40 6-28 27-53 61-41v41" id="R"/><path fill="#3a414a" d="M185-48c-13 30-37 53-82 52C43 2 14-33 14-96s30-98 90-98c62 0 83 45 84 108H66c0 31 8 55 39 56 18 0 30-7 34-22zm-45-69c5-46-57-63-70-21-2 6-4 13-4 21h74" id="S"/><g id="r"><use transform="matrix(0.14814814814814817,0,0,0.14814814814814817,0,0)" xlink:href="#Q"/><use transform="matrix(0.14814814814814817,0,0,0.14814814814814817,32.44444444444445,0)" xlink:href="#R"/><use transform="matrix(0.14814814814814817,0,0,0.14814814814814817,53.18518518518519,0)" xlink:href="#S"/><use transform="matrix(0.14814814814814817,0,0,0.14814814814814817,82.81481481481482,0)" xlink:href="#S"/></g><path fill="#3a414a" d="M25 0v-261h50V0H25" id="T"/><path fill="#3a414a" d="M25-224v-37h50v37H25zM25 0v-190h50V0H25" id="U"/><path fill="#3a414a" d="M137-138c1-29-70-34-71-4 15 46 118 7 119 86 1 83-164 76-172 9l43-7c4 19 20 25 44 25 33 8 57-30 24-41C81-84 22-81 20-136c-2-80 154-74 161-7" id="V"/><path fill="#3a414a" d="M115-3C79 11 28 4 28-45v-112H4v-33h27l15-45h31v45h36v33H77v99c-1 23 16 31 38 25v30" id="W"/><path fill="#3a414a" d="M35-132v-50h50v50H35zM35 0v-49h50V0H35" id="X"/><g id="s"><use transform="matrix(0.14814814814814817,0,0,0.14814814814814817,0,0)" xlink:href="#T"/><use transform="matrix(0.14814814814814817,0,0,0.14814814814814817,14.814814814814817,0)" xlink:href="#U"/><use transform="matrix(0.14814814814814817,0,0,0.14814814814814817,29.629629629629633,0)" xlink:href="#V"/><use transform="matrix(0.14814814814814817,0,0,0.14814814814814817,59.25925925925927,0)" xlink:href="#W"/><use transform="matrix(0.14814814814814817,0,0,0.14814814814814817,76.8888888888889,0)" xlink:href="#X"/></g><path fill="#3a414a" d="M27 0v-27h64v-190l-56 39v-29l58-41h29v221h61V0H27" id="Y"/><path fill="#3a414a" d="M110-160c48 1 74 30 74 79 0 53-28 85-80 85-65 0-83-55-86-122-5-90 50-162 133-122 14 7 22 21 27 39l-31 6c-5-40-67-38-82-6-9 19-15 44-15 74 11-20 30-34 60-33zm-7 138c34 0 49-23 49-58s-16-56-50-56c-29 0-50 16-49 49 1 36 15 65 50 65" id="Z"/><path fill="#3a414a" d="M33-154v-36h34v36H33zM33 0v-36h34V0H33" id="aa"/><g id="t"><use transform="matrix(0.14814814814814817,0,0,0.14814814814814817,0,0)" xlink:href="#Y"/><use transform="matrix(0.14814814814814817,0,0,0.14814814814814817,29.629629629629633,0)" xlink:href="#Z"/><use transform="matrix(0.14814814814814817,0,0,0.14814814814814817,59.25925925925927,0)" xlink:href="#aa"/></g><path fill="#3a414a" d="M126-127c33 6 58 20 58 59 0 88-139 92-164 29-3-8-5-16-6-25l32-3c6 27 21 44 54 44 32 0 52-15 52-46 0-38-36-46-79-43v-28c39 1 72-4 72-42 0-27-17-43-46-43-28 0-47 15-49 41l-32-3c6-42 35-63 81-64 48-1 79 21 79 65 0 36-21 52-52 59" id="ab"/><path fill="#3a414a" d="M101-251c82-7 93 87 43 132L82-64C71-53 59-42 53-27h129V0H18c2-99 128-94 128-182 0-28-16-43-45-43s-46 15-49 41l-32-3c6-41 34-60 81-64" id="ac"/><g id="u"><use transform="matrix(0.14814814814814817,0,0,0.14814814814814817,0,0)" xlink:href="#ab"/><use transform="matrix(0.14814814814814817,0,0,0.14814814814814817,29.629629629629633,0)" xlink:href="#ac"/><use transform="matrix(0.14814814814814817,0,0,0.14814814814814817,59.25925925925927,0)" xlink:href="#aa"/></g><path fill="#3a414a" d="M155-56V0h-30v-56H8v-25l114-167h33v167h35v25h-35zm-30-156c-27 46-58 90-88 131h88v-131" id="ad"/><g id="v"><use transform="matrix(0.14814814814814817,0,0,0.14814814814814817,0,0)" xlink:href="#Z"/><use transform="matrix(0.14814814814814817,0,0,0.14814814814814817,29.629629629629633,0)" xlink:href="#ad"/><use transform="matrix(0.14814814814814817,0,0,0.14814814814814817,59.25925925925927,0)" xlink:href="#aa"/></g><path fill="#3a414a" d="M134-131c28 9 52 24 51 62-1 50-34 73-85 73S17-19 16-69c0-36 21-54 49-61-75-25-45-126 34-121 46 3 78 18 79 63 0 33-17 51-44 57zm-34-11c31 1 46-15 46-44 0-28-17-43-47-42-29 0-46 13-45 42 1 28 16 44 46 44zm1 122c35 0 51-18 51-52 0-30-18-46-53-46-33 0-51 17-51 47 0 34 19 51 53 51" id="ae"/><g id="w"><use transform="matrix(0.14814814814814817,0,0,0.14814814814814817,0,0)" xlink:href="#Y"/><use transform="matrix(0.14814814814814817,0,0,0.14814814814814817,29.629629629629633,0)" xlink:href="#ac"/><use transform="matrix(0.14814814814814817,0,0,0.14814814814814817,59.25925925925927,0)" xlink:href="#ae"/><use transform="matrix(0.14814814814814817,0,0,0.14814814814814817,88.8888888888889,0)" xlink:href="#aa"/></g><path fill="#3a414a" d="M182-130c37 4 62 22 62 59C244 23 116-4 24 0v-248c84 5 203-23 205 63 0 31-19 50-47 55zM76-148c40-3 101 13 101-30 0-44-60-28-101-31v61zm0 110c48-3 116 14 116-37 0-48-69-32-116-35v72" id="af"/><path fill="#3a414a" d="M220-157c-53 9-28 100-34 157h-49v-107c1-27-5-49-29-50C55-147 81-57 75 0H25l-1-190h47c2 12-1 28 3 38 10-53 101-56 108 0 13-22 24-43 59-42 82 1 51 116 57 194h-49v-107c-1-25-5-48-29-50" id="ag"/><path fill="#3a414a" d="M133-34C117-15 103 5 69 4 32 3 11-16 11-54c-1-60 55-63 116-61 1-26-3-47-28-47-18 1-26 9-28 27l-52-2c7-38 36-58 82-57s74 22 75 68l1 82c-1 14 12 18 25 15v27c-30 8-71 5-69-32zm-48 3c29 0 43-24 42-57-32 0-66-3-65 30 0 17 8 27 23 27" id="ah"/><path fill="#3a414a" d="M135-194c53 0 70 44 70 98 0 56-19 98-73 100-31 1-45-17-59-34 3 33 2 69 2 105H25l-1-265h48c2 10 0 23 3 31 11-24 29-35 60-35zM114-30c33 0 39-31 40-66 0-38-9-64-40-64-56 0-55 130 0 130" id="ai"/><g id="x"><use transform="matrix(0.1111111111111111,0,0,0.1111111111111111,0,0)" xlink:href="#af"/><use transform="matrix(0.1111111111111111,0,0,0.1111111111111111,28.777777777777775,0)" xlink:href="#U"/><use transform="matrix(0.1111111111111111,0,0,0.1111111111111111,39.888888888888886,0)" xlink:href="#W"/><use transform="matrix(0.1111111111111111,0,0,0.1111111111111111,53.11111111111111,0)" xlink:href="#ag"/><use transform="matrix(0.1111111111111111,0,0,0.1111111111111111,88.66666666666666,0)" xlink:href="#ah"/><use transform="matrix(0.1111111111111111,0,0,0.1111111111111111,110.88888888888889,0)" xlink:href="#ai"/><use transform="matrix(0.1111111111111111,0,0,0.1111111111111111,135.22222222222223,0)" xlink:href="#X"/></g></defs></g></svg>